<svg width="135" height="135" viewBox="0 0 135 135" fill="none" xmlns="http://www.w3.org/2000/svg">
<path d="M134.089 67.9559C134.089 104.984 104.072 135 67.044 135C30.0173 135 0 104.984 0 67.9559C0 30.9279 30.0173 0.911881 67.044 0.911881C104.072 0.911881 134.089 30.9279 134.089 67.9559Z" fill="#35208A"/>
<path d="M67.3135 72.5773C65.7055 69.9506 60.6815 65.308 56.0402 64.848C56.5055 57.8706 56.8855 52.1786 57.3535 45.2013C56.2442 45.3453 55.1335 45.4906 54.0242 45.6346H46.0388C44.9295 45.4906 43.8188 45.3453 42.7095 45.2013C43.1762 52.1786 43.5575 57.8706 44.0228 64.848C39.3815 65.308 34.3575 69.9506 32.7495 72.5773C29.3388 78.1493 27.8122 85.048 29.4575 91.452C31.4335 99.1428 38.4162 105.586 46.3508 105.889H53.7122C61.6468 105.586 68.6295 99.1428 70.6055 91.452C72.2522 85.048 70.7228 78.1493 67.3135 72.5773" fill="#FA8D61"/>
<path d="M57.3584 45.0199C56.9798 44.0986 55.0224 43.396 52.3797 43.192C49.7371 42.988 47.2211 42.8639 43.6171 44.0679C43.2237 44.1999 42.7651 44.4346 42.6531 45.0306C42.4984 45.8613 43.1317 46.4999 43.6637 46.7719C46.8451 48.3893 50.2837 48.1026 53.6277 47.7973C54.7544 47.6959 55.9357 47.5653 56.8864 46.628C57.2451 46.276 57.5864 45.5733 57.3584 45.0199Z" fill="#96CBEB"/>
<path d="M45.6013 55.4411C44.2973 52.9971 39.9866 52.9438 37.6693 53.3945C34.4973 54.0091 31.952 56.4185 30.3773 59.1398C26.8733 65.1985 29.9333 73.1345 34.1853 78.0411C35.2227 79.2371 37.048 77.7078 36.3213 76.3905C33.888 71.9878 29.96 66.5638 32.516 61.3385C33.5747 59.1745 35.3613 57.0425 37.756 56.3571C38.8 56.0585 39.9213 56.0011 40.9973 56.1385C42.1906 56.2905 43.0933 56.9585 44.2133 57.2465C45.2746 57.5198 46.1053 56.3851 45.6013 55.4411" fill="#FA8D61"/>
<path d="M55.8493 57.2467C56.912 56.9734 57.768 56.3347 58.8906 56.1667C59.9613 56.0027 61.0893 56.0387 62.1373 56.3147C64.6173 56.9641 66.456 59.1107 67.5453 61.3387C70.1013 66.5641 66.1733 71.9881 63.7399 76.3907C63.0213 77.6947 64.8293 79.2494 65.8773 78.0414C70.1279 73.1347 73.1906 65.1987 69.6853 59.1401C68.1413 56.4707 65.6613 54.0947 62.5666 53.4321C60.2199 52.9294 55.7906 52.9494 54.4613 55.4414C53.9573 56.3854 54.788 57.5201 55.8493 57.2467" fill="#FA8D61"/>
<path d="M32.9524 69.1948C33.2884 70.9641 34.0538 72.9934 35.8191 73.7814C37.9284 74.7228 39.5804 72.4908 41.6164 73.0948C43.4444 73.6361 44.4377 75.5188 46.4284 75.8108C48.6631 76.1401 49.8884 74.4441 51.8497 73.8374C54.1764 73.1214 56.2057 75.2414 58.5031 75.2681C60.8137 75.2948 61.3311 72.8121 63.5124 72.6521C64.9124 72.5494 65.9924 72.2121 66.7017 70.8814C67.2871 69.7801 67.3137 68.4374 66.5377 67.4388C66.3537 67.2014 66.0244 67.5014 66.1444 67.7414C66.8977 69.2628 66.4111 71.4134 64.6111 71.9468C63.8057 72.1868 62.9364 71.9374 62.1497 72.2814C61.6724 72.4894 61.3364 72.8601 61.0004 73.2454C60.2977 74.0548 59.6791 74.6934 58.5031 74.6761C57.5737 74.6628 56.7084 74.3014 55.8657 73.9561C54.3511 73.3388 52.8764 72.7628 51.2751 73.4308C49.3604 74.2268 48.0257 75.8574 45.7417 75.0174C44.3631 74.5108 43.4751 73.2214 42.1244 72.6614C40.8404 72.1294 39.7551 72.6388 38.5417 73.1068C35.3671 74.3321 34.2897 71.5121 33.3737 69.0788C33.2751 68.8174 32.8991 68.9174 32.9524 69.1948" fill="#35208A"/>
<path d="M25.9508 77.8772C24.9321 80.0732 26.5588 83.0332 28.2308 84.5319C30.2908 86.3786 32.6201 86.3372 35.0961 85.4732C35.8921 85.1959 36.3521 84.9012 36.9135 85.5812C37.5628 86.3692 38.0455 87.2732 38.8175 87.9599C40.6121 89.5599 43.1588 90.1972 45.4921 89.5892C46.5561 89.3119 47.5095 88.7386 48.4121 88.1292C49.0748 87.6812 50.0081 86.7972 50.8775 86.9119C51.7641 87.0279 52.6508 87.9252 53.4015 88.3639C54.4521 88.9772 55.5668 89.3386 56.7735 89.4652C59.0495 89.7012 61.3735 88.9146 63.0908 87.4172C63.5095 87.0506 63.8575 86.6226 64.1908 86.1786C64.3921 85.9106 64.6748 85.3039 64.9721 85.1492C65.1375 85.0599 65.6335 85.3252 65.9881 85.4226C66.7135 85.6226 67.4588 85.7706 68.2135 85.7892C70.9135 85.8626 73.5401 84.4226 74.9895 82.1666C76.4068 79.9652 76.8975 76.1452 74.7935 74.2079C73.5535 73.0652 71.4508 73.8492 71.4361 75.5986C71.4241 77.3132 72.1415 78.9532 70.7055 80.3412C69.1721 81.8226 67.5775 81.0186 65.7881 80.7199C63.1908 80.2826 61.9828 81.8106 60.5281 83.6092C59.6508 84.6946 58.2121 85.2306 56.8361 84.9706C55.0121 84.6252 53.7241 82.9519 51.8548 82.5732C49.6975 82.1386 47.8908 83.1159 46.1655 84.2879C44.8615 85.1759 43.3868 85.9279 41.9335 84.8306C40.5961 83.8186 40.1121 82.0959 38.5388 81.2719C37.3908 80.6692 36.0975 80.6386 34.8615 80.9466C34.0041 81.1612 33.0361 81.8186 32.1388 81.7732C29.8961 81.6572 29.8388 78.1932 28.0641 77.3239C27.3721 76.9826 26.3215 77.0772 25.9508 77.8772" fill="#996666"/>
<path d="M27.0866 84.412C27.548 86.2573 28.428 88.24 30.0853 89.3013C31.9373 90.4867 33.4426 89.58 35.3359 89.0933C38.1479 88.3693 38.6786 91.2453 40.52 92.584C41.94 93.616 43.8679 93.8933 45.5106 93.2653C47.6493 92.4453 49.3546 89.988 51.8719 90.924C53.7493 91.6227 55.0173 93.1253 57.1346 93.26C58.7719 93.3627 60.4679 92.8173 61.7119 91.74C62.4733 91.0827 62.8786 90.16 63.592 89.4693C64.8306 88.2693 66.7319 89.5 68.2133 89.536C72.5039 89.6373 75.5679 85.0467 73.6293 81.1667C73.4986 80.904 73.0453 81.088 73.1506 81.3693C73.9493 83.52 73.7133 85.9427 71.948 87.5613C71.052 88.3827 69.8133 88.872 68.6039 88.9293C67.4226 88.9853 66.4119 88.4347 65.2679 88.304C63.5959 88.1133 62.9159 89.424 62.0079 90.5533C60.6653 92.2227 58.4186 93.0027 56.32 92.5427C54.5293 92.1493 53.2986 90.596 51.5266 90.1827C49.9973 89.8267 48.6866 90.604 47.4653 91.432C45.5559 92.7253 43.496 93.6467 41.2826 92.3813C39.7733 91.5173 39.2919 89.708 37.8679 88.784C36.2946 87.7667 34.692 88.8347 33.1133 89.2227C29.7866 90.0427 28.5599 86.6293 27.4626 84.2547C27.3626 84.0373 27.032 84.1933 27.0866 84.412" fill="white"/>
<path d="M28.5482 92.596C29.2468 95.3533 32.3908 97.0132 34.9335 97.66C36.3388 98.0157 37.8335 98.1403 39.2615 97.8455C39.7001 97.7548 40.1375 97.5241 40.5775 97.484C41.7148 97.3799 42.2895 97.7584 43.0122 98.5189C43.6322 99.1693 44.3255 99.6975 45.1535 100.065C46.6935 100.749 48.4561 100.828 50.0401 100.252C52.2068 99.4652 53.9855 97.7439 56.4508 98.1693C58.2708 98.484 59.9121 99.4403 61.8095 99.1908C63.6441 98.948 65.2748 98.2371 66.8361 97.2704C69.9135 95.364 73.2962 92.544 73.7508 88.752C73.7948 88.3853 73.2241 88.392 73.1761 88.752C72.7081 92.2773 69.3921 94.9813 66.5335 96.7532C65.0695 97.6611 63.5175 98.3559 61.7975 98.5933C59.7961 98.8704 58.0495 97.7189 56.1055 97.5215C54.5495 97.3627 53.2015 97.9944 51.8641 98.7105C49.9708 99.7241 48.0868 100.472 45.9388 99.7335C44.9588 99.396 44.1441 98.848 43.4308 98.1001C42.9801 97.6241 42.5561 97.096 41.9068 96.8865C41.1855 96.6532 40.4482 96.9241 39.7575 97.1157C39.0082 97.3251 38.2655 97.4439 37.4868 97.4387C34.0228 97.4095 30.3868 95.6493 28.8041 92.4893C28.7321 92.3427 28.5108 92.4453 28.5482 92.596Z" fill="#35208A"/>
<path d="M103.057 78.1106C102.35 77.9946 101.657 78.0813 100.949 78.024C99.8037 77.9306 98.7864 77.32 98.0264 76.48C96.5304 74.8266 96.2303 72.556 96.3237 70.4066C96.493 66.4866 97.2263 62.6106 97.337 58.6746C97.541 51.408 96.1183 44.084 90.9463 38.6666C85.9623 33.448 79.0063 31.0333 71.969 30.256C63.8437 29.36 55.697 30.988 49.0557 35.8906C46.5944 37.7093 44.2584 40.1746 43.125 43.0666C42.813 43.8613 42.369 45.048 42.8437 45.868C43.2877 46.6333 44.3037 47.0026 45.0957 47.264C47.901 48.1853 51.3223 48.376 54.1783 47.6186C55.0023 47.4 56.173 47.1 56.8544 46.5346C57.0944 46.3346 57.1917 46.0773 57.365 45.8053C57.9357 44.9026 58.6663 44.1346 59.653 43.6933C62.841 42.2693 66.549 44.3226 68.8357 46.4906C71.4997 49.016 73.4863 52.5826 74.3357 56.1493C75.1477 59.5546 74.9383 63.12 74.7077 66.5813C74.417 70.972 73.7143 75.3173 73.137 79.6746C72.5903 83.788 71.9863 88.0706 72.4143 92.2226C72.7357 95.3413 73.8517 98.3974 76.421 100.349C78.785 102.145 82.1077 102.889 84.957 101.9C86.1503 101.486 87.309 100.746 87.9837 99.6548C88.8197 98.3026 88.6303 96.7454 88.2997 95.268C88.0797 94.288 87.8437 93.3106 87.6037 92.3346C89.3557 95.412 92.3997 97.7214 96.1743 96.4214C98.0237 95.7853 99.4317 94.284 99.633 92.296C99.8517 90.1253 98.6917 88.1386 97.2917 86.5026C99.6717 87.512 102.476 86.972 104.181 84.768C105.725 82.7706 105.937 79.0293 103.057 78.1106" fill="#96CBEB"/>
<path d="M52.5652 46.6319C53.8239 41.2879 58.9719 38.2572 64.3133 39.0892C69.7719 39.9426 74.4053 44.0079 77.2133 48.5972C80.1506 53.3945 81.0759 59.0452 81.0279 64.5972C80.9786 70.3639 79.5159 76.0465 79.6226 81.8039C79.7119 86.5625 81.4306 92.0559 86.0186 94.2959C86.3226 94.4452 86.5866 94.0119 86.2866 93.8372C80.7586 90.5892 79.8546 84.0679 80.3692 78.1985C80.8892 72.2399 81.9986 66.4119 81.4626 60.4012C80.9799 54.9732 79.2306 49.7332 75.7186 45.5026C72.4666 41.5852 67.6733 38.3719 62.4226 38.3732C57.8239 38.3746 52.5612 41.6252 52.2372 46.5879C52.2239 46.7759 52.5226 46.8145 52.5652 46.6319" fill="white"/>
<path d="M47.6331 45.6452C49.7065 40.5118 54.1505 36.5945 59.4105 34.9345C65.0718 33.1465 71.3572 34.1825 76.4398 37.1372C81.5012 40.0772 85.2545 44.8972 87.3318 50.3305C89.6398 56.3585 89.3932 62.7345 89.6212 69.0745C89.8132 74.3852 90.1852 82.5985 95.6905 85.3532C96.0172 85.5158 96.3065 85.0345 95.9798 84.8598C93.0598 83.2945 91.8198 80.1185 91.1198 77.0505C90.3185 73.5438 90.2225 69.9305 90.1505 66.3492C90.0252 60.0878 89.7545 53.9372 87.0572 48.1678C82.2678 37.9252 70.5918 30.7852 59.2572 34.3772C53.8145 36.1025 49.2078 40.1598 47.1172 45.5025C46.9918 45.8252 47.5065 45.9585 47.6331 45.6452" fill="white"/>
<path d="M83.0278 51.1603C83.2945 52.3256 83.8479 53.4216 84.1385 54.5909C84.4252 55.7496 84.5919 56.9336 84.6719 58.1229C84.8359 60.5363 84.6532 62.9483 84.3972 65.3483C83.8785 70.2056 83.3105 74.9483 84.0638 79.8189C84.6505 83.6109 85.7279 87.9776 88.7039 90.6469C91.0625 92.7656 94.7985 93.4723 97.3785 91.3643C97.5919 91.1909 97.3079 90.8176 97.0825 90.9803C93.4812 93.5883 89.0999 91.1216 87.1399 87.7349C84.9652 83.9776 84.2918 79.1576 84.2292 74.8896C84.1638 70.4176 85.1039 66.0203 85.2772 61.5629C85.3505 59.7069 85.2812 57.8429 84.9652 56.0096C84.6825 54.3749 84.2679 52.3749 83.1492 51.0896C83.0972 51.0323 83.0118 51.0949 83.0278 51.1603" fill="white"/>
<path d="M93.0386 56.8216C92.5653 58.0496 92.6013 59.5216 92.5693 60.8203C92.536 62.2323 92.568 63.6456 92.6706 65.0549C92.8786 67.8963 93.356 70.7216 94.1026 73.4709C95.1613 77.3683 97.7146 82.5803 102.637 81.6869C102.937 81.6323 102.873 81.1136 102.564 81.1483C96.9533 81.7563 95.0653 75.4683 94.1213 71.1403C93.596 68.7283 93.2786 66.2763 93.164 63.8109C93.1106 62.6483 93.1 61.4856 93.1346 60.3229C93.1693 59.1643 93.3693 57.9709 93.192 56.8216C93.1787 56.7349 93.0626 56.7576 93.0386 56.8216" fill="white"/>
<path d="M77.8065 70.4998C76.5465 73.1372 76.1945 76.3825 75.9759 79.2692C75.7425 82.3345 75.8625 85.4212 76.3239 88.4598C76.9492 92.5772 78.8799 99.6906 84.5425 98.4812C84.8252 98.4197 84.7679 97.9306 84.4745 97.9677C78.2652 98.7521 77.0425 90.6412 76.6132 86.1772C76.3612 83.5558 76.3625 80.9065 76.6185 78.2838C76.8745 75.6598 77.6199 73.1438 77.9692 70.5452C77.9812 70.4585 77.8425 70.4252 77.8065 70.4998Z" fill="white"/>
<path d="M76.6319 55.4105C76.6852 57.2811 77.3279 59.1478 77.4839 61.0265C77.6305 62.7651 77.3185 64.5865 77.5692 66.2931C77.5959 66.4718 77.8452 66.4331 77.8945 66.2931C78.4865 64.5798 78.1972 62.3011 78.0039 60.5305C77.8185 58.8318 77.6345 56.8678 76.7412 55.3811C76.7105 55.3331 76.6305 55.3505 76.6319 55.4105Z" fill="white"/>
<path d="M91.9465 48.5385C92.1011 49.6291 92.3731 50.6905 92.4771 51.7905C92.5678 52.7638 92.4945 53.7371 92.5758 54.7065C92.5958 54.9358 92.9558 55.0238 93.0078 54.7651C93.4051 52.7998 93.0731 50.2358 92.2851 48.3958C92.1958 48.1865 91.9211 48.3518 91.9465 48.5385" fill="white"/>
<path d="M76.3602 42.2534C77.1935 43.1347 78.1308 43.8734 78.8895 44.832C79.7068 45.8627 80.3455 46.9907 80.8455 48.2081C80.9828 48.5427 81.5321 48.3974 81.3948 48.0561C80.4775 45.7801 78.7948 43.1614 76.4855 42.0907C76.3815 42.0441 76.2748 42.1641 76.3602 42.2534" fill="white"/>
<path d="M72.8935 32.8721C74.9562 33.2455 76.9682 33.3868 78.9708 34.0761C80.9082 34.7455 82.7482 35.7161 84.3869 36.9481C87.6682 39.4174 90.0695 42.8894 91.3388 46.7828C91.4548 47.1374 92.0162 46.9868 91.9002 46.6281C90.6295 42.7321 88.2762 39.2548 85.0375 36.7255C81.8535 34.2401 77.0802 32.0628 72.9362 32.5561C72.7735 32.5735 72.6989 32.8348 72.8935 32.8721" fill="white"/>
<path d="M117.548 32.3532C117.551 32.2838 117.527 32.2318 117.484 32.1972C117.088 31.4465 115.651 31.3012 114.931 31.1585C113.755 30.9265 112.561 30.7852 111.373 30.6305C111.177 30.6052 110.984 30.5718 110.788 30.5492C110.709 30.5385 110.573 30.4718 110.588 30.5065C110.423 30.3105 110.317 29.8905 110.228 29.6825C109.735 28.5358 109.261 27.3798 108.76 26.2345C108.505 25.6558 108.247 25.0758 107.972 24.5052C107.803 24.1545 107.607 23.4945 107.217 23.3238C106.351 22.9438 105.744 25.0865 105.512 25.6052C104.96 26.8398 104.444 28.0905 103.908 29.3332C103.795 29.5945 103.607 30.3438 103.372 30.5225C103.259 30.6092 102.447 30.5638 102.24 30.5812C101.712 30.6238 101.184 30.6652 100.655 30.7145C99.7559 30.7985 98.8399 30.8839 97.9705 31.1412C97.4465 31.2959 96.5106 31.5479 96.5919 32.2745C96.6586 32.8692 97.5732 33.4332 97.9839 33.7599C98.6879 34.3199 99.4359 34.8225 100.216 35.2705C100.571 35.4718 101.024 35.6212 101.345 35.8665C101.764 36.1825 101.563 36.5159 101.449 36.9439C101.211 37.8492 100.969 38.7532 100.748 39.6625C100.568 40.4012 100.395 41.1465 100.28 41.8998C100.209 42.3585 100.036 43.0265 100.244 43.4678C100.789 44.6265 102.879 42.5985 103.384 42.2105C104.017 41.7225 104.639 41.2185 105.245 40.6972C105.541 40.4412 105.836 40.1812 106.125 39.9158C106.288 39.7678 106.704 39.1972 106.913 39.1625C107.255 39.1065 108.169 40.2172 108.447 40.4545C109.075 40.9945 109.72 41.5118 110.373 42.0185C111.264 42.7118 112.241 43.6372 113.42 43.7412C114.448 43.8332 113.957 42.2772 113.82 41.6638C113.495 40.2012 113.02 38.7705 112.585 37.3358C112.492 37.0278 112.372 36.7119 112.305 36.3945C112.233 36.0505 112.247 36.0719 112.539 35.8959C113.105 35.5545 113.796 35.3412 114.391 35.0425C115.345 34.5599 117.259 33.6918 117.527 32.4985C117.551 32.4585 117.56 32.4092 117.548 32.3532" fill="#FFF896"/>
<path d="M69.9932 117.809C68.3772 117.667 66.7292 117.686 65.0932 117.704C65.5545 117.246 66.0171 116.789 66.4771 116.329C67.1958 115.607 68.0105 114.913 68.4811 113.998C68.6918 113.588 68.2705 113.182 67.8638 113.382C66.9411 113.834 66.2331 114.643 65.4971 115.349C65.0211 115.807 64.5465 116.269 64.0758 116.731C64.0798 116.065 64.0838 115.4 64.0825 114.736C64.0798 113.715 64.1651 112.646 63.8491 111.667C63.7091 111.233 63.1251 111.244 62.9811 111.667C62.6491 112.64 62.7171 113.715 62.6971 114.736C62.6838 115.396 62.6758 116.057 62.6678 116.719C62.2025 116.245 61.7331 115.774 61.2625 115.303C60.5398 114.584 59.8478 113.769 58.9318 113.3C58.5211 113.089 58.1158 113.509 58.3171 113.916C58.7691 114.837 59.5771 115.548 60.2825 116.282C60.7411 116.76 61.2025 117.232 61.6651 117.705C60.9998 117.7 60.3345 117.696 59.6691 117.698C58.6491 117.7 57.5811 117.613 56.5998 117.931C56.1678 118.069 56.1785 118.655 56.5998 118.798C57.5745 119.131 58.6491 119.061 59.6691 119.082C60.3171 119.096 60.9625 119.105 61.6091 119.11C60.4158 120.239 59.2131 121.372 58.1478 122.6C57.5745 123.257 58.4358 124.107 59.0971 123.551C60.3291 122.517 61.4718 121.351 62.6065 120.191C62.5598 121.817 62.5132 123.452 62.6265 125.058C62.6865 125.929 63.8958 125.92 63.9718 125.058C64.1105 123.458 64.0945 121.827 64.0771 120.204C65.1931 121.386 66.3171 122.576 67.5331 123.632C68.1918 124.205 69.0398 123.343 68.4838 122.681C67.4518 121.449 66.2852 120.308 65.1252 119.173C66.7518 119.22 68.3865 119.267 69.9932 119.155C70.8625 119.093 70.8545 117.886 69.9932 117.809" fill="white"/>
<path d="M40.4108 17.8813C40.8415 17.8813 41.2961 17.6934 41.6001 17.388C41.8921 17.096 42.1121 16.616 42.0948 16.1973C42.0535 15.284 41.3548 14.5134 40.4108 14.5134C39.9788 14.5134 39.5255 14.7014 39.2188 15.0067C38.9282 15.2987 38.7068 15.7773 38.7268 16.1973C38.7668 17.1107 39.4668 17.8813 40.4108 17.8813Z" fill="white"/>
<path d="M69.4972 25.5762C71.6159 25.5762 71.6199 22.2842 69.4972 22.2842C67.3786 22.2842 67.3759 25.5762 69.4972 25.5762Z" fill="white"/>
<path d="M85.816 17.3267C88.0973 17.3267 88.1013 13.7773 85.816 13.7773C83.5347 13.7773 83.5307 17.3267 85.816 17.3267Z" fill="white"/>
<path d="M108.455 57.9003C107.963 58.3976 107.775 59.1003 107.967 59.7763C108.151 60.4203 108.695 60.9176 109.333 61.091C109.637 61.1723 109.84 61.1683 110.128 61.1296C110.587 61.0683 110.955 60.8536 111.235 60.4923C111.556 60.0763 111.701 59.5403 111.545 59.0216C111.451 58.7056 111.223 58.3696 110.924 58.2123C110.621 58.0523 110.211 57.9443 109.879 58.075C109.865 58.0816 109.849 58.087 109.833 58.0896C109.957 58.0723 110.083 58.0563 110.207 58.0403C110.181 58.043 110.16 58.043 110.136 58.039C110.265 58.0563 110.395 58.0736 110.525 58.0923C110.509 58.0883 110.493 58.0843 110.48 58.0776C110.599 58.1283 110.719 58.179 110.84 58.2296C110.653 58.1456 110.469 58.0576 110.276 57.9923C110.404 58.047 110.533 58.1003 110.661 58.155C110.62 58.1363 110.583 58.115 110.547 58.0883C110.656 58.1723 110.767 58.259 110.877 58.343C110.852 58.3216 110.832 58.3003 110.812 58.2736C110.897 58.3856 110.984 58.4963 111.069 58.6083C111.057 58.5896 111.047 58.5709 111.04 58.5523C111.096 58.6843 111.151 58.8163 111.207 58.9483C111.199 58.9296 111.193 58.9083 111.191 58.8883C111.209 59.035 111.229 59.1829 111.251 59.3323C111.247 59.3096 111.247 59.2869 111.249 59.2656C111.229 59.4149 111.208 59.563 111.189 59.7136C111.217 59.551 111.255 59.3603 111.256 59.1963C111.236 59.3443 111.215 59.495 111.196 59.643C111.201 59.6096 111.207 59.5816 111.221 59.5496C111.165 59.6816 111.108 59.815 111.052 59.947C111.057 59.9376 111.064 59.9283 111.069 59.9176C111.469 59.1856 111.304 58.283 110.64 57.7723C109.993 57.2723 109.043 57.3083 108.455 57.9003" fill="white"/>
<path d="M121.998 81.2998C122.69 81.2998 123.352 80.6918 123.32 79.9785C123.288 79.2625 122.74 78.6558 121.998 78.6558C121.308 78.6558 120.645 79.2638 120.676 79.9785C120.708 80.6945 121.257 81.2998 121.998 81.2998Z" fill="white"/>
<path d="M110.073 99.3212C110.146 99.3212 110.218 99.3196 110.292 99.3196C112.357 99.3035 112.361 96.1251 110.292 96.1104C110.218 96.1104 110.146 96.1091 110.073 96.1091C108.005 96.0931 108.001 99.3358 110.073 99.3212" fill="white"/>
<path d="M92.5306 123.482C92.5186 123.444 92.5092 123.403 92.4972 123.364C92.3599 122.892 92.0452 122.525 91.5959 122.335C91.4932 122.292 91.4119 122.256 91.3092 122.229C90.8426 122.111 90.2826 122.132 89.8679 122.4C89.3359 122.743 88.9692 123.32 88.9692 123.965C88.9692 124.589 89.3279 125.215 89.8679 125.529C90.4999 125.9 91.3092 125.831 91.8799 125.389C92.4506 124.947 92.7226 124.191 92.5306 123.482Z" fill="white"/>
<path d="M43.2985 113.756C43.2958 113.746 43.2932 113.736 43.2905 113.725C43.1545 113.18 42.6811 112.707 42.1358 112.571C42.1251 112.568 42.1158 112.565 42.1051 112.563C41.3705 112.38 40.5665 112.683 40.1771 113.348C39.8091 113.979 39.8905 114.908 40.4438 115.418C40.9571 115.888 41.6625 116.044 42.3105 115.771C43.0985 115.437 43.5065 114.591 43.2985 113.756Z" fill="white"/>
<path d="M15.2238 86.7402C15.6851 86.7402 16.1678 86.5402 16.4931 86.2149C16.8051 85.9029 17.0398 85.3909 17.0198 84.9442C16.9984 84.4802 16.8464 83.9989 16.4931 83.6749C16.1424 83.3522 15.7104 83.1496 15.2238 83.1496C14.7624 83.1496 14.2798 83.3482 13.9544 83.6749C13.6438 83.9869 13.4077 84.4976 13.4291 84.9442C13.4491 85.4082 13.6011 85.8896 13.9544 86.2149C14.3064 86.5376 14.7371 86.7402 15.2238 86.7402Z" fill="white"/>
<path d="M24.8906 68.4055C24.8906 68.3895 24.8919 68.3761 24.8919 68.3601C24.9279 67.5228 24.1319 66.7281 23.2945 66.7628C23.2785 66.7628 23.2639 66.7641 23.2506 66.7641C22.5892 66.7908 22.0092 67.1588 21.7506 67.7735C21.5052 68.3548 21.6052 69.1201 22.0906 69.5655C22.5159 69.9561 23.1159 70.1441 23.6866 69.9881C24.4052 69.7881 24.8612 69.1295 24.8906 68.4055" fill="white"/>
<path d="M16.4984 37.7972C16.6998 37.9039 16.9038 37.9906 17.1251 38.0386C17.4371 38.1052 17.7318 38.0932 18.0291 37.9679C18.2784 37.8626 18.5798 37.6612 18.6918 37.3999C18.7918 37.1692 18.8985 36.9666 18.8865 36.7012C18.8745 36.4386 18.7971 36.2439 18.6918 35.9999C18.6198 35.9066 18.5465 35.8132 18.4758 35.7212C18.3491 35.5852 18.2011 35.4892 18.0291 35.4332C17.7318 35.3079 17.4438 35.2946 17.1251 35.3639C16.9038 35.4106 16.6984 35.4986 16.4984 35.6039C15.6704 36.0426 15.6704 37.3586 16.4984 37.7972Z" fill="white"/>
<path d="M37.5157 47.9199C37.5343 47.9159 37.5503 47.9119 37.569 47.9079C38.5476 47.6772 38.8343 46.3812 38.1517 45.6985C37.469 45.0159 36.1717 45.3025 35.9423 46.2812C35.9383 46.2999 35.933 46.3172 35.929 46.3345C35.7023 47.3092 36.541 48.1492 37.5157 47.9199" fill="white"/>
<path d="M44.3133 30.7842C46.7413 30.7842 46.7453 27.0095 44.3133 27.0095C41.8826 27.0095 41.8786 30.7842 44.3133 30.7842Z" fill="#F7B9E7"/>
<path d="M11.3253 59.0881C11.6187 58.9894 11.896 58.8667 12.1613 58.7121C13.24 58.0787 13.24 56.4721 12.1613 55.8387C11.896 55.6827 11.6187 55.5614 11.3253 55.4614C10.7213 55.2561 9.92396 55.4801 9.49596 55.9454C9.1573 56.3134 8.94531 56.7667 8.94531 57.2761C8.94531 57.7574 9.15463 58.2641 9.49596 58.6054C9.94796 59.0561 10.7013 59.3014 11.3253 59.0881" fill="#F7B9E7"/>
<path d="M90.377 110.96C90.485 110.677 90.4797 110.361 90.401 110.072C90.377 109.986 90.3077 109.844 90.2864 109.796C90.0224 109.169 89.3624 108.667 88.6531 108.697C88.0304 108.725 87.4304 109.033 87.109 109.582C86.7944 110.121 86.7944 110.848 87.109 111.388C87.473 112.008 88.1891 112.334 88.8904 112.24C89.2117 112.197 89.4797 112.088 89.737 111.889C90.0637 111.636 90.2277 111.349 90.377 110.96" fill="#F7B9E7"/>
<path d="M26.8372 112.943C26.9078 112.929 26.9772 112.916 27.0452 112.901C28.7358 112.577 28.7372 109.812 27.0452 109.487C26.9772 109.474 26.9078 109.46 26.8372 109.447C23.9158 108.886 23.8972 113.507 26.8372 112.943Z" fill="#F7B9E7"/>
<path d="M124.915 55.3025C124.961 55.1652 125.007 55.0265 125.052 54.8892C125.452 53.6892 124.164 52.4012 122.967 52.8012C122.828 52.8479 122.691 52.8932 122.552 52.9412C121.907 53.1559 121.396 53.6092 121.211 54.2812C121.029 54.9425 121.22 55.6665 121.705 56.1505C122.189 56.6345 122.912 56.8265 123.573 56.6439C124.245 56.4585 124.7 55.9479 124.915 55.3025" fill="#F7B9E7"/>
</svg>
