<svg width="135" height="135" viewBox="0 0 135 135" fill="none" xmlns="http://www.w3.org/2000/svg">
<path d="M134.089 67.9547C134.089 104.983 104.073 135 67.0445 135C30.0172 135 0 104.983 0 67.9547C0 30.928 30.0172 0.91067 67.0445 0.91067C104.073 0.91067 134.089 30.928 134.089 67.9547Z" fill="#35208A"/>
<path d="M103.058 57.7042C103.055 57.6855 103.05 57.6682 103.047 57.6495C103.042 57.5602 103.015 57.4669 102.966 57.3709C102.03 55.5749 99.2807 55.2775 97.4633 55.1109C95.2287 54.9042 92.9487 55.2269 90.8913 56.1375C88.778 57.0735 87.2393 58.5188 85.8553 60.3295C84.874 61.6148 83.87 63.1509 84.3127 64.8695C85.3713 68.9882 92.0873 68.3122 94.9607 67.2149C98.8273 65.7402 103.454 62.3802 103.058 57.7042" fill="#FFB07F"/>
<path d="M99.4595 59.9283C99.3435 59.5243 98.9129 59.3097 98.5169 59.1683C96.7662 58.5403 94.8209 58.4083 93.0302 58.915C91.2395 59.4203 89.6209 60.5857 88.6755 62.187C88.0422 62.6683 87.5795 64.2163 88.0009 64.891C88.4195 65.567 89.1835 65.9563 89.9529 66.1616C92.6755 66.8923 95.6009 65.647 97.7155 63.7803C98.1782 63.371 98.6209 62.9243 98.9102 62.3777C99.2035 61.8257 99.3235 61.199 99.4395 60.5843C99.4809 60.367 99.5209 60.1403 99.4595 59.9283" fill="white"/>
<path d="M48.2338 60.3296C46.9124 58.5909 45.4417 57.1843 43.4377 56.2483C41.3177 55.2589 38.9524 54.8923 36.6258 55.1109C34.8098 55.2803 32.0614 55.5709 31.1223 57.3709C31.0728 57.4656 31.0484 57.5589 31.0431 57.6496C31.0406 57.6683 31.0338 57.6856 31.0327 57.7043C30.6431 62.2856 35.0927 65.6003 38.8684 67.1163C41.7698 68.2789 48.6884 69.1003 49.7778 64.8696C50.2191 63.1509 49.2124 61.6176 48.2338 60.3296" fill="#FFB07F"/>
<path d="M34.6303 59.9283C34.7448 59.5243 35.1771 59.3097 35.573 59.1683C37.3246 58.5403 39.2686 58.4083 41.0592 58.915C42.8486 59.4203 44.4672 60.5857 45.4139 62.187C46.0486 62.6683 46.5099 64.2163 46.0899 64.891C45.6699 65.567 44.9059 65.9563 44.1379 66.1616C41.4139 66.8923 38.4899 65.647 36.3752 63.7803C35.9115 63.371 35.4688 62.9243 35.1798 62.3777C34.8871 61.8257 34.7672 61.199 34.6511 60.5843C34.6095 60.367 34.5694 60.1403 34.6303 59.9283" fill="white"/>
<path d="M88.3473 54.8256C87.246 53.3256 85.606 52.3136 83.9207 51.5256C78.0967 48.8016 71.582 48.8536 65.306 49.3056C59.9207 49.6936 53.7487 49.419 49.19 52.787C43.99 56.631 42.8513 63.8309 44.3513 69.7643C45.3167 73.5776 47.126 77.1136 48.794 80.6749C52.1607 87.8616 53.446 99.1376 62.0527 101.488C64.358 102.118 66.802 102.012 69.1727 101.706C70.874 101.484 72.59 101.152 74.11 100.355C78.334 98.1403 79.7233 91.6016 81.306 87.5309C83.4727 81.9549 87.91 76.2843 89.2167 70.4389C90.274 65.7029 91.4607 59.0603 88.3473 54.8256Z" fill="#FFB07F"/>
<path d="M75.8445 98.9749C77.5645 96.9763 78.1752 94.0816 77.5912 91.2243C76.5645 86.2016 71.4579 84.4323 66.8525 84.6949C62.6059 84.9349 57.8672 86.6643 56.6179 91.1629C55.6245 94.7309 57.2192 99.6869 60.8792 101.11C62.0485 101.563 63.3112 101.711 64.5619 101.798C67.0579 101.972 69.5939 101.92 72.0192 101.308C73.6192 100.903 74.8992 100.075 75.8445 98.9749Z" fill="white"/>
<path d="M83.7941 75.0483C85.2568 75.0483 86.6568 73.7617 86.5888 72.2523C86.5208 70.7377 85.3608 69.4577 83.7941 69.4577C82.3328 69.4577 80.9314 70.743 80.9994 72.2523C81.0661 73.767 82.2274 75.0483 83.7941 75.0483Z" fill="#35208A"/>
<path d="M50.2956 75.0483C51.7582 75.0483 53.1596 73.7617 53.0916 72.2523C53.0236 70.7377 51.8636 69.4577 50.2956 69.4577C48.8342 69.4577 47.4329 70.743 47.5009 72.2523C47.5676 73.767 48.7302 75.0483 50.2956 75.0483Z" fill="#35208A"/>
<path d="M62.8235 93.7976C63.1981 93.7362 63.6115 93.8923 63.8982 94.1243C64.0728 94.2656 64.1848 94.4283 64.2901 94.6243C64.4848 94.9843 64.6715 95.1616 65.0635 95.3056C65.4248 95.4376 65.8568 95.2162 66.0462 94.9056C66.6048 93.9829 65.6448 92.9362 64.9088 92.4456C64.1355 91.9282 63.2222 91.7882 62.3182 91.9616C61.8128 92.0589 61.5235 92.6642 61.6528 93.1322C61.8008 93.6722 62.3141 93.8802 62.8235 93.7976" fill="#35208A"/>
<path d="M71.7728 91.9617C70.8688 91.7884 69.9541 91.9284 69.1795 92.4457C68.4448 92.9364 67.4861 93.983 68.0448 94.9057C68.2315 95.2124 68.6661 95.4377 69.0275 95.3057C69.3715 95.179 69.5848 95.0071 69.7661 94.6911C69.8928 94.4697 69.9888 94.2897 70.1928 94.1244C70.4795 93.8924 70.8928 93.7364 71.2661 93.7977C71.7728 93.8804 72.2901 93.6657 72.4381 93.1324C72.5648 92.667 72.2808 92.059 71.7728 91.9617" fill="#35208A"/>
<path d="M61.4889 97.1908C64.9169 99.3388 69.4915 99.1895 72.6769 96.6428C73.0089 96.3775 72.5715 95.8108 72.2222 96.0521C69.0635 98.2295 65.2115 98.5281 61.8689 96.5388C61.4502 96.2895 61.0769 96.9335 61.4889 97.1908Z" fill="#35208A"/>
<path d="M85.1724 85.1216C82.7751 85.1216 80.4791 83.0136 80.5898 80.5389C80.7004 78.0562 82.6031 75.9576 85.1724 75.9576C87.5684 75.9576 89.8645 78.0656 89.7538 80.5389C89.6431 83.0216 87.7404 85.1216 85.1724 85.1216Z" fill="#E0435B"/>
<path d="M48.8219 85.1216C46.4245 85.1216 44.1285 83.0136 44.2392 80.5389C44.3499 78.0562 46.2525 75.9576 48.8219 75.9576C51.2192 75.9576 53.5139 78.0656 53.4032 80.5389C53.2925 83.0216 51.3912 85.1216 48.8219 85.1216Z" fill="#E0435B"/>
<path d="M114.183 53.6616C114.181 53.647 114.174 53.6363 114.171 53.623C114.17 53.6057 114.175 53.5923 114.173 53.575C112.727 44.6043 105.855 37.2776 97.1394 34.9696C93.0127 33.8763 88.406 33.4763 84.2794 34.7763C80.522 35.959 77.298 38.8096 75.2474 42.1283C73.7474 44.5563 72.622 47.5683 72.6434 50.4603C72.666 53.5163 75.0567 55.971 77.4607 57.5416C79.9607 59.1776 83.3407 60.4643 86.3567 59.7736C87.9074 59.4176 88.4714 58.431 89.374 57.1923C90.926 55.0617 92.418 53.059 95.1874 52.5923C98.5287 52.0297 101.107 54.815 102.131 57.743C103.221 60.851 102.974 64.5003 101.43 67.4003C99.0887 71.799 92.9287 73.0256 88.4754 71.6843C88.1914 71.599 87.9767 71.9216 88.1074 72.1643C91.3674 78.3016 101.173 77.927 105.971 73.979C111.746 69.2296 115.141 61.1003 114.183 53.6616" fill="#96CBEB"/>
<path d="M94.0073 72.6469C94.2366 73.1643 94.3566 73.7016 94.2139 74.2603C94.1539 74.4883 94.0566 74.7136 93.9193 74.9069C93.7633 75.1283 93.5886 75.2269 93.5446 75.5003C93.5153 75.6736 93.6153 75.8496 93.8099 75.8496C94.4846 75.8469 94.8619 74.8589 94.9659 74.2989C95.1006 73.5816 94.9699 72.8363 94.4886 72.2763C94.2433 71.9923 93.8779 72.3549 94.0073 72.6469" fill="#35208A"/>
<path d="M97.5805 71.3883C97.4511 71.9803 98.2831 72.5109 98.5378 73.0203C99.0244 73.9936 99.0578 75.0803 98.7111 76.0989C98.5525 76.5656 99.2858 76.7629 99.4458 76.3016C100.056 74.5389 99.5485 72.4483 98.0471 71.2909C97.9511 71.2176 97.8098 71.2443 97.7111 71.2909C97.6711 71.3123 97.5938 71.3323 97.5805 71.3883Z" fill="#35208A"/>
<path d="M100.383 70.0188C101.333 70.4282 102.183 70.8628 102.878 71.6548C103.597 72.4735 103.733 73.3909 104.187 74.3269C104.342 74.6429 104.746 74.4428 104.781 74.1668C104.902 73.1508 104.135 71.9495 103.501 71.2082C102.77 70.3602 101.749 69.6295 100.631 69.4308C100.303 69.3722 100.023 69.8628 100.383 70.0188" fill="#35208A"/>
<path d="M102.051 67.239C103.372 67.4483 104.704 67.3217 105.974 67.839C106.627 68.1043 107.212 68.4896 107.635 69.0643C107.995 69.5536 108.092 70.1137 108.396 70.6243C108.503 70.8043 108.764 70.759 108.827 70.567C109.224 69.3563 107.986 68.0763 107.03 67.495C105.616 66.635 103.655 66.4523 102.051 66.6976C101.782 66.739 101.783 67.1977 102.051 67.239" fill="#35208A"/>
<path d="M103.172 63.6843C106.611 62.6723 109.022 63.3603 111.524 65.891C111.786 66.1536 112.183 65.8203 112.023 65.5056C110.523 62.5723 105.679 61.3656 102.951 63.1616C102.69 63.3336 102.847 63.779 103.172 63.6843" fill="#35208A"/>
<path d="M103.211 60.9282C103.798 60.9309 103.979 60.7629 104.506 60.4802C105.49 59.9482 106.515 59.6122 107.619 59.4402C109.655 59.1215 111.253 59.7922 113.198 60.0655C113.402 60.0962 113.639 59.8375 113.431 59.6669C111.938 58.4415 109.389 58.3962 107.565 58.6802C106.225 58.8882 103.657 59.4295 103.173 60.8775C103.165 60.9015 103.186 60.9269 103.211 60.9282" fill="#35208A"/>
<path d="M102.423 56.8082C103.65 55.3895 104.565 53.9469 106.33 53.0962C108.471 52.0629 110.779 52.0349 113.002 52.8069C113.465 52.9682 113.665 52.2322 113.203 52.0722C109.329 50.7322 103.307 52.0829 102.037 56.5842C101.977 56.7962 102.269 56.9882 102.423 56.8082" fill="#35208A"/>
<path d="M99.6301 53.2802C101.157 51.9095 101.878 49.6415 103.322 48.1121C104.077 47.3095 104.935 46.6015 105.899 46.0628C106.997 45.4495 108.063 45.3108 109.205 44.8828C109.465 44.7855 109.405 44.4535 109.142 44.4188C107.005 44.1375 104.67 45.7601 103.213 47.1748C101.711 48.6321 99.6795 51.0681 99.4435 53.2028C99.4328 53.3041 99.5661 53.3375 99.6301 53.2802" fill="#35208A"/>
<path d="M96.7927 51.9895C97.3807 51.2348 97.4713 50.4201 97.718 49.4948C98.114 48.0014 98.546 46.5321 99.1967 45.1241C100.277 42.7895 101.805 40.7348 103.657 38.9588C104.002 38.6268 103.477 38.1028 103.133 38.4334C101.235 40.2561 99.67 42.3588 98.5607 44.7521C98.0273 45.9041 97.6167 47.0961 97.278 48.3201C96.9527 49.4974 96.434 50.7294 96.638 51.9481C96.6487 52.0134 96.7513 52.0428 96.7927 51.9895" fill="#35208A"/>
<path d="M93.9701 52.4269C94.3168 51.2469 94.0275 49.9629 93.9248 48.7522C93.8008 47.2922 93.6955 45.8295 93.6568 44.3655C93.5741 41.3109 93.8168 38.2962 94.7688 35.3788C94.9168 34.9255 94.2075 34.7349 94.0568 35.1829C93.0968 38.0469 92.8528 41.0442 92.9208 44.0508C92.9541 45.6215 93.0741 47.1869 93.2181 48.7522C93.3288 49.9682 93.3035 51.3375 93.8661 52.4415C93.8901 52.4855 93.9568 52.4722 93.9701 52.4269" fill="#35208A"/>
<path d="M92.6807 52.5322C90.0727 50.7242 88.7007 47.9162 87.5114 45.0215C86.2594 41.9722 85.5981 38.6868 86.0447 35.3922C86.1087 34.9215 85.3914 34.7135 85.3194 35.1922C84.7794 38.8455 85.5954 42.4708 87.0381 45.8255C87.9474 47.9362 89.7554 52.8268 92.5714 52.9348C92.8021 52.9442 92.8461 52.6468 92.6807 52.5322Z" fill="#35208A"/>
<path d="M91.0113 54.2976C87.4806 54.2469 84.3113 50.7509 82.3553 48.0616C80.454 45.4496 79.326 42.511 79.1193 39.283C79.09 38.8123 78.37 38.803 78.382 39.283C78.478 42.935 80.0126 46.3376 82.2566 49.1749C84.21 51.6416 87.598 55.4296 91.0953 54.9123C91.4526 54.859 91.3526 54.3029 91.0113 54.2976" fill="#35208A"/>
<path d="M89.1738 56.6121C87.3978 56.7054 85.8418 56.8961 84.0938 56.3668C82.2471 55.8081 80.5485 54.7628 79.0525 53.5628C77.8271 52.5788 76.8018 51.4161 75.9724 50.0787C75.1378 48.7334 74.7631 47.2374 74.0738 45.8414C73.9591 45.6081 73.5898 45.7241 73.5938 45.9721C73.6591 49.2828 76.5644 52.6521 79.0724 54.5361C81.7791 56.5654 85.9111 58.5934 89.2924 57.0521C89.5071 56.9548 89.3978 56.6001 89.1738 56.6121" fill="#35208A"/>
<path d="M60.1342 44.647C58.6169 41.0216 55.8956 37.907 52.4862 35.9416C48.8862 33.8683 44.4635 33.6897 40.4422 34.2603C30.2155 35.7097 21.5993 43.1336 19.9186 53.575C19.916 53.5923 19.9197 53.6057 19.9197 53.623C19.916 53.6363 19.9082 53.647 19.9066 53.6616C18.9498 61.1003 22.3441 69.2296 28.1191 73.979C32.9186 77.927 42.7236 78.3016 45.9836 72.1643C46.1129 71.9216 45.8982 71.599 45.6156 71.6843C41.6716 72.8723 36.5356 72.0643 33.6853 68.8897C29.9968 64.7803 30.5369 56.8536 34.9978 53.511C37.2196 51.8456 40.4409 52.4043 42.3729 54.287C43.8395 55.7137 44.6595 57.9203 46.2582 59.167C48.3862 60.8216 52.1262 59.747 54.2955 58.799C57.0409 57.599 59.9116 55.503 61.0356 52.6123C62.0076 50.1123 61.1222 47.0043 60.1342 44.647" fill="#96CBEB"/>
<path d="M39.6019 72.2763C39.1192 72.8363 38.9899 73.5816 39.1219 74.2989C39.2285 74.8643 39.6045 75.8469 40.2805 75.8496C40.4739 75.8496 40.5725 75.6736 40.5459 75.5003C40.5085 75.2696 40.3832 75.1723 40.2405 74.9949C40.0672 74.7789 39.9459 74.5296 39.8765 74.2603C39.7325 73.703 39.8525 73.1629 40.0819 72.6469C40.2112 72.3576 39.8485 71.9896 39.6019 72.2763Z" fill="#35208A"/>
<path d="M36.466 71.3335C36.438 71.3202 36.4073 71.3056 36.378 71.2909C36.2806 71.2442 36.1393 71.2176 36.0433 71.2909C34.5418 72.4482 34.034 74.5375 34.6449 76.3015C34.8038 76.7615 35.5381 76.5669 35.3788 76.0989C34.9872 74.9455 35.0929 73.7122 35.7517 72.6722C35.7933 72.6055 36.8873 71.5362 36.466 71.3335Z" fill="#35208A"/>
<path d="M33.4584 69.4308C32.3412 69.6295 31.3194 70.3602 30.5896 71.2082C29.9506 71.9535 29.1876 73.1468 29.3099 74.1668C29.3438 74.4428 29.7475 74.6429 29.9011 74.3269C30.3568 73.3882 30.4896 72.4788 31.212 71.6548C31.9027 70.8655 32.7595 70.4268 33.7058 70.0188C34.0642 69.8642 33.7907 69.3722 33.4584 69.4308Z" fill="#35208A"/>
<path d="M32.039 66.6976C30.439 66.4536 28.4671 66.6296 27.0598 67.495C26.1057 68.0816 24.8646 69.3536 25.263 70.567C25.3256 70.759 25.5875 70.8043 25.6942 70.6243C25.9417 70.207 26.0078 69.7363 26.2604 69.319C26.6813 68.6243 27.3765 68.1363 28.1146 67.839C29.3828 67.3257 30.7171 67.4483 32.039 67.239C32.3073 67.1977 32.3089 66.739 32.039 66.6976Z" fill="#35208A"/>
<path d="M31.1382 63.1616C28.4091 61.3656 23.5669 62.5723 22.0669 65.5056C21.9065 65.8176 22.3023 66.1563 22.5654 65.891C25.0721 63.3563 27.4887 62.675 30.9185 63.6843C31.2387 63.779 31.4029 63.3349 31.1382 63.1616" fill="#35208A"/>
<path d="M30.9167 60.8776C30.4313 59.4242 27.8724 58.8882 26.5235 58.6802C24.6995 58.3989 22.1527 58.4415 20.6589 59.6669C20.4505 59.8375 20.6876 60.0962 20.8923 60.0655C22.8308 59.7922 24.4376 59.1175 26.4713 59.4402C27.4756 59.5989 28.4443 59.8896 29.3532 60.3522C29.9391 60.6509 30.2224 60.9309 30.8787 60.9282C30.9037 60.9269 30.9261 60.9016 30.9167 60.8776Z" fill="#35208A"/>
<path d="M32.0521 56.5843C30.7813 52.0816 24.7614 50.7323 20.887 52.0723C20.4261 52.2323 20.6239 52.9683 21.0885 52.807C23.2917 52.0416 25.6379 52.0483 27.7594 53.0963C29.5302 53.9696 30.4281 55.3763 31.6666 56.8083C31.8203 56.987 32.1119 56.7963 32.0521 56.5843" fill="#35208A"/>
<path d="M34.6461 53.2028C34.4081 51.0588 32.3789 48.6308 30.8767 47.1748C29.4195 45.7601 27.0835 44.1388 24.9482 44.4188C24.6867 44.4535 24.6242 44.7842 24.8841 44.8828C27.1539 45.7322 29.0185 46.2561 30.7685 48.1121C32.2122 49.6415 32.9325 51.9095 34.4601 53.2802C34.5226 53.3375 34.6581 53.3041 34.6461 53.2028" fill="#35208A"/>
<path d="M37.4525 51.9481C37.6405 50.8214 37.1952 49.7388 36.9005 48.6468C36.5405 47.3108 36.1112 46.0081 35.5287 44.7521C34.4209 42.3588 32.8543 40.2561 30.9573 38.4334C30.6136 38.1028 30.0876 38.6268 30.4323 38.9588C32.2855 40.7348 33.8141 42.7895 34.8932 45.1241C35.4964 46.4281 35.9141 47.7841 36.2859 49.1681C36.5579 50.1828 36.6512 51.1588 37.2952 51.9895C37.3379 52.0428 37.4419 52.0134 37.4525 51.9481" fill="#35208A"/>
<path d="M40.2233 52.4415C40.7859 51.3375 40.7619 49.9682 40.8726 48.7522C41.0153 47.1869 41.134 45.6215 41.17 44.0508C41.2353 41.0442 40.9926 38.0469 40.0326 35.1829C39.8833 34.7349 39.1739 34.9255 39.3219 35.3788C40.2739 38.2948 40.514 41.3109 40.434 44.3655C40.3953 45.8295 40.2886 47.2922 40.166 48.7522C40.0633 49.9642 39.7726 51.2442 40.1193 52.4269C40.1326 52.4722 40.2006 52.4855 40.2233 52.4415" fill="#35208A"/>
<path d="M41.5168 52.9348C44.3315 52.8268 46.1435 47.9362 47.0515 45.8255C48.4955 42.4695 49.3102 38.8455 48.7702 35.1922C48.6995 34.7135 47.9822 34.9202 48.0462 35.3922C48.4915 38.6868 47.8302 41.9722 46.5782 45.0215C45.3902 47.9162 44.0168 50.7242 41.4075 52.5322C41.2435 52.6468 41.2875 52.9442 41.5168 52.9348Z" fill="#35208A"/>
<path d="M42.9954 54.9123C46.4954 55.4296 49.8794 51.6443 51.8341 49.1749C54.0768 46.3363 55.6128 42.9349 55.7074 39.2829C55.7208 38.8043 54.9994 38.8109 54.9688 39.2829C54.7648 42.5109 53.6354 45.4496 51.7341 48.0616C49.7781 50.7509 46.6088 54.2469 43.0781 54.2976C42.7408 54.3029 42.6341 54.8589 42.9954 54.9123" fill="#35208A"/>
<path d="M44.7964 57.0522C48.1764 58.5922 52.3111 56.5669 55.0151 54.5362C57.5231 52.6522 60.4298 49.2816 60.4951 45.9722C60.5004 45.7256 60.1298 45.6082 60.0138 45.8416C59.3258 47.2376 58.9511 48.7335 58.1178 50.0789C57.2871 51.4162 56.2631 52.5789 55.0378 53.5629C53.5404 54.7629 51.8418 55.8082 49.9964 56.3669C48.2458 56.8962 46.6924 56.7056 44.9165 56.6122C44.6911 56.6002 44.5818 56.9536 44.7964 57.0522" fill="#35208A"/>
<path d="M59.4794 57.4603C58.6448 58.5243 59.0048 60.2483 59.6248 61.3443C60.2941 62.5243 61.5568 63.4976 62.9221 63.6309C63.3301 63.6696 63.3301 63.1029 63.0114 62.9736C61.8914 62.5203 60.9008 62.0603 60.2488 60.9803C59.5608 59.8403 59.7714 58.7416 59.6074 57.5136C59.5994 57.4589 59.5248 57.4016 59.4794 57.4603" fill="#35208A"/>
<path d="M63.1875 57.659C62.9275 59.3576 64.5448 61.2963 65.7262 62.3603C67.0035 63.5136 68.6675 64.4203 70.3568 63.651C70.7195 63.4856 70.4622 62.8763 70.0862 63.0056C68.3008 63.6216 66.6128 62.3336 65.4888 61.0483C64.5808 60.0096 64.2102 58.6163 63.3128 57.6256C63.2782 57.5856 63.1955 57.6016 63.1875 57.659Z" fill="#35208A"/>
<path d="M70.3689 60.0975C71.4689 61.0629 73.8676 62.2349 75.1209 60.8856C75.3249 60.6669 75.1276 60.2589 74.8156 60.3602C74.0862 60.5989 73.5249 60.8029 72.7529 60.6002C72.0142 60.4082 71.4062 59.9509 70.7249 59.6389C70.4449 59.5109 70.0996 59.8615 70.3689 60.0975Z" fill="#35208A"/>
<path d="M63.066 16.6882C63.0686 16.6188 63.0446 16.5668 63.0033 16.5322C62.606 15.7828 61.17 15.6362 60.45 15.4935C59.2726 15.2602 58.0793 15.1202 56.8913 14.9655C56.6966 14.9402 56.5019 14.9081 56.3073 14.8841C56.2286 14.8748 56.0913 14.8082 56.1059 14.8429C55.9406 14.6455 55.8366 14.2268 55.7459 14.0175C55.2539 12.8708 54.7793 11.7149 54.2779 10.5709C54.0233 9.98952 53.7659 9.41086 53.4899 8.84019C53.3206 8.48819 53.1246 7.82948 52.7353 7.65881C51.8686 7.27881 51.2619 9.42286 51.0313 9.94019C50.4793 11.1749 49.9619 12.4255 49.4259 13.6682C49.3139 13.9295 49.1246 14.6802 48.8899 14.8575C48.7766 14.9442 47.9646 14.9002 47.7593 14.9162C47.2313 14.9588 46.7019 15.0002 46.1739 15.0495C45.2739 15.1335 44.3593 15.2189 43.4899 15.4762C42.9659 15.6322 42.0286 15.8829 42.1099 16.6095C42.1766 17.2042 43.0913 17.7668 43.5033 18.0948C44.206 18.6548 44.954 19.1575 45.734 19.6042C46.0886 19.8082 46.542 19.9575 46.8646 20.2015C47.2833 20.5189 47.0806 20.8508 46.9673 21.2802C46.73 22.1842 46.4873 23.0881 46.266 23.9975C46.086 24.7375 45.914 25.4815 45.798 26.2348C45.7286 26.6935 45.5539 27.3615 45.7619 27.8028C46.3073 28.9615 48.398 26.9335 48.902 26.5442C49.5353 26.0575 50.1566 25.5522 50.7633 25.0322C51.0606 24.7762 51.3539 24.5161 51.6446 24.2508C51.8059 24.1015 52.2219 23.5321 52.4313 23.4975C52.7726 23.4415 53.6873 24.5508 53.966 24.7895C54.5926 25.3295 55.2379 25.8468 55.8913 26.3535C56.7833 27.0468 57.7593 27.9722 58.9379 28.0775C59.9659 28.1695 59.4753 26.6122 59.3393 25.9988C59.0126 24.5362 58.5379 23.1042 58.1046 21.6722C58.0099 21.3628 57.8899 21.0468 57.8246 20.7308C57.7526 20.3841 57.7646 20.4082 58.0566 20.2322C58.6233 19.8882 59.3153 19.6775 59.9086 19.3775C60.8633 18.8962 62.7766 18.0268 63.0459 16.8335C63.0686 16.7935 63.078 16.7442 63.066 16.6882" fill="#FFF896"/>
<path d="M100.81 110.639C99.194 110.496 97.546 110.515 95.9087 110.534C96.3714 110.076 96.8354 109.619 97.2927 109.158C98.0114 108.435 98.8274 107.743 99.2967 106.828C99.5087 106.416 99.0874 106.012 98.6794 106.212C97.758 106.664 97.05 107.472 96.314 108.178C95.838 108.636 95.3634 109.098 94.8927 109.56C94.8967 108.895 94.8994 108.231 94.898 107.566C94.8967 106.543 94.982 105.476 94.666 104.496C94.526 104.063 93.942 104.074 93.7967 104.496C93.4647 105.47 93.534 106.544 93.5127 107.566C93.5007 108.226 93.4927 108.887 93.4847 109.548C93.018 109.075 92.55 108.602 92.0794 108.132C91.3567 107.414 90.6647 106.599 89.7487 106.13C89.338 105.919 88.934 106.339 89.1327 106.746C89.586 107.667 90.394 108.376 91.0994 109.112C91.558 109.59 92.018 110.062 92.482 110.535C91.8167 110.53 91.1514 110.526 90.486 110.527C89.4647 110.53 88.398 110.444 87.4167 110.76C86.9847 110.899 86.9954 111.484 87.4167 111.628C88.3914 111.96 89.4647 111.892 90.486 111.912C91.1327 111.926 91.7794 111.934 92.426 111.94C91.2314 113.067 90.03 114.202 88.9634 115.428C88.3914 116.087 89.2527 116.935 89.9154 116.379C91.146 115.347 92.2873 114.18 93.4233 113.02C93.3767 114.647 93.33 116.283 93.4434 117.89C93.5047 118.759 94.7127 118.75 94.7874 117.89C94.9287 116.288 94.91 114.656 94.894 113.034C96.01 114.216 97.134 115.406 98.3487 116.462C99.0087 117.035 99.8554 116.174 99.3007 115.511C98.2687 114.28 97.102 113.138 95.942 112.003C97.5674 112.05 99.2034 112.095 100.81 111.983C101.679 111.923 101.671 110.714 100.81 110.639" fill="white"/>
<path d="M91.1766 22.5361C91.602 22.5361 92.0473 22.3508 92.346 22.0508C92.634 21.7628 92.85 21.2921 92.8313 20.8801C92.8126 20.4535 92.6726 20.0081 92.346 19.7108C92.0233 19.4135 91.6246 19.2268 91.1766 19.2268C90.7526 19.2268 90.3073 19.4108 90.0073 19.7108C89.7206 19.9975 89.5046 20.4681 89.522 20.8801C89.542 21.3081 89.682 21.7521 90.0073 22.0508C90.3313 22.3481 90.7286 22.5361 91.1766 22.5361Z" fill="white"/>
<path d="M70.6032 32.9016C70.9925 32.9016 71.4018 32.7322 71.6778 32.4562C71.9418 32.1922 72.1405 31.7589 72.1232 31.3803C72.0872 30.5563 71.4552 29.8589 70.6032 29.8589C70.2125 29.8589 69.8018 30.0296 69.5258 30.3056C69.2632 30.5682 69.0645 31.0016 69.0805 31.3803C69.1178 32.2056 69.7498 32.9016 70.6032 32.9016" fill="white"/>
<path d="M112.815 39.0737C113.242 39.0737 113.69 38.8883 113.991 38.587C114.28 38.299 114.496 37.8257 114.478 37.411C114.438 36.511 113.747 35.7483 112.815 35.7483C112.39 35.7483 111.942 35.9337 111.639 36.2351C111.351 36.5244 111.134 36.9977 111.152 37.411C111.192 38.3124 111.883 39.0737 112.815 39.0737Z" fill="white"/>
<path d="M109.622 82.7056C110.05 82.7056 110.498 82.5202 110.798 82.2189C111.087 81.9309 111.305 81.4576 111.286 81.0429C111.245 80.1429 110.555 79.3802 109.622 79.3802C109.197 79.3802 108.749 79.5669 108.447 79.8682C108.159 80.1562 107.942 80.6296 107.959 81.0429C108.001 81.9442 108.69 82.7056 109.622 82.7056" fill="white"/>
<path d="M114.411 102.195C114.786 102.195 115.181 102.031 115.447 101.765C115.701 101.512 115.891 101.095 115.875 100.731C115.841 99.9375 115.231 99.2668 114.411 99.2668C114.037 99.2668 113.642 99.4308 113.378 99.6962C113.123 99.9508 112.933 100.367 112.949 100.731C112.985 101.524 113.591 102.195 114.411 102.195Z" fill="white"/>
<path d="M73.0861 110.267C73.4848 110.267 73.9021 110.094 74.1848 109.812C74.4541 109.542 74.6581 109.1 74.6408 108.712C74.6035 107.871 73.9568 107.158 73.0861 107.158C72.6875 107.158 72.2688 107.331 71.9861 107.614C71.7168 107.883 71.5128 108.326 71.5315 108.712C71.5688 109.555 72.2141 110.267 73.0861 110.267Z" fill="white"/>
<path d="M63.4207 125.15C63.4674 125.155 63.5154 125.16 63.5634 125.166C63.9314 125.208 64.4114 124.962 64.662 124.711C64.9314 124.44 65.134 123.999 65.118 123.611C65.0994 123.208 64.9674 122.792 64.662 122.511C64.3794 122.252 63.962 122.01 63.5634 122.056C63.5154 122.063 63.4674 122.067 63.4207 122.074C63.2087 122.066 63.0114 122.11 62.8287 122.206C62.6367 122.267 62.4727 122.374 62.334 122.523C62.066 122.79 61.866 123.228 61.8834 123.611C61.8994 124.01 62.0314 124.422 62.334 124.699C62.4367 124.779 62.5407 124.859 62.6447 124.939C62.8847 125.079 63.1434 125.148 63.4207 125.15" fill="white"/>
<path d="M44.3514 105.83C44.7954 105.83 45.262 105.638 45.5754 105.324C45.8754 105.024 46.1007 104.532 46.082 104.1C46.0394 103.164 45.322 102.372 44.3514 102.372C43.9087 102.372 43.4434 102.564 43.1287 102.878C42.83 103.178 42.6047 103.671 42.622 104.1C42.666 105.038 43.3834 105.83 44.3514 105.83Z" fill="white"/>
<path d="M16.6839 96.979C17.1303 96.979 17.6017 96.7843 17.9183 96.467C18.2205 96.1643 18.4481 95.6683 18.4282 95.2337C18.3871 94.287 17.6615 93.487 16.6839 93.487C16.2361 93.487 15.7657 93.6817 15.4481 93.9977C15.1459 94.3003 14.9183 94.7977 14.9377 95.2337C14.9793 96.179 15.7047 96.979 16.6839 96.979Z" fill="white"/>
<path d="M34.0655 84.0095C34.4612 84.0095 34.8779 83.8362 35.1592 83.5562C35.4273 83.2882 35.6289 82.8468 35.6123 82.4615C35.5748 81.6242 34.9325 80.9162 34.0655 80.9162C33.6685 80.9162 33.2519 81.0882 32.9716 81.3695C32.7035 81.6375 32.5019 82.0775 32.5185 82.4615C32.556 83.3002 33.1983 84.0095 34.0655 84.0095Z" fill="white"/>
<path d="M15.8196 67.1176C15.7712 66.7616 15.6164 66.3829 15.3284 66.1523C15.0003 65.8909 14.6435 65.6656 14.2008 65.6843C14.0592 65.7043 13.9186 65.7229 13.7764 65.7416C13.5066 65.8176 13.2712 65.9549 13.0732 66.1523C12.8675 66.3163 12.6592 66.6683 12.6087 66.9123C12.5951 66.9789 12.5899 67.0496 12.5811 67.1176C12.5003 67.4149 12.5003 67.7123 12.5811 68.0109C12.6607 68.2949 12.805 68.5416 13.0134 68.7509C13.3415 69.0523 13.7451 69.2429 14.2008 69.2429C14.6306 69.2429 15.0836 69.0563 15.3883 68.7509C15.5951 68.5416 15.7399 68.2949 15.8196 68.0109C15.9003 67.7123 15.9003 67.4149 15.8196 67.1176" fill="white"/>
<path d="M29.0277 31.7417C29.7736 31.7417 30.4872 31.087 30.4533 30.3164C30.4184 29.5444 29.8272 28.8924 29.0277 28.8924C28.2829 28.8924 27.5679 29.547 27.6033 30.3164C27.6372 31.0897 28.2293 31.7417 29.0277 31.7417Z" fill="white"/>
<path d="M95.0795 93.2576C97.1022 93.2576 97.1049 90.1136 95.0795 90.1136C93.0569 90.1136 93.0542 93.2576 95.0795 93.2576Z" fill="#F7B9E7"/>
<path d="M125.586 70.8643C127.094 70.8643 127.097 68.5189 125.586 68.5189C124.077 68.5189 124.074 70.8643 125.586 70.8643Z" fill="#F7B9E7"/>
<path d="M33.0019 113.897C33.1435 113.881 33.2858 113.864 33.4285 113.844C33.6853 113.811 33.9082 113.716 34.141 113.601C35.1555 113.101 35.1555 111.417 34.141 110.917C33.9082 110.803 33.6853 110.708 33.4285 110.675C33.2858 110.655 33.1435 110.637 33.0019 110.621C32.6113 110.579 32.1087 110.836 31.8431 111.101C31.5593 111.385 31.3451 111.852 31.3639 112.26C31.3822 112.683 31.5213 113.123 31.8431 113.417C32.1426 113.692 32.5785 113.945 33.0019 113.897" fill="#F7B9E7"/>
<path d="M14.8307 44.627C15.2489 44.627 15.6865 44.4469 15.9807 44.1509C16.2614 43.8696 16.4739 43.4069 16.4573 43.0029C16.4375 42.5816 16.2994 42.1469 15.9807 41.8536C15.663 41.5602 15.2723 41.3776 14.8307 41.3776C14.4141 41.3776 13.9765 41.5589 13.6822 41.8536C13.3999 42.1349 13.1875 42.5976 13.2057 43.0029C13.2255 43.4229 13.3635 43.8589 13.6822 44.1509C13.9999 44.4429 14.3906 44.627 14.8307 44.627Z" fill="#F7B9E7"/>
</svg>
