<svg width="135" height="135" viewBox="0 0 135 135" fill="none" xmlns="http://www.w3.org/2000/svg">
<path d="M134.088 67.9547C134.088 104.983 104.072 135 67.0439 135C30.0159 135 0 104.983 0 67.9547C0 30.928 30.0159 0.91067 67.0439 0.91067C104.072 0.91067 134.088 30.928 134.088 67.9547Z" fill="#35208A"/>
<path d="M99.3421 73.124C97.0181 68.028 93.6381 63.4267 89.2434 59.924C84.7634 56.3547 79.5781 54.4306 73.9114 53.7773C67.9128 53.0853 61.4608 52.988 55.5754 54.496C50.1048 55.8973 45.2474 58.9693 41.3821 63.056C37.8648 66.7733 34.2661 71.8826 33.4208 77.0386C32.5048 82.6333 37.4181 85.6907 41.9221 87.6533C44.7381 88.8813 47.6768 89.8 50.4648 91.0946C53.1874 92.3586 55.8034 93.8653 58.6208 94.9173C61.4208 95.9627 64.0581 96.0973 67.0141 96.0986C70.0821 96.0986 72.7954 95.9266 75.6901 94.808C79.0368 93.5133 82.1208 91.6373 85.4381 90.272C88.3728 89.0653 91.4248 88.1226 94.2394 86.6386C96.5768 85.4053 99.2675 83.6773 100.294 81.112C101.345 78.4866 100.405 75.5787 99.3421 73.124" fill="#E0435B"/>
<path d="M56.1692 60.1028C55.0505 60.1028 53.9772 59.1188 54.0292 57.9641C54.0825 56.8054 54.9705 55.8255 56.1692 55.8255C57.2879 55.8255 58.3612 56.8081 58.3079 57.9641C58.2559 59.1228 57.3679 60.1028 56.1692 60.1028Z" fill="#35208A"/>
<path d="M77.9852 60.1028C76.8652 60.1028 75.7945 59.1188 75.8465 57.9641C75.8985 56.8054 76.7866 55.8255 77.9852 55.8255C79.1039 55.8255 80.1759 56.8081 80.1253 57.9641C80.0733 59.1228 79.1852 60.1028 77.9852 60.1028Z" fill="#35208A"/>
<path d="M41.9793 60.1145C43.6313 62.1065 45.7487 65.5119 48.598 65.4785C50.4913 65.4572 50.7834 63.2132 49.4834 62.2092C47.7474 60.8678 46.2567 58.9198 44.8513 57.2425C43.5287 55.6638 41.014 53.0399 41.418 50.8212C41.794 48.7665 43.4313 46.6185 44.5593 44.8118C45.3767 44.8545 46.2554 44.7465 47.1354 44.4972C49.3927 43.8585 51.306 42.4905 52.998 40.8985C54.7367 39.2612 56.9753 37.2759 56.818 34.6799C56.8087 34.5132 56.582 34.3759 56.4554 34.5292C56.1807 34.8612 55.0127 34.8905 54.6074 34.9665C53.8101 35.1158 52.8367 35.4172 52.0247 35.3718C51.5834 35.3465 50.5914 35.4598 50.6741 34.5918C50.7074 34.2305 51.53 33.7145 51.7607 33.5545C52.49 33.0452 53.3154 32.6279 54.1807 32.4132C55.718 32.1639 57.1994 32.2585 58.742 32.4012C58.858 32.4105 58.9527 32.2945 58.954 32.1879C59.0087 26.5652 51.114 28.0372 47.9194 29.4385C43.3594 31.4412 40.4607 35.6772 40.5967 40.7385C40.6194 41.6012 40.8114 42.3078 41.1247 42.8812C40.9154 43.2118 40.7047 43.5385 40.5034 43.8718C39.0034 46.3545 36.9687 49.2372 37.4021 52.2905C37.8194 55.2372 40.1487 57.9039 41.9793 60.1145" fill="#E0435B"/>
<path d="M41.9982 68.808C44.5889 68.8906 44.4529 65.152 41.9982 64.8666C36.4062 64.2173 30.1088 61.996 26.6462 57.236C24.7542 54.636 25.3449 50.92 25.3515 47.8907C25.3555 46.7533 25.8569 41.2747 23.3582 42.3547C21.9422 42.9667 22.0955 44.8467 22.0395 46.1653C21.9555 48.1227 21.8582 50.0773 21.7556 52.032C21.5809 55.4613 22.3795 58.292 24.6902 60.8746C28.9089 65.588 35.6995 68.608 41.9982 68.808Z" fill="#E0435B"/>
<path d="M25.2542 78.2026C27.3568 78.1306 29.4915 77.8573 31.5702 77.5533C33.5768 77.2613 35.5995 77.0133 37.1928 75.6746C38.3488 74.7026 37.2768 73.1653 36.0928 73.02C34.4475 72.8187 32.7888 73.432 31.1702 73.6893C29.4248 73.9653 27.6595 74.1293 25.8995 74.2706C24.4049 74.392 23.8022 73.876 22.6915 72.912C21.5609 71.932 20.5075 70.8413 19.5995 69.6507C18.3542 68.02 16.3555 65.356 16.5368 63.2133C16.6808 61.5373 17.9275 59.4773 17.3715 57.808C16.9822 56.6373 15.5768 56.2267 14.6568 57.0907C13.8568 57.8427 13.6848 59.1773 13.4155 60.196C13.1488 61.2066 12.7888 62.2733 12.7235 63.3253C12.5235 66.5613 15.1942 70.228 17.1102 72.6227C19.0408 75.0373 21.9142 78.3173 25.2542 78.2026" fill="#E0435B"/>
<path d="M41.3009 88.7894C44.1263 88.8934 46.9463 89.172 49.741 88.648C51.3516 88.344 51.2156 85.9094 49.741 85.5214C46.6836 84.7174 43.3969 84.884 40.2543 84.7787C36.8943 84.6654 33.5316 84.5293 30.1716 84.44C24.677 84.292 19.4329 85.664 16.5796 90.764C15.4356 92.8053 18.425 94.5187 19.6943 92.5854C22.8156 87.8267 27.8836 88.2947 32.9423 88.4814C35.7289 88.584 38.5143 88.6867 41.3009 88.7894" fill="#E0435B"/>
<path d="M61.3769 88.7387C57.1436 88.8694 52.9676 89.9467 48.8209 90.7507C46.7703 91.1494 44.7209 91.5561 42.6676 91.9427C40.8529 92.2867 38.5489 92.2001 36.9063 93.1054C34.4009 94.4854 31.8796 97.8294 31.8383 100.743C31.8023 103.297 34.1143 107.865 37.0903 107.752C37.7969 107.725 38.3649 107.183 38.3796 106.463C38.4236 104.061 35.1396 102.817 35.7983 100.224C36.1023 99.0214 37.1489 97.9894 38.0423 97.1841C39.2369 96.1081 40.8316 96.2267 42.3703 95.9707C45.5703 95.4414 48.753 94.7934 51.941 94.1987C55.2623 93.5761 58.6262 93.1014 61.8129 91.9548C63.4636 91.3628 63.3316 88.6774 61.3769 88.7387" fill="#E0435B"/>
<path d="M50.0969 34.9667C46.8809 34.6881 42.9662 37.3107 40.6489 39.2947C40.2769 39.6134 40.8116 40.1321 41.1836 39.8294C42.5676 38.6961 44.0369 37.7067 45.6663 36.956C47.1236 36.284 48.7862 36.0468 50.1902 35.3068C50.3609 35.2161 50.2636 34.9801 50.0969 34.9667" fill="#35208A"/>
<path d="M41.2675 43.376C41.1555 43.8213 41.6555 44.1839 41.9635 44.4199C42.4022 44.7532 42.9035 44.9799 43.4275 45.1386C43.8902 45.2786 44.0875 44.5559 43.6275 44.4172C43.1755 44.2826 42.7608 44.0786 42.3648 43.8213C42.0715 43.6306 41.7568 43.2466 41.3768 43.2919C41.3275 43.2986 41.2808 43.324 41.2675 43.376Z" fill="#35208A"/>
<path d="M37.713 51.2654C37.933 51.78 38.6771 51.9854 39.1811 52.1227C39.7717 52.2827 40.5317 52.4294 41.1197 52.2201C41.3957 52.1214 41.4504 51.6774 41.1197 51.604C40.5117 51.4694 39.8864 51.5374 39.2691 51.3867C38.7864 51.2667 38.3078 50.9587 37.8078 51.0307C37.6944 51.0467 37.6784 51.1827 37.713 51.2654Z" fill="#35208A"/>
<path d="M41.0346 58.304C41.6186 58.3493 42.2052 58.2733 42.7572 58.072C43.1759 57.92 43.7412 57.752 43.7799 57.2493C43.7879 57.14 43.6959 57.0413 43.5973 57.0106C43.1986 56.8853 42.8452 57.2466 42.4799 57.3773C42.0119 57.544 41.5279 57.596 41.0346 57.5786C40.5639 57.5626 40.5746 58.2693 41.0346 58.304" fill="#35208A"/>
<path d="M43.1516 61.3454C43.665 61.3281 44.121 60.8801 44.525 60.5974C44.9904 60.2734 45.6863 60.0134 46.0397 59.5734C46.189 59.3907 46.1157 59.0227 45.8223 59.0481C45.1903 59.1054 44.5716 59.6441 44.085 60.0268C43.6903 60.3414 43.1437 60.7574 43.105 61.2987C43.1037 61.3227 43.129 61.3467 43.1516 61.3454Z" fill="#35208A"/>
<path d="M22.4969 47.9799C22.9542 48.0572 23.4195 48.0412 23.8702 47.9266C24.2609 47.8266 24.7982 47.6652 24.9929 47.2865C25.0929 47.0905 24.9729 46.7999 24.7222 46.8159C24.3636 46.8386 24.0822 47.0799 23.7395 47.1852C23.3582 47.3012 22.9836 47.3173 22.5889 47.3013C22.2062 47.2853 22.1076 47.9146 22.4969 47.9799" fill="#35208A"/>
<path d="M24.4516 59.8494C25.1569 60.0081 25.9183 59.9534 26.633 59.8601C27.1996 59.7868 27.937 59.7827 28.2663 59.2614C28.3236 59.1694 28.2943 59.0081 28.1876 58.9601C27.6943 58.7441 27.249 58.9947 26.733 59.0814C25.997 59.2054 25.2783 59.1494 24.5396 59.1894C24.1796 59.2081 24.0636 59.7614 24.4516 59.8494" fill="#35208A"/>
<path d="M37.5025 68.2467C38.0225 67.7321 38.4745 67.1507 38.9452 66.5921C39.3758 66.0787 39.8905 65.5774 40.2158 64.9921C40.4038 64.6561 39.9825 64.3694 39.7065 64.5987C39.1585 65.0561 38.7265 65.7107 38.2732 66.2627C37.8412 66.7881 37.3932 67.3041 37.0118 67.8681C36.8078 68.1667 37.2545 68.4907 37.5025 68.2467" fill="#35208A"/>
<path d="M33.7718 77.0519C34.0358 76.4586 34.1052 75.7906 34.3412 75.1813C34.5198 74.7186 35.1091 74.0453 34.9038 73.5466C34.8745 73.4786 34.8132 73.4053 34.7278 73.4133C34.1452 73.4679 33.9691 74.2079 33.7731 74.6826C33.4998 75.3479 33.1665 76.1786 33.2478 76.9093C33.2745 77.1506 33.6438 77.3373 33.7718 77.0519" fill="#35208A"/>
<path d="M37.0973 84.9026C38.036 85.948 39.2986 86.5333 40.6 87.008C42.1586 87.5746 43.7399 88.1586 45.3106 88.6786C45.6586 88.7933 45.8106 88.3107 45.5453 88.1227C44.4933 87.3773 43.1426 87.0613 41.9266 86.6733C40.3106 86.1586 38.8586 85.548 37.5266 84.4746C37.2266 84.2333 36.832 84.608 37.0973 84.9026" fill="#35208A"/>
<path d="M49.8946 90.7494C50.6252 91.4 51.5146 91.8814 52.3759 92.3334C53.1466 92.7374 53.9999 93.2427 54.8746 93.336C55.1946 93.3694 55.2225 92.9441 55.0212 92.7934C54.3199 92.2707 53.3852 92.0134 52.6039 91.6107C51.8039 91.1987 51.0572 90.6854 50.2506 90.2881C49.9692 90.1481 49.6319 90.5134 49.8946 90.7494Z" fill="#35208A"/>
<path d="M13.2706 64.6626C14.1999 65.104 15.5239 64.72 16.3919 64.2907C16.8293 64.0733 16.4452 63.424 16.0092 63.636C15.5666 63.8493 15.1159 64.0227 14.6359 64.1227C14.1973 64.2133 13.7426 64.1933 13.3146 64.316C13.1692 64.3587 13.1172 64.5906 13.2706 64.6626Z" fill="#35208A"/>
<path d="M23.1706 77.1453C23.8666 76.524 24.3412 75.6173 24.5825 74.7226C24.7132 74.2426 23.9919 74.048 23.8426 74.5173C23.5786 75.3546 23.1599 76.036 22.6586 76.7506C22.4359 77.0666 22.9079 77.3786 23.1706 77.1453Z" fill="#35208A"/>
<path d="M25.5567 85.3881C25.8221 85.8121 26.2728 86.1014 26.5701 86.5107C26.7141 86.7094 26.8394 86.9241 26.9474 87.1454C27.0634 87.3827 27.1008 87.6134 27.3114 87.7814C27.4821 87.9187 27.7501 87.8854 27.8141 87.6494C27.9594 87.1214 27.4781 86.4734 27.1728 86.0734C26.8514 85.6521 26.3861 85.1174 25.8355 85.0241C25.6381 84.9907 25.4314 85.1894 25.5567 85.3881" fill="#35208A"/>
<path d="M28.7515 86.5853C28.6995 86.7613 28.7182 86.9253 28.7382 87.1053C28.7568 87.288 28.7688 87.476 28.8168 87.6533C28.9208 88.048 29.5901 87.9826 29.5475 87.5546C29.5168 87.2306 29.4474 86.7866 29.2488 86.52C29.1128 86.3386 28.8221 86.344 28.7515 86.5853Z" fill="#35208A"/>
<path d="M34.5568 104.671C34.8861 104.248 35.2768 104.104 35.7954 104.057C36.2674 104.013 36.2568 103.385 35.7954 103.329C35.0848 103.243 34.3941 103.687 33.9821 104.228C33.7341 104.555 34.3034 104.999 34.5568 104.671Z" fill="#35208A"/>
<path d="M37.0795 94.3868C37.6168 94.6948 38.0568 95.1027 38.3728 95.6387C38.6221 96.0601 39.2848 95.6748 39.0302 95.2548C38.6462 94.6214 38.1075 94.0947 37.4422 93.7667C37.0302 93.5641 36.6728 94.1548 37.0795 94.3868Z" fill="#35208A"/>
<path d="M38.6544 94.0199C39.1744 94.5252 39.4998 95.0932 39.8304 95.7278C40.0238 96.0985 40.6544 95.8425 40.5144 95.4399C40.2544 94.7012 39.7264 94.0412 39.1331 93.5425C38.8051 93.2679 38.3384 93.7119 38.6544 94.0199Z" fill="#35208A"/>
<path d="M92.0877 68.808C98.6997 68.5973 106.01 65.272 110.113 60.0053C112.43 57.0306 112.418 53.916 112.229 50.3067C112.169 49.1467 112.638 41.0507 109.906 42.3547C108.798 42.884 108.781 44.0293 108.726 45.1293C108.646 46.732 108.748 48.3573 108.74 49.9613C108.725 53.0226 108.88 55.7706 106.666 58.144C102.849 62.236 97.5277 64.2346 92.0877 64.8666C89.6384 65.152 89.4917 68.8906 92.0877 68.808" fill="#E0435B"/>
<path d="M108.186 74.2706C106.425 74.1293 104.66 73.9653 102.916 73.6893C101.298 73.432 99.6383 72.8186 97.9929 73.02C96.8143 73.164 95.7436 74.7066 96.8943 75.6746C98.485 77.0133 100.51 77.2586 102.516 77.5533C104.594 77.86 106.73 78.1266 108.832 78.2026C112.169 78.3226 115.049 75.0333 116.976 72.6226C118.888 70.232 121.572 66.5573 121.362 63.3253C121.296 62.2733 120.936 61.2079 120.669 60.1959C120.402 59.1826 120.225 57.8386 119.428 57.0906C118.509 56.2266 117.104 56.6373 116.714 57.808C116.158 59.4773 117.406 61.5373 117.548 63.2133C117.732 65.368 115.742 68.008 114.486 69.6506C113.58 70.84 112.526 71.9346 111.396 72.912C110.306 73.8546 109.661 74.3906 108.186 74.2706" fill="#E0435B"/>
<path d="M103.916 84.44C100.669 84.5266 97.4239 84.6573 94.1799 84.7666C90.9306 84.8759 87.5052 84.6906 84.3466 85.5213C82.8706 85.908 82.7332 88.344 84.3466 88.648C87.0292 89.152 89.7226 88.9026 92.4373 88.8026C95.3399 88.696 98.2426 88.588 101.143 88.4813C106.201 88.2946 111.269 87.8253 114.392 92.5853C115.659 94.516 118.651 92.8066 117.508 90.7639C114.652 85.6639 109.412 84.292 103.916 84.44Z" fill="#E0435B"/>
<path d="M97.1808 93.1054C95.6288 92.2494 93.4635 92.3254 91.7515 92.0067C89.7008 91.6254 87.6555 91.2148 85.6075 90.8174C81.3515 89.9921 77.0542 88.8721 72.7075 88.7387C70.7702 88.6774 70.6075 91.3561 72.2728 91.9548C75.3541 93.0641 78.5888 93.5334 81.8008 94.1334C85.1021 94.7507 88.4008 95.4227 91.7142 95.9707C93.0755 96.1961 94.7768 96.0734 95.8475 97.0001C96.7662 97.7961 97.7808 98.8067 98.1968 99.9721C99.1688 102.695 95.6595 103.976 95.7061 106.463C95.7195 107.18 96.2862 107.725 96.9942 107.752C99.8982 107.863 102.162 103.489 102.238 101.001C102.328 97.9841 99.7675 94.5307 97.1808 93.1054" fill="#E0435B"/>
<path d="M75.345 32.4012C76.8836 32.2585 78.3663 32.1639 79.9063 32.4132C80.7156 32.6145 81.4863 32.9945 82.181 33.4558C82.4676 33.6465 83.3729 34.1718 83.4129 34.5918C83.4929 35.4598 82.501 35.3465 82.0623 35.3718C81.305 35.4132 80.3983 35.1345 79.6543 34.9985C79.2383 34.9225 77.921 34.8812 77.6303 34.5292C77.5037 34.3759 77.277 34.5132 77.2663 34.6799C77.1103 37.2759 79.349 39.2612 81.0863 40.8985C82.7797 42.4905 84.6943 43.8585 86.9516 44.4972C87.833 44.7478 88.7156 44.8559 89.537 44.8105C90.7076 46.6359 92.2983 48.7959 92.6663 50.8212C93.061 52.9799 90.7116 55.4585 89.437 56.9972C87.9756 58.7625 86.4223 60.8025 84.601 62.2092C83.305 63.2132 83.5903 65.4572 85.4863 65.4785C88.3263 65.5119 90.4583 62.1012 92.105 60.1145C93.933 57.9092 96.2663 55.2279 96.6849 52.2905C97.1196 49.2305 95.0849 46.3598 93.5823 43.8718C93.3809 43.5385 93.169 43.2118 92.9623 42.8812C93.273 42.3065 93.4663 41.6012 93.489 40.7385C93.625 35.6745 90.729 31.4425 86.1663 29.4385C82.9717 28.0372 75.077 26.5652 75.1316 32.1879C75.133 32.2945 75.229 32.4105 75.345 32.4012" fill="#E0435B"/>
<path d="M83.897 35.3068C85.3024 36.0481 86.9637 36.2774 88.4197 36.956C90.0464 37.7134 91.517 38.6934 92.9037 39.8294C93.273 40.1321 93.8077 39.6134 93.437 39.2947C91.117 37.308 87.2037 34.6881 83.989 34.9667C83.821 34.9801 83.7237 35.2161 83.897 35.3068" fill="#35208A"/>
<path d="M92.7087 43.2921C92.3274 43.2468 92.0154 43.6308 91.7194 43.8215C91.3234 44.0788 90.9114 44.2814 90.4594 44.4174C89.998 44.5561 90.194 45.2801 90.6567 45.1388C91.1834 44.9801 91.6847 44.7534 92.1221 44.4201C92.4314 44.1841 92.9287 43.8215 92.8167 43.3762C92.8047 43.3228 92.7581 43.2988 92.7087 43.2921" fill="#35208A"/>
<path d="M96.277 51.0306C95.7783 50.9586 95.2997 51.2666 94.8157 51.3866C94.1997 51.5373 93.5744 51.4693 92.9677 51.604C92.637 51.6773 92.6917 52.1213 92.9677 52.22C93.5557 52.4293 94.3117 52.284 94.9051 52.1226C95.4091 51.9853 96.153 51.78 96.373 51.2653C96.409 51.1826 96.3917 51.0466 96.277 51.0306Z" fill="#35208A"/>
<path d="M93.0515 57.5785C92.5568 57.5959 92.0755 57.5439 91.6062 57.3772C91.2395 57.2465 90.8861 56.8852 90.4875 57.0105C90.3901 57.0412 90.2982 57.1399 90.3062 57.2492C90.3462 57.7519 90.9115 57.9185 91.3288 58.0719C91.8795 58.2745 92.4688 58.3492 93.0515 58.3039C93.5115 58.2692 93.5235 57.5625 93.0515 57.5785" fill="#35208A"/>
<path d="M90.9797 61.2987C90.9411 60.7561 90.3971 60.3428 89.9998 60.0268C89.5184 59.6468 88.8931 59.1041 88.2638 59.0481C87.9704 59.0227 87.8971 59.3894 88.0464 59.5734C88.3997 60.0107 89.0971 60.2734 89.5611 60.5974C89.9651 60.8801 90.4211 61.3281 90.9331 61.3454C90.9584 61.3467 90.9811 61.3227 90.9797 61.2987" fill="#35208A"/>
<path d="M111.497 47.3013C111.101 47.3173 110.728 47.3012 110.348 47.1852C110.004 47.0799 109.722 46.8386 109.362 46.8159C109.113 46.7999 108.992 47.0905 109.093 47.2865C109.288 47.6639 109.826 47.8279 110.216 47.9266C110.666 48.0412 111.132 48.0572 111.588 47.9799C111.973 47.9159 111.882 47.2853 111.497 47.3013" fill="#35208A"/>
<path d="M109.545 59.1894C108.808 59.1494 108.089 59.2054 107.353 59.0814C106.837 58.9947 106.393 58.7441 105.898 58.9601C105.793 59.0081 105.761 59.1694 105.82 59.2614C106.149 59.7841 106.882 59.7868 107.454 59.8601C108.166 59.9534 108.929 60.0081 109.636 59.8494C110.02 59.7627 109.91 59.2094 109.545 59.1894" fill="#35208A"/>
<path d="M97.0756 67.868C96.6943 67.304 96.2463 66.788 95.8129 66.2627C95.3596 65.7093 94.9289 65.0573 94.3796 64.5987C94.1063 64.372 93.6823 64.6534 93.8703 64.992C94.1943 65.576 94.7117 66.08 95.141 66.592C95.6117 67.1507 96.0637 67.732 96.5837 68.2467C96.829 68.4894 97.2796 68.1693 97.0756 67.868" fill="#35208A"/>
<path d="M100.838 76.9094C100.92 76.1774 100.585 75.3494 100.312 74.6827C100.118 74.208 99.9409 73.468 99.3596 73.4134C99.2716 73.4054 99.2102 73.4774 99.1822 73.5467C98.9742 74.048 99.5689 74.7187 99.7462 75.1814C99.9782 75.7907 100.05 76.46 100.314 77.052C100.441 77.336 100.81 77.1507 100.838 76.9094" fill="#35208A"/>
<path d="M96.5607 84.4748C95.2261 85.5495 93.7781 86.1575 92.1581 86.6735C90.9407 87.0615 89.5941 87.3762 88.5394 88.1229C88.2767 88.3095 88.4234 88.7948 88.7754 88.6788C90.3461 88.1602 91.926 87.5748 93.4847 87.0082C94.7874 86.5335 96.0487 85.9482 96.9887 84.9028C97.2527 84.6082 96.8607 84.2335 96.5607 84.4748" fill="#35208A"/>
<path d="M83.8345 90.2881C83.0292 90.6854 82.2825 91.1987 81.4825 91.6107C80.6998 92.0134 79.7652 92.2707 79.0652 92.7934C78.8625 92.9441 78.8905 93.3694 79.2119 93.336C80.0865 93.2427 80.9399 92.7374 81.7092 92.3334C82.5719 91.8814 83.4625 91.4 84.1919 90.7494C84.4532 90.516 84.1198 90.1467 83.8345 90.2881" fill="#35208A"/>
<path d="M120.77 64.316C120.345 64.1933 119.888 64.216 119.452 64.1227C118.97 64.0213 118.52 63.8493 118.078 63.636C117.641 63.424 117.256 64.0733 117.694 64.2907C118.564 64.72 119.885 65.104 120.816 64.6626C120.97 64.5906 120.917 64.36 120.77 64.316" fill="#35208A"/>
<path d="M111.428 76.7506C110.927 76.0359 110.509 75.3546 110.244 74.5173C110.094 74.0479 109.372 74.2413 109.503 74.7226C109.747 75.6173 110.22 76.5239 110.916 77.1453C111.176 77.3773 111.652 77.0693 111.428 76.7506Z" fill="#35208A"/>
<path d="M108.249 85.0241C107.698 85.1174 107.236 85.6507 106.914 86.0734C106.61 86.4707 106.128 87.1254 106.27 87.6494C106.336 87.8854 106.602 87.9187 106.773 87.7814C106.968 87.6267 107.004 87.4294 107.105 87.2107C107.22 86.9667 107.357 86.7294 107.516 86.5107C107.812 86.1014 108.264 85.8134 108.529 85.3881C108.654 85.1881 108.449 84.9907 108.249 85.0241" fill="#35208A"/>
<path d="M104.837 86.5199C104.638 86.7866 104.57 87.2306 104.537 87.5546C104.496 87.9786 105.164 88.0519 105.269 87.6533C105.316 87.4759 105.329 87.2879 105.349 87.1052C105.368 86.9239 105.386 86.7626 105.334 86.5852C105.264 86.3426 104.972 86.3386 104.837 86.5199" fill="#35208A"/>
<path d="M100.102 104.228C99.6928 103.687 99.0008 103.243 98.2914 103.329C97.8301 103.385 97.8168 104.014 98.2914 104.058C98.8088 104.104 99.1981 104.248 99.5274 104.671C99.7808 104.996 100.355 104.559 100.102 104.228" fill="#35208A"/>
<path d="M96.6438 93.7666C95.9771 94.0946 95.4385 94.6213 95.0558 95.2547C94.8011 95.6747 95.4638 96.0613 95.7131 95.6386C96.0278 95.1026 96.4692 94.6946 97.0078 94.3866C97.4132 94.1546 97.0558 93.564 96.6438 93.7666" fill="#35208A"/>
<path d="M94.9545 93.5426C94.3612 94.0413 93.8306 94.7013 93.5732 95.44C93.4319 95.8386 94.0612 96.1026 94.2559 95.728C94.5866 95.0933 94.9132 94.5253 95.4306 94.02C95.7479 93.712 95.2812 93.2666 94.9545 93.5426" fill="#35208A"/>
<path d="M59.3156 61.8535C59.0423 63.3161 60.6703 65.1148 61.6943 66.0175C63.1463 67.3001 64.9557 68.0481 66.8757 68.2361C68.933 68.4374 71.113 68.1015 72.789 66.8255C74.2223 65.7361 75.781 63.7894 75.5423 61.8721C75.4877 61.4321 74.9143 61.4321 74.8583 61.8721C74.2997 66.3121 69.713 68.1841 65.7197 67.2508C64.237 66.9055 62.837 66.0921 61.7757 65.0054C60.8703 64.0788 60.4663 62.5041 59.4156 61.8134C59.381 61.7908 59.3236 61.8121 59.3156 61.8535Z" fill="#35208A"/>
<path d="M49.6584 69.4561C47.5957 69.4561 45.621 67.6427 45.7157 65.512C45.8103 63.376 47.4477 61.5707 49.6584 61.5707C51.721 61.5707 53.6971 63.384 53.6024 65.512C53.5064 67.6494 51.869 69.4561 49.6584 69.4561Z" fill="white"/>
<path d="M85.1105 69.4561C83.0478 69.4561 81.0732 67.6427 81.1678 65.512C81.2625 63.376 82.8998 61.5707 85.1105 61.5707C87.1731 61.5707 89.1491 63.384 89.0545 65.512C88.9585 67.6494 87.3211 69.4561 85.1105 69.4561Z" fill="white"/>
<path d="M84.6424 112.413C84.6451 112.344 84.6211 112.291 84.5797 112.257C84.1824 111.508 82.7464 111.36 82.0264 111.219C80.8491 110.985 79.6571 110.845 78.4678 110.689C78.2731 110.664 78.0784 110.632 77.8838 110.608C77.8051 110.599 77.6677 110.532 77.6824 110.567C77.5171 110.371 77.4131 109.951 77.3224 109.743C76.8304 108.595 76.3571 107.439 75.8558 106.295C75.5998 105.715 75.3425 105.136 75.0665 104.565C74.8971 104.213 74.7011 103.553 74.3118 103.383C73.4451 103.004 72.8385 105.147 72.6078 105.664C72.0558 106.9 71.5385 108.151 71.0025 109.393C70.8905 109.653 70.7011 110.404 70.4665 110.583C70.3531 110.669 69.5411 110.624 69.3358 110.641C68.8065 110.684 68.2784 110.725 67.7504 110.775C66.8518 110.859 65.9358 110.943 65.0665 111.201C64.5425 111.356 63.6051 111.608 63.6877 112.335C63.7531 112.928 64.6677 113.492 65.0797 113.819C65.7824 114.379 66.5304 114.881 67.3104 115.329C67.6651 115.532 68.1185 115.681 68.4411 115.927C68.8598 116.243 68.6571 116.576 68.5437 117.005C68.3051 117.909 68.0638 118.813 67.8424 119.721C67.6624 120.461 67.4905 121.205 67.3745 121.959C67.3051 122.417 67.1305 123.087 67.3385 123.528C67.8838 124.687 69.9744 122.659 70.4784 122.269C71.1131 121.781 71.7331 121.277 72.3398 120.756C72.6371 120.501 72.9317 120.241 73.2211 119.976C73.3837 119.827 73.7984 119.257 74.0091 119.223C74.3491 119.165 75.2638 120.276 75.5424 120.515C76.1691 121.055 76.8144 121.572 77.4678 122.079C78.3598 122.771 79.3358 123.696 80.5144 123.801C81.5424 123.893 81.0517 122.337 80.9157 121.723C80.5904 120.261 80.1144 118.829 79.6811 117.397C79.5864 117.088 79.4664 116.771 79.4011 116.455C79.3291 116.109 79.3411 116.132 79.6331 115.956C80.1998 115.613 80.8918 115.401 81.4864 115.101C82.4411 114.621 84.3531 113.752 84.6224 112.557C84.6451 112.517 84.6544 112.469 84.6424 112.413" fill="#F7B9E7"/>
<path d="M49.6382 17.284C48.0222 17.1427 46.3742 17.1614 44.7368 17.1801C45.1982 16.7227 45.6622 16.2654 46.1208 15.8041C46.8408 15.0814 47.6542 14.3894 48.1249 13.4747C48.3355 13.0627 47.9155 12.6587 47.5075 12.8587C46.5862 13.3107 45.8769 14.1187 45.1409 14.8254C44.6649 15.2827 44.1928 15.7441 43.7195 16.2068C43.7235 15.5414 43.7275 14.8774 43.7262 14.212C43.7235 13.1907 43.8089 12.1227 43.4942 11.1414C43.3542 10.7094 42.7688 10.7201 42.6262 11.1414C42.2928 12.1174 42.3609 13.1907 42.3409 14.212C42.3275 14.872 42.3195 15.5334 42.3115 16.1947C41.8462 15.7214 41.3782 15.248 40.9075 14.7787C40.1849 14.06 39.4915 13.2454 38.5768 12.7761C38.1648 12.5654 37.7609 12.9854 37.9609 13.3921C38.4142 14.3134 39.2208 15.0227 39.9262 15.7587C40.3848 16.2347 40.8475 16.7081 41.3088 17.1801C40.6435 17.1761 39.9782 17.1721 39.3142 17.1747C38.2928 17.1761 37.2248 17.0908 36.2448 17.4068C35.8115 17.5468 35.8222 18.1307 36.2448 18.2747C37.2182 18.6081 38.2928 18.5374 39.3142 18.5587C39.9608 18.5721 40.6062 18.5801 41.2528 18.5867C40.0595 19.7147 38.8582 20.8481 37.7915 22.0747C37.2195 22.7347 38.0808 23.5814 38.7435 23.0268C39.9728 21.9934 41.1155 20.8267 42.2502 19.6667C42.2035 21.2934 42.1568 22.9294 42.2702 24.5361C42.3315 25.4054 43.5395 25.3961 43.6155 24.5361C43.7555 22.9347 43.7382 21.3027 43.7208 19.6801C44.8382 20.8627 45.9621 22.0521 47.1768 23.1081C47.8355 23.6814 48.6835 22.8201 48.1288 22.1574C47.0955 20.9254 45.9289 19.7841 44.7689 18.6494C46.3955 18.6961 48.0302 18.7428 49.6382 18.6294C50.5075 18.5694 50.4982 17.36 49.6382 17.284" fill="white"/>
<path d="M66.4476 14.0481C66.881 14.0481 67.337 13.8601 67.6423 13.5534C67.9356 13.2601 68.157 12.7801 68.1383 12.3588C68.097 11.4428 67.3956 10.6681 66.4476 10.6681C66.0143 10.6681 65.5583 10.8561 65.2516 11.1628C64.9596 11.4561 64.7383 11.9374 64.757 12.3588C64.7983 13.2748 65.4996 14.0481 66.4476 14.0481Z" fill="white"/>
<path d="M75.0943 46.1746C76.9597 46.1746 76.9623 43.2759 75.0943 43.2759C73.229 43.2759 73.2263 46.1746 75.0943 46.1746Z" fill="white"/>
<path d="M55.1583 49.5732C55.1583 49.5599 55.1583 49.5478 55.1583 49.5358C55.1397 49.6758 55.121 49.8158 55.1023 49.9558C55.1037 49.9318 55.1103 49.9079 55.1196 49.8852C55.0663 50.0119 55.013 50.1385 54.9596 50.2652C54.965 50.2545 54.9716 50.2438 54.9769 50.2332C54.8943 50.3412 54.8103 50.4492 54.7277 50.5572C54.7423 50.5359 54.7596 50.5172 54.781 50.5039C54.673 50.5865 54.565 50.6705 54.457 50.7545C54.489 50.7372 54.5223 50.7225 54.557 50.7079C54.4276 50.7612 54.301 50.8158 54.173 50.8692C54.185 50.8652 54.197 50.8625 54.209 50.8599C54.0676 50.8799 53.9249 50.8985 53.7849 50.9172C53.8089 50.9119 53.8343 50.9105 53.861 50.9132C53.7197 50.8945 53.5797 50.8759 53.4383 50.8572C53.7463 50.9039 54.0396 50.9732 54.345 50.8519C54.717 50.7039 55.077 50.5105 55.273 50.1372C55.4636 49.7785 55.561 49.3385 55.4303 48.9399C55.2437 48.3705 54.8423 47.9532 54.2637 47.7892C53.8197 47.6625 53.297 47.6999 52.897 47.9412C52.1743 48.3772 51.8637 49.1745 52.0557 49.9932C52.1383 50.3545 52.453 50.7638 52.781 50.9372C53.101 51.1065 53.429 51.1732 53.789 51.1252C54.5597 51.0212 55.1557 50.3652 55.1583 49.5732" fill="white"/>
<path d="M95.9943 18.7745C96.0343 18.8065 96.077 18.8385 96.1183 18.8705C97.009 19.5625 98.4596 19.1985 98.4596 17.9012C98.4596 16.6105 97.0103 16.2372 96.1183 16.9305C96.077 16.9625 96.0343 16.9945 95.9943 17.0265C95.509 17.4039 95.513 18.4012 95.9943 18.7745Z" fill="white"/>
<path d="M120.856 52.1414C121.265 52.1414 121.697 51.9614 121.989 51.6707C122.268 51.392 122.477 50.936 122.46 50.536C122.441 50.1214 122.304 49.6907 121.989 49.4014C121.676 49.1134 121.289 48.9307 120.856 48.9307C120.444 48.9307 120.012 49.1107 119.72 49.4014C119.441 49.68 119.232 50.136 119.249 50.536C119.268 50.9507 119.405 51.3814 119.72 51.6707C120.033 51.9587 120.42 52.1414 120.856 52.1414Z" fill="white"/>
<path d="M122.982 83.2C124.845 83.2 124.848 80.3066 122.982 80.3066C121.121 80.3066 121.118 83.2 122.982 83.2Z" fill="white"/>
<path d="M54.9533 108.155C55.0707 108.137 55.172 108.108 55.284 108.067C55.6067 107.948 55.868 107.793 56.0826 107.516C56.2826 107.256 56.4279 106.921 56.4133 106.584C56.4013 106.311 56.3307 106.049 56.2027 105.808C56.012 105.447 55.6493 105.236 55.284 105.1C55.172 105.06 55.0707 105.031 54.9533 105.012C54.664 104.935 54.3747 104.935 54.0867 105.012C53.8107 105.091 53.572 105.229 53.3667 105.431C53.076 105.751 52.8906 106.143 52.8906 106.584C52.8906 107.001 53.072 107.44 53.3667 107.736C53.572 107.937 53.8107 108.077 54.0867 108.155C54.3747 108.233 54.664 108.233 54.9533 108.155" fill="white"/>
<path d="M39.7143 120.627C39.781 120.609 39.8476 120.592 39.9129 120.573C40.5796 120.395 41.1423 119.708 41.1116 119C41.0796 118.283 40.6289 117.619 39.9129 117.425C39.8476 117.408 39.781 117.389 39.7143 117.372C38.6543 117.087 37.5796 117.903 37.5796 119C37.5796 120.092 38.6543 120.913 39.7143 120.627" fill="white"/>
<path d="M20.7528 105.148C22.9408 105.148 22.9448 101.748 20.7528 101.748C18.5675 101.748 18.5635 105.148 20.7528 105.148Z" fill="white"/>
<path d="M25.4315 37.408C25.8862 37.408 26.3622 37.2106 26.6848 36.8893C26.9902 36.5826 27.2222 36.0787 27.2022 35.6373C27.1822 35.18 27.0315 34.704 26.6848 34.3853C26.3368 34.068 25.9115 33.8666 25.4315 33.8666C24.9768 33.8666 24.5008 34.064 24.1795 34.3853C23.8715 34.692 23.6409 35.196 23.6609 35.6373C23.6809 36.0947 23.8315 36.5706 24.1795 36.8893C24.5262 37.2079 24.9515 37.408 25.4315 37.408Z" fill="white"/>
<path d="M6.9847 58.6345C7.42337 58.6345 7.88605 58.4425 8.19538 58.1319C8.49272 57.8359 8.71672 57.3479 8.69805 56.9212C8.65672 55.9932 7.94604 55.2079 6.9847 55.2079C6.54604 55.2079 6.08476 55.3999 5.77409 55.7105C5.47676 56.0079 5.25273 56.4945 5.27273 56.9212C5.31406 57.8492 6.02604 58.6345 6.9847 58.6345Z" fill="white"/>
<path d="M101.826 111.196C101.832 111.268 101.837 111.341 101.844 111.415C102.002 113.509 104.944 113.513 105.102 111.415C105.108 111.341 105.113 111.268 105.12 111.196C105.28 109.077 101.666 109.073 101.826 111.196Z" fill="white"/>
<path d="M12.0932 81.0706C12.5558 81.0706 13.0399 80.8692 13.3666 80.5426C13.6799 80.2306 13.9159 79.7186 13.8945 79.2692C13.8732 78.8039 13.7212 78.3199 13.3666 77.9959C13.0159 77.6732 12.5825 77.4679 12.0932 77.4679C11.6332 77.4679 11.1465 77.6692 10.8199 77.9959C10.5079 78.3079 10.2732 78.8199 10.2932 79.2692C10.3132 79.7346 10.4679 80.2186 10.8199 80.5426C11.1732 80.8666 11.6052 81.0706 12.0932 81.0706Z" fill="#FFF896"/>
<path d="M80.3328 18.3054C80.7275 18.3054 81.1434 18.1321 81.4234 17.8521C81.6914 17.5854 81.8928 17.1467 81.8742 16.7614C81.8382 15.9254 81.1968 15.2201 80.3328 15.2201C79.9368 15.2201 79.5221 15.3921 79.2421 15.6721C78.9741 15.9388 78.7728 16.3774 78.7901 16.7614C78.8274 17.5974 79.4688 18.3054 80.3328 18.3054" fill="#FFF896"/>
<path d="M102.054 41.9253C103.754 41.9253 103.757 39.2813 102.054 39.2813C100.353 39.2813 100.35 41.9253 102.054 41.9253Z" fill="#FFF896"/>
<path d="M110.664 97.3855C110.885 96.7468 110.58 96.0402 110.072 95.6495C109.297 95.0508 108.144 95.2588 107.644 96.1135C107.428 96.4828 107.364 96.9722 107.477 97.3855C107.594 97.8095 107.874 98.1388 108.237 98.3721C108.613 98.6148 109.086 98.6361 109.51 98.5388C110.092 98.4068 110.477 97.9202 110.664 97.3855Z" fill="#FFF896"/>
<path d="M54.5196 125.828C54.9969 125.828 55.4983 125.62 55.8369 125.283C56.1596 124.959 56.4036 124.429 56.3822 123.965C56.3609 123.484 56.2023 122.984 55.8369 122.649C55.4716 122.315 55.0249 122.103 54.5196 122.103C54.0423 122.103 53.5396 122.311 53.2023 122.649C52.8796 122.972 52.6369 123.501 52.6569 123.965C52.6796 124.448 52.837 124.947 53.2023 125.283C53.5676 125.617 54.0156 125.828 54.5196 125.828Z" fill="#FFF896"/>
</svg>
