<svg width="135" height="135" viewBox="0 0 135 135" fill="none" xmlns="http://www.w3.org/2000/svg">
<path d="M134.089 67.9559C134.089 104.984 104.072 135 67.0453 135C30.0173 135 0 104.984 0 67.9559C0 30.9279 30.0173 0.911881 67.0453 0.911881C104.072 0.911881 134.089 30.9279 134.089 67.9559Z" fill="#35208A"/>
<path d="M95.2197 36.7403C94.9024 34.8056 94.0771 33.1203 92.9224 31.5496C92.9064 31.5296 92.889 31.5123 92.873 31.4963C92.861 31.4763 92.8517 31.4576 92.8357 31.4389C90.3477 28.3296 85.9597 27.0856 82.3397 28.9883C79.2144 30.6323 76.9331 33.5896 75.3837 36.6976C72.3077 42.8629 71.9357 49.8949 71.7877 56.6669C71.7811 56.9776 72.045 57.1936 72.3344 57.2149C75.929 57.4683 79.5224 57.7229 83.1171 57.9763C83.5091 58.0029 83.6904 57.6069 83.6437 57.2843C82.8637 51.9069 82.6677 46.2563 84.6677 41.0989C86.141 37.3069 90.7184 33.4616 94.3077 37.2736C94.7144 37.7056 95.3024 37.2389 95.2197 36.7403" fill="white"/>
<path d="M72.9291 49.2201C73.7304 49.0908 74.3705 48.6081 75.1345 48.3321C75.9758 48.0281 76.8678 47.8428 77.7611 47.7948C79.5318 47.6988 80.9971 48.2775 82.6171 48.8735C82.9145 48.9815 83.0571 48.5481 82.8225 48.3881C81.2705 47.3388 79.1465 47.0041 77.3051 47.1975C75.8611 47.3468 73.6931 47.8188 72.8278 49.0868C72.7771 49.1588 72.8584 49.2308 72.9291 49.2201" fill="#35208A"/>
<path d="M73.8677 41.9681C74.5944 42.0041 75.1504 41.5415 75.8504 41.3588C76.7744 41.1188 77.753 41.1428 78.6717 41.3881C79.6557 41.6508 80.5544 42.1788 81.3104 42.8588C81.8704 43.3628 82.2744 43.9921 82.9397 44.3561C83.1264 44.4588 83.3704 44.2455 83.2437 44.0521C82.1837 42.4188 80.3664 41.0641 78.445 40.6828C77.1557 40.4281 74.4464 40.4761 73.8344 41.9108C73.8237 41.9388 73.8357 41.9668 73.8677 41.9681" fill="#35208A"/>
<path d="M76.8304 34.8561C77.209 35.2774 77.6797 35.1881 78.2224 35.3294C78.997 35.5308 79.7331 35.8948 80.3944 36.3428C81.9691 37.4094 82.6504 38.9948 83.9077 40.3108C84.0504 40.4588 84.2757 40.3027 84.2357 40.1187C83.869 38.4041 82.1237 36.7414 80.7144 35.7974C79.8877 35.2454 77.733 33.9747 76.8304 34.8054C76.8144 34.8201 76.817 34.8427 76.8304 34.8561" fill="#35208A"/>
<path d="M81.2905 29.8893C82.7412 30.3613 83.7505 31.1679 84.5052 32.5173C85.3052 33.9453 85.2452 35.3799 85.6972 36.8786C85.7532 37.0599 86.0185 37.0653 86.0705 36.8786C86.8118 34.2879 84.3918 29.3986 81.3478 29.4573C81.0972 29.4626 81.0545 29.8133 81.2905 29.8893" fill="#35208A"/>
<path d="M87.3291 28.5C89.0758 30.452 88.7771 32.8866 88.5424 35.3133C88.5024 35.7173 89.1144 35.7026 89.1651 35.3133C89.4264 33.3133 89.9424 29.1853 87.5224 28.168C87.3238 28.084 87.2104 28.3693 87.3291 28.5Z" fill="#35208A"/>
<path d="M92.1574 31.6891C91.9974 32.2891 92.068 32.9238 91.8947 33.5318C91.7187 34.1465 91.3894 34.5865 91.0134 35.0865C90.84 35.3171 91.1747 35.6198 91.4013 35.4731C92.4147 34.8211 93.036 32.7145 92.4134 31.6558C92.3534 31.5531 92.188 31.5718 92.1574 31.6891Z" fill="#35208A"/>
<path d="M58.5187 36.6976C56.968 33.5896 54.6867 30.6323 51.56 28.9883C47.9413 27.0843 43.5533 28.3296 41.064 31.4389C41.0506 31.4576 41.04 31.4763 41.028 31.4963C41.0107 31.5123 40.9947 31.5296 40.9787 31.5496C39.824 33.1216 38.9973 34.8056 38.68 36.7403C38.5987 37.2376 39.1853 37.7056 39.5947 37.2736C43.18 33.4643 47.76 37.3056 49.232 41.0989C51.2333 46.2563 51.0387 51.9069 50.2573 57.2843C50.2107 57.6069 50.392 58.0029 50.784 57.9763C54.3787 57.7229 57.972 57.4683 61.5666 57.2149C61.856 57.1936 62.1187 56.9803 62.112 56.6669C61.9667 49.8949 61.5933 42.8629 58.5187 36.6976" fill="white"/>
<path d="M61.0743 49.0868C60.209 47.8201 58.041 47.3441 56.5956 47.1975C54.7516 47.0081 52.633 47.3375 51.0783 48.3881C50.845 48.5455 50.9837 48.9828 51.2823 48.8735C52.901 48.2788 54.373 47.7001 56.1396 47.7948C56.9556 47.8388 57.769 47.9988 58.5437 48.2575C59.3743 48.5348 60.1103 49.0815 60.9716 49.2201C61.0423 49.2308 61.1236 49.1588 61.0743 49.0868" fill="#35208A"/>
<path d="M60.0664 41.9108C59.4544 40.4761 56.7424 40.4295 55.4557 40.6828C53.5344 41.0641 51.7171 42.4201 50.6571 44.0521C50.5304 44.2455 50.7744 44.4588 50.9611 44.3561C51.6277 43.9921 52.0331 43.3628 52.5917 42.8588C53.3451 42.1761 54.2437 41.6521 55.229 41.3881C56.1584 41.1401 57.1157 41.1335 58.0504 41.3588C58.7624 41.5308 59.2997 42.0041 60.033 41.9681C60.0637 41.9668 60.0784 41.9388 60.0664 41.9108" fill="#35208A"/>
<path d="M57.0721 34.8054C56.1667 33.9747 54.0121 35.2454 53.1868 35.7974C51.7761 36.7414 50.0321 38.4041 49.6641 40.1187C49.6254 40.3027 49.8508 40.4588 49.9934 40.3108C51.2534 38.9921 51.9254 37.4134 53.5054 36.3428C54.1707 35.8934 54.9014 35.5361 55.6787 35.3294C56.2281 35.1828 56.6881 35.2827 57.0721 34.8561C57.0841 34.8427 57.0867 34.8201 57.0721 34.8054" fill="#35208A"/>
<path d="M52.5517 29.4573C49.5063 29.3986 47.0903 34.2893 47.8303 36.8786C47.8837 37.0639 48.149 37.0599 48.2037 36.8786C48.6543 35.3853 48.5983 33.9413 49.3957 32.5173C50.1517 31.1679 51.1557 30.3626 52.6103 29.8893C52.8437 29.8146 52.8063 29.4626 52.5517 29.4573" fill="#35208A"/>
<path d="M46.3785 28.168C43.9572 29.1853 44.4745 33.316 44.7345 35.3133C44.7852 35.7013 45.3985 35.7186 45.3585 35.3133C45.1238 32.888 44.8238 30.4533 46.5718 28.5C46.6905 28.3693 46.5772 28.084 46.3785 28.168Z" fill="#35208A"/>
<path d="M41.4876 31.6558C40.8663 32.7131 41.4849 34.8198 42.4996 35.4731C42.7263 35.6198 43.0596 35.3171 42.8863 35.0865C42.5089 34.5851 42.1823 34.1505 42.0049 33.5318C41.8316 32.9238 41.9036 32.2891 41.7436 31.6891C41.7129 31.5718 41.5489 31.5531 41.4876 31.6558Z" fill="#35208A"/>
<path d="M108.125 45.3453C108.111 45.3 108.093 45.2547 108.064 45.2093C107.26 43.9013 106.28 42.8907 104.648 43.0427C102.683 43.2227 101.135 44.3573 99.7706 45.668C96.4186 48.8893 92.4799 51.6107 88.2146 53.4947C86.4199 54.2867 84.9133 55.0707 83.6853 56.6667C82.9053 57.6787 81.448 60.0333 81.9586 61.3533C82.2733 62.1627 83.1853 63.0027 83.6986 63.6947C84.2773 64.4747 84.8573 65.2547 85.4386 66.0347C85.6293 66.2933 85.8879 66.3613 86.1853 66.2307C89.0199 64.9867 91.7013 62.892 94.7493 62.2107C97.4826 61.6 100.155 61.4507 102.685 60.1C105.036 58.8453 106.693 57.0573 107.611 54.556C108.571 51.944 109.368 47.9813 108.125 45.3453" fill="#996666"/>
<path d="M105.029 49.3055C104.546 48.4921 103.629 47.8921 102.688 47.9814C101.877 48.0561 101.19 48.6028 100.616 49.1814C99.1943 50.6148 98.1197 52.5228 96.4357 53.6481C94.2183 55.1281 91.4704 55.2814 89.1944 56.5508C88.6637 56.8454 83.401 60.3455 84.3117 61.2628C84.313 61.2641 86.7184 63.6895 86.7184 63.6895C88.8197 63.6881 90.9023 61.9281 92.6463 60.9494C94.7917 59.7441 96.6103 59.8268 98.9797 59.4148C102.518 58.7988 105.294 55.6188 105.552 52.0508C105.621 51.1081 105.512 50.1188 105.029 49.3055" fill="#FFC9A8"/>
<path d="M50.4052 56.6667C49.1786 55.0747 47.6692 54.2867 45.8759 53.4947C41.6092 51.6093 37.6719 48.8893 34.3199 45.668C32.9572 44.3587 31.4039 43.2213 29.4412 43.0427C27.8026 42.892 26.8306 43.9 26.0252 45.2093C25.9972 45.2547 25.9785 45.3 25.9639 45.3454C24.7199 47.984 25.5226 51.94 26.4786 54.556C27.3919 57.0587 29.0559 58.8467 31.4039 60.1C33.9372 61.4507 36.6079 61.5947 39.3399 62.2107C42.3892 62.8987 45.0666 64.9867 47.9039 66.2307C48.1999 66.36 48.4586 66.296 48.6532 66.0347C49.2319 65.2547 49.8119 64.4747 50.3906 63.6947C50.9052 63.0013 51.8172 62.1653 52.1305 61.3533C52.6385 60.0373 51.1759 57.668 50.4052 56.6667" fill="#996666"/>
<path d="M29.0597 49.3055C29.5437 48.4921 30.4597 47.8921 31.401 47.9814C32.2143 48.0561 32.8984 48.6028 33.473 49.1814C34.8944 50.6148 35.9704 52.5228 37.6544 53.6481C39.8717 55.1281 42.6184 55.2814 44.8944 56.5508C45.4264 56.8454 50.6877 60.3455 49.777 61.2628C49.7757 61.2641 47.373 63.6895 47.3717 63.6895C45.2704 63.6881 43.1864 61.9281 41.4437 60.9494C39.297 59.7441 37.4784 59.8268 35.1104 59.4148C31.5704 58.7988 28.7944 55.6188 28.537 52.0508C28.469 51.1081 28.577 50.1188 29.0597 49.3055Z" fill="#FFC9A8"/>
<path d="M85.3996 56.9265C83.9916 54.9358 82.2556 53.0212 79.9689 52.0438C77.4063 50.9465 74.5929 51.7745 71.9436 52.1118C68.5316 52.5478 65.3449 52.6265 61.9409 52.0812C59.3849 51.6705 56.5916 50.9865 54.1196 52.0438C49.3956 54.0652 46.4756 59.7452 45.2823 64.4705C43.8663 70.0812 45.005 75.6065 47.4183 80.7625C49.7556 85.7585 52.7489 90.3452 55.6316 95.0225C57.9903 98.8505 58.3516 105.269 63.1463 107.089C66.2476 108.268 70.257 108.126 72.8543 105.891C74.865 104.161 75.6183 101.637 76.4716 99.2224C77.3903 96.6224 78.8356 94.4598 80.345 92.1812C82.1103 89.5172 83.6063 86.6345 85.1196 83.8225C86.6076 81.0558 87.9796 78.1838 88.7623 75.1278C90.3743 68.8332 89.0036 62.2825 85.3996 56.9265" fill="#996666"/>
<path d="M75.1716 102.672C75.1236 102.274 75.0303 101.877 74.8797 101.489C73.2223 97.2321 66.5623 97.1749 63.1797 98.491C61.4583 99.1602 59.6437 100.91 58.917 102.679C59.765 104.495 61.117 106.291 63.0263 107.051C66.1397 108.288 70.241 108.144 72.8583 105.891C73.901 104.995 74.6103 103.877 75.1716 102.672" fill="#FFC9A8"/>
<path d="M51.8533 77.7402C50.596 77.7402 49.3907 76.6349 49.4493 75.3362C49.5067 74.0349 50.5053 72.9336 51.8533 72.9336C53.1107 72.9336 54.316 74.0389 54.2573 75.3362C54.2 76.6389 53.2013 77.7402 51.8533 77.7402Z" fill="#35208A"/>
<path d="M82.2356 77.7402C80.9782 77.7402 79.7742 76.6349 79.8316 75.3362C79.8889 74.0349 80.8876 72.9336 82.2356 72.9336C83.4942 72.9336 84.6982 74.0389 84.6409 75.3362C84.5822 76.6389 83.5836 77.7402 82.2356 77.7402Z" fill="#35208A"/>
<path d="M63.4557 100.731C64.9224 99.9702 64.2117 97.5223 64.1077 96.2038C63.945 94.1318 63.781 92.0598 63.6184 89.9904C63.3024 85.9704 63.225 81.8451 62.617 77.8598C62.0704 74.2811 59.2197 71.2958 57.3944 68.2771C56.4437 66.7064 55.5464 65.0931 54.8064 63.4091C53.9984 61.5678 53.5917 59.6038 52.8637 57.7571C52.373 56.5104 50.645 56.6918 50.529 58.0731C50.2197 61.7571 52.5317 65.7411 54.3597 68.8331C55.3291 70.4691 56.381 72.0544 57.4464 73.6264C58.621 75.3598 59.717 76.8651 59.9704 79.0024C60.469 83.2104 60.7317 87.4598 61.113 91.6798C61.301 93.7571 61.4757 95.8344 61.673 97.9103C61.7437 98.6572 61.9597 101.507 63.4557 100.731" fill="#FFC9A8"/>
<path d="M71.1054 100.792C72.6454 100.294 72.4001 98.0893 72.5187 96.7721C72.7041 94.6987 72.8907 92.6254 73.0787 90.5534C73.2654 88.4841 73.4521 86.4134 73.6387 84.3441C73.8241 82.2854 73.8374 80.1214 74.2534 78.0947C74.6347 76.2347 75.8881 74.7481 76.9254 73.2094C77.9921 71.6267 79.04 70.0307 79.996 68.3787C81.7254 65.3894 83.8561 61.6041 83.5601 58.0734C83.4454 56.7014 81.7201 56.5014 81.2254 57.7574C80.4974 59.6041 80.0907 61.5681 79.2827 63.4094C78.4747 65.2534 77.4747 67.0121 76.4214 68.7254C74.4974 71.8507 71.8347 74.7254 71.3907 78.4894C70.8974 82.6721 70.7134 86.9161 70.3827 91.1161C70.2187 93.1907 70.0547 95.2667 69.8934 97.3403C69.8427 97.9893 69.4374 101.332 71.1054 100.792" fill="#FFC9A8"/>
<path d="M61.9892 100.746C62.4972 101.263 63.4026 101.138 64.0572 101.426C64.7852 101.744 65.2252 102.414 65.9426 102.704C66.4852 102.921 66.9106 102.302 66.8132 101.833C66.6252 100.919 65.4719 100.291 64.6746 99.964C63.9399 99.6609 62.6052 99.2464 61.9892 99.9426C61.7839 100.173 61.7626 100.516 61.9892 100.746" fill="#35208A"/>
<path d="M72.101 99.9426C71.4836 99.2437 70.1543 99.6582 69.4143 99.964C68.621 100.291 67.4636 100.922 67.2756 101.833C67.1783 102.302 67.605 102.921 68.1463 102.704C68.8623 102.414 69.3049 101.743 70.0316 101.426C70.6876 101.138 71.5916 101.264 72.101 100.746C72.3263 100.519 72.3063 100.173 72.101 99.9426Z" fill="#35208A"/>
<path d="M60.8731 102.351C61.8931 107.98 71.5918 107.104 73.2958 102.412C73.4411 102.017 72.8105 101.847 72.6678 102.239C71.8625 104.465 69.3705 105.38 67.1825 105.543C64.5771 105.737 62.3305 104.707 61.3411 102.223C61.2265 101.934 60.8158 102.039 60.8731 102.351" fill="#35208A"/>
<path d="M84.1586 87.6055C82.1773 87.6055 80.2786 85.8628 80.372 83.8175C80.4626 81.7655 82.0346 80.0295 84.1586 80.0295C86.1386 80.0295 88.0373 81.7721 87.9453 83.8175C87.8533 85.8695 86.2813 87.6055 84.1586 87.6055Z" fill="#E0435B"/>
<path d="M50.8878 87.6055C48.9078 87.6055 47.0091 85.8628 47.1024 83.8175C47.1931 81.7655 48.7664 80.0295 50.8878 80.0295C52.8704 80.0295 54.7678 81.7721 54.6758 83.8175C54.5838 85.8695 53.0118 87.6055 50.8878 87.6055Z" fill="#E0435B"/>
<path d="M63.6092 56.3411C63.1198 57.0251 63.5705 58.2505 63.8305 58.9665C64.1798 59.9318 64.7145 60.7891 65.3958 61.5531C65.6665 61.8545 66.1012 61.4118 65.8398 61.1105C65.1372 60.2945 64.5932 59.3798 64.2785 58.3438C64.0812 57.6945 64.1465 56.8598 63.7185 56.3278C63.6865 56.2891 63.6318 56.3091 63.6092 56.3411" fill="#35208A"/>
<path d="M67.1798 57.3346C66.6918 58.5306 67.8798 60.3626 68.5945 61.272C69.6251 62.584 71.0171 63.532 72.6438 63.9186C72.9824 64 73.1105 63.5133 72.7865 63.4013C71.2638 62.8813 69.9304 62.0106 68.9478 60.7253C68.4678 60.0973 68.0918 59.4053 67.8291 58.6586C67.6558 58.1666 67.6264 57.7146 67.3038 57.3013C67.2651 57.2533 67.1984 57.2893 67.1798 57.3346" fill="#35208A"/>
<path d="M69.8999 54.9319C69.6106 56.1719 70.1759 57.5639 71.1639 58.3333C71.4319 58.5399 71.7839 58.2159 71.5439 57.9533C70.7453 57.0839 70.4866 56.1626 70.4653 55.0079C70.4586 54.6919 69.9759 54.6079 69.8999 54.9319" fill="#35208A"/>
<path d="M77.9423 85.7696C78.3717 87.3069 78.2477 88.6056 77.6717 90.0816C77.5543 90.3802 78.017 90.5509 78.1743 90.2936C79.0303 88.9003 79.0757 87.0496 78.4077 85.5723C78.2877 85.3069 77.8677 85.4976 77.9423 85.7696" fill="#35208A"/>
<path d="M80.2995 88.4335C80.2742 88.7548 80.2702 89.0615 80.1782 89.3762C80.0969 89.6535 79.9022 89.8975 79.9009 90.1895C79.9009 90.3882 80.1142 90.4948 80.2796 90.4068C80.5942 90.2428 80.7142 89.8082 80.7836 89.4828C80.8622 89.1228 80.8876 88.7228 80.7742 88.3695C80.6902 88.1015 80.3235 88.1655 80.2995 88.4335" fill="#35208A"/>
<path d="M56.8504 88.4029C56.4744 88.9722 56.657 89.8242 56.8104 90.4495C56.9997 91.2228 57.3437 91.9389 57.8677 92.5389C58.0543 92.7549 58.413 92.4748 58.2623 92.2335C57.853 91.5842 57.4824 90.9335 57.285 90.1828C57.133 89.5975 57.2117 88.9495 56.9544 88.4029C56.9357 88.3589 56.8744 88.3682 56.8504 88.4029" fill="#35208A"/>
<path d="M58.6236 90.6466C58.7503 91.2026 59.0409 91.7319 59.3556 92.2039C59.6223 92.6052 59.9356 93.1105 60.4156 93.2559C60.5516 93.2972 60.7049 93.1559 60.6556 93.0145C60.4983 92.5599 60.0702 92.2385 59.7956 91.8492C59.4902 91.4145 59.2809 90.9399 59.0316 90.4745C58.9076 90.2452 58.5689 90.4066 58.6236 90.6466Z" fill="#35208A"/>
<path d="M27.3666 49.3829C27.452 48.8269 27.4226 48.2696 27.5773 47.7216C27.764 47.0642 28.1106 46.5282 28.5573 46.0202C28.8066 45.7349 28.42 45.3402 28.14 45.6029C27.2066 46.4749 26.4786 48.1789 27.0573 49.4229C27.116 49.5496 27.344 49.5242 27.3666 49.3829Z" fill="#35208A"/>
<path d="M29.0307 47.6468C29.06 47.5762 29.1267 47.5468 29.168 47.4868C29.208 47.4281 29.224 47.3481 29.256 47.2841C29.3267 47.1375 29.4147 47.0001 29.5267 46.8841C29.7494 46.6535 30.052 46.5921 30.2934 46.3975C30.444 46.2775 30.348 46.0335 30.1854 45.9868C29.7654 45.8668 29.3094 46.2095 29.0534 46.5161C28.9174 46.6815 28.8107 46.8628 28.744 47.0681C28.716 47.1548 28.6867 47.2655 28.692 47.3575C28.6974 47.4588 28.7667 47.5201 28.7894 47.6148C28.8147 47.7161 28.9853 47.7535 29.0307 47.6468" fill="#35208A"/>
<path d="M103.18 45.6429C103.524 45.8149 103.912 45.8362 104.248 46.0402C104.645 46.2789 104.91 46.6389 105.037 47.0829C105.134 47.4322 105.658 47.2856 105.577 46.9349C105.446 46.3722 105.072 45.8896 104.568 45.6056C104.164 45.3776 103.557 45.2002 103.165 45.5362C103.134 45.5629 103.144 45.6229 103.18 45.6429" fill="#35208A"/>
<path d="M106.146 45.3467C106.202 45.776 106.696 46.0986 106.873 46.5026C107.13 47.0933 107.101 47.7066 106.941 48.32C106.872 48.5933 107.268 48.7773 107.406 48.516C107.756 47.8613 107.725 47.112 107.444 46.4346C107.272 46.0173 106.75 45.116 106.186 45.2933C106.165 45.3 106.142 45.324 106.146 45.3467" fill="#35208A"/>
<path d="M50.0224 103.84C50.0237 103.77 49.9984 103.719 49.957 103.684C49.5597 102.935 48.1237 102.787 47.4037 102.645C46.2264 102.412 45.0357 102.274 43.8464 102.116C43.6517 102.092 43.457 102.058 43.2624 102.036C43.1824 102.025 43.0464 101.958 43.0597 101.994C42.8944 101.797 42.7904 101.379 42.701 101.169C42.209 100.021 41.7344 98.8668 41.233 97.7225C40.9784 97.1413 40.7197 96.5626 40.4437 95.992C40.2744 95.64 40.0797 94.9813 39.6904 94.8106C38.8237 94.4306 38.2184 96.573 37.9864 97.0917C37.4344 98.3277 36.917 99.5772 36.381 100.82C36.269 101.081 36.0797 101.832 35.8437 102.009C35.7304 102.096 34.921 102.052 34.7144 102.068C34.185 102.111 33.657 102.152 33.129 102.201C32.229 102.286 31.3144 102.37 30.4437 102.628C29.921 102.782 28.9837 103.035 29.065 103.762C29.1317 104.356 30.0477 104.92 30.457 105.247C31.1624 105.807 31.909 106.309 32.689 106.756C33.0437 106.958 33.497 107.109 33.8197 107.353C34.237 107.669 34.0357 108.003 33.9224 108.432C33.6837 109.336 33.441 110.239 33.221 111.149C33.041 111.889 32.869 112.633 32.7544 113.387C32.6837 113.844 32.5077 114.513 32.717 114.955C33.2624 116.113 35.353 114.086 35.857 113.696C36.4917 113.209 37.1104 112.704 37.7184 112.182C38.0157 111.928 38.3104 111.668 38.5997 111.403C38.7624 111.253 39.1757 110.684 39.3864 110.649C39.7264 110.593 40.6437 111.704 40.921 111.943C41.5477 112.481 42.193 113 42.845 113.505C43.737 114.199 44.7144 115.123 45.8917 115.228C46.921 115.321 46.4304 113.764 46.2931 113.151C45.9691 111.687 45.493 110.257 45.0584 108.824C44.965 108.515 44.8437 108.199 44.7784 107.882C44.7077 107.536 44.7184 107.558 45.0104 107.384C45.5784 107.04 46.2704 106.829 46.865 106.529C47.8197 106.048 49.7304 105.179 49.9997 103.986C50.0237 103.944 50.033 103.896 50.0224 103.84" fill="#F7B9E7"/>
<path d="M124.036 65.6946C122.42 65.5532 120.772 65.5719 119.133 65.5906C119.597 65.1332 120.058 64.6746 120.518 64.2146C121.237 63.4919 122.052 62.7986 122.521 61.8852C122.732 61.4732 122.312 61.0679 121.905 61.2692C120.984 61.7226 120.274 62.5292 119.538 63.2346C119.061 63.6932 118.589 64.1546 118.116 64.6159C118.121 63.9519 118.124 63.2866 118.122 62.6212C118.121 61.6012 118.208 60.5332 117.89 59.5532C117.752 59.1199 117.166 59.1306 117.022 59.5532C116.69 60.5266 116.76 61.6012 116.738 62.6212C116.724 63.2826 116.717 63.9439 116.71 64.6052C116.242 64.1306 115.774 63.6586 115.304 63.1892C114.581 62.4692 113.888 61.6559 112.974 61.1852C112.562 60.9746 112.158 61.3946 112.357 61.8026C112.81 62.7239 113.618 63.4332 114.325 64.1679C114.781 64.6452 115.244 65.1172 115.706 65.5906C115.041 65.5866 114.377 65.5826 113.712 65.5839C112.689 65.5866 111.622 65.4999 110.642 65.8172C110.209 65.9559 110.22 66.5412 110.642 66.6852C111.616 67.0172 112.689 66.9479 113.712 66.9692C114.357 66.9826 115.004 66.9906 115.65 66.9972C114.457 68.1239 113.256 69.2586 112.189 70.4852C111.616 71.1439 112.478 71.9919 113.14 71.4372C114.372 70.4026 115.513 69.2372 116.648 68.0772C116.602 69.7039 116.554 71.3386 116.666 72.9452C116.728 73.8146 117.937 73.8066 118.012 72.9452C118.153 71.3439 118.136 69.7132 118.117 68.0906C119.234 69.2732 120.358 70.4626 121.574 71.5186C122.233 72.0919 123.081 71.2292 122.525 70.5666C121.493 69.3359 120.326 68.1946 119.165 67.0586C120.792 67.1066 122.429 67.1532 124.036 67.0399C124.904 66.9786 124.896 65.7706 124.036 65.6946" fill="white"/>
<path d="M68.9329 11.2096C68.5716 10.5909 67.893 10.2816 67.1916 10.3762C66.1623 10.5136 65.4596 11.5402 65.7396 12.5562C65.857 12.9802 66.1636 13.3789 66.5436 13.6002C66.9556 13.8415 67.4303 13.8816 67.8876 13.7762C68.9943 13.5242 69.4796 12.1482 68.9329 11.2096" fill="white"/>
<path d="M92.477 22.876C94.141 22.876 94.1437 20.2893 92.477 20.2893C90.8143 20.2893 90.8103 22.876 92.477 22.876Z" fill="white"/>
<path d="M71.2387 37.1399C71.1507 36.8359 71.0187 36.5599 70.7761 36.3479C70.4081 36.0212 69.9987 35.8652 69.5054 35.9319C69.0081 35.9986 68.6881 36.2559 68.4001 36.6546C68.2054 36.9252 68.1707 37.2346 68.1494 37.5572C68.1214 37.9732 68.3387 38.3746 68.6094 38.6692C68.9454 39.0359 69.4574 39.1666 69.9321 39.1026C70.8454 38.9799 71.5081 38.0559 71.2387 37.1399Z" fill="white"/>
<path d="M104.546 35.9708C104.526 35.9562 104.506 35.9429 104.488 35.9295C104.146 35.6802 103.51 35.6802 103.169 35.9295C103.15 35.9429 103.13 35.9562 103.112 35.9708C102.844 36.1655 102.658 36.3468 102.53 36.6508C102.406 36.9428 102.374 37.2669 102.458 37.5749C102.618 38.1549 103.21 38.6455 103.829 38.6175C104.401 38.5922 104.901 38.2775 105.126 37.7455C105.25 37.4522 105.284 37.1295 105.198 36.8202C105.097 36.4482 104.849 36.1922 104.546 35.9708" fill="white"/>
<path d="M96.7331 80.9149C96.8465 80.9335 96.9585 80.9509 97.0718 80.9709C97.5611 81.0522 98.0718 81.0016 98.4318 80.6109C98.6825 80.3376 98.8398 80.0016 98.8398 79.6229C98.8398 79.2656 98.6838 78.8895 98.4318 78.6362C98.2571 78.4629 98.0518 78.3429 97.8158 78.2776C97.5665 78.2109 97.3198 78.2109 97.0718 78.2776C96.9585 78.2949 96.8465 78.3149 96.7331 78.3335C96.6265 78.3775 96.5198 78.4229 96.4131 78.4682C96.2571 78.5522 96.1318 78.6669 96.0385 78.8122C95.8638 79.0389 95.7371 79.3309 95.7505 79.6229C95.7611 79.8616 95.8225 80.0895 95.9331 80.2989C96.0705 80.5589 96.4358 80.8655 96.7331 80.9149" fill="white"/>
<path d="M116.953 97.8838C117.361 97.8838 117.788 97.7067 118.077 97.4187C118.352 97.1426 118.558 96.6906 118.542 96.2958C118.502 95.4358 117.844 94.7078 116.953 94.7078C116.548 94.7078 116.118 94.8851 115.83 95.1718C115.554 95.4478 115.348 95.8998 115.366 96.2958C115.404 97.1557 116.064 97.8838 116.953 97.8838" fill="white"/>
<path d="M95.1385 102.277C95.5345 102.277 95.9505 102.104 96.2305 101.824C96.4985 101.556 96.7012 101.115 96.6839 100.729C96.6465 99.8919 96.0038 99.1841 95.1385 99.1841C94.7412 99.1841 94.3252 99.356 94.0452 99.6361C93.7758 99.9039 93.5745 100.344 93.5919 100.729C93.6292 101.567 94.2718 102.277 95.1385 102.277Z" fill="white"/>
<path d="M77.3307 124.841C76.888 124.704 76.388 124.784 75.992 125.017C75.0254 125.582 74.8467 126.956 75.64 127.748C76.404 128.513 77.8427 128.394 78.372 127.396C78.5907 126.982 78.6734 126.517 78.5467 126.056C78.3814 125.456 77.916 125.024 77.3307 124.841Z" fill="white"/>
<path d="M56.1172 110.912C56.5466 110.912 56.9959 110.727 57.2972 110.424C57.5879 110.135 57.8052 109.66 57.7866 109.243C57.7466 108.339 57.0532 107.573 56.1172 107.573C55.6892 107.573 55.2399 107.76 54.9372 108.063C54.6479 108.352 54.4292 108.828 54.4479 109.243C54.4892 110.148 55.1812 110.912 56.1172 110.912Z" fill="white"/>
<path d="M41.141 82.032C40.973 82.0694 40.781 82.152 40.653 82.232C40.5223 82.3134 40.353 82.4267 40.2516 82.544C39.9983 82.8334 39.8356 83.1334 39.7836 83.5187C39.7356 83.8814 39.781 84.284 39.9863 84.6014C40.3943 85.2347 41.1556 85.5894 41.9036 85.3827C41.9089 85.3814 41.9156 85.3787 41.9223 85.3774C41.7716 85.3974 41.6196 85.4174 41.4689 85.4387C41.4916 85.4347 41.5089 85.436 41.5329 85.4387C41.3809 85.4174 41.2263 85.396 41.0743 85.376C41.0983 85.3814 41.1183 85.388 41.141 85.3947C41.6876 85.6054 42.4516 85.3667 42.8369 84.9467C43.1516 84.6067 43.3476 84.1867 43.3476 83.7147C43.3476 83.2667 43.1543 82.7974 42.8369 82.4814C42.3809 82.0227 41.7583 81.896 41.141 82.032" fill="white"/>
<path d="M14.7372 86.9638C14.7359 86.9465 14.7372 86.9318 14.7386 86.9158C14.7199 87.0518 14.7026 87.1878 14.6839 87.3238C14.7159 87.1611 14.7639 87.1451 14.7506 86.8651C14.7372 86.5745 14.6652 86.3305 14.5319 86.0678C14.0799 85.1931 12.7879 85.0825 12.1279 85.7585C11.7399 86.1571 11.5732 86.7331 11.7172 87.2758C11.7586 87.4331 11.8306 87.5865 11.8999 87.7318C11.9799 87.8345 12.0586 87.9385 12.1386 88.0398C12.2759 88.1878 12.4399 88.2931 12.6279 88.3545C12.9306 88.4825 13.2986 88.5358 13.6186 88.4318C14.2572 88.2251 14.7399 87.6545 14.7372 86.9638Z" fill="white"/>
<path d="M24.0147 67.7734C24.4321 67.7734 24.8721 67.5921 25.1667 67.2961C25.4494 67.0134 25.6627 66.5494 25.6441 66.1441C25.6254 65.7228 25.4867 65.2841 25.1667 64.9921C24.8481 64.6988 24.4561 64.5134 24.0147 64.5134C23.5974 64.5134 23.1587 64.6961 22.8627 64.9921C22.5801 65.2748 22.3667 65.7374 22.3854 66.1441C22.4041 66.5641 22.5427 67.0014 22.8627 67.2961C23.1814 67.5881 23.5721 67.7734 24.0147 67.7734Z" fill="white"/>
<path d="M22.7307 31.9429C24.824 31.9429 24.828 28.6895 22.7307 28.6895C20.6373 28.6895 20.6333 31.9429 22.7307 31.9429Z" fill="white"/>
<path d="M14.4798 52.7345C14.5184 52.6652 14.5571 52.5932 14.5971 52.5225C14.7984 52.1598 14.8691 51.7665 14.8144 51.3558C14.7624 50.9718 14.6051 50.5758 14.3104 50.3065C14.0771 50.0918 13.8051 49.9332 13.5038 49.8345C13.0531 49.6905 12.4971 49.7972 12.0944 50.0198C12.0238 50.0585 11.9518 50.0985 11.8824 50.1372C10.8064 50.7318 10.6518 52.2732 11.4971 53.1185C12.3438 53.9652 13.8851 53.8105 14.4798 52.7345" fill="#FFF896"/>
<path d="M83.1463 108.976C83.1529 108.965 83.1596 108.955 83.1636 108.944C83.5063 108.389 83.5063 107.615 83.1636 107.059C83.1596 107.049 83.1529 107.039 83.1463 107.028C82.6983 106.299 81.8063 105.911 80.9676 106.143C80.5609 106.253 80.2196 106.504 79.9663 106.834C79.7156 107.159 79.5329 107.579 79.5516 108.001C79.5863 108.78 80.0129 109.459 80.7369 109.765C81.6276 110.14 82.6396 109.801 83.1463 108.976" fill="#FFF896"/>
<path d="M118.019 83.9438C120.384 83.9438 120.387 80.2692 118.019 80.2692C115.655 80.2692 115.651 83.9438 118.019 83.9438Z" fill="#FFF896"/>
<path d="M51.4237 17.2732C51.5797 17.3439 51.7557 17.4399 51.9224 17.4799C52.6877 17.6626 53.5144 17.3612 53.9224 16.6666C54.3037 16.0119 54.2183 15.0466 53.645 14.5186C53.113 14.0319 52.3823 13.8706 51.7103 14.1532C50.885 14.4999 50.477 15.3732 50.685 16.2426C50.7744 16.6146 51.0624 17.1079 51.4237 17.2732" fill="#FFF896"/>
<path d="M52.7477 123.328C53.2197 123.328 53.7184 123.121 54.0517 122.786C54.3731 122.467 54.6131 121.943 54.5931 121.481C54.5718 121.004 54.4144 120.509 54.0517 120.176C53.6917 119.845 53.2477 119.636 52.7477 119.636C52.2744 119.636 51.7757 119.841 51.4411 120.176C51.1224 120.497 50.8811 121.021 50.9011 121.481C50.9237 121.958 51.0797 122.453 51.4411 122.786C51.8037 123.117 52.2477 123.328 52.7477 123.328Z" fill="#FFF896"/>
</svg>
