<?xml version="1.0" standalone="no"?>
<!DOCTYPE svg PUBLIC "-//W3C//DTD SVG 20010904//EN"
 "http://www.w3.org/TR/2001/REC-SVG-20010904/DTD/svg10.dtd">
<svg version="1.0" xmlns="http://www.w3.org/2000/svg"
 width="1280.000000pt" height="1016.000000pt" viewBox="0 0 1280.000000 1016.000000"
 preserveAspectRatio="xMidYMid meet">
<g transform="translate(0.000000,1016.000000) scale(0.100000,-0.100000)"
fill="#000000" stroke="none">
<path d="M6510 10144 c-235 -25 -342 -57 -348 -102 -11 -79 146 -137 708 -262
589 -131 730 -178 1002 -339 141 -83 208 -137 208 -167 0 -15 15 -52 34 -83
55 -90 81 -150 70 -160 -12 -13 -192 45 -649 206 -204 73 -426 147 -493 167
-522 152 -644 73 -396 -257 131 -175 246 -270 411 -341 43 -18 222 -81 398
-141 242 -81 327 -114 350 -135 17 -15 95 -65 175 -110 261 -149 379 -236 545
-404 122 -123 212 -239 307 -395 180 -296 347 -459 611 -597 153 -79 312 -136
575 -204 23 -6 42 -16 42 -21 0 -24 -111 -179 -181 -254 -88 -95 -130 -153
-170 -240 -33 -70 -69 -223 -69 -297 0 -60 -15 -73 -87 -82 -32 -4 -127 -18
-211 -32 l-154 -25 -46 27 c-26 15 -81 60 -123 100 -92 89 -111 92 -184 34
-56 -45 -74 -49 -100 -20 -16 18 -16 26 -5 99 11 63 11 88 1 120 -26 87 -210
241 -352 295 -151 57 -199 43 -218 -66 -19 -112 -49 -102 -74 25 -20 97 -54
157 -113 198 -131 90 -301 100 -403 25 -38 -28 -55 -23 -65 20 -4 14 -16 50
-27 80 -17 45 -25 55 -42 52 -22 -3 -28 -17 -48 -118 -19 -95 -38 -110 -136
-110 -174 0 -235 87 -165 235 39 81 127 195 267 344 195 208 118 148 -118 -91
-226 -229 -322 -308 -377 -308 -33 0 -48 16 -56 61 -8 42 -28 81 -48 98 -54
45 17 86 182 107 137 17 178 29 187 52 20 53 -122 70 -271 32 -103 -26 -270
-110 -340 -171 -68 -60 -103 -65 -143 -18 -76 89 -86 95 -101 54 -7 -19 -17
-25 -38 -25 -33 0 -166 63 -314 148 -119 69 -193 106 -228 117 -21 6 -18 0 23
-42 65 -67 63 -77 -15 -69 -35 4 -74 10 -88 12 -23 5 -24 4 -7 -9 10 -8 86
-32 170 -52 268 -66 405 -117 395 -147 -3 -7 -34 -18 -70 -24 -85 -16 -119
-34 -165 -89 -29 -36 -44 -45 -68 -45 -87 0 -207 130 -459 495 -117 170 -142
202 -151 193 -11 -11 21 -61 182 -275 185 -245 253 -343 287 -410 51 -102 29
-107 -102 -25 -65 41 -106 75 -137 115 -66 83 -79 78 -70 -28 9 -101 -3 -110
-54 -41 -73 98 -117 77 -156 -74 -9 -36 -21 -69 -25 -74 -6 -6 -36 4 -76 25
-62 31 -74 33 -158 33 -180 -2 -296 -75 -296 -187 0 -60 -14 -68 -93 -49 -127
29 -248 -11 -389 -132 -78 -67 -203 -203 -244 -268 -21 -34 -26 -36 -62 -31
-35 5 -43 1 -75 -31 -34 -34 -77 -137 -77 -186 0 -54 -20 -61 -81 -30 -50 26
-174 57 -259 65 -114 11 -105 2 -105 107 0 101 -14 140 -77 221 -102 129 -306
175 -532 119 -51 -13 -93 -19 -98 -14 -18 18 193 262 558 649 358 378 544 613
544 685 0 10 -9 37 -21 60 -30 60 -22 117 34 232 63 130 109 199 186 279 198
206 485 357 1109 586 343 126 417 157 459 194 48 42 42 65 -27 99 -131 66
-477 118 -777 118 -78 0 -103 3 -103 13 0 27 146 91 282 124 58 14 115 18 278
18 185 0 223 -4 391 -33 217 -37 199 -36 199 -17 0 58 -344 169 -635 205 -133
17 -411 14 -538 -5 -273 -41 -414 -107 -773 -363 -78 -55 -123 -79 -201 -107
-172 -59 -265 -103 -465 -215 -85 -48 -403 -337 -584 -531 -281 -301 -400
-502 -589 -999 -264 -696 -279 -761 -210 -945 l35 -94 -40 -53 c-61 -80 -84
-167 -76 -282 6 -98 33 -231 67 -336 34 -104 133 -297 206 -398 177 -247 462
-467 760 -587 178 -72 250 -88 397 -90 l129 -1 38 -55 c48 -71 138 -154 218
-200 131 -78 403 -148 603 -156 110 -5 118 -7 133 -30 9 -13 14 -27 11 -32 -3
-4 -58 -11 -123 -14 -65 -3 -239 -13 -388 -23 -332 -21 -468 -13 -620 37 -91
30 -96 31 -109 14 -12 -17 -17 -16 -97 10 -91 30 -337 128 -489 195 -53 24
-118 44 -148 47 -51 6 -53 7 -124 92 -181 215 -537 556 -626 599 l-55 27 -56
130 c-84 193 -174 360 -241 449 -55 73 -69 104 -96 211 -22 86 -47 97 -62 28
-29 -130 -54 -333 -50 -403 7 -120 82 -277 205 -427 60 -75 75 -103 53 -103
-5 0 -10 -24 -10 -52 0 -96 64 -178 349 -451 150 -144 293 -264 401 -337 34
-23 77 -59 95 -79 36 -40 206 -140 320 -189 150 -64 441 -139 615 -158 37 -4
73 -14 84 -23 14 -12 37 -16 95 -15 829 15 1114 28 1324 58 l88 13 70 -50 c39
-27 73 -55 75 -62 7 -18 -28 -93 -46 -100 -8 -4 -118 -9 -245 -12 -382 -9
-947 26 -1492 93 -29 4 -53 5 -53 2 0 -3 21 -13 48 -23 93 -35 89 -55 -13 -55
-135 0 -470 -39 -652 -75 -189 -38 -255 -68 -265 -120 -3 -17 -14 -21 -73 -27
-39 -4 -160 -17 -270 -28 -110 -12 -276 -26 -370 -30 -287 -15 -479 -28 -566
-40 -200 -26 -419 -64 -419 -72 0 -7 11 -13 70 -34 12 -4 12 -6 0 -14 -8 -5
-67 -6 -130 -3 -76 4 -123 2 -136 -5 -17 -10 -16 -12 16 -25 93 -39 494 -104
690 -113 69 -2 166 -6 215 -8 50 -2 125 -13 169 -25 63 -17 108 -21 215 -21
140 0 155 2 661 85 135 23 267 38 330 40 125 3 165 13 402 106 97 38 190 72
206 75 28 6 29 4 36 -37 4 -24 16 -54 28 -66 l20 -22 -41 -20 c-55 -29 -75
-61 -67 -110 l6 -39 -103 -32 c-284 -88 -967 -370 -967 -399 0 -11 15 -16 72
-26 21 -3 38 -11 38 -18 0 -7 -55 -34 -122 -61 -220 -88 -303 -131 -341 -178
-42 -53 -64 -94 -93 -178 -21 -63 -24 -66 -83 -95 -103 -51 -194 -159 -281
-332 -64 -129 -110 -293 -82 -293 6 0 82 71 169 159 87 87 184 175 216 196 33
21 125 59 215 90 346 117 547 228 704 387 39 39 66 58 82 58 34 0 181 47 241
78 76 38 132 79 218 159 102 96 144 117 214 110 30 -3 74 -15 98 -27 65 -31
107 -35 171 -15 95 30 85 6 -38 -87 -270 -205 -493 -410 -486 -446 2 -12 15
-18 43 -20 71 -5 70 -7 -15 -104 -89 -100 -198 -259 -222 -323 -36 -94 -31
-205 12 -298 l21 -45 -20 -66 c-47 -153 -71 -399 -52 -526 17 -107 97 -267
204 -405 35 -46 112 -114 130 -115 14 0 7 27 -18 59 -31 43 -49 129 -40 197 4
38 18 69 46 111 57 85 66 166 50 415 -7 104 -11 191 -9 192 1 2 37 20 78 42
98 50 203 153 252 249 45 87 100 260 122 385 10 52 21 102 25 110 4 8 28 19
52 25 79 21 89 30 89 82 0 43 4 51 53 97 32 31 92 72 156 105 98 51 105 53
140 41 45 -15 72 -6 297 96 378 171 527 211 840 223 l171 6 59 39 c90 59 191
145 269 227 73 77 105 129 105 172 0 38 14 41 86 17 54 -18 78 -21 142 -15 81
7 124 -4 184 -46 38 -27 89 -24 160 12 95 48 293 73 369 47 28 -9 80 -40 154
-93 10 -6 38 3 97 33 l83 42 148 -6 148 -7 27 -36 c79 -108 107 -143 176 -211
150 -148 237 -180 556 -205 230 -17 292 -26 402 -55 119 -31 210 -66 373 -143
170 -81 240 -95 302 -62 31 17 36 17 68 2 35 -17 67 -59 145 -196 23 -40 57
-90 74 -110 18 -20 47 -72 65 -116 82 -201 239 -467 342 -579 62 -69 153 -131
204 -140 31 -6 35 -10 35 -39 -1 -18 -7 -61 -15 -97 -20 -89 -18 -155 6 -311
11 -74 24 -221 29 -327 4 -107 11 -196 13 -199 11 -11 31 13 104 126 41 64 95
137 118 162 50 54 61 87 76 224 25 233 -26 602 -111 795 -16 38 -30 74 -30 80
0 27 -74 230 -117 323 -39 82 -45 102 -35 117 19 30 -1 65 -86 153 -89 92
-243 223 -419 355 -68 51 -123 97 -123 102 0 6 9 10 20 10 40 0 222 -31 240
-40 27 -14 66 -12 79 4 17 21 220 31 263 13 38 -16 125 -86 248 -201 137 -128
206 -161 250 -121 16 15 34 4 216 -126 458 -328 621 -425 699 -415 33 4 43 1
53 -14 6 -11 30 -29 53 -40 22 -12 114 -93 203 -181 90 -87 166 -159 170 -159
3 0 -10 31 -29 70 -47 93 -46 117 6 90 82 -45 -104 245 -298 465 -67 74 -72
85 -48 105 8 7 12 16 9 22 -7 12 -353 242 -507 338 -91 56 -121 81 -134 108
-41 86 -326 247 -613 345 -123 42 -278 83 -350 93 -59 8 -66 15 -46 46 20 30
23 102 6 122 -11 14 -10 20 7 39 11 12 23 30 26 40 15 42 150 12 351 -79 187
-85 271 -101 331 -64 31 19 36 19 96 6 57 -14 386 -58 749 -103 143 -17 322
-14 360 7 16 9 51 13 101 11 200 -6 648 59 712 104 15 11 49 15 117 16 120 0
99 9 -92 40 -91 14 -148 28 -148 35 0 13 45 24 98 24 72 0 20 11 -164 36 -116
15 -267 27 -391 31 l-201 6 -6 28 c-8 39 -42 43 -250 32 -253 -15 -390 0 -699
75 -86 22 -131 39 -170 64 -116 78 -127 81 -256 73 -90 -5 -151 -2 -271 13
-85 11 -188 24 -228 27 l-73 7 7 33 c5 28 2 35 -16 45 -31 16 -95 15 -170 -5
-42 -11 -115 -18 -205 -20 -112 -2 -177 -10 -325 -39 -240 -47 -292 -51 -495
-37 -261 18 -371 36 -406 65 -15 13 -46 27 -67 31 -41 7 -166 -7 -272 -29 -36
-8 -68 -12 -72 -9 -20 12 -2 34 60 75 38 25 108 78 157 117 49 39 94 71 101
71 7 0 47 -25 89 -55 120 -86 222 -109 370 -85 222 37 455 32 875 -16 232 -27
332 -32 368 -20 18 6 22 15 22 46 l0 38 78 6 c133 11 312 37 386 57 280 76
908 525 1211 868 49 55 93 101 97 101 5 0 17 15 28 32 15 25 20 51 20 108 1
99 23 149 86 192 26 18 55 40 64 49 36 35 102 301 104 419 1 71 -3 91 -21 120
-16 25 -26 70 -38 158 -9 67 -20 134 -25 148 -20 51 -30 12 -30 -111 0 -68 -3
-130 -6 -139 -10 -25 -31 -19 -55 15 -28 40 -38 24 -28 -44 11 -78 10 -101 -5
-122 -13 -18 -15 -16 -35 23 -22 42 -36 52 -43 30 -3 -7 2 -54 10 -105 8 -52
12 -97 8 -100 -3 -4 -16 3 -29 15 -56 53 -82 21 -131 -164 -47 -175 -50 -181
-90 -198 -69 -29 -351 -253 -455 -361 -113 -119 -215 -251 -261 -337 -34 -63
-35 -63 -140 -72 -107 -10 -251 -57 -537 -177 -93 -39 -105 -41 -128 -29 -21
11 -39 11 -98 2 -429 -71 -589 -86 -848 -80 -172 4 -225 9 -339 33 -74 15
-141 32 -148 38 -10 8 0 23 45 69 31 32 63 58 70 58 7 0 48 -12 90 -26 104
-35 232 -43 336 -20 106 24 232 89 372 191 244 180 281 205 350 240 69 34 72
34 135 24 242 -40 645 90 928 300 104 77 383 376 440 470 25 43 66 141 101
244 71 205 87 247 154 397 51 113 52 117 53 216 1 56 4 106 7 112 7 11 -4 77
-29 175 -44 172 -218 543 -399 852 -505 862 -1132 1593 -1542 1799 -29 14 -53
33 -53 40 0 36 -73 67 -375 161 -146 46 -152 49 -210 104 -117 112 -318 247
-510 342 -72 36 -132 59 -152 59 -18 0 -79 19 -135 41 -346 139 -588 197 -948
229 -69 6 -169 15 -223 21 -128 12 -292 9 -447 -7z m-1360 -6788 c0 -3 -4 -8
-10 -11 -5 -3 -10 -1 -10 4 0 6 5 11 10 11 6 0 10 -2 10 -4z m2795 -145 c99
-36 107 -51 28 -51 -54 0 -62 3 -91 33 -18 18 -29 36 -26 40 9 9 -2 12 89 -22z
m877 -97 c196 -13 446 -28 555 -33 198 -9 273 -22 243 -42 -18 -12 -648 -3
-825 12 -117 10 -361 47 -457 70 -74 17 -47 31 46 25 44 -4 242 -18 438 -32z
m-4832 -15 c47 -6 87 -12 89 -15 25 -24 -171 -44 -424 -43 -206 1 -295 8 -296
24 0 13 115 32 256 44 119 9 241 6 375 -10z m1396 10 c8 -14 -18 -31 -30 -19
-9 9 0 30 14 30 5 0 12 -5 16 -11z"/>
</g>
</svg>
