<svg width="135" height="135" viewBox="0 0 135 135" fill="none" xmlns="http://www.w3.org/2000/svg">
<path d="M134.088 67.956C134.088 104.984 104.072 135 67.0439 135C30.0159 135 0 104.984 0 67.956C0 30.928 30.0159 0.91067 67.0439 0.91067C104.072 0.91067 134.088 30.928 134.088 67.956Z" fill="#35208A"/>
<path d="M107.695 41.6691C107.34 37.0277 103.76 32.6611 100.665 29.4317C98.0906 26.7437 94.9 23.3477 90.9133 23.4771C90.236 23.4984 88.46 23.5224 88.2653 24.4451C88.056 25.4357 90.2493 26.3717 90.7533 26.9051C91.6747 27.8757 92.7587 29.0131 92.8333 30.4104C92.9107 31.8464 92.2547 33.2597 91.8613 34.6091C91.416 36.1371 91.4093 37.3571 92.124 38.8024C92.9346 40.4424 94.2466 41.8464 95.532 43.1251C96.256 43.8451 97.0107 44.5358 97.7693 45.2184C98.2027 45.6078 99.608 46.4491 99.748 46.9864C100 47.9651 94.8013 47.8757 93.9853 47.9024C93.192 47.9277 92.3666 47.9531 91.5933 48.1544C90.1226 48.5371 89.008 49.4464 87.3613 48.9637C85.8907 48.5331 84.7853 47.1344 83.5507 46.2624C82.264 45.3544 81.264 44.4771 80.2667 43.2584C79.0253 41.7411 77.652 41.1038 76.0933 42.5558C75.5253 43.1544 74.7426 43.9917 74.16 44.8784C72.4253 43.8037 70.0867 43.4331 68.0053 43.1891C64.8907 42.8251 61.9773 42.5344 59.3147 44.5357C59.2907 44.5544 59.268 44.5744 59.244 44.5944C58.7866 43.6877 58.1707 42.8131 57.7533 42.2344C57.7467 42.2224 57.7347 42.2171 57.7253 42.2077C57.7173 42.1957 57.716 42.1851 57.7066 42.1731C56.5746 40.7837 55.2773 40.8251 53.9253 41.9424C52.8413 42.8384 51.9666 43.7691 50.6933 44.4331C49.52 45.0437 48.4413 45.7864 47.2893 46.4131C45.516 47.3784 44.04 47.0664 42.4 46.0571C41.8027 45.6904 41.204 45.4731 40.5213 45.3064C38.8053 44.8877 37.012 44.8464 35.312 44.3518C34.9147 44.2358 34.3866 44.1184 34.052 43.8518C33.5373 43.4438 33.472 43.6344 33.9466 43.1997C34.6453 42.5584 35.608 42.0891 36.3933 41.5518C37.9786 40.4638 39.5667 39.3291 40.936 37.9731C41.9667 36.9544 43.0426 35.6944 43.2853 34.2158C43.648 32.0064 42.0746 29.6197 42.9133 27.4597C43.372 26.2784 44.7533 25.0024 45.8293 24.3131C46.4186 23.9357 47.2147 23.8011 47.7387 23.3251C48.4653 22.6624 48.0106 22.0931 47.2466 21.7238C43.6693 19.9971 40.2826 22.2651 37.3933 24.2304C33.5466 26.8464 29.528 30.3518 27.4307 34.5851C26.5347 36.3931 26.0773 38.4264 26.5747 40.4198C27.1267 42.6318 28.6707 44.4731 30.1173 46.1717C31.8907 48.2557 33.8319 50.2157 36.0439 51.8371C38.0386 53.2984 40.5386 54.9237 43.1346 54.6757C45.5653 54.4451 48.0906 52.8131 50.088 51.5211C51.2306 50.7824 52.3253 49.9717 53.3653 49.0984C54.0493 48.5237 54.6053 47.9384 55.416 47.5558C55.804 47.3758 56.16 47.3384 56.4933 47.4011C55.1066 49.2277 54.0306 51.3731 53.2093 53.5451C52.324 53.7411 51.4386 53.9371 50.5653 54.1771C47.9373 54.8957 45.4307 56.0491 43.472 57.9838C41.3133 60.1144 40.1346 63.0091 38.0626 65.2077C36.9973 66.3371 35.7186 67.1851 34.2439 67.6784C33.2399 68.0131 33.104 67.6944 32.388 67.0397C31.76 66.4651 31.2746 66.0611 30.4706 65.7971C29.564 65.5011 28.7333 66.4371 28.9653 67.3037C29.3106 68.6104 30.5693 70.1851 31.72 70.9171C33.132 71.8171 34.9133 71.1357 36.3066 70.5451C39.6093 69.1437 41.6133 66.4704 43.5533 63.5784C45.42 60.7944 47.3986 58.8411 50.6626 57.8491C51.0946 57.7171 51.532 57.6024 51.9706 57.4917C51.324 60.0304 50.9493 62.6384 50.7626 65.2691C46.5386 66.5797 42.6653 70.2611 40.316 73.6504C39.4653 74.8771 38.828 76.2837 37.7986 77.3757C36.82 78.4131 35.5426 79.0957 34.2906 79.7437C32.928 80.4491 32.416 80.4744 31.032 79.8397C29.848 79.2957 28.896 79.0171 27.6653 79.5597C26.6613 80.0024 26.892 81.4224 27.6653 81.9264C29.5693 83.1664 32.056 84.4531 34.3227 83.5757C36.948 82.5597 39.5787 80.9464 41.256 78.6558C43.0187 76.2518 44.3186 73.8264 46.632 71.8544C47.864 70.8038 49.2226 70.0744 50.6106 69.3917C50.5973 71.3824 50.6653 73.3704 50.7787 75.3331C50.8133 75.9331 50.8547 76.5331 50.9 77.1357C48.0613 78.9117 45.5253 81.3277 43.4613 83.6771C41.572 85.8277 39.5626 87.6797 36.968 88.9477C35.42 89.7051 34.6067 89.4797 33.0747 88.8797C31.6627 88.3264 30.2506 87.7824 28.7426 87.5917C27.7613 87.4664 27.2666 88.9038 27.9439 89.5198C29.1359 90.6024 30.6226 91.3691 32.0453 92.1011C33.252 92.7197 34.4346 93.2584 35.8213 93.0851C38.684 92.7264 41.6186 90.5651 43.6906 88.6717C45.9426 86.6117 47.6853 84.1024 50.0826 82.1797C50.4813 81.8611 50.888 81.5664 51.3027 81.2891C51.784 85.2958 52.5507 89.2904 53.7453 93.1024C55.028 97.1997 57.224 101.405 61.352 103.208C62.244 103.597 63.2786 103.848 64.3466 103.936C64.228 104.477 64.1813 105.001 64.2027 105.42C64.3067 107.273 65.292 109.358 67.2906 109.741C67.804 109.838 68.2587 109.79 68.656 109.64C69.416 111.166 71.0827 112.525 72.648 112.837C73.104 112.929 73.56 112.917 73.9826 112.817C74.0906 113.069 74.228 113.298 74.3986 113.488C75.6626 114.882 78.8133 115.312 80.3013 114.053C80.6866 113.728 80.9293 113.32 81.0613 112.878C81.9933 113.357 83.2053 113.449 84.244 113.134C86.0813 112.574 88.4626 110.545 88.132 108.37C88.132 108.366 88.1306 108.361 88.1293 108.357C90.0133 108.46 91.512 106.37 92.4333 104.986C93.7093 103.07 94.22 100.805 93.0933 98.7037C92.3893 97.7624 91.6067 97.3051 90.4053 97.4571C88.3947 97.7131 86.324 98.6931 84.3986 99.3198C84.1386 99.4038 84.1146 99.7197 84.3266 99.8717C85.5693 100.756 86.924 101.201 88.3867 101.217C86.9387 102.217 85.528 103.457 85.2253 105.254C85.16 105.649 85.1893 106.014 85.2893 106.349C83.1667 106.558 80.6027 107.162 79.8053 109.289C78.5907 108.48 76.6467 108.016 75.2693 108.602C74.2973 107.262 72.7426 106.09 71.2466 105.984C70.988 105.965 70.7333 105.977 70.4853 106.01C70.34 105.218 69.9586 103.992 69.376 102.938C70.3826 102.35 71.204 101.494 71.6747 100.33C73.66 95.4251 72.8573 89.9851 73.0626 84.8451C73.0666 84.7691 73.072 84.6904 73.0747 84.6131C73.276 84.7531 73.4773 84.8891 73.676 85.0397C76.2173 86.9597 78.032 89.5411 80.3867 91.6464C82.4547 93.4931 85.264 95.5024 88.06 95.9518C89.4373 96.1731 90.588 95.7264 91.7973 95.1117C93.3027 94.3451 94.9026 93.5011 96.1466 92.3451C97.064 91.4917 96.0587 90.3184 95.048 90.4571C93.524 90.6678 92.0466 91.3291 90.6346 91.9171C89.1213 92.5464 88.3773 92.4838 86.8947 91.7544C84.2867 90.4731 82.3226 88.5997 80.4013 86.4664C78.4253 84.2744 76.0093 82.0398 73.3227 80.3571C73.5093 77.8424 73.756 75.3304 74.0453 72.8251C75.092 73.3504 76.1133 73.9344 77.0667 74.7024C79.4227 76.6024 80.8053 78.9691 82.5453 81.3784C84.208 83.6797 86.6373 85.1411 89.208 86.2558C91.716 87.3438 94.196 86.1757 96.3387 84.7477C97.0947 84.2424 97.3587 82.8171 96.3387 82.3797C95.1813 81.8864 94.3027 82.0704 93.176 82.5864C92.6867 82.8091 92.1453 83.2077 91.6027 83.2744C90.8547 83.3704 90.1253 82.8504 89.484 82.5224C88.2267 81.8771 86.9626 81.1877 86.0013 80.1277C84.9973 79.0197 84.3506 77.6197 83.4733 76.4117C81.3746 73.5184 78.1267 70.4117 74.5307 68.8651C74.66 67.8651 74.792 66.8651 74.9266 65.8677C75.1106 64.5517 75.3146 63.2384 75.5186 61.9264C77.52 63.0451 78.9746 64.6851 80.4013 66.7651C82.304 69.5384 84.3093 72.0771 87.4933 73.4144C88.9066 74.0091 90.7373 74.7024 92.1613 73.7864C93.292 73.0584 94.5627 71.4331 94.8893 70.1451C95.108 69.2877 94.2973 68.3291 93.3826 68.6397C92.6906 68.8757 92.2146 69.2091 91.6733 69.7051C91.3053 70.0437 90.7706 70.7318 90.396 70.7864C89.1586 70.9678 87.1787 69.4531 86.336 68.6864C84.0147 66.5731 82.78 63.5691 80.6227 61.3118C79.3293 59.9584 77.7613 58.9664 76.068 58.2357C76.1146 57.9077 76.1626 57.5811 76.2066 57.2531C76.5653 54.5478 77.0213 51.5664 76.692 48.8397C76.66 48.5797 76.6133 48.3344 76.556 48.0984C77.188 48.1557 77.9426 48.3037 78.1493 48.4437C78.5853 48.7384 78.9747 49.4144 79.3173 49.7997C80.2027 50.7971 81.152 51.7384 82.1546 52.6171C83.84 54.0958 85.7506 55.6411 87.816 56.5397C91.9933 58.3544 97.0893 54.8651 100.275 52.4357C103.681 49.8371 108.063 46.4437 107.695 41.6691" fill="#96CBEB"/>
<path d="M104.689 46.1984C103.575 46.6304 102.437 46.7451 101.265 46.4811C100.809 46.3784 100.616 47.0824 101.073 47.1824C102.363 47.4611 103.649 47.3691 104.869 46.8544C105.264 46.6878 105.103 46.0371 104.689 46.1984Z" fill="#35208A"/>
<path d="M89.9239 56.0318C89.1826 53.9878 88.8026 52.0292 88.9826 49.8465C89.0213 49.3945 88.324 49.4012 88.2813 49.8465C88.0746 52.0278 88.3826 54.2945 89.356 56.2718C89.5093 56.5838 90.0439 56.3651 89.9239 56.0318Z" fill="#35208A"/>
<path d="M89.9066 73.6212C90.188 73.3079 89.9493 72.7879 89.8813 72.4239C89.7786 71.8772 89.8613 71.1759 89.5866 70.6879C89.4986 70.5306 89.2346 70.5159 89.1506 70.6879C88.8613 71.2746 89.1293 72.1932 89.2946 72.7945C89.3066 72.8412 89.6346 73.9266 89.9066 73.6212Z" fill="#35208A"/>
<path d="M83.3697 69.837C83.7697 69.8543 84.0497 69.2863 84.2483 68.9997C84.4083 68.7703 84.5603 68.5357 84.715 68.3023C84.8617 68.081 84.8896 67.9117 84.9856 67.6757C84.9336 67.7437 84.8803 67.813 84.8283 67.881C84.8417 67.8717 84.8563 67.8624 84.8683 67.853C84.7843 67.865 84.699 67.877 84.615 67.8877C84.571 67.845 84.5283 67.8023 84.4843 67.761C84.5763 67.641 84.667 67.521 84.7576 67.4023C84.747 67.401 84.7363 67.3997 84.7243 67.3983C84.4923 67.3703 84.3617 67.717 84.531 67.8637C84.5404 67.8717 84.5483 67.8784 84.5576 67.885C84.7296 68.0344 84.9497 67.9637 85.0297 67.761C85.079 67.6383 85.0403 67.5157 84.987 67.4037C84.939 67.3023 84.8083 67.2357 84.7017 67.2397C84.511 67.245 84.3817 67.3304 84.3043 67.509C84.1683 67.8144 84.0296 68.0864 83.8496 68.3784C83.6376 68.721 83.083 69.3743 83.295 69.7943C83.3083 69.8223 83.3417 69.8357 83.3697 69.837" fill="#35208A"/>
<path d="M91.4826 86.1478C91.6119 85.7144 91.6932 85.2691 91.7826 84.8264C91.8599 84.4544 92.0239 84.0544 91.8866 83.6878C91.8226 83.5158 91.5959 83.4198 91.4546 83.5744C91.1679 83.8838 91.1666 84.3251 91.0919 84.7291C91.0093 85.1731 90.9186 85.6157 90.8746 86.0651C90.84 86.4224 91.3866 86.4704 91.4826 86.1478Z" fill="#35208A"/>
<path d="M82.0922 80.1719C82.4882 80.1506 82.7162 79.5639 82.9188 79.2773C83.2508 78.8106 83.7322 78.4253 84.0202 77.9373C84.1762 77.6706 83.8655 77.3773 83.6042 77.5213C83.0455 77.8306 82.5989 78.5466 82.2789 79.0866C82.2175 79.1893 81.6576 80.1959 82.0922 80.1719" fill="#35208A"/>
<path d="M89.7747 95.4573C89.7933 95.08 89.7426 94.6933 89.7013 94.3187C89.6653 93.98 89.648 93.6413 89.5146 93.3266C89.38 93.0146 88.9746 93.2227 88.9466 93.4813C88.9093 93.8053 89.0093 94.16 89.072 94.48C89.1386 94.828 89.1986 95.1853 89.3173 95.52C89.404 95.7667 89.7613 95.7267 89.7747 95.4573Z" fill="#35208A"/>
<path d="M80.396 91.224C80.676 90.66 80.66 89.9493 80.7853 89.3346C80.9 88.7773 81.228 88.1626 81.084 87.6013C81.0413 87.4333 80.844 87.4066 80.7253 87.5053C80.2613 87.8906 80.2013 88.7093 80.096 89.2746C79.9826 89.8773 79.8093 90.5893 80.0186 91.176C80.0733 91.3293 80.3106 91.396 80.396 91.224" fill="#35208A"/>
<path d="M59.3563 49.4278C58.647 49.3732 58.0163 48.6972 58.1056 47.9665C58.195 47.2359 58.807 46.6585 59.567 46.7172C60.2763 46.7719 60.9069 47.4492 60.8163 48.1785C60.7269 48.9092 60.1163 49.4878 59.3563 49.4278Z" fill="#35208A"/>
<path d="M73.18 50.5025C72.4707 50.4479 71.84 49.7719 71.9294 49.0426C72.02 48.3106 72.6307 47.7332 73.3907 47.7919C74.0987 47.8479 74.7307 48.5239 74.64 49.2532C74.5507 49.9852 73.94 50.5625 73.18 50.5025Z" fill="#35208A"/>
<path d="M64.0318 45.3024C64.0491 45.3131 64.0665 45.3224 64.0825 45.3317C64.1678 45.3811 64.2998 45.3931 64.3825 45.3317C65.0158 44.8651 65.6932 44.5051 66.5052 44.5637C67.4185 44.6291 67.9705 45.1931 68.6158 45.7611C68.8891 46.0011 69.2412 45.7051 69.0998 45.3877C68.2438 43.4664 65.3118 43.4651 64.0252 44.8677C63.9398 44.9597 63.9025 45.1157 63.9771 45.2264C63.9505 45.1864 64.0145 45.2917 64.0318 45.3024" fill="#35208A"/>
<path d="M53.5613 54.7708C55.588 57.5335 59.9627 57.8668 63.0747 58.2935C65.1293 58.5748 67.1973 58.7428 69.272 58.7882C71.4013 58.8335 73.6186 58.9081 75.648 58.1815C76.0933 58.0201 75.9026 57.3028 75.4506 57.4641C72.0453 58.6868 67.6146 58.1055 64.0826 57.6842C60.8253 57.2962 56.3746 56.9975 54.0546 54.3908C53.8199 54.1282 53.348 54.4815 53.5613 54.7708Z" fill="#35208A"/>
<path d="M51.4601 65.6624C52.7521 66.7971 54.8108 67.3144 56.4375 67.7584C58.3588 68.2838 60.3361 68.6078 62.3215 68.7478C64.3695 68.8918 66.4322 68.8144 68.4668 68.5384C70.2922 68.2918 72.4081 68.0051 74.0401 67.1118C74.3308 66.9544 74.1148 66.5785 73.8335 66.6198C71.8402 66.9051 69.9335 67.6304 67.9122 67.8704C66.1495 68.0798 64.3708 68.1291 62.6015 68.0278C60.6761 67.9184 58.7655 67.6198 56.8975 67.1411C55.1255 66.6851 53.3748 65.7251 51.5855 65.4464C51.4721 65.4278 51.3535 65.5678 51.4601 65.6624" fill="#35208A"/>
<path d="M51.3908 76.0534C54.2241 78.1588 58.4148 78.9001 61.8588 79.1508C65.2215 79.3961 69.6361 79.2921 72.6855 77.6681C72.9815 77.5094 72.7602 77.1201 72.4722 77.1641C70.6762 77.4361 68.9562 78.0734 67.1335 78.2961C65.3842 78.5107 63.6148 78.5494 61.8588 78.4254C60.0402 78.2961 58.2362 77.9827 56.4788 77.4974C54.7802 77.0294 53.1975 76.2494 51.5175 75.7561C51.3268 75.7001 51.2508 75.9494 51.3908 76.0534" fill="#35208A"/>
<path d="M52.5004 86.7679C53.115 87.8239 54.583 87.8652 55.679 88.0319C57.4283 88.2972 59.195 88.4652 60.963 88.5332C64.7643 88.6785 68.6204 88.4079 72.3484 87.6305C72.8057 87.5345 72.6084 86.8572 72.1564 86.9359C68.7484 87.5265 65.347 87.8932 61.883 87.8305C58.859 87.7745 55.4897 87.7212 52.6763 86.5399C52.5443 86.4852 52.4377 86.6599 52.5004 86.7679" fill="#35208A"/>
<path d="M55.8521 97.7357C58.6348 98.5384 61.5521 98.841 64.4428 98.6984C65.7561 98.633 67.0681 98.4757 68.3601 98.225C69.1361 98.0757 69.9042 97.8917 70.6642 97.6744C71.0428 97.5664 71.4202 97.449 71.7948 97.325C72.3175 97.345 72.4921 97.141 72.3148 96.7117C72.0855 96.825 72.2081 97.1664 72.4401 97.173C72.4735 97.1744 72.5081 97.1744 72.5428 97.1757C72.6681 97.1797 72.7668 97.0877 72.8055 96.9757C72.8202 96.9357 72.8335 96.8957 72.8481 96.8571C72.9015 96.7024 72.7855 96.497 72.6255 96.465C71.7388 96.285 70.7575 96.889 69.8961 97.117C68.3041 97.5397 66.6762 97.8117 65.0335 97.933C61.9788 98.1584 58.9988 97.8064 56.0268 97.105C55.6175 97.009 55.4468 97.6184 55.8521 97.7357" fill="#35208A"/>
<path d="M69.2561 109.269C69.4721 108.884 69.5827 108.449 69.7854 108.057C69.9747 107.688 70.2774 107.36 70.4081 106.968C70.4841 106.734 70.1854 106.488 69.9747 106.636C69.5921 106.906 69.3814 107.381 69.1947 107.804C69.0094 108.224 68.8214 108.689 68.8374 109.154C68.8454 109.372 69.1427 109.469 69.2561 109.269" fill="#35208A"/>
<path d="M75.0416 111.916C75.1869 111.621 75.2283 111.289 75.3336 110.98C75.4536 110.631 75.6216 110.313 75.8283 110.008C76.0803 109.637 75.4722 109.281 75.2269 109.657C74.8402 110.244 74.3976 111.135 74.5882 111.857C74.6402 112.052 74.9469 112.112 75.0416 111.916" fill="#35208A"/>
<path d="M81.0669 112.043C80.9842 111.432 80.7908 110.812 80.6162 110.22C80.4895 109.797 79.8482 109.973 79.9535 110.404C80.0989 111.001 80.2428 111.635 80.4775 112.205C80.6308 112.571 81.1202 112.433 81.0669 112.043" fill="#35208A"/>
<path d="M85.9216 106.484C86.2816 106.799 86.6509 107.101 87.0216 107.403C87.3376 107.663 87.6683 108.037 88.0736 108.14C88.3229 108.204 88.4976 107.943 88.3923 107.725C88.2016 107.337 87.7323 107.075 87.4029 106.808C87.0469 106.521 86.6936 106.235 86.3269 105.959C86.0256 105.731 85.6389 106.235 85.9216 106.484" fill="#35208A"/>
<path d="M88.9841 101.732C89.6961 101.709 90.8095 101.418 91.2228 100.786C91.3641 100.572 91.1308 100.289 90.8921 100.357C90.5668 100.452 90.3001 100.694 89.9881 100.834C89.6401 100.992 89.2761 101.074 88.9081 101.16C88.5881 101.234 88.6548 101.744 88.9841 101.732Z" fill="#35208A"/>
<path d="M28.5892 42.5147C29.7159 43.2 30.9985 43.4907 32.3092 43.3867C32.7745 43.3507 32.7759 42.62 32.3092 42.66C31.1039 42.7653 29.9892 42.5133 28.9319 41.9293C28.5492 41.7173 28.2172 42.2867 28.5892 42.5147Z" fill="#35208A"/>
<path d="M42.752 53.9507C43.9854 52.1227 44.5787 49.9067 44.6707 47.7187C44.6907 47.2667 43.9921 47.2693 43.9694 47.7187C43.8521 49.88 43.2161 51.7347 42.2147 53.636C42.0281 53.9933 42.528 54.2813 42.752 53.9507" fill="#35208A"/>
<path d="M34.0492 70.7534C34.5252 70.6587 34.6026 69.9054 34.6812 69.5161C34.7879 68.9787 34.9705 68.3054 34.7132 67.7987C34.6292 67.6294 34.3652 67.6387 34.2772 67.7987C34.1145 68.0987 34.1386 68.3934 34.1092 68.7294C34.0746 69.136 34.0039 69.5334 33.9266 69.9334C33.9119 70.0187 33.7265 70.8201 34.0492 70.7534" fill="#35208A"/>
<path d="M40.5586 66.84C40.7639 66.4186 40.2039 65.7693 39.9905 65.4333C39.9012 65.292 39.8052 65.1533 39.7185 65.0106C39.6372 64.8773 39.6105 64.74 39.5452 64.6093C39.4465 64.416 39.3572 64.304 39.1279 64.3C39.0212 64.2973 38.8892 64.3626 38.8425 64.464C38.7905 64.576 38.7492 64.7 38.7999 64.8227C38.8812 65.0227 39.1012 65.0986 39.2732 64.9466C39.2812 64.9386 39.2905 64.932 39.2985 64.924C39.4639 64.7787 39.3426 64.428 39.1052 64.4586C39.0946 64.4613 39.0825 64.4626 39.0732 64.464C39.1639 64.5826 39.2545 64.7027 39.3465 64.8227C39.3025 64.864 39.2586 64.9053 39.2146 64.948C39.1306 64.936 39.0452 64.9253 38.9612 64.9146C38.8692 64.8533 38.9612 65.104 38.9625 65.1093C38.9999 65.2226 39.0999 65.328 39.1679 65.4293C39.3239 65.6613 39.4799 65.8933 39.6425 66.1213C39.8399 66.396 40.0999 66.904 40.4812 66.8826C40.5119 66.8813 40.5439 66.868 40.5586 66.84" fill="#35208A"/>
<path d="M33.1559 83.196C33.1066 82.7467 33.0132 82.3054 32.9252 81.8627C32.8466 81.4614 32.8412 81.0161 32.5519 80.7094C32.4092 80.5574 32.1826 80.6494 32.1199 80.8241C31.9852 81.1921 32.1533 81.588 32.2333 81.9587C32.3293 82.4 32.4146 82.8467 32.5479 83.2774C32.6452 83.5947 33.1946 83.5574 33.1559 83.196" fill="#35208A"/>
<path d="M41.9576 77.1557C42.2109 76.7943 41.6976 76.137 41.5016 75.849C41.1949 75.401 40.8229 74.8317 40.3363 74.5717C40.0763 74.4317 39.7589 74.717 39.9203 74.9863C40.0896 75.2677 40.3483 75.4783 40.5643 75.7223C40.7936 75.9837 41.0029 76.2597 41.1989 76.5463C41.2629 76.6397 41.7376 77.4677 41.9576 77.1557Z" fill="#35208A"/>
<path d="M34.8159 92.6304C34.9292 92.2957 34.9865 91.9357 35.0492 91.5891C35.1079 91.2664 35.2052 90.9157 35.1652 90.5891C35.1225 90.2411 34.7012 90.1824 34.5666 90.5077C34.4412 90.8091 34.4399 91.1784 34.4119 91.5024C34.3799 91.8557 34.3385 92.2144 34.3599 92.569C34.3745 92.8317 34.7305 92.881 34.8159 92.6304Z" fill="#35208A"/>
<path d="M44.0669 88.1854C44.2655 87.6041 44.0868 86.8788 43.9708 86.2881C43.8588 85.7174 43.7935 84.9054 43.3228 84.5241C43.2042 84.4268 43.0041 84.4468 42.9628 84.6188C42.8268 85.1814 43.1588 85.7921 43.2788 86.3481C43.4135 86.9628 43.4028 87.6734 43.6908 88.2347C43.7761 88.4027 44.0135 88.3428 44.0669 88.1854Z" fill="#35208A"/>
<path d="M77.5229 19.9145C77.5255 19.8452 77.5002 19.7931 77.4589 19.7585C77.0615 19.0078 75.6256 18.8612 74.9056 18.7185C73.7282 18.4865 72.5348 18.3465 71.3468 18.1905C71.1508 18.1652 70.9575 18.1331 70.7615 18.1091C70.6842 18.0998 70.5469 18.0331 70.5615 18.0678C70.3962 17.8718 70.2922 17.4518 70.2015 17.2438C69.7082 16.0958 69.2349 14.9398 68.7336 13.7958C68.4789 13.2158 68.2202 12.6371 67.9455 12.0665C67.7762 11.7145 67.5815 11.0545 67.1922 10.8838C66.3242 10.5052 65.7175 12.6478 65.4855 13.1651C64.9335 14.4011 64.4175 15.6518 63.8815 16.8931C63.7682 17.1545 63.5815 17.9052 63.3455 18.0838C63.2322 18.1692 62.4202 18.1251 62.2135 18.1425C61.6868 18.1851 61.1575 18.2251 60.6295 18.2745C59.7295 18.3598 58.8135 18.4438 57.9442 18.7025C57.4202 18.8571 56.4842 19.1078 56.5655 19.8345C56.6335 20.4305 57.5469 20.9932 57.9589 21.3212C58.6615 21.8798 59.4108 22.3825 60.1908 22.8305C60.5442 23.0331 60.9975 23.1825 61.3188 23.4265C61.7388 23.7438 61.5362 24.0771 61.4229 24.5051C61.1855 25.4091 60.9428 26.3132 60.7215 27.2225C60.5415 27.9625 60.3695 28.7078 60.2535 29.4611C60.1842 29.9185 60.0095 30.5865 60.2175 31.0291C60.7629 32.1878 62.8535 30.1598 63.3589 29.7705C63.9909 29.2825 64.6122 28.7785 65.2188 28.2572C65.5162 28.0012 65.8095 27.7412 66.0989 27.4772C66.2615 27.3278 66.6775 26.7585 66.8869 26.7225C67.2282 26.6665 68.1429 27.7772 68.4202 28.0158C69.0482 28.5545 69.6948 29.0732 70.3468 29.5798C71.2388 30.2718 72.2148 31.1971 73.3935 31.3025C74.4215 31.3945 73.9309 29.8385 73.7949 29.2238C73.4695 27.7612 72.9935 26.3305 72.5589 24.8971C72.4669 24.5891 72.3455 24.2718 72.2802 23.9558C72.2068 23.6105 72.2202 23.6332 72.5122 23.4572C73.0802 23.1145 73.7695 22.9025 74.3642 22.6025C75.3189 22.1211 77.2322 21.2531 77.5002 20.0585C77.5256 20.0185 77.5335 19.9705 77.5229 19.9145" fill="#F7B9E7"/>
<path d="M51.2026 111.7C49.5866 111.557 47.94 111.577 46.3026 111.595C46.764 111.137 47.2279 110.68 47.6866 110.219C48.4066 109.496 49.2199 108.804 49.6906 107.889C49.9013 107.479 49.4799 107.073 49.0733 107.273C48.1519 107.725 47.4426 108.535 46.7066 109.24C46.2306 109.697 45.7572 110.159 45.2852 110.621C45.2892 109.956 45.2933 109.292 45.292 108.627C45.2893 107.604 45.3746 106.539 45.0586 105.557C44.9186 105.124 44.3346 105.136 44.1906 105.557C43.8586 106.532 43.9266 107.605 43.9066 108.627C43.8933 109.287 43.8852 109.948 43.8772 110.609C43.4119 110.136 42.9426 109.663 42.472 109.195C41.7493 108.475 41.0573 107.659 40.1413 107.191C39.7306 106.98 39.3266 107.4 39.5266 107.807C39.9786 108.728 40.7866 109.437 41.492 110.173C41.9506 110.651 42.4133 111.123 42.8746 111.596C42.2093 111.592 41.5439 111.588 40.8799 111.589C39.8586 111.592 38.7906 111.505 37.8093 111.821C37.3773 111.96 37.3879 112.547 37.8093 112.689C38.7839 113.023 39.8586 112.952 40.8799 112.975C41.5266 112.988 42.1719 112.995 42.8186 113.001C41.6252 114.129 40.4226 115.263 39.3573 116.491C38.7853 117.149 39.6453 117.996 40.308 117.44C41.5386 116.408 42.6812 115.241 43.8159 114.081C43.7692 115.708 43.7226 117.344 43.836 118.951C43.8973 119.82 45.1053 119.812 45.1813 118.951C45.3213 117.349 45.3039 115.717 45.2866 114.095C46.4039 115.277 47.5279 116.467 48.7426 117.524C49.4013 118.096 50.2493 117.235 49.6946 116.572C48.6613 115.341 47.4946 114.2 46.3346 113.064C47.9613 113.111 49.596 113.157 51.2026 113.045C52.0733 112.984 52.064 111.775 51.2026 111.7" fill="white"/>
<path d="M52.2348 12.0547C52.6454 12.0547 53.0788 11.876 53.3681 11.5854C53.6468 11.3067 53.8575 10.8507 53.8388 10.4507C53.8201 10.036 53.6841 9.60535 53.3681 9.31602C53.0548 9.02802 52.6694 8.84535 52.2348 8.84535C51.8228 8.84535 51.3908 9.02402 51.0988 9.31602C50.8214 9.59468 50.6121 10.0507 50.6294 10.4507C50.6481 10.8654 50.7841 11.296 51.0988 11.5854C51.4134 11.8734 51.8001 12.0547 52.2348 12.0547Z" fill="white"/>
<path d="M79.9375 32.5146C79.9922 32.5466 80.0456 32.5773 80.1002 32.6106C81.9949 33.7253 81.9949 29.7426 80.1002 30.8586C80.0456 30.8906 79.9922 30.9226 79.9375 30.9546C79.3522 31.2986 79.3522 32.1693 79.9375 32.5146" fill="white"/>
<path d="M90.7989 17.1052C90.9722 17.0398 91.1722 16.9772 91.3256 16.8718C91.8256 16.5292 92.1602 16.0438 92.1602 15.4158C92.1602 14.7892 91.8256 14.3038 91.3256 13.9611C91.1722 13.8558 90.9722 13.7945 90.7989 13.7278C90.2495 13.5158 89.4802 13.7572 89.0935 14.1785C88.7789 14.5198 88.5815 14.9412 88.5815 15.4158C88.5815 15.8652 88.7762 16.3372 89.0935 16.6558C89.5029 17.0638 90.2309 17.3238 90.7989 17.1052" fill="white"/>
<path d="M117.609 43.3345C117.937 43.2291 118.233 43.1091 118.484 42.8585C118.796 42.5465 118.985 42.1091 118.985 41.6665C118.985 41.2238 118.796 40.7865 118.484 40.4745C118.233 40.2238 117.937 40.1038 117.609 39.9985C116.529 39.6531 115.42 40.5811 115.42 41.6665C115.42 42.7518 116.531 43.6811 117.609 43.3345Z" fill="white"/>
<path d="M104.876 64.3157C105.097 64.301 105.325 64.2864 105.535 64.2144C105.889 64.0944 106.177 63.9117 106.408 63.613C106.627 63.3304 106.785 62.9637 106.768 62.5957C106.755 62.297 106.679 62.0117 106.539 61.7477C106.336 61.3624 105.932 61.1117 105.535 60.9757C105.325 60.905 105.097 60.8903 104.876 60.8757C104.455 60.8477 103.952 61.0877 103.66 61.3797C103.361 61.6784 103.137 62.1677 103.156 62.5957C103.176 63.041 103.321 63.5024 103.66 63.8117C103.983 64.109 104.421 64.3464 104.876 64.3157" fill="white"/>
<path d="M119.279 78.8691C121.504 78.8691 121.508 75.4105 119.279 75.4105C117.054 75.4105 117.05 78.8691 119.279 78.8691Z" fill="white"/>
<path d="M110.4 98.6399C110.779 98.6519 111.101 98.4412 111.312 98.1399C111.392 98.0252 111.455 97.8972 111.493 97.7625C111.528 97.6519 111.536 97.5465 111.551 97.4292C111.527 97.6052 111.522 97.6519 111.534 97.5652C111.53 97.3012 111.549 97.2425 111.593 97.3918C111.712 97.0958 111.624 96.5972 111.456 96.3359C111.271 96.0492 110.983 95.7692 110.636 95.7052C110.16 95.6159 109.676 95.6359 109.255 95.9065C108.827 96.1812 108.549 96.5625 108.379 97.0372C108.247 97.4025 108.23 97.8412 108.331 98.2185C108.462 98.6985 108.819 99.1759 109.268 99.3985C109.668 99.5985 110.063 99.6585 110.498 99.5599C110.978 99.4505 111.348 99.0732 111.532 98.6359C111.705 98.2239 111.705 97.8172 111.532 97.4065C111.329 96.9265 110.979 96.6585 110.498 96.4825C110.486 96.4772 110.473 96.4732 110.463 96.4692C110.588 96.5225 110.716 96.5759 110.843 96.6292C110.808 96.6119 110.78 96.5972 110.749 96.5732C110.857 96.6572 110.964 96.7385 111.072 96.8225C111.054 96.8065 111.036 96.7905 111.021 96.7719C111.104 96.8799 111.187 96.9865 111.27 97.0932C111.227 97.0372 111.189 96.9772 111.16 96.9132C111.212 97.0372 111.264 97.1599 111.316 97.2839C111.3 97.2372 111.288 97.1919 111.28 97.1439C111.299 97.2785 111.316 97.4132 111.335 97.5479C111.327 97.4865 111.327 97.4265 111.334 97.3639C111.316 97.4945 111.299 97.6265 111.28 97.7599C111.289 97.7105 111.301 97.6639 111.316 97.6172C111.268 97.7332 111.219 97.8492 111.171 97.9652C111.191 97.9212 111.211 97.8812 111.24 97.8425C111.165 97.9385 111.091 98.0359 111.016 98.1319C111.039 98.1039 111.062 98.0825 111.09 98.0599C110.995 98.1332 110.9 98.2079 110.806 98.2799C110.835 98.2599 110.861 98.2452 110.896 98.2292C110.785 98.2759 110.675 98.3239 110.564 98.3705C110.848 98.2785 111.071 98.1479 111.296 97.9505C110.916 97.9999 110.538 98.0479 110.159 98.0985C110.067 98.0279 109.991 97.9665 109.927 97.8692C109.94 97.8879 109.952 97.9092 109.963 97.9305C109.96 97.9252 109.879 97.7279 109.917 97.8305C109.931 97.8625 109.948 97.9759 109.926 97.8292C109.903 97.6772 109.9 97.8745 109.926 97.7332C109.95 97.6025 109.932 97.6905 109.923 97.7172C109.916 97.7412 109.975 97.6199 109.99 97.5945C110.034 97.5159 110.003 97.5759 109.971 97.6025C109.548 97.9625 109.911 98.6225 110.4 98.6399" fill="white"/>
<path d="M81.1026 123.745C81.2292 123.631 81.3479 123.521 81.4572 123.389C81.7519 123.037 81.9545 122.667 81.9545 122.191C81.9545 121.775 81.7692 121.277 81.4572 120.992C81.1345 120.695 80.7092 120.475 80.2572 120.495C80.1079 120.515 79.9572 120.536 79.8065 120.555C79.5199 120.636 79.2692 120.781 79.0586 120.992C78.9279 121.101 78.8172 121.22 78.7039 121.347C78.4039 121.68 78.2065 122.087 78.2065 122.547C78.2065 122.961 78.3919 123.459 78.7039 123.745C79.0279 124.043 79.4519 124.263 79.9039 124.241C80.3652 124.22 80.7546 124.057 81.1026 123.745Z" fill="white"/>
<path d="M31.1947 101.016C31.236 100.984 31.276 100.95 31.316 100.918C31.912 100.438 31.9093 99.2438 31.316 98.7678C31.276 98.7345 31.236 98.7025 31.1947 98.6678C30.1227 97.8051 28.3613 98.2905 28.3613 99.8425C28.3613 101.385 30.1213 101.88 31.1947 101.016Z" fill="white"/>
<path d="M10.2853 85.3814C10.2733 85.3614 10.2627 85.3387 10.2547 85.3174C10.312 85.452 10.368 85.5894 10.4254 85.724C10.416 85.7027 10.4094 85.6787 10.4027 85.656C10.1494 84.848 9.39333 84.332 8.54933 84.4454C8.19466 84.492 7.82933 84.6387 7.57999 84.9107C7.26133 85.2574 7.1267 85.636 7.08403 86.104C7.08136 86.1534 7.08136 86.2 7.08403 86.248C7.1347 86.844 7.37335 87.4347 7.93468 87.7307C8.34402 87.9467 8.80404 88.0294 9.25871 87.904C9.67604 87.7894 10.0667 87.488 10.2853 87.1147C10.6093 86.5614 10.5693 85.936 10.2853 85.3814" fill="white"/>
<path d="M22.4363 65.6147C22.9016 65.6147 23.3896 65.4121 23.7189 65.0841C24.0322 64.7694 24.2695 64.2534 24.2495 63.8014C24.2282 63.3334 24.0749 62.8481 23.7189 62.5201C23.3629 62.1948 22.9269 61.9894 22.4363 61.9894C21.9723 61.9894 21.4829 62.1921 21.1549 62.5201C20.8416 62.8348 20.6042 63.3507 20.6242 63.8014C20.6442 64.2707 20.8002 64.7574 21.1549 65.0841C21.5096 65.4094 21.9456 65.6147 22.4363 65.6147Z" fill="white"/>
<path d="M17.2576 44.0679C17.6922 44.0679 18.1469 43.8799 18.4549 43.5732C18.7482 43.2785 18.9695 42.7972 18.9495 42.3759C18.9095 41.4599 18.2056 40.6839 17.2576 40.6839C16.8242 40.6839 16.3669 40.8732 16.0616 41.1799C15.7669 41.4732 15.5469 41.9545 15.5656 42.3759C15.6069 43.2932 16.3082 44.0679 17.2576 44.0679" fill="white"/>
<path d="M52.4105 34.7706C52.4172 34.7346 52.4252 34.6999 52.4346 34.6639C52.5692 34.0719 52.4399 33.4679 52.0026 33.0292C51.5653 32.5919 50.9612 32.4639 50.3679 32.5986C50.3332 32.6052 50.2986 32.6146 50.2612 32.6226C49.6772 32.7559 49.1972 33.2746 49.0426 33.8426C48.8772 34.4426 49.0506 35.1012 49.4919 35.5412C49.9319 35.9812 50.5892 36.1559 51.1905 35.9906C51.7572 35.8333 52.2772 35.3559 52.4105 34.7706" fill="#FFF896"/>
<path d="M119.846 63.6748C120.304 63.6748 120.785 63.4748 121.109 63.1508C121.418 62.8401 121.653 62.3321 121.634 61.8868C121.613 61.4241 121.461 60.9442 121.109 60.6228C120.76 60.3015 120.33 60.0988 119.846 60.0988C119.388 60.0988 118.906 60.2988 118.581 60.6228C118.272 60.9335 118.037 61.4415 118.058 61.8868C118.08 62.3495 118.23 62.8281 118.581 63.1508C118.932 63.4721 119.361 63.6748 119.846 63.6748Z" fill="#FFF896"/>
<path d="M100.536 119.5C100.566 119.47 100.594 119.438 100.622 119.408C100.96 119.04 101.178 118.576 101.178 118.066C101.178 117.602 100.971 117.046 100.622 116.725C100.26 116.393 99.7855 116.148 99.2802 116.17C98.7642 116.193 98.3242 116.374 97.9389 116.725C97.9096 116.754 97.8775 116.782 97.8468 116.81C97.4962 117.13 97.2896 117.69 97.2896 118.156C97.2896 118.622 97.4962 119.18 97.8468 119.5C98.2095 119.833 98.6856 120.081 99.1922 120.057C99.6842 120.036 100.195 119.876 100.536 119.5Z" fill="#FFF896"/>
<path d="M47.9759 98.208C50.4372 98.208 50.4425 94.3827 47.9759 94.3827C45.5172 94.3827 45.5119 98.208 47.9759 98.208Z" fill="#FFF896"/>
<path d="M8.24793 68.0146C10.6546 68.0146 10.6586 64.272 8.24793 64.272C5.83993 64.272 5.83593 68.0146 8.24793 68.0146Z" fill="#FFF896"/>
</svg>
