<svg width="135" height="135" viewBox="0 0 135 135" fill="none" xmlns="http://www.w3.org/2000/svg">
<path d="M134.089 67.9547C134.089 104.983 104.072 135 67.044 135C30.0173 135 0 104.983 0 67.9547C0 30.928 30.0173 0.910675 67.044 0.910675C104.072 0.910675 134.089 30.928 134.089 67.9547Z" fill="#35208A"/>
<path d="M101.173 92.9282C99.2574 89.8816 97.2187 86.9176 95.0613 84.0376C94.9187 83.8469 94.7373 83.7616 94.5 83.8096C90.7347 84.5696 86.968 85.3309 83.2027 86.0923C82.8214 86.1696 82.7414 86.6683 82.984 86.9229C85.8 89.8856 89.4347 93.8576 88.0427 98.3362C86.996 101.702 83.036 103.139 82.0174 106.516C81.672 107.662 81.9134 108.971 83.1267 109.459C84.4054 109.974 85.864 109.347 87.0387 108.854C90.5507 107.375 93.812 105.336 96.6867 102.836C98.3347 101.402 99.8867 99.8163 101.219 98.0816C102.599 96.2856 102.308 94.7882 101.173 92.9282Z" fill="#FFB07F"/>
<path d="M111.478 61.1444C110.787 57.2404 109.759 54.8391 107.251 51.7671C104.744 48.6951 99.3735 46.3777 94.2975 46.7191C88.8949 47.1511 83.1509 47.7124 78.8789 51.0471C75.5696 53.6311 73.5349 57.7751 73.5136 61.9737C73.5082 63.2631 73.6802 64.5604 73.4936 65.8364C73.3096 67.1124 73.2122 68.1511 72.0536 68.7164C71.1936 69.1364 69.5562 69.4004 68.9109 70.1071C68.2882 70.7897 68.3629 71.8377 68.5069 72.7497C68.8696 75.0337 69.9642 76.4857 70.7202 78.6711C71.9336 82.1804 72.2642 82.4377 74.5522 85.7657C75.6989 87.4324 76.9535 89.2284 79.5282 89.2684C84.0669 89.3404 92.3536 88.1417 96.6536 86.8204C101.606 85.2991 107.563 82.5644 109.943 77.7271C112.711 72.1031 112.544 67.1977 111.478 61.1444Z" fill="#FFB07F"/>
<path d="M81.7842 78.0308C79.4376 78.0308 77.1909 75.9681 77.3002 73.5454C77.4082 71.1148 79.2696 69.0601 81.7842 69.0601C84.1309 69.0601 86.3789 71.1228 86.2696 73.5454C86.1616 75.9761 84.3002 78.0308 81.7842 78.0308Z" fill="#E0435B"/>
<path d="M71.8667 80.919C73.8174 80.967 75.9707 80.1016 77.4361 78.8296C77.6614 78.6336 77.3681 78.251 77.1174 78.415C75.3934 79.5403 73.8174 80.1123 71.8134 80.5257C71.5868 80.5723 71.6467 80.9137 71.8667 80.919" fill="#35208A"/>
<path d="M76.3615 63.4603C75.5042 64.8949 75.7962 68.5122 78.0002 68.6136C80.3789 68.7242 81.8095 65.3189 82.0775 63.4376C82.1282 63.0869 81.6002 62.9256 81.5335 63.2869C81.2309 64.9056 80.5202 66.8429 79.0162 67.7229C77.8415 68.4096 76.9082 67.6603 76.6469 66.4536C76.4309 65.4616 76.6949 64.5083 76.5962 63.5243C76.5842 63.4056 76.4295 63.3469 76.3615 63.4603" fill="#35208A"/>
<path d="M76.1096 69.291C76.2309 69.2377 76.3403 69.2097 76.4536 69.1337C76.5643 69.0603 76.6709 68.9763 76.7776 68.895C76.9896 68.7297 77.2043 68.5657 77.4176 68.4003C77.7029 68.1803 77.3016 67.7817 77.0189 68.003C76.8189 68.159 76.6189 68.3137 76.4216 68.471C76.3216 68.5484 76.2189 68.6257 76.1269 68.711C76.0256 68.8057 75.9736 68.9004 75.8896 69.007C75.7616 69.171 75.9163 69.3764 76.1096 69.291" fill="#35208A"/>
<path d="M116.607 80.0484C115.816 77.3964 114.476 75.2003 115.101 72.331C115.604 70.0217 116.507 67.907 116.584 65.511C116.652 63.3804 116.263 61.219 115.463 59.2444C114.612 57.1417 113.26 55.5364 111.884 53.7724C110.348 51.8004 109.557 49.3857 108.053 47.395C106.829 45.775 105.223 44.4563 103.383 43.595C99.0333 41.5563 94.1066 42.023 89.5186 42.8257C87.0813 43.251 84.5386 43.5577 82.1533 44.223C80.44 44.7003 79.3586 45.5537 78.2959 46.963C76.9413 48.7617 75.856 51.0457 75.5813 53.283C75.3733 54.959 76.0546 56.651 77.1173 57.9297C78.476 59.5657 80.3106 60.1897 82.3399 60.5497C84.9026 61.0057 87.3706 61.7297 88.2666 64.4804C89.0279 66.815 87.6213 68.959 87.6866 71.2857C87.748 73.4244 89.2306 74.7324 90.7319 76.047C92.8573 77.907 94.1546 80.4643 93.2826 83.3283C92.5653 85.6817 90.5666 87.3164 90.3733 89.883C90.2279 91.8017 90.8826 93.659 92.1279 95.0963C89.5746 98.0297 86.9493 101.726 88.448 105.763C89.744 109.251 93.508 110.232 96.5133 108.15C98.2706 106.931 99 105.268 100.119 103.543C101.505 101.403 104.011 102.03 106.039 100.986C107.619 100.174 108.86 98.7377 109.48 97.0777C109.856 96.0684 109.741 95.1164 109.953 94.091C110.249 92.671 111.608 92.243 112.668 91.4484C116.133 88.847 117.665 84.2164 116.607 80.0484" fill="#996666"/>
<path d="M78.8506 49.3295C76.9533 53.5908 80.6599 57.4734 84.4293 58.8628C87.0986 59.8468 90.084 60.2974 91.4093 63.1694C92.0213 64.4921 92.12 65.9548 91.736 67.3548C91.4506 68.3881 90.9533 69.3108 91.392 70.3774C91.7333 71.2081 92.4706 71.7881 93.156 72.3268C94.1146 73.0801 94.9826 73.8414 95.6866 74.8481C97.06 76.8134 97.7546 79.2428 97.6586 81.6361C97.6066 82.9268 97.324 84.2108 96.7933 85.3908C96.32 86.4415 95.632 87.3868 95.2106 88.4641C94.8293 89.4401 94.7173 90.4161 95.0226 91.4294C95.408 92.7161 96.3666 93.8068 96.4213 95.1935C96.5426 98.3281 93.1506 100.2 92.06 102.879C91.348 104.632 91.692 106.971 93.5666 107.811C93.8973 107.959 94.1893 107.471 93.8546 107.317C90.728 105.892 92.9253 102.179 94.3786 100.427C95.7053 98.8295 97.2733 96.9828 96.956 94.7494C96.832 93.8734 96.392 93.1201 96.0266 92.3308C95.2106 90.5694 95.4013 89.2174 96.3066 87.5321C97.272 85.7334 98.0666 84.0708 98.2186 82.0014C98.5 78.1548 96.8133 74.4614 93.8013 72.0948C92.4746 71.0534 91.5413 70.2241 91.9959 68.3788C92.2546 67.3321 92.6013 66.4908 92.54 65.3854C92.436 63.5534 91.576 61.7708 90.1333 60.6215C88.048 58.9628 85.2146 58.8388 82.9266 57.5708C79.9613 55.9254 78.1693 52.8268 79.108 49.4375C79.1506 49.2895 78.9173 49.1788 78.8506 49.3295Z" fill="#35208A"/>
<path d="M86.3747 54.4829C87.7174 58.3762 91.9774 59.4775 94.828 61.9469C96.1574 63.0975 97.0161 64.3735 96.1521 66.1389C95.6907 67.0815 95.1187 67.9815 94.7054 68.9469C94.012 70.5589 94.6027 71.4389 96.0574 72.2042C98.0841 73.2695 100.264 73.9176 101.601 75.9176C102.713 77.5789 103.149 79.6962 102.768 81.6602C102.387 83.6389 101.059 84.9549 99.9601 86.5549C99.1134 87.7882 98.588 89.2002 99.2067 90.6549C99.6174 91.6202 100.383 92.3682 100.944 93.2389C101.856 94.6549 101.616 96.0522 100.668 97.3695C99.0427 99.6269 96.7067 101.491 94.7867 103.494C94.5467 103.744 94.9187 104.116 95.1654 103.874C96.9987 102.088 98.9334 100.315 100.603 98.3722C101.653 97.1495 102.529 95.6162 101.965 93.9735C101.249 91.8855 98.8054 90.6402 99.7521 88.1429C100.439 86.3295 102.111 85.0815 102.876 83.2949C104.164 80.2882 103.356 76.4696 100.939 74.2602C100.256 73.6349 99.4534 73.1775 98.6241 72.7735C97.5761 72.2629 95.5494 71.7455 95.1027 70.6015C94.6694 69.4895 95.9347 67.8295 96.4507 66.8282C96.832 66.0882 97.2787 65.3375 97.18 64.4735C96.9334 62.3135 94.432 60.8229 92.7654 59.8069C90.432 58.3815 87.8907 57.0335 86.8014 54.3642C86.6974 54.1082 86.28 54.2082 86.3747 54.4829" fill="#35208A"/>
<path d="M95.8161 57.5682C97.7921 58.3989 99.3975 59.6296 100.323 61.6176C100.779 62.5989 101.011 63.6789 100.985 64.7615C100.96 65.8189 100.605 66.8642 100.728 67.9295C100.92 69.5935 102.308 70.8069 103.483 71.8602C105.048 73.2642 106.931 74.6882 107.497 76.8256C108.157 79.3216 106.491 81.6189 105.452 83.7562C104.695 85.3136 103.421 87.4176 103.613 89.2122C103.691 89.9242 104.059 90.5389 104.393 91.1549C104.981 92.2336 105.561 93.3282 105.837 94.5362C106.377 96.8909 105.527 99.4536 102.987 100.076C102.72 100.143 102.768 100.598 103.053 100.567C105.779 100.286 106.915 97.2322 106.489 94.8362C106.349 94.0429 106.081 93.2776 105.755 92.5429C105.309 91.5442 104.528 90.5789 104.263 89.5162C103.987 88.4189 104.553 87.2642 104.961 86.2695C105.455 85.0695 106.019 83.9042 106.616 82.7536C108.132 79.8376 108.984 77.0855 106.776 74.2642C105.627 72.7949 104.071 71.7349 102.78 70.4029C101.817 69.4082 101.224 68.4522 101.297 67.0069C101.345 66.0562 101.597 65.1535 101.544 64.1962C101.373 61.0962 99.0548 57.8549 95.9054 57.2429C95.6868 57.2002 95.6175 57.4842 95.8161 57.5682" fill="#35208A"/>
<path d="M111.126 75.5644C112.202 78.5324 112.747 81.3044 111.927 84.439C111.146 87.427 109.4 89.9524 107.38 92.2377C107.164 92.483 107.51 92.8377 107.743 92.6004C109.984 90.3244 111.771 87.503 112.538 84.3777C113.232 81.5337 113.155 77.911 111.323 75.4804C111.258 75.391 111.079 75.4377 111.126 75.5644" fill="#35208A"/>
<path d="M71.3398 53.8084C72.5384 56.2297 76.0598 56.8297 78.4411 57.1964C81.5878 57.679 84.8064 57.7577 87.9838 57.7017C95.8744 57.5644 104.154 56.4364 111.369 53.0764C111.714 52.915 111.413 52.4177 111.07 52.5684C104.068 55.6297 96.4171 56.8764 88.8104 57.0897C85.8158 57.1724 82.7918 57.1284 79.8131 56.7871C77.2904 56.4977 73.1451 56.0684 71.8131 53.5324C71.6478 53.219 71.1851 53.495 71.3398 53.8084" fill="white"/>
<path d="M32.9159 77.0456C34.8319 74.0003 36.8706 71.0376 39.0279 68.1563C39.1693 67.9656 39.3519 67.8803 39.5893 67.9283C43.3546 68.6896 47.1199 69.4496 50.8853 70.211C51.2666 70.2883 51.3479 70.787 51.1053 71.0416C48.2879 74.0056 44.6519 77.9763 46.0453 82.455C47.0919 85.8203 51.0533 87.2576 52.0706 90.635C52.4159 91.7803 52.1746 93.0896 50.9613 93.5776C49.6839 94.0923 48.2253 93.467 47.0506 92.9723C43.5386 91.4936 40.2773 89.455 37.4026 86.955C35.7546 85.5216 34.2026 83.9336 32.8693 82.2003C31.4879 80.403 31.7813 78.907 32.9159 77.0456Z" fill="#FFB07F"/>
<path d="M22.612 45.2631C23.3013 41.3591 24.3307 38.9577 26.8373 35.8857C29.3453 32.8137 34.7147 30.4977 39.7907 30.8377C45.1934 31.2697 50.9373 31.8311 55.2093 35.1657C58.52 37.7497 60.5547 41.8937 60.5747 46.0924C60.5813 47.3817 60.4093 48.6804 60.5947 49.9551C60.78 51.2297 60.876 52.271 62.036 52.835C62.896 53.255 64.5333 53.5177 65.1773 54.2257C65.8 54.9084 65.7267 55.9564 65.5827 56.8684C65.22 59.1524 64.124 60.6044 63.3693 62.7897C62.1547 66.3004 61.824 66.5577 59.536 69.8857C58.3907 71.551 57.136 73.3471 54.5613 73.3871C50.0227 73.4591 41.736 72.2604 37.4347 70.939C32.484 69.4177 26.5267 66.683 24.1467 61.8457C21.3773 56.223 21.544 51.3164 22.612 45.2631Z" fill="#FFB07F"/>
<path d="M52.3039 62.1497C54.6505 62.1497 56.8986 60.087 56.7892 57.6643C56.6812 55.2336 54.8185 53.1777 52.3039 53.1777C49.9572 53.1777 47.7092 55.2416 47.8172 57.6643C47.9279 60.0936 49.7892 62.1497 52.3039 62.1497Z" fill="#E0435B"/>
<path d="M62.223 65.0376C60.271 65.0856 58.119 64.2203 56.651 62.9483C56.427 62.7523 56.7203 62.3696 56.9723 62.5336C58.6963 63.659 60.2723 64.231 62.2763 64.6457C62.503 64.6923 62.443 65.0323 62.223 65.0376Z" fill="#35208A"/>
<path d="M57.7279 47.5803C58.5839 49.0136 58.2933 52.631 56.0893 52.7323C53.7093 52.8416 52.2786 49.4376 52.0106 47.5563C51.9612 47.2056 52.4879 47.043 52.5559 47.407C52.8586 49.0243 53.5679 50.9603 55.0732 51.8416C56.2466 52.5283 57.1812 51.7803 57.4426 50.5723C57.6572 49.5816 57.3933 48.627 57.4919 47.643C57.5039 47.5243 57.6586 47.4643 57.7279 47.5803" fill="#35208A"/>
<path d="M57.9803 53.4097C57.8577 53.3564 57.7497 53.3284 57.6363 53.2524C57.5243 53.1777 57.4177 53.095 57.3123 53.0137C57.0977 52.8497 56.8857 52.6844 56.6723 52.519C56.387 52.299 56.787 51.9004 57.071 52.1217C57.2697 52.2777 57.471 52.4324 57.6683 52.5897C57.767 52.6684 57.8696 52.7443 57.9616 52.8297C58.0643 52.9243 58.115 53.0177 58.2003 53.1257C58.3283 53.2897 58.1737 53.495 57.9803 53.4097" fill="#35208A"/>
<path d="M17.4826 64.1683C18.2733 61.5136 19.6133 59.3189 18.9866 56.4496C18.484 54.1416 17.5826 52.0256 17.504 49.6283C17.436 47.4976 17.8267 45.3376 18.6267 43.363C19.4773 41.2603 20.8293 39.6549 22.2053 37.8922C23.7413 35.9202 24.532 33.5043 26.036 31.5136C27.2586 29.8936 28.8666 28.5763 30.7066 27.7136C35.056 25.6749 39.9826 26.1416 44.5706 26.9443C47.008 27.3696 49.5493 27.6763 51.9333 28.3416C53.648 28.8189 54.7307 29.6723 55.7933 31.0829C57.1467 32.8803 58.232 35.1643 58.508 37.4016C58.7146 39.0776 58.0346 40.7696 56.972 42.0496C55.6133 43.6843 53.7773 44.3083 51.748 44.6696C49.1853 45.1229 46.7186 45.8496 45.8213 48.5976C45.06 50.9336 46.468 53.0776 46.4013 55.4043C46.3413 57.5429 44.8587 58.8509 43.356 60.1669C41.232 62.0256 39.9333 64.5829 40.8066 67.4469C41.5226 69.8016 43.5226 71.4349 43.716 74.0016C43.8613 75.9203 43.2053 77.7789 41.9613 79.2149C44.5146 82.1483 47.14 85.8443 45.6413 89.8816C44.3453 93.3709 40.5813 94.3509 37.576 92.2683C35.8173 91.0496 35.0893 89.3869 33.9706 87.6616C32.584 85.5216 30.0786 86.1483 28.0506 85.1043C26.4706 84.2923 25.2293 82.8563 24.6093 81.1963C24.2333 80.1869 24.348 79.2336 24.1346 78.2096C23.84 76.7896 22.4813 76.3629 21.4213 75.5669C17.956 72.9656 16.424 68.3363 17.4826 64.1683" fill="#996666"/>
<path d="M55.2385 33.4481C57.1358 37.7094 53.4292 41.5921 49.6585 42.9814C46.9879 43.9667 44.0052 44.4161 42.6799 47.2867C42.0679 48.6121 41.9692 50.0734 42.3532 51.4734C42.6372 52.5068 43.1358 53.4294 42.6972 54.4961C42.3545 55.3281 41.6185 55.9054 40.9318 56.4454C39.9732 57.1988 39.1052 57.9588 38.4025 58.9668C37.0292 60.9308 36.3332 63.3614 36.4292 65.7548C36.4825 67.0441 36.7638 68.3294 37.2945 69.5094C37.7678 70.5601 38.4559 71.5054 38.8772 72.5828C39.2599 73.5588 39.3718 74.5348 39.0665 75.5481C38.6812 76.8348 37.7225 77.9254 37.6678 79.3121C37.5438 82.4468 40.9358 84.3188 42.0278 86.9988C42.7412 88.7508 42.3959 91.0894 40.5225 91.9294C40.1919 92.0774 39.8998 91.5894 40.2345 91.4374C43.3612 90.0108 41.1639 86.2974 39.7092 84.5454C38.3825 82.9481 36.8158 81.1014 37.1318 78.8681C37.2572 77.9921 37.6972 77.2374 38.0625 76.4494C38.8772 74.6894 38.6879 73.3361 37.7812 71.6494C36.8172 69.8521 36.0212 68.1894 35.8705 66.1201C35.5878 62.2734 37.2745 58.5801 40.2879 56.2148C41.6145 55.1721 42.5465 54.3414 42.0932 52.4974C41.8345 51.4508 41.4865 50.6094 41.5492 49.5054C41.6505 47.6721 42.5119 45.8895 43.9559 44.7401C46.0399 43.0815 48.8732 42.9574 51.1612 41.6894C54.1278 40.0454 55.9199 36.9454 54.9812 33.5561C54.9385 33.4067 55.1718 33.2974 55.2385 33.4481" fill="#35208A"/>
<path d="M47.7136 38.6004C46.3722 42.4951 42.1122 43.5951 39.2602 46.0658C37.9309 47.2164 37.0735 48.4924 37.9362 50.2578C38.3989 51.2018 38.9709 52.1004 39.3842 53.0657C40.0776 54.6777 39.4855 55.5578 38.0309 56.3231C36.0042 57.3898 33.8229 58.0377 32.4856 60.0377C31.3749 61.6991 30.9402 63.8151 31.3189 65.7791C31.7029 67.7577 33.0309 69.0737 34.1282 70.6737C34.9762 71.9071 35.5016 73.3177 34.8816 74.7737C34.4709 75.7391 33.7056 76.4858 33.1456 77.3578C32.2336 78.7738 32.4722 80.1711 33.4216 81.4884C35.0456 83.7458 37.3802 85.6097 39.3029 87.6137C39.5415 87.8631 39.1709 88.2351 38.9229 87.9924C37.0909 86.2071 35.1536 84.4338 33.4856 82.4924C32.4336 81.2684 31.5602 79.7338 32.1242 78.0924C32.8402 76.0044 35.2842 74.7591 34.3375 72.2617C33.6509 70.4484 31.9789 69.2004 31.2122 67.4137C29.9242 64.4071 30.7336 60.5897 33.1509 58.3804C33.8336 57.7537 34.6349 57.2964 35.4642 56.8924C36.5135 56.3818 38.5402 55.8631 38.9842 54.7204C39.4202 53.6098 38.1535 51.9484 37.6375 50.9471C37.2562 50.2071 36.8109 49.4564 36.9096 48.5924C37.1549 46.4337 39.6562 44.9417 41.3216 43.9257C43.6562 42.5004 46.1989 41.1524 47.2869 38.4831C47.3922 38.2271 47.8096 38.3257 47.7136 38.6004Z" fill="#35208A"/>
<path d="M38.2734 41.6868C36.2974 42.5175 34.6921 43.7496 33.7654 45.7376C33.3094 46.7176 33.0774 47.7975 33.1028 48.8802C33.1281 49.9375 33.4841 50.9829 33.3614 52.0482C33.1694 53.7122 31.7814 54.9255 30.6068 55.9789C29.0401 57.3842 27.1561 58.8082 26.5921 60.9455C25.9308 63.4402 27.5961 65.7375 28.6374 67.8749C29.3948 69.4322 30.6681 71.5362 30.4761 73.3308C30.3988 74.0428 30.0294 74.6575 29.6961 75.2735C29.1081 76.3522 28.5281 77.4469 28.2508 78.6549C27.7108 81.0095 28.5628 83.5708 31.1014 84.1948C31.3694 84.2615 31.3201 84.7162 31.0361 84.6855C28.3094 84.4029 27.1748 81.3509 27.5988 78.9549C27.7401 78.1615 28.0081 77.3962 28.3348 76.6615C28.7801 75.6628 29.5614 74.6975 29.8268 73.6348C30.1001 72.5375 29.5361 71.3842 29.1268 70.3882C28.6348 69.1882 28.0708 68.0242 27.4721 66.8722C25.9574 63.9562 25.1041 61.2042 27.3134 58.3829C28.4628 56.9135 30.0188 55.8535 31.3094 54.5215C32.2721 53.5269 32.8654 52.5709 32.7921 51.1255C32.7441 50.1749 32.4908 49.2735 32.5441 48.3148C32.7161 45.2148 35.0348 41.9735 38.1841 41.3602C38.4028 41.3189 38.4708 41.6042 38.2734 41.6868" fill="#35208A"/>
<path d="M22.9642 59.683C21.8882 62.651 21.3429 65.4244 22.1616 68.5577C22.9442 71.5457 24.6883 74.071 26.7083 76.3563C26.9256 76.6017 26.5803 76.9563 26.3456 76.719C24.1043 74.443 22.3176 71.6217 21.5523 68.4963C20.8576 65.6523 20.9336 62.0297 22.7642 59.599C22.8322 59.5097 23.0096 59.5563 22.9642 59.683" fill="#35208A"/>
<path d="M62.7496 37.9271C61.5496 40.3484 58.0296 40.9484 55.6482 41.3137C52.5016 41.7977 49.2816 41.875 46.1042 41.8203C38.2136 41.683 29.9323 40.5551 22.7203 37.1964C22.3736 37.0351 22.6763 36.5364 23.0189 36.6857C30.0216 39.7484 37.6709 40.995 45.2789 41.2084C48.2722 41.2924 51.2976 41.2484 54.2762 40.9057C56.7989 40.6164 60.9429 40.187 62.2762 37.651C62.4402 37.3377 62.9042 37.6137 62.7496 37.9271" fill="white"/>
<path d="M86.0229 19.8961C86.0255 19.8268 85.9989 19.7748 85.9589 19.7401C85.5602 18.9908 84.1242 18.8441 83.4042 18.7015C82.2269 18.4695 81.0362 18.3295 79.8469 18.1735C79.6509 18.1481 79.4575 18.1161 79.2628 18.0921C79.1828 18.0828 79.0455 18.0161 79.0602 18.0507C78.8962 17.8534 78.7908 17.4348 78.7028 17.2268C78.2082 16.0788 77.7348 14.9227 77.2335 13.7787C76.9802 13.1987 76.7202 12.6201 76.4455 12.0481C76.2749 11.6961 76.0802 11.0374 75.6909 10.8668C74.8229 10.4868 74.2175 12.6307 73.9855 13.1481C73.4335 14.3841 72.9175 15.6348 72.3815 16.8761C72.2682 17.1375 72.0802 17.8881 71.8455 18.0655C71.7309 18.1521 70.9215 18.1081 70.7135 18.1254C70.1855 18.1681 69.6562 18.2081 69.1295 18.2588C68.2295 18.3414 67.3149 18.4268 66.4442 18.6854C65.9215 18.8401 64.9842 19.0921 65.0655 19.8174C65.1322 20.4121 66.0469 20.9748 66.4575 21.3028C67.1615 21.8628 67.9095 22.3654 68.6895 22.8134C69.0429 23.0161 69.4962 23.1655 69.8189 23.4095C70.2389 23.7268 70.0375 24.0601 69.9242 24.4881C69.6842 25.3934 69.4415 26.2961 69.2215 27.2054C69.0415 27.9454 68.8695 28.6895 68.7549 29.4428C68.6842 29.9015 68.5095 30.5708 68.7162 31.0108C69.2629 32.1708 71.3535 30.1414 71.8589 29.7534C72.4909 29.2654 73.1109 28.7601 73.7175 28.2401C74.0162 27.9841 74.3108 27.7254 74.5988 27.4588C74.7628 27.3108 75.1762 26.7401 75.3869 26.7054C75.7269 26.6494 76.6442 27.7588 76.9215 27.9988C77.5469 28.5375 78.1935 29.0561 78.8469 29.5628C79.7375 30.2548 80.7149 31.1801 81.8935 31.2854C82.9215 31.3774 82.4295 29.8201 82.2948 29.2068C81.9695 27.7441 81.4922 26.3134 81.0589 24.8801C80.9655 24.5721 80.8442 24.2548 80.7789 23.9388C80.7069 23.5921 80.7189 23.6161 81.0109 23.4401C81.5802 23.0961 82.2695 22.8854 82.8655 22.5854C83.8188 22.1041 85.7322 21.2361 86.0002 20.0414C86.0242 20.0014 86.0335 19.9535 86.0229 19.8961" fill="#FFF896"/>
<path d="M63.3257 110.639C61.7097 110.496 60.0617 110.515 58.4257 110.534C58.887 110.076 59.3497 109.619 59.8097 109.158C60.5283 108.435 61.343 107.743 61.8123 106.828C62.023 106.416 61.603 106.012 61.1963 106.212C60.2736 106.664 59.5656 107.472 58.8296 108.178C58.3536 108.636 57.879 109.098 57.4083 109.56C57.4123 108.895 57.4163 108.231 57.415 107.566C57.4123 106.543 57.4977 105.476 57.1817 104.496C57.0417 104.063 56.4577 104.074 56.3137 104.496C55.9817 105.47 56.0496 106.544 56.0296 107.566C56.0163 108.226 56.007 108.887 56.0003 109.548C55.5337 109.075 55.0656 108.602 54.595 108.132C53.8723 107.414 53.1803 106.599 52.2643 106.13C51.8536 105.919 51.4483 106.339 51.6497 106.746C52.1017 107.667 52.9097 108.376 53.615 109.112C54.0737 109.59 54.535 110.062 54.9976 110.535C54.3323 110.53 53.667 110.526 53.0017 110.527C51.9817 110.53 50.9137 110.444 49.9323 110.76C49.5003 110.899 49.511 111.484 49.9323 111.628C50.907 111.96 51.9817 111.892 53.0017 111.912C53.6497 111.926 54.295 111.934 54.9417 111.94C53.7483 113.067 52.5457 114.202 51.4803 115.428C50.907 116.087 51.7683 116.935 52.4296 116.379C53.6616 115.347 54.8043 114.18 55.939 113.02C55.8923 114.647 55.8457 116.283 55.959 117.89C56.019 118.759 57.2283 118.75 57.3043 117.89C57.443 116.288 57.427 114.656 57.4097 113.034C58.5257 114.216 59.651 115.406 60.8656 116.462C61.5243 117.035 62.3723 116.174 61.8177 115.511C60.7843 114.28 59.6177 113.138 58.4577 112.003C60.0843 112.05 61.719 112.095 63.3257 111.983C64.195 111.923 64.187 110.714 63.3257 110.639" fill="white"/>
<path d="M51.7136 16.7469C51.7589 16.7376 51.8029 16.7283 51.8483 16.7189C51.9843 16.6616 52.1216 16.6029 52.259 16.5469C52.4576 16.4376 52.6189 16.2909 52.7403 16.1029C52.9643 15.8136 53.1256 15.4389 53.1083 15.0629C53.0949 14.7589 53.0163 14.4669 52.8736 14.1963C52.6896 13.8483 52.2363 13.4883 51.8483 13.4069C51.8029 13.3989 51.7589 13.3896 51.7136 13.3802C51.1136 13.2549 50.4509 13.3536 50.0149 13.8282C49.7016 14.1709 49.5029 14.5909 49.5029 15.0629C49.5029 15.5109 49.6989 15.9802 50.0149 16.2976C50.4776 16.7589 51.0936 16.8762 51.7136 16.7469Z" fill="white"/>
<path d="M78.2628 40.7549C78.5722 40.2015 78.5775 39.6202 78.2788 39.0655C77.8348 38.2402 76.7322 37.9535 75.9295 38.4228C75.0148 38.9588 74.7682 40.3509 75.5855 41.0989C75.9188 41.4055 76.3282 41.5989 76.7895 41.5989C77.3815 41.5989 77.9695 41.2762 78.2628 40.7549" fill="white"/>
<path d="M103.764 28.2508C103.783 28.2415 103.8 28.2322 103.817 28.2229C104.915 27.6415 104.915 25.8975 103.817 25.3162C103.8 25.3069 103.783 25.2975 103.764 25.2869C103.216 24.9962 102.579 24.9682 102.032 25.2869C101.511 25.5922 101.183 26.1642 101.183 26.7695C101.183 27.3749 101.511 27.9455 102.032 28.2508C102.579 28.5708 103.216 28.5415 103.764 28.2508" fill="white"/>
<path d="M115.456 44.8057C117.209 44.8057 117.213 42.079 115.456 42.079C113.701 42.079 113.699 44.8057 115.456 44.8057Z" fill="white"/>
<path d="M125.033 80.9575C127.207 80.9575 127.208 77.5815 125.033 77.5815C122.861 77.5815 122.859 80.9575 125.033 80.9575Z" fill="white"/>
<path d="M88.4081 116.703C88.4254 116.712 88.4428 116.723 88.4614 116.732C88.8108 116.92 89.1761 116.991 89.5694 116.938C89.9334 116.89 90.3121 116.739 90.5681 116.46C90.7721 116.238 90.9228 115.98 91.0148 115.692C91.1548 115.26 91.0481 114.742 90.8401 114.354C90.8308 114.335 90.8201 114.318 90.8121 114.3C90.2708 113.296 88.8281 113.168 88.0521 113.944C87.2761 114.72 87.4041 116.164 88.4081 116.703" fill="white"/>
<path d="M64.0201 128.223C64.0415 128.248 64.0628 128.274 64.0855 128.299C64.1948 128.383 64.3028 128.467 64.4121 128.551C64.5401 128.606 64.6681 128.66 64.7975 128.714C65.1375 128.824 65.5268 128.768 65.8481 128.632C66.4135 128.395 66.8681 127.799 66.8388 127.159C66.8148 126.595 66.5361 126.056 66.0401 125.766C65.7268 125.582 65.3681 125.526 65.0108 125.574C64.6828 125.619 64.3081 125.756 64.0855 126.018C64.0628 126.043 64.0415 126.068 64.0201 126.095C63.7681 126.39 63.5601 126.752 63.5788 127.159C63.5975 127.575 63.7495 127.904 64.0201 128.223" fill="white"/>
<path d="M68.5853 95.9417C69.0279 95.9417 69.4932 95.7483 69.8079 95.435C70.1066 95.135 70.3333 94.643 70.3146 94.2123C70.2706 93.275 69.5533 92.483 68.5853 92.483C68.1413 92.483 67.6746 92.6763 67.3612 92.9897C67.0612 93.2883 66.8359 93.7817 66.8546 94.2123C66.8973 95.1497 67.6146 95.9417 68.5853 95.9417" fill="white"/>
<path d="M35.6946 111.702C35.852 111.426 35.9933 111.159 36.0373 110.835C36.1026 110.338 35.952 109.827 35.5946 109.47C35.288 109.164 34.8706 109.016 34.444 108.998C34.0386 108.979 33.6973 109.178 33.3626 109.37C32.4066 109.915 32.2493 111.279 33.0173 112.046C33.7827 112.812 35.148 112.656 35.6946 111.702" fill="white"/>
<path d="M24.2896 93.595C26.2909 93.595 26.2936 90.4857 24.2896 90.4857C22.2896 90.4857 22.2856 93.595 24.2896 93.595Z" fill="white"/>
<path d="M7.34134 76.5842C7.44934 76.5495 7.55867 76.5149 7.66667 76.4802C8.28267 76.2829 8.81468 75.6949 8.78402 75.0122C8.75335 74.3215 8.32933 73.7575 7.66667 73.5455C7.55867 73.5109 7.44934 73.4762 7.34134 73.4415C6.32267 73.1162 5.27734 73.9895 5.27734 75.0122C5.27734 76.0362 6.32401 76.9095 7.34134 76.5842" fill="white"/>
<path d="M17.1962 39.1201C18.9389 39.1201 18.9416 36.4108 17.1962 36.4108C15.4509 36.4108 15.4482 39.1201 17.1962 39.1201Z" fill="white"/>
<path d="M34.5227 22.9549C34.5401 22.9175 34.556 22.8802 34.5734 22.8442C34.3774 23.0389 34.1814 23.2348 33.9854 23.4308C34.6801 23.0762 35.0574 22.3242 34.9547 21.5602C34.9001 21.1509 34.7281 20.8109 34.4507 20.5096C34.1547 20.1869 33.5947 19.9536 33.1574 19.9736C32.3187 20.0109 31.652 20.5175 31.3947 21.3162C31.2587 21.7375 31.3387 22.3535 31.5787 22.7269C31.768 23.0215 32.0147 23.2695 32.3307 23.4308C32.1347 23.2348 31.9374 23.0389 31.7427 22.8442C31.76 22.8802 31.776 22.9175 31.7947 22.9549C32.02 23.4469 32.6441 23.7375 33.1574 23.7375C33.6721 23.7375 34.2961 23.4469 34.5227 22.9549" fill="#F7B9E7"/>
<path d="M60.1176 80.3308C60.5722 80.3308 61.0482 80.1335 61.3709 79.8122C61.6776 79.5055 61.9082 79.0015 61.8882 78.5602C61.8682 78.1015 61.7176 77.6268 61.3709 77.3082C61.0242 76.9895 60.5976 76.7895 60.1176 76.7895C59.6629 76.7895 59.1869 76.9868 58.8656 77.3082C58.5589 77.6148 58.3269 78.1188 58.3469 78.5602C58.3682 79.0175 58.5176 79.4935 58.8656 79.8122C59.2109 80.1308 59.6389 80.3308 60.1176 80.3308Z" fill="#F7B9E7"/>
<path d="M111.871 107.742C112.187 107.567 112.358 107.356 112.56 107.067C112.874 106.622 112.874 105.838 112.56 105.392C112.358 105.102 112.187 104.891 111.871 104.718C111.318 104.415 110.654 104.395 110.102 104.718C109.57 105.03 109.235 105.612 109.235 106.23C109.235 106.847 109.57 107.43 110.102 107.742C110.654 108.064 111.318 108.044 111.871 107.742" fill="#F7B9E7"/>
<path d="M127.517 58.355C127.976 58.355 128.456 58.155 128.78 57.831C129.091 57.5203 129.324 57.0123 129.304 56.567C129.283 56.1043 129.132 55.6256 128.78 55.303C128.431 54.9816 128 54.779 127.517 54.779C127.059 54.779 126.577 54.979 126.253 55.303C125.943 55.6136 125.708 56.1216 125.729 56.567C125.751 57.0296 125.901 57.5083 126.253 57.831C126.601 58.1523 127.033 58.355 127.517 58.355Z" fill="#F7B9E7"/>
</svg>
