<svg width="135" height="135" viewBox="0 0 135 135" fill="none" xmlns="http://www.w3.org/2000/svg">
<path d="M134.089 67.956C134.089 104.984 104.073 135 67.0445 135C30.0172 135 0 104.984 0 67.956C0 30.928 30.0172 0.91067 67.0445 0.91067C104.073 0.91067 134.089 30.928 134.089 67.956Z" fill="#35208A"/>
<path d="M102.041 55.0988C101.674 53.8828 101.155 52.7334 100.855 51.4934C100.511 50.0641 100.325 48.6041 100.091 47.1548C99.694 44.6708 99.1286 42.1881 97.706 40.0721C95.2793 36.4628 90.87 34.0641 86.4886 34.2788C85.0846 34.3494 84.466 34.2281 83.7313 32.9321C83.2726 32.1214 82.878 31.3614 82.226 30.6841C80.6713 29.0734 78.4873 27.9574 76.266 27.6614C73.8553 27.3414 71.2206 28.0921 69.1113 29.2388C68.1606 29.7561 67.266 30.4561 66.1566 30.5628C64.6766 30.7041 63.0646 29.9188 61.6886 29.4441C57.4966 27.9988 53.45 27.6601 49.9286 30.6961C49.002 31.4974 48.2046 32.4988 47.1753 33.1708C46.0353 33.9134 44.7073 34.2774 43.4126 34.6494C41.1726 35.2921 39.1353 36.1388 37.2673 37.5681C33.6069 40.3668 31.3517 44.7734 32.0184 49.4321C32.1762 50.5348 32.4913 51.6081 32.9861 52.6081C33.2814 53.2068 33.7058 53.6934 34.0356 54.2654C34.658 55.3414 34.2334 55.9788 33.8558 56.9828C32.7438 59.9374 31.7648 62.9788 31.4714 66.1388C31.0116 71.0934 32.5897 76.4388 36.8686 79.2894C35.4886 85.0548 38.2006 91.4028 43.2553 94.5041C44.574 95.3148 45.97 95.7388 47.446 96.1681C48.746 96.5468 49.7553 97.0134 50.598 98.1214C51.2033 98.9174 51.7086 99.7721 52.3513 100.541C53.1273 101.468 54.0153 102.331 55.1593 102.781C56.774 103.417 58.5846 102.645 60.0353 103.689C61.1766 104.509 61.9126 105.768 62.9646 106.687C64.0646 107.648 65.4806 108.133 66.9193 108.279C68.2086 108.409 69.566 108.268 70.754 107.728C71.162 107.544 71.5246 107.233 71.9353 107.067C73.17 106.565 73.1593 106.845 74.0926 107.093C74.9326 107.315 75.7726 107.255 76.5846 106.952C80.0806 105.652 80.8433 101.344 83.8126 99.3627C85.0126 98.5601 86.3446 97.9681 87.4766 97.0601C89.0233 95.8187 89.3326 93.9321 90.6686 92.5761C92.038 91.1881 93.9406 90.5094 95.278 89.0521C96.5486 87.6668 97.4246 85.9574 97.9646 84.1654C98.5726 82.1521 98.626 80.1748 98.4486 78.0881C98.2046 75.2228 98.114 72.8334 99.4166 70.1788C100.697 67.7148 102.001 65.4894 102.45 62.7041C102.857 60.1774 102.783 57.5588 102.041 55.0988" fill="#FA8D61"/>
<path d="M90.7473 49.0519C90.7513 49.0119 90.7513 48.9692 90.7446 48.9239C90.7419 48.8719 90.7326 48.8252 90.7206 48.7812C90.2699 45.8132 87.8766 43.3212 84.7059 43.6332C81.6179 43.9385 79.7753 46.7452 79.7006 49.6932C79.6606 51.2879 80.2619 52.3425 81.3286 53.4652C82.4553 54.6505 83.5193 55.8252 85.2913 55.7585C88.6153 55.6345 90.8273 52.1052 90.7473 49.0519" fill="#FFB07F"/>
<path d="M49.5835 43.6561C46.3341 43.2148 43.8168 45.7428 43.3581 48.7948C43.3475 48.8348 43.3421 48.8775 43.3395 48.9241C43.3341 48.9695 43.3328 49.0121 43.3368 49.0508C43.2581 52.0481 45.3648 55.4841 48.5941 55.7388C50.3488 55.8774 51.4301 54.8601 52.5621 53.6694C53.7035 52.4681 54.4355 51.4201 54.3848 49.6934C54.2995 46.8294 52.5768 44.0641 49.5835 43.6561" fill="#FFB07F"/>
<path d="M88.5939 49.1665C88.4779 47.8612 87.6126 46.6292 86.3926 46.1492C85.1726 45.6692 83.6539 46.0105 82.8126 47.0159C81.8913 48.1172 81.3899 50.4438 82.4553 51.5652C82.8073 51.9345 83.1579 52.3038 83.5086 52.6745C84.5579 53.7758 85.9659 53.5878 87.1006 52.6425C88.1086 51.8038 88.7113 50.4732 88.5939 49.1665" fill="#FF9F63"/>
<path d="M45.4898 49.1665C45.6072 47.8612 46.4712 46.6292 47.6925 46.1492C48.9125 45.6692 50.4312 46.0105 51.2725 47.0159C52.1925 48.1172 52.6938 50.4438 51.6272 51.5652C51.2778 51.9345 50.9258 52.3038 50.5738 52.6745C49.5258 53.7758 48.1178 53.5878 46.9832 52.6425C45.9752 51.8038 45.3738 50.4732 45.4898 49.1665" fill="#FF9F63"/>
<path d="M90.1498 58.6505C89.5658 54.2572 87.2325 50.2612 83.5805 47.7105C79.3871 44.7825 74.1485 44.1959 69.1672 44.2492C64.2311 44.3039 58.8098 44.1332 54.1138 45.8585C49.9285 47.3972 46.5872 50.6185 44.9205 54.7585C42.8312 59.9518 44.2538 65.5305 45.7111 70.6932C47.1965 75.9638 49.1631 81.1505 51.9605 85.8732C53.1791 87.9292 54.5258 90.1585 56.4458 91.6425C58.3298 93.0985 60.7205 93.6119 63.0325 93.9145C67.4378 94.4892 73.2858 94.5598 77.1338 92.0065C79.3978 90.5038 80.9125 87.9425 82.2551 85.6492C83.7791 83.0452 85.0472 80.2972 86.1325 77.4825C87.2458 74.5985 88.1538 71.6359 88.9271 68.6425C89.7725 65.3679 90.4765 62.0479 90.1498 58.6505" fill="#FFB07F"/>
<path d="M78.2777 91.1119C78.8644 89.5919 79.2937 88.0118 79.551 86.3985C79.971 83.7598 80.1177 80.4878 78.7937 78.0705C77.6377 75.9558 75.3977 75.0945 73.1124 74.8532C70.9244 74.6239 68.6444 74.6345 66.447 74.6598C61.8484 74.7132 56.463 75.5772 54.675 80.4318C53.7604 82.9158 54.5084 84.9999 54.847 87.0239C55.263 89.4972 56.0337 91.2092 56.451 91.6425C58.1004 93.3599 60.7257 93.6119 63.0377 93.9145C67.4444 94.4892 73.291 94.5598 77.139 92.0065C77.5417 91.7398 77.919 91.4372 78.2777 91.1119Z" fill="#FFC9A8"/>
<path d="M51.5539 69.1411C50.2725 69.1411 49.0432 68.0145 49.1032 66.6905C49.1632 65.3625 50.1792 64.2398 51.5539 64.2398C52.8365 64.2398 54.0645 65.3665 54.0058 66.6905C53.9458 68.0185 52.9285 69.1411 51.5539 69.1411Z" fill="#35208A"/>
<path d="M82.5299 69.1411C81.2473 69.1411 80.0193 68.0145 80.0793 66.6905C80.1379 65.3625 81.1566 64.2398 82.5299 64.2398C83.8126 64.2398 85.0406 65.3665 84.9819 66.6905C84.9219 68.0185 83.9046 69.1411 82.5299 69.1411Z" fill="#35208A"/>
<path d="M70.5834 82.6279C71.4994 82.2132 72.6234 81.9639 73.4527 81.3959C74.5527 80.6439 74.8594 79.2452 73.6607 78.4572C73.3407 78.2466 72.9341 78.3546 72.6661 78.5852C72.6181 78.6279 72.5687 78.6692 72.5207 78.7106C72.3314 78.8746 72.3194 79.1839 72.4327 79.3906C72.7141 79.8972 73.1101 79.7866 72.2994 80.1546C72.1914 80.2039 72.0807 80.2466 71.9714 80.2892C71.4341 79.9306 70.7154 79.8546 70.0354 79.9772C69.2101 80.1239 67.7927 80.7599 67.8567 81.7692C67.8594 81.8132 67.8687 81.8546 67.8781 81.8946C67.5181 81.9626 67.1514 81.9812 66.7741 81.9266C66.7874 81.8772 66.7954 81.8239 66.7994 81.7692C66.8634 80.7599 65.4461 80.1239 64.6207 79.9772C63.9007 79.8479 63.1354 79.9359 62.5901 80.3519C62.2634 80.2439 61.9794 80.0399 61.7407 79.7412C61.7607 79.5479 61.7541 79.3586 61.7221 79.1692C61.6807 79.0692 61.6314 78.8932 61.5167 78.8439C61.4954 78.8346 61.4714 78.8252 61.4501 78.8146C61.1327 78.6799 60.8421 78.7386 60.6381 79.0279C59.7314 80.3052 60.9234 81.4706 62.1194 81.8746C63.7047 82.4079 65.3274 83.5052 67.0381 83.6186C67.1101 84.1786 67.1621 84.7386 67.1767 85.3066C67.1914 85.8799 67.0807 86.4972 67.2461 87.0492C67.1367 87.0479 67.0274 87.0479 66.9167 87.0426C64.5421 86.9186 62.4474 85.8426 60.5941 84.4226C60.3154 84.2092 59.9434 84.6866 60.2154 84.9132C63.9914 88.0652 70.5074 89.2199 73.6941 84.5506C73.8847 84.2706 73.4634 83.9612 73.2314 84.1946C71.6501 85.7932 69.9087 86.9292 67.6767 87.0412C67.9221 86.4546 67.8461 85.7786 67.8181 85.1506C67.7941 84.6332 67.7421 84.1199 67.6674 83.6092C67.7127 83.6052 67.7581 83.6039 67.8047 83.5999C68.7914 83.4786 69.6874 83.0346 70.5834 82.6279" fill="#35208A"/>
<path d="M80.8684 48.8399C82.0084 50.2332 82.2884 51.4879 82.1951 53.2479C82.1778 53.5865 82.6764 53.6332 82.7711 53.3252C83.2778 51.6812 82.5204 49.5692 81.1911 48.5172C80.9604 48.3359 80.6791 48.6105 80.8684 48.8399Z" fill="#35208A"/>
<path d="M83.794 51.1267C83.9633 51.7694 84.2033 52.3454 84.2393 53.0214C84.2726 53.6227 84.05 54.2187 84.1233 54.8027C84.146 54.9707 84.3606 55.1187 84.5006 54.9587C85.3393 53.9894 84.902 51.8281 84.1486 50.9214C84.0073 50.7507 83.7433 50.9347 83.794 51.1267" fill="#35208A"/>
<path d="M55.698 46.8811C54.406 46.9584 54.0247 49.1437 54.6553 50.0184C54.8367 50.2704 55.2713 50.1304 55.1793 49.797C55.038 49.2757 54.9193 48.833 55.0753 48.2917C55.2167 47.8064 55.574 47.4811 55.7887 47.0411C55.822 46.9731 55.7847 46.8757 55.698 46.8811" fill="#35208A"/>
<path d="M56.8874 48.3652C56.274 48.6092 56.314 49.7052 56.402 50.2412C56.5447 51.0999 57.0007 51.8879 57.7567 52.3345C58.01 52.4839 58.2833 52.1345 58.0713 51.9252C57.5513 51.4052 57.1407 50.8119 57.0087 50.0745C56.9087 49.5319 57.1887 48.8879 56.9793 48.4025C56.966 48.3719 56.918 48.3519 56.8874 48.3652" fill="#35208A"/>
<path d="M95.4164 56.7573C95.5844 58.0866 96.3018 59.2119 96.3791 60.6066C96.4684 62.2519 96.0217 63.7599 95.3057 65.2239C95.1391 65.5653 95.6151 65.8519 95.8191 65.5239C96.6898 64.1293 97.0724 62.4706 97.0098 60.8333C96.9591 59.5066 96.6938 57.5533 95.5791 56.6893C95.5244 56.6466 95.4044 56.6639 95.4164 56.7573" fill="#35208A"/>
<path d="M98.8834 61.9757C98.3207 62.9277 98.434 64.2157 98.094 65.2797C97.6473 66.6717 96.8927 67.7917 96.094 68.9904C95.9114 69.2637 96.3207 69.5717 96.5447 69.3384C97.5234 68.3211 98.1954 66.9984 98.6514 65.6691C99.0087 64.6264 99.5447 63.0104 98.9927 61.9757C98.9687 61.9331 98.906 61.9357 98.8834 61.9757" fill="#35208A"/>
<path d="M37.2351 57.8212C34.0015 59.9452 33.663 65.3305 35.2004 68.5159C35.3479 68.8199 35.8827 68.6025 35.7542 68.2825C35.0327 66.4852 34.7385 64.6359 35.0911 62.7132C35.4349 60.8505 36.4164 59.5159 37.3418 57.9265C37.3791 57.8625 37.3018 57.7785 37.2351 57.8212" fill="#35208A"/>
<path d="M38.5816 63.1425C37.4976 65.7279 38.1389 69.2359 40.1749 71.1972C40.4016 71.4172 40.8256 71.1252 40.6296 70.8452C38.9456 68.4426 38.3909 66.1665 39.0523 63.2719C39.1229 62.9585 38.7003 62.8612 38.5816 63.1425" fill="#35208A"/>
<path d="M65.2311 39.9851C65.6565 39.6065 65.8684 39.1038 66.2098 38.6465C66.7311 37.9465 67.3511 37.3651 68.0884 36.8918C69.4511 36.0184 70.8978 35.7678 72.4858 35.7571C72.8045 35.7558 72.9018 35.2251 72.5645 35.1798C70.8925 34.9518 69.1791 35.4358 67.7724 36.3491C66.6751 37.0598 65.0191 38.4691 65.0338 39.9038C65.0351 40.0078 65.1578 40.0491 65.2311 39.9851" fill="#35208A"/>
<path d="M70.754 39.0306C71.8487 38.8266 72.7433 38.112 73.91 37.9946C75.0673 37.8786 76.13 38.1426 77.2007 38.5546C77.522 38.6786 77.742 38.1533 77.4353 37.996C76.3233 37.4293 75.066 37.2453 73.83 37.3946C72.786 37.52 71.1967 37.9 70.6553 38.9013C70.6167 38.972 70.6793 39.044 70.754 39.0306" fill="#35208A"/>
<path d="M48.1525 39.7452C48.9405 37.1839 50.7138 35.9172 53.4205 36.5186C53.7232 36.5852 53.9551 36.1319 53.6431 35.9906C51.1271 34.8506 47.6298 36.7746 47.7058 39.6852C47.7125 39.9412 48.0752 39.9919 48.1525 39.7452Z" fill="#35208A"/>
<path d="M64.1471 98.7894C64.5084 100.02 66.4804 100.552 67.6057 100.728C69.1257 100.967 70.7098 100.723 72.0298 99.9201C72.3658 99.7147 72.0724 99.2387 71.7257 99.4C70.3231 100.048 68.8884 100.349 67.3498 100.028C66.2084 99.7894 65.3271 98.8694 64.2444 98.6934C64.1871 98.684 64.1284 98.7267 64.1471 98.7894" fill="#35208A"/>
<path d="M71.683 102.805C74.327 102.881 78.0617 100.984 78.3723 98.0361C78.3977 97.7841 78.051 97.7428 77.9337 97.9174C77.179 99.0348 76.7163 100.113 75.5803 100.948C74.4257 101.799 73.111 102.199 71.683 102.212C71.3003 102.215 71.3003 102.795 71.683 102.805Z" fill="#35208A"/>
<path d="M86.5911 89.0081C87.0084 89.4481 88.0257 88.8801 88.4364 88.6414C89.0724 88.2721 89.7951 87.6854 90.0271 86.9614C90.1084 86.7107 89.7711 86.5281 89.5911 86.7081C89.0711 87.2321 88.7217 87.7988 88.0644 88.1881C87.7617 88.3681 87.4444 88.4921 87.1137 88.6027C86.8737 88.6841 86.6991 88.7014 86.5804 88.9294C86.5657 88.9547 86.5684 88.9867 86.5911 89.0081" fill="#35208A"/>
<path d="M47.0764 87.4027C46.5924 88.3213 46.671 89.8586 47.0897 90.7973C47.495 91.704 48.315 92.344 49.2857 92.5213C49.6564 92.5893 49.8137 92.06 49.4444 91.9507C48.371 91.6333 47.623 90.8973 47.455 89.7653C47.3377 88.9733 47.5377 88.144 47.2004 87.4027C47.1777 87.3533 47.1004 87.3587 47.0764 87.4027" fill="#35208A"/>
<path d="M85.785 78.0024C83.765 78.0024 81.8303 76.2264 81.9237 74.1411C82.017 72.0478 83.6197 70.2798 85.785 70.2798C87.805 70.2798 89.7383 72.0558 89.6463 74.1411C89.553 76.2331 87.9503 78.0024 85.785 78.0024Z" fill="#E0435B"/>
<path d="M48.0022 78.0024C45.9808 78.0024 44.0461 76.2264 44.1395 74.1411C44.2328 72.0478 45.8368 70.2798 48.0022 70.2798C50.0208 70.2798 51.9555 72.0558 51.8621 74.1411C51.7688 76.2331 50.1662 78.0024 48.0022 78.0024Z" fill="#E0435B"/>
<path d="M39.2208 94.624C39.2234 94.5547 39.1968 94.5027 39.1568 94.468C38.7581 93.7187 37.3221 93.572 36.6021 93.4307C35.4248 93.1974 34.2336 93.056 33.0445 92.9014C32.8492 92.876 32.6554 92.844 32.4601 92.82C32.3805 92.8107 32.244 92.744 32.2581 92.7787C32.094 92.5814 31.9888 92.1614 31.9002 91.9534C31.4065 90.8067 30.9325 89.6507 30.4316 88.5067C30.1773 87.9267 29.9185 87.3467 29.6434 86.776C29.4726 86.4254 29.2778 85.7653 28.8882 85.5947C28.0212 85.2147 27.4158 87.3587 27.1841 87.876C26.6321 89.1107 26.1149 90.3627 25.58 91.604C25.4664 91.8654 25.2778 92.6147 25.0434 92.7947C24.9284 92.88 24.119 92.836 23.9117 92.852C23.383 92.8947 22.8545 92.936 22.3273 92.9867C21.4273 93.0694 20.5117 93.1547 19.6425 93.4134C19.119 93.568 18.1816 93.82 18.2633 94.5454C18.33 95.14 19.245 95.704 19.6554 96.0307C20.3597 96.5907 21.107 97.0934 21.8873 97.5414C22.2414 97.744 22.6945 97.8934 23.0174 98.1374C23.4352 98.4547 23.2346 98.7867 23.1216 99.2147C22.8821 100.12 22.6393 101.024 22.4196 101.933C22.2398 102.672 22.0669 103.417 21.9524 104.171C21.8821 104.629 21.706 105.297 21.9144 105.739C22.4601 106.897 24.5508 104.871 25.056 104.481C25.6893 103.992 26.3092 103.489 26.9158 102.968C27.2138 102.712 27.5081 102.452 27.7972 102.187C27.9601 102.039 28.3742 101.469 28.5852 101.435C28.9248 101.377 29.8414 102.488 30.119 102.725C30.745 103.267 31.3909 103.783 32.0445 104.289C32.9352 104.983 33.9117 105.908 35.0898 106.013C36.1194 106.104 35.6278 104.548 35.4914 103.935C35.1669 102.472 34.6904 101.041 34.2565 99.608C34.1633 99.3 34.0434 98.9827 33.9768 98.6667C33.9054 98.3214 33.9169 98.344 34.2086 98.1667C34.7778 97.8254 35.4674 97.612 36.0634 97.3134C37.0168 96.832 38.9288 95.964 39.1981 94.7694C39.2221 94.7294 39.2314 94.68 39.2208 94.624" fill="#FFF896"/>
<path d="M120.785 57.5984C119.169 57.457 117.521 57.4757 115.883 57.493C116.345 57.0357 116.809 56.5784 117.267 56.117C117.986 55.3944 118.801 54.7024 119.271 53.7877C119.482 53.377 119.062 52.9717 118.654 53.1717C117.731 53.625 117.023 54.433 116.287 55.1384C115.811 55.5957 115.339 56.057 114.866 56.5197C114.87 55.8544 114.874 55.1904 114.873 54.525C114.87 53.5037 114.955 52.4357 114.639 51.4557C114.501 51.0224 113.915 51.0344 113.771 51.4557C113.439 52.4304 113.509 53.5037 113.487 54.525C113.474 55.185 113.466 55.8477 113.458 56.5077C112.993 56.0344 112.523 55.561 112.053 55.093C111.331 54.373 110.638 53.5584 109.723 53.089C109.311 52.8784 108.907 53.2984 109.107 53.705C109.561 54.6277 110.367 55.3357 111.073 56.0717C111.531 56.5477 111.994 57.021 112.455 57.493C111.79 57.489 111.125 57.4864 110.461 57.4877C109.439 57.4904 108.371 57.4037 107.391 57.7197C106.958 57.8584 106.969 58.4437 107.391 58.5877C108.365 58.921 109.439 58.8517 110.461 58.8717C111.107 58.885 111.753 58.893 112.399 58.8997C111.206 60.0277 110.005 61.161 108.938 62.3877C108.366 63.0464 109.227 63.8944 109.89 63.3397C111.119 62.3064 112.262 61.1397 113.398 59.9797C113.35 61.6064 113.303 63.2424 113.417 64.849C113.478 65.7184 114.686 65.7104 114.762 64.849C114.902 63.2477 114.885 61.6157 114.867 59.993C115.985 61.1757 117.109 62.365 118.323 63.4224C118.982 63.9944 119.83 63.133 119.275 62.4704C118.242 61.2397 117.075 60.0984 115.915 58.9624C117.542 59.009 119.177 59.0557 120.785 58.9424C121.654 58.8824 121.645 57.673 120.785 57.5984" fill="white"/>
<path d="M72.5285 10.5692C72.5112 10.5306 72.4952 10.4932 72.4779 10.4559C72.2845 10.0212 71.7232 9.76522 71.2725 9.76522C70.8219 9.76522 70.2605 10.0212 70.0659 10.4559C70.0499 10.4932 70.0325 10.5306 70.0152 10.5692C69.8845 10.7959 69.8179 11.0399 69.8179 11.3026C69.8179 11.5652 69.8845 11.8106 70.0152 12.0372C70.2752 12.4799 70.7592 12.7585 71.2725 12.7585C71.7859 12.7585 72.2699 12.4799 72.5285 12.0372C72.6605 11.8106 72.7272 11.5652 72.7272 11.3026C72.7272 11.0399 72.6605 10.7959 72.5285 10.5692Z" fill="white"/>
<path d="M91.4727 25.428C91.4647 25.416 91.458 25.404 91.4527 25.3907C91.5114 25.532 91.5727 25.6747 91.6327 25.8174C91.6234 25.7947 91.6194 25.7734 91.6154 25.7494C91.6354 25.9067 91.6567 26.064 91.678 26.22C91.6754 26.2054 91.6754 26.1893 91.6754 26.1733C91.678 25.7427 91.482 25.2227 91.1594 24.9267C90.8674 24.6587 90.5407 24.4933 90.146 24.4413C89.7714 24.3907 89.35 24.4387 89.022 24.6507C88.902 24.7427 88.7847 24.8347 88.6647 24.9267C88.446 25.1467 88.294 25.4067 88.2114 25.7053C88.0767 26.048 88.1207 26.46 88.1954 26.8093C88.2914 27.2653 88.6394 27.636 89.0194 27.8813C89.498 28.1893 90.11 28.1853 90.6167 27.972C91.0647 27.7827 91.374 27.472 91.5647 27.0227C91.778 26.5187 91.782 25.9053 91.4727 25.428" fill="white"/>
<path d="M114.195 34.8093C114.619 34.8093 115.065 34.6253 115.365 34.3253C115.651 34.0373 115.867 33.5667 115.849 33.1547C115.83 32.7267 115.69 32.2827 115.365 31.9853C115.041 31.6867 114.643 31.5 114.195 31.5C113.771 31.5 113.325 31.6853 113.025 31.9853C112.738 32.272 112.522 32.7427 112.541 33.1547C112.561 33.5827 112.701 34.0266 113.025 34.3253C113.349 34.6213 113.746 34.8093 114.195 34.8093Z" fill="white"/>
<path d="M109.726 81.6851C110.163 81.6851 110.622 81.4944 110.933 81.1851C111.229 80.8891 111.451 80.4037 111.431 79.9784C111.391 79.0544 110.682 78.2717 109.726 78.2717C109.287 78.2717 108.829 78.4637 108.518 78.7717C108.223 79.0677 108.001 79.5531 108.018 79.9784C108.061 80.9037 108.769 81.6851 109.726 81.6851Z" fill="white"/>
<path d="M113.13 104.675C113.551 104.675 113.992 104.492 114.288 104.195C114.572 103.911 114.786 103.444 114.768 103.037C114.75 102.613 114.611 102.173 114.288 101.879C113.968 101.585 113.574 101.399 113.13 101.399C112.711 101.399 112.27 101.581 111.972 101.879C111.688 102.163 111.474 102.629 111.492 103.037C111.511 103.46 111.651 103.9 111.972 104.195C112.292 104.489 112.687 104.675 113.13 104.675Z" fill="white"/>
<path d="M91.2724 108.677C91.2858 108.671 91.2978 108.667 91.3125 108.664C91.1725 108.683 91.0311 108.703 90.8911 108.72C90.9698 108.712 91.0484 108.701 91.1258 108.689C91.3378 108.68 91.5338 108.617 91.7165 108.501C91.7351 108.492 91.7538 108.479 91.7751 108.469C91.6511 108.523 91.5271 108.575 91.4018 108.627C91.4165 108.621 91.4311 108.617 91.4458 108.615C91.3085 108.633 91.1738 108.652 91.0378 108.669C91.0444 108.668 91.0524 108.668 91.0591 108.667C91.3271 108.639 91.5884 108.599 91.8271 108.459C92.1138 108.292 92.3218 108.033 92.4498 107.732C92.6951 107.148 92.5471 106.539 92.1338 106.069C91.6418 105.511 90.6685 105.368 90.0538 105.789C89.7271 106.013 89.4191 106.328 89.3271 106.733C89.2458 107.087 89.2658 107.428 89.4058 107.763C89.5351 108.067 89.7538 108.36 90.0538 108.519C90.4031 108.704 90.8871 108.835 91.2724 108.677" fill="white"/>
<path d="M78.3578 125.487C78.3418 125.441 78.3258 125.399 78.3085 125.356C78.1725 124.996 77.9738 124.645 77.6178 124.456C77.3138 124.296 77.0005 124.231 76.6578 124.277C75.9165 124.377 75.3658 125 75.3525 125.756C75.3511 125.801 75.3511 125.847 75.3498 125.892C75.3351 126.819 76.1951 127.517 77.0858 127.397C77.5018 127.341 77.8285 127.153 78.0845 126.821C78.3591 126.465 78.5285 125.932 78.3578 125.487" fill="white"/>
<path d="M54.9539 117.402C55.3633 117.402 55.7939 117.225 56.0833 116.936C56.3606 116.658 56.5686 116.205 56.5513 115.806C56.5326 115.393 56.3979 114.966 56.0833 114.678C55.7713 114.39 55.3873 114.212 54.9539 114.212C54.5459 114.212 54.1166 114.388 53.8259 114.678C53.5499 114.954 53.3406 115.409 53.3579 115.806C53.3766 116.22 53.5113 116.648 53.8259 116.936C54.1379 117.222 54.5219 117.402 54.9539 117.402Z" fill="white"/>
<path d="M13.5391 85.7425C13.8975 85.4559 14.159 84.9239 14.1147 84.4572C14.0756 84.0452 13.9689 83.6239 13.6475 83.3292C13.5407 83.2465 13.4323 83.1625 13.3246 83.0812C13.0757 82.9359 12.8074 82.8639 12.5199 82.8625C12.25 82.8359 11.8636 82.9425 11.6459 83.0825C11.4948 83.1799 11.3464 83.2985 11.2344 83.4372C11.0756 83.5865 10.9637 83.7612 10.8975 83.9625C10.7954 84.1572 10.749 84.3666 10.7579 84.5906C10.7579 84.9906 10.935 85.4679 11.2344 85.7425C11.5454 86.0279 11.9532 86.2399 12.3871 86.2199C12.5314 86.2012 12.6762 86.1812 12.8204 86.1612C13.0964 86.0852 13.336 85.9439 13.5391 85.7425" fill="white"/>
<path d="M25.8671 65.3745C28.0703 65.3745 28.0744 61.9492 25.8671 61.9492C23.6629 61.9492 23.6588 65.3745 25.8671 65.3745Z" fill="white"/>
<path d="M18.8427 41.3027C19.2942 41.3027 19.7698 41.1054 20.0895 40.7868C20.3947 40.4801 20.625 39.9787 20.6057 39.5401C20.5849 39.0841 20.4349 38.6107 20.0895 38.2934C19.7447 37.9774 19.3203 37.7774 18.8427 37.7774C18.3906 37.7774 17.9166 37.9734 17.5963 38.2934C17.2906 38.6001 17.0614 39.1014 17.0807 39.5401C17.1005 39.9947 17.2499 40.4681 17.5963 40.7868C17.9417 41.1028 18.3661 41.3027 18.8427 41.3027Z" fill="white"/>
<path d="M48.9246 25.2478C49.3526 25.2478 49.8019 25.0611 50.1059 24.7584C50.3966 24.4678 50.6152 23.9931 50.5952 23.5758C50.5552 22.6718 49.8606 21.9051 48.9246 21.9051C48.4966 21.9051 48.0459 22.0918 47.7419 22.3945C47.4526 22.6851 47.2339 23.1598 47.2526 23.5758C47.2926 24.4825 47.9872 25.2478 48.9246 25.2478Z" fill="white"/>
<path d="M31.2944 24.6453C31.4673 24.5266 31.658 24.4079 31.8059 24.2653C31.9091 24.1639 31.9861 24.06 32.0772 23.9426C32.508 23.3853 32.6329 22.5373 32.2023 21.9306C32.2491 22.0399 32.2944 22.1493 32.3413 22.2586C32.3387 22.2479 32.3361 22.2373 32.3351 22.2266C32.2491 21.7973 31.8324 21.408 31.4143 21.3066C31.4039 21.304 31.3924 21.3013 31.382 21.2986C31.4913 21.3453 31.6007 21.392 31.71 21.4373C31.1944 21.0533 30.3559 21.0786 29.8335 21.4386C29.6668 21.5533 29.5001 21.672 29.3596 21.8186C29.2225 21.9626 29.0981 22.1586 28.9741 22.3253C28.9168 22.4599 28.8596 22.5946 28.8039 22.7306C28.732 22.9559 28.7225 23.1813 28.7725 23.4066C28.8205 23.7626 28.9663 24.1306 29.2397 24.38C29.4559 24.5786 29.7075 24.7253 29.9872 24.816C30.3673 24.9386 30.9611 24.8746 31.2944 24.6453" fill="#F7B9E7"/>
<path d="M14.5156 70.54C16.3448 70.54 16.348 67.696 14.5156 67.696C12.6849 67.696 12.6823 70.54 14.5156 70.54Z" fill="#F7B9E7"/>
<path d="M38.2843 117.713C38.2989 117.805 38.3149 117.895 38.3309 117.985C38.3909 118.128 38.4523 118.269 38.5109 118.413C38.6229 118.621 38.7776 118.788 38.9723 118.915C39.2736 119.148 39.6643 119.316 40.0563 119.299C40.3736 119.284 40.6763 119.203 40.9576 119.053C41.3096 118.869 41.7109 118.384 41.7816 117.985C41.7963 117.895 41.8123 117.805 41.8283 117.713C41.9149 117.388 41.9149 117.063 41.8283 116.737C41.7403 116.427 41.5829 116.157 41.3549 115.927C40.9963 115.597 40.5536 115.388 40.0563 115.388C39.5843 115.388 39.0896 115.593 38.7563 115.927C38.5283 116.157 38.3709 116.427 38.2843 116.737C38.1963 117.063 38.1963 117.388 38.2843 117.713" fill="#F7B9E7"/>
<path d="M125.775 80.3051C125.768 80.2838 125.762 80.2611 125.755 80.2398C125.646 79.8838 125.444 79.5904 125.15 79.3624C124.866 79.1424 124.498 78.9838 124.127 79.0011C123.367 79.0344 122.726 79.5038 122.5 80.2398C122.494 80.2611 122.487 80.2838 122.479 80.3051C122.152 81.3744 123.044 82.4678 124.127 82.4678C125.208 82.4678 126.102 81.3731 125.775 80.3051" fill="#F7B9E7"/>
<path d="M102.002 40.0132C102.43 40.0132 102.879 39.8265 103.182 39.5239C103.471 39.2345 103.69 38.7585 103.673 38.3425C103.63 37.4372 102.938 36.6718 102.002 36.6718C101.573 36.6718 101.122 36.8585 100.821 37.1612C100.53 37.4505 100.313 37.9265 100.331 38.3425C100.371 39.2478 101.065 40.0132 102.002 40.0132Z" fill="#F7B9E7"/>
</svg>
