<svg width="135" height="135" viewBox="0 0 135 135" fill="none" xmlns="http://www.w3.org/2000/svg">
<path d="M134.089 67.956C134.089 104.984 104.072 135 67.044 135C30.0173 135 0 104.984 0 67.956C0 30.928 30.0173 0.91067 67.044 0.91067C104.072 0.91067 134.089 30.928 134.089 67.956Z" fill="#35208A"/>
<path d="M107.44 53.2746C106.7 51.6239 105.051 50.3239 103.777 49.0972C102.128 47.5092 100.389 45.9866 98.4146 44.8133C94.2973 42.3666 89.4479 42.0546 84.7679 42.1506C79.3666 42.2599 74.0159 43.0972 68.8186 44.5612C68.7599 44.5639 68.7026 44.5932 68.6666 44.6652C68.4319 45.1359 68.1986 45.6079 67.9653 46.0786C67.8893 46.2293 67.9826 46.3866 68.1493 46.3986C73.1253 46.7679 78.0693 46.6733 83.0506 46.7373C88.0799 46.8013 92.9866 47.9052 95.7773 52.4626C97.2213 54.8212 99.0759 59.4799 102.543 59.4332C105.179 59.3972 103.779 56.2412 102.751 54.4639C103.961 55.3519 105.6 56.4773 106.835 56.0493C108.029 55.6373 107.857 54.2066 107.44 53.2746" fill="white"/>
<path d="M65.4225 44.6654C65.3852 44.5934 65.3291 44.5641 65.2691 44.5614C60.0718 43.0974 54.7212 42.2601 49.3198 42.1508C44.6398 42.0548 39.7918 42.3668 35.6745 44.8134C33.6998 45.9868 31.9611 47.5108 30.3118 49.0974C29.0398 50.3201 27.3878 51.6281 26.6492 53.2748C26.2745 54.1081 26.0398 55.4414 27.0291 55.9748C28.2425 56.6294 30.0745 55.3881 31.3411 54.4628C30.3198 56.2348 28.9052 59.4228 31.5172 59.4374C35.0145 59.4574 36.8478 54.8641 38.3118 52.4628C41.0171 48.0214 45.7865 46.8388 50.6985 46.7414C55.7918 46.6401 60.8491 46.7761 65.9398 46.3988C66.1051 46.3868 66.1985 46.2294 66.1238 46.0788C65.8892 45.6081 65.6558 45.1361 65.4225 44.6654" fill="white"/>
<path d="M71.1427 23.8291C71.1414 23.8278 71.1414 23.8291 71.14 23.8291C71.1054 23.8198 71.0707 23.8171 71.0293 23.8291C70.136 24.0838 69.42 24.9665 68.8347 25.9025C69.3613 24.0038 69.7347 21.5398 68.2013 21.1425C67.12 20.8638 66.2627 22.4705 65.86 23.2118C65.4334 23.9958 65.144 24.8185 64.972 25.6651C64.7774 24.2785 64.3614 22.9012 63.2534 22.7198C61.4134 22.4212 61.4467 25.5892 61.3667 26.6905C60.984 31.8932 62.4254 37.2291 65.42 41.5051C66.3347 42.8131 67.0307 42.9012 68.044 41.5465C69.388 39.7518 70.2814 37.6692 70.884 35.5198C71.6 32.9638 71.916 30.3105 72.1507 27.6745C72.252 26.5518 72.7867 24.1131 71.1427 23.8291" fill="white"/>
<path d="M118.207 78.9745C118.167 78.8532 118.016 78.7652 117.863 78.7652C108.995 78.7652 100.128 78.7652 91.2613 78.7652C91.2439 78.7652 91.232 78.7692 91.216 78.7719C91.2106 78.7719 91.2066 78.7732 91.2013 78.7732C91.1639 78.7785 91.1293 78.7825 91.0999 78.7945C91.0159 78.8239 90.9453 78.8799 90.9173 78.9745C89.0706 84.7852 99.2506 87.4492 104.561 87.4492C109.867 87.4492 120.051 84.7865 118.207 78.9745Z" fill="#FA8D61"/>
<path d="M90.9066 78.4958C90.7853 78.5411 90.6906 78.6305 90.6613 78.7772C89.9173 82.6332 100.241 82.0932 102.856 82.1572C106.305 82.2398 109.795 82.1811 113.188 81.6291C114.725 81.3798 118.072 81.0451 118.509 79.4585C119.512 75.8211 94.4706 75.6105 90.9066 78.4958" fill="#96CBEB"/>
<path d="M118.504 79.1212C116.668 75.3439 113.728 71.7732 111.129 68.3038C108.321 64.5598 105.377 60.8838 102.392 57.2292C102.156 56.9398 101.532 56.8705 101.317 57.2292C97.1091 64.2625 93.5145 71.6118 90.7305 79.0865C90.5038 79.6932 91.6598 79.9398 91.9078 79.3465C94.9678 71.9945 98.2065 64.7332 102.392 57.7332C102.034 57.7332 101.676 57.7332 101.317 57.7332C104.205 61.2665 107.053 64.8198 109.784 68.4332C112.498 72.0238 114.772 75.9185 117.685 79.3985C117.949 79.7145 118.701 79.5239 118.504 79.1212" fill="white"/>
<path d="M105.743 82.0467C105.149 73.828 103.16 65.6987 102.456 57.4813C102.404 56.8653 101.2 56.86 101.253 57.4813C101.956 65.6853 103.353 73.896 104.701 82.0467C104.785 82.5613 105.783 82.5973 105.743 82.0467Z" fill="white"/>
<path d="M75.5439 26.9921C74.1426 27.7255 73.9652 29.5002 73.9372 30.8908C73.8799 33.7842 73.3106 35.9748 71.4452 38.2655C70.1266 39.7615 68.6132 41.0175 67.0439 42.2335C65.4759 41.0175 63.9626 39.7615 62.6439 38.2655C60.8986 36.1228 60.1399 33.9415 60.1479 31.1895C60.1506 29.7522 60.0652 28.0161 58.7372 27.1308C55.6692 25.0868 54.1066 30.4775 54.0772 32.5255C54.0292 35.7441 55.6052 39.2108 58.1746 41.1748C60.5666 43.0041 63.7572 43.7361 66.7399 43.8361C66.7852 43.8441 66.8319 43.8481 66.8826 43.8481C66.9359 43.8481 66.9906 43.8455 67.0452 43.8441C67.0986 43.8455 67.1519 43.8481 67.2066 43.8481C67.2572 43.8481 67.3026 43.8441 67.3479 43.8361C70.2572 43.7388 73.3506 43.0401 75.7212 41.3161C78.4159 39.3561 80.0452 35.8348 80.0119 32.5255C79.9906 30.5028 78.5986 25.3961 75.5439 26.9921" fill="#96CBEB"/>
<path d="M77.8521 40.5784C77.2521 39.305 75.8974 39.2237 74.6707 39.405C74.62 39.4064 74.5667 39.413 74.5107 39.429C74.4454 39.4397 74.3894 39.4597 74.3387 39.4824C72.5294 40.049 71.1601 41.6504 69.6494 42.7277C68.7267 43.3837 67.8974 44.229 67.0441 44.977C66.1921 44.2304 65.3614 43.3837 64.4401 42.7277C62.9241 41.6477 61.5641 40.049 59.7507 39.4824C59.7001 39.4597 59.6441 39.4397 59.5787 39.429C59.5227 39.413 59.4707 39.4064 59.4187 39.405C58.2321 39.2277 56.8894 39.281 56.2694 40.4997C55.5974 41.8224 56.3174 43.2397 57.328 44.1344C59.804 46.3264 63.7227 46.7544 66.8507 46.1704C66.9241 46.157 66.9854 46.1264 67.0441 46.0877C67.1014 46.1264 67.164 46.157 67.2374 46.1704C70.3587 46.753 74.2947 46.3317 76.7614 44.1344C77.7494 43.2544 78.4707 41.8904 77.8521 40.5784" fill="#FA8D61"/>
<path d="M15.8824 78.9745C15.9211 78.8532 16.0718 78.7652 16.2265 78.7652C25.0945 78.7652 33.9611 78.7652 42.8278 78.7652C42.8451 78.7652 42.8571 78.7692 42.8731 78.7719C42.8771 78.7719 42.8824 78.7732 42.8878 78.7732C42.9238 78.7785 42.9598 78.7825 42.9878 78.7945C43.0731 78.8239 43.1424 78.8799 43.1718 78.9745C45.0171 84.7852 34.8384 87.4492 29.5278 87.4492C24.2224 87.4492 14.0384 84.7865 15.8824 78.9745" fill="#FA8D61"/>
<path d="M43.1827 78.4958C43.3041 78.5411 43.3987 78.6305 43.4281 78.7772C44.1721 82.6332 33.8481 82.0932 31.2334 82.1572C27.7841 82.2398 24.2947 82.1811 20.9001 81.6291C19.3627 81.3798 16.0174 81.0451 15.5801 79.4585C14.5774 75.8211 39.6187 75.6105 43.1827 78.4958Z" fill="#96CBEB"/>
<path d="M15.584 79.1212C17.4213 75.3439 20.36 71.7732 22.96 68.3038C25.7666 64.5598 28.7106 60.8838 31.6959 57.2292C31.9319 56.9398 32.5559 56.8705 32.7706 57.2292C36.9799 64.2625 40.5733 71.6118 43.3586 79.0865C43.584 79.6932 42.4293 79.9398 42.1813 79.3465C39.12 71.9945 35.8799 64.7332 31.6959 57.7332C32.0546 57.7332 32.4133 57.7332 32.7706 57.7332C29.8839 61.2665 27.0346 64.8198 24.3039 68.4332C21.5906 72.0238 19.3173 75.9185 16.4039 79.3985C16.1399 79.7145 15.388 79.5239 15.584 79.1212" fill="white"/>
<path d="M28.3469 82.0467C28.9402 73.828 30.9282 65.6987 31.6322 57.4813C31.6855 56.8653 32.8882 56.86 32.8349 57.4813C32.1335 65.6853 30.7362 73.896 29.3882 82.0467C29.3029 82.5613 28.3069 82.5973 28.3469 82.0467Z" fill="white"/>
<path d="M65.2642 40.164C65.2322 40.4133 65.1789 40.9414 65.1682 41.6107C65.1562 42.3187 65.1455 43.0253 65.1335 43.732C65.1055 45.448 65.1109 47.1627 65.1122 48.8787C65.1175 53.5054 65.1229 58.132 65.1269 62.76C65.1349 72.8667 65.1802 82.9747 65.1535 93.0814C65.1455 96.6374 64.9562 100.231 65.1069 103.783C65.2135 106.281 68.7335 106.224 68.9482 103.783C69.2162 100.745 69.0669 97.628 69.0789 94.5814C69.0962 89.8694 69.0962 85.1587 69.0949 80.4467C69.0882 70.4094 69.0442 60.372 68.9922 50.3347C68.9829 48.336 68.9895 46.3374 68.9469 44.34C68.9295 43.5587 68.9149 42.776 68.8975 41.9933C68.8909 41.6893 68.8949 41.3827 68.8789 41.0774C68.8695 40.8827 68.8575 40.7 68.8402 40.5054C68.7909 39.9334 68.8669 40.744 68.7909 40.164C68.4949 37.9053 65.5615 37.8987 65.2642 40.164" fill="white"/>
<path d="M78.0586 107.329C78.0493 107.321 78.0399 107.318 78.0306 107.312C78.0252 107.308 78.0226 107.301 78.0159 107.296C77.0026 106.536 76.0119 106.232 74.8732 105.754C72.4226 104.724 73.2439 103.041 72.9012 101.03C72.5532 98.9876 70.6452 98.053 68.7719 97.7503C66.6892 97.4103 63.9439 97.5343 62.3106 99.0716C61.7319 99.617 61.3946 100.245 61.2546 101.03C61.1519 101.596 61.2039 102.177 61.2066 102.748C61.2092 103.22 61.2186 103.617 61.0559 104.08C60.7239 105.029 59.9866 105.453 59.0439 105.828C57.3172 106.514 55.0986 107.384 54.6732 109.468C54.2959 111.317 56.1679 112.221 57.5692 112.876C61.7306 114.817 66.6892 115.169 71.1826 114.466C74.3519 113.97 82.7986 111.634 78.0586 107.329" fill="white"/>
<path d="M62.0972 105.912C64.2998 106.709 66.8959 106.851 69.1172 106.045C69.5212 105.897 69.3639 105.319 68.9385 105.4C66.6039 105.851 64.5865 105.913 62.2679 105.292C61.8652 105.184 61.7145 105.772 62.0972 105.912" fill="#35208A"/>
<path d="M56.0877 110.025C58.0957 113.465 64.0797 113.773 67.5544 113.716C69.8397 113.677 72.1277 113.408 74.2864 112.625C75.9677 112.016 78.1051 111.095 79.1131 109.547C79.2477 109.343 78.9917 109.14 78.8024 109.235C77.0597 110.101 75.7197 111.34 73.8224 111.995C71.9051 112.656 69.8971 112.907 67.8744 112.963C64.0157 113.069 59.2811 112.629 56.3931 109.789C56.2358 109.636 55.9757 109.832 56.0877 110.025" fill="#35208A"/>
<path d="M70.3758 41.3412C70.3732 41.3132 70.3665 41.2892 70.3612 41.2639C70.3598 41.2319 70.3599 41.1999 70.3532 41.1652C69.9972 39.2546 68.2399 37.2906 66.1239 38.0719C64.1585 38.7986 63.5399 41.2879 63.7892 43.1546C64.0425 45.0506 65.5385 46.8399 67.6078 46.5946C70.0132 46.3092 70.5665 43.3132 70.3758 41.3412" fill="#96CBEB"/>
<path d="M64.7442 27.6386C64.5122 30.5533 64.7668 34.4306 65.8215 37.1906C65.9255 37.4573 66.3775 37.4493 66.3588 37.1186C66.2642 35.5413 65.8468 33.9813 65.6708 32.408C65.4935 30.8213 65.4815 29.2253 65.3282 27.6386C65.2935 27.2653 64.7735 27.2599 64.7442 27.6386Z" fill="#35208A"/>
<path d="M68.4666 27.3505C68.1599 28.7971 68.2759 30.3264 68.2199 31.8011C68.1546 33.4864 67.9372 35.1851 67.9666 36.8691C67.9719 37.1984 68.4972 37.2971 68.5639 36.9491C68.8626 35.3745 68.8826 33.7398 68.9439 32.1398C69.0053 30.5651 69.1799 28.8971 68.8372 27.3505C68.7972 27.1678 68.5052 27.1651 68.4666 27.3505" fill="#35208A"/>
<path d="M63.8278 40.0655C63.6184 40.3241 63.4958 40.6321 63.4344 40.9588C63.3824 41.2335 63.2985 41.6681 63.6185 41.8121C63.9558 41.9615 64.0905 41.5788 64.1198 41.3242C64.1598 40.9922 64.2811 40.7002 64.3744 40.3828C64.4651 40.0868 64.0398 39.8041 63.8278 40.0655" fill="#35208A"/>
<path d="M69.6104 40.4264C69.8024 40.757 69.9117 41.0731 69.9824 41.4477C70.0531 41.8357 70.6997 41.7504 70.6731 41.3531C70.6411 40.8384 70.3851 40.3691 69.9797 40.0571C69.7557 39.8851 69.4851 40.2104 69.6104 40.4264Z" fill="#35208A"/>
<path d="M49.7281 43.7747C45.7174 43.332 40.7974 44.424 37.1241 45.9933C34.7481 47.0093 30.4534 49.244 31.1081 52.4867C31.5494 54.6667 34.8894 56.064 35.9534 53.504C36.7254 51.6427 34.5774 49.7333 32.9148 50.98C32.5161 51.2773 32.9081 51.9574 33.3094 51.6547C33.8788 51.2227 34.7294 51.5427 35.1068 52.052C36.1428 53.4494 34.0401 54.2773 33.0028 53.908C31.1374 53.2413 31.9028 50.7214 32.8174 49.684C34.2254 48.084 36.4241 47.0253 38.3881 46.296C42.0841 44.9227 46.0388 45.068 49.7521 43.944C49.8494 43.9147 49.8214 43.7853 49.7281 43.7747" fill="#35208A"/>
<path d="M84.4011 43.944C86.6211 44.616 89.0238 44.6454 91.2998 45.0907C93.6225 45.5441 95.9238 46.192 98.0252 47.3C99.0558 47.8427 100.13 48.476 100.958 49.3C102.152 50.4894 103.292 53.3907 100.814 54.0587C97.6838 54.9014 99.0811 50.2174 100.764 51.5934C101.15 51.9094 101.706 51.3574 101.317 51.0414C99.8678 49.8654 98.1745 51.0761 98.1278 52.8214C98.0651 55.1294 101.061 55.4027 102.334 53.936C105.156 50.6894 100.116 47.4227 97.6398 46.2654C93.8411 44.488 88.6318 43.3107 84.4252 43.7747C84.3305 43.7854 84.3025 43.9147 84.4011 43.944" fill="#35208A"/>
<path d="M65.4799 98.2654C66.3199 98.8094 68.1119 98.9641 68.9439 98.3294C69.1625 98.1627 69.1105 97.7894 68.7959 97.7841C68.2612 97.7761 67.7452 97.9854 67.1999 97.9881C66.6545 97.9921 66.1439 97.8454 65.6079 97.7881C65.3372 97.7588 65.2839 98.1401 65.4799 98.2654Z" fill="#35208A"/>
<path d="M45.9546 25.4799C45.9573 25.4093 45.932 25.3573 45.8906 25.3239C45.4933 24.5733 44.0573 24.4266 43.3373 24.2839C42.16 24.0519 40.968 23.9119 39.7786 23.7559C39.5853 23.7306 39.3893 23.6986 39.1959 23.6746C39.1159 23.6639 38.98 23.5986 38.9933 23.6332C38.828 23.4359 38.724 23.0172 38.6346 22.8092C38.1426 21.6612 37.6666 20.5052 37.1666 19.3612C36.912 18.7812 36.6533 18.2026 36.3773 17.6306C36.208 17.2786 36.0133 16.6199 35.624 16.4493C34.7573 16.0706 34.1506 18.2132 33.92 18.7306C33.368 19.9652 32.8506 21.2159 32.3146 22.4586C32.2026 22.7199 32.0133 23.4693 31.7773 23.6493C31.664 23.7346 30.8533 23.6906 30.648 23.7079C30.1186 23.7492 29.5906 23.7906 29.0626 23.8399C28.1613 23.9252 27.248 24.0092 26.3773 24.2679C25.8546 24.4226 24.9173 24.6732 24.9986 25.3999C25.0653 25.9946 25.98 26.5586 26.3906 26.8853C27.0946 27.4453 27.8426 27.9479 28.6226 28.3959C28.9773 28.5986 29.4293 28.7479 29.7533 28.9919C30.1706 29.3092 29.9693 29.6426 29.856 30.0706C29.6173 30.9746 29.3746 31.8786 29.1533 32.7879C28.9746 33.5279 28.8026 34.2719 28.6866 35.0252C28.6173 35.4839 28.4413 36.1519 28.6506 36.5946C29.196 37.7532 31.2866 35.7252 31.7906 35.3359C32.4253 34.8479 33.044 34.3439 33.6506 33.8226C33.948 33.5666 34.244 33.3066 34.5333 33.0426C34.696 32.8932 35.1093 32.3239 35.32 32.2879C35.66 32.2319 36.576 33.3426 36.8546 33.5813C37.4813 34.1199 38.1266 34.6373 38.7786 35.1453C39.6706 35.8373 40.648 36.7626 41.8253 36.8679C42.8546 36.9599 42.364 35.4039 42.2266 34.7893C41.9026 33.3266 41.4266 31.8959 40.992 30.4626C40.8986 30.1546 40.7773 29.8373 40.712 29.5213C40.6413 29.1759 40.652 29.1986 40.944 29.0226C41.512 28.6799 42.204 28.4679 42.7986 28.1679C43.7533 27.6866 45.664 26.8186 45.9333 25.6239C45.9573 25.5839 45.9666 25.5359 45.9546 25.4799" fill="#FFF896"/>
<path d="M101.611 104.518C99.9948 104.377 98.3468 104.396 96.7081 104.413C97.1721 103.956 97.6348 103.498 98.0948 103.038C98.8135 102.316 99.6281 101.622 100.096 100.709C100.308 100.297 99.8868 99.8916 99.4815 100.092C98.5588 100.545 97.8508 101.352 97.1148 102.058C96.6375 102.516 96.1641 102.978 95.6935 103.44C95.6975 102.774 95.7015 102.11 95.7001 101.445C95.6975 100.424 95.7828 99.357 95.4668 98.3756C95.3268 97.9423 94.7428 97.953 94.5975 98.3756C94.2655 99.3503 94.3348 100.424 94.3148 101.445C94.3015 102.105 94.2921 102.768 94.2855 103.429C93.8175 102.954 93.3508 102.482 92.8788 102.012C92.1561 101.293 91.4655 100.478 90.5495 100.009C90.1388 99.7983 89.7335 100.218 89.9335 100.625C90.3868 101.546 91.1948 102.257 91.9001 102.992C92.3588 103.469 92.8188 103.941 93.2815 104.414C92.6175 104.409 91.9521 104.406 91.2868 104.408C90.2655 104.409 89.1988 104.324 88.2175 104.64C87.7855 104.778 87.7961 105.365 88.2175 105.508C89.1921 105.841 90.2655 105.77 91.2868 105.792C91.9335 105.806 92.5801 105.814 93.2268 105.821C92.0335 106.948 90.8308 108.081 89.7641 109.309C89.1921 109.968 90.0535 110.816 90.7148 110.26C91.9468 109.226 93.0895 108.06 94.2228 106.9C94.1775 108.526 94.1308 110.162 94.2441 111.769C94.3041 112.638 95.5135 112.63 95.5895 111.769C95.7281 110.168 95.7108 108.536 95.6935 106.913C96.8108 108.096 97.9335 109.285 99.1508 110.341C99.8095 110.914 100.656 110.053 100.101 109.39C99.0695 108.158 97.9028 107.017 96.7428 105.882C98.3695 105.93 100.004 105.976 101.611 105.864C102.48 105.802 102.472 104.594 101.611 104.518" fill="white"/>
<path d="M78.9373 68.2397C79.3626 68.2397 79.808 68.0544 80.1066 67.7544C80.3933 67.4678 80.6093 66.9984 80.592 66.5864C80.572 66.1584 80.4306 65.7158 80.1066 65.4171C79.7826 65.1211 79.3853 64.9344 78.9373 64.9344C78.5146 64.9344 78.0693 65.1184 77.7693 65.4171C77.4839 65.7051 77.2666 66.1744 77.2853 66.5864C77.3053 67.0144 77.4453 67.4571 77.7693 67.7544C78.0933 68.0518 78.4893 68.2397 78.9373 68.2397Z" fill="white"/>
<path d="M97 17.9705C97.428 18.1359 97.8747 18.1279 98.3067 17.9879C98.6507 17.8759 99.0027 17.6479 99.176 17.3186C99.3547 16.9812 99.444 16.5719 99.3227 16.1972C99.2387 15.9372 99.1454 15.6892 98.9747 15.4692C98.7867 15.2265 98.5573 15.0546 98.3 14.8879C97.9173 14.6412 97.432 14.6199 97 14.7172C96.4933 14.8332 96.1027 15.2332 95.908 15.6945C95.724 16.1292 95.724 16.5599 95.908 16.9945C95.976 17.2039 96.092 17.3839 96.2574 17.5372C96.4667 17.7465 96.7147 17.8905 97 17.9705Z" fill="white"/>
<path d="M119.885 40.0654C119.898 40.0214 119.912 39.9774 119.926 39.9347C120.21 39.0027 119.433 38.0494 118.49 38.0494C117.548 38.0494 116.77 39.0041 117.054 39.9347C117.069 39.9774 117.082 40.0214 117.096 40.0654C117.276 40.652 117.848 41.156 118.49 41.1267C119.142 41.0987 119.693 40.696 119.885 40.0654Z" fill="white"/>
<path d="M119.691 58.2678C119.763 58.2718 119.836 58.2785 119.909 58.2838C121.663 58.4158 121.667 55.4238 119.909 55.5558C119.836 55.5625 119.763 55.5678 119.691 55.5732C117.959 55.7038 117.956 58.1358 119.691 58.2678Z" fill="white"/>
<path d="M37.5264 100.055C37.5264 100.008 37.5264 99.9613 37.5264 99.9133C37.5264 99.4813 37.337 99.0267 37.0317 98.72C36.7384 98.428 36.2584 98.208 35.8384 98.2253C34.9237 98.268 34.1504 98.968 34.1504 99.9133C34.1504 99.9613 34.1504 100.008 34.1504 100.055C34.1504 100.489 34.3384 100.943 34.6451 101.249C34.9371 101.543 35.4184 101.763 35.8384 101.744C36.753 101.703 37.5264 101.001 37.5264 100.055Z" fill="white"/>
<path d="M11.5869 58.8306C12.0255 58.8306 12.4868 58.6399 12.7988 58.3279C13.0962 58.0319 13.3188 57.5439 13.3002 57.1159C13.2588 56.1879 12.5469 55.4026 11.5869 55.4026C11.1469 55.4026 10.6855 55.5932 10.3735 55.9052C10.0775 56.2012 9.85351 56.6893 9.87218 57.1159C9.91351 58.0453 10.6255 58.8306 11.5869 58.8306" fill="white"/>
<path d="M75.5709 17.4331C75.6042 17.4211 75.6389 17.4144 75.6735 17.4064C76.1029 17.2971 76.4642 16.9945 76.6882 16.6185C76.6002 16.7305 76.5149 16.8425 76.4282 16.9545C76.4335 16.9465 76.4402 16.9384 76.4495 16.9331C76.3402 17.0184 76.2295 17.1025 76.1202 17.1878C76.1242 17.1851 76.1282 17.1838 76.1335 17.1811C76.2415 17.0971 76.3509 17.0131 76.4602 16.9291C76.6162 16.7824 76.7282 16.6091 76.7936 16.4091C76.9216 16.1078 77.0042 15.6758 76.8735 15.3598C76.7575 15.0731 76.6602 14.8371 76.4389 14.6118C76.1695 14.3371 75.8269 14.1811 75.4495 14.1304C74.7175 14.0318 74.0855 14.3984 73.7042 15.0038C73.5575 15.2344 73.4775 15.5664 73.4775 15.8384C73.4775 16.2064 73.6095 16.5518 73.8322 16.8398C74.0135 17.0731 74.2216 17.2345 74.4936 17.3491C74.8176 17.4851 75.2295 17.5518 75.5709 17.4331" fill="white"/>
<path d="M82.2187 126.697C82.228 126.691 82.236 126.684 82.2453 126.676C82.124 126.769 82.0026 126.864 81.8813 126.957C81.8986 126.945 81.9173 126.936 81.936 126.927C81.7933 126.988 81.6506 127.047 81.5066 127.107C81.5266 127.1 81.5453 127.095 81.5653 127.093C81.988 127.012 82.432 126.623 82.644 126.264C82.8706 125.877 82.9653 125.307 82.8253 124.875C82.684 124.436 82.4146 124.016 81.996 123.796C81.5706 123.571 81.0813 123.476 80.6066 123.613C80.2426 123.719 79.9493 123.891 79.6786 124.159C79.3533 124.479 79.1533 124.971 79.1533 125.428C79.1533 125.868 79.3493 126.395 79.6786 126.697C80.0213 127.012 80.472 127.245 80.9493 127.223C81.108 127.203 81.2666 127.181 81.428 127.159C81.7306 127.075 81.9947 126.92 82.2187 126.697" fill="white"/>
<path d="M114.484 99.9481C114.555 100.024 114.627 100.101 114.699 100.176C114.95 100.44 115.3 100.587 115.654 100.633C115.998 100.68 116.419 100.643 116.714 100.436C117.031 100.213 117.09 100.157 117.311 99.8388C117.367 99.7081 117.423 99.5748 117.479 99.4415C117.547 99.2215 117.558 99.0001 117.508 98.7788C117.46 98.4268 117.316 98.0761 117.05 97.8254C116.975 97.7534 116.899 97.6801 116.823 97.6081C116.51 97.3121 116.09 97.1241 115.652 97.1241C115.248 97.1241 114.763 97.3041 114.484 97.6081C113.864 98.2828 113.847 99.2775 114.484 99.9481" fill="white"/>
<path d="M47.0759 57.3997C47.0866 57.3811 47.0959 57.3637 47.1053 57.3464C47.3746 56.8584 47.3893 56.2704 47.1053 55.7851C46.8306 55.3144 46.3159 55.0184 45.7706 55.0184C45.2253 55.0184 44.7106 55.3144 44.4346 55.7851C44.1506 56.2704 44.1653 56.8584 44.4346 57.3464C44.4453 57.3637 44.4546 57.3811 44.4653 57.3997C45.0093 58.3824 46.5319 58.3824 47.0759 57.3997" fill="white"/>
<path d="M95.6851 33.1624C95.6704 33.2264 95.6558 33.2891 95.6424 33.3531C95.0398 35.9785 99.3891 35.9945 98.7838 33.3531C98.7691 33.2891 98.7558 33.2264 98.7411 33.1624C98.3944 31.6531 96.0318 31.6518 95.6851 33.1624" fill="#F7B9E7"/>
<path d="M55.7068 76.4627C55.7241 76.4721 55.7428 76.4814 55.7614 76.4921C56.1081 76.6721 56.4628 76.7467 56.8534 76.6947C57.2068 76.6467 57.5948 76.5001 57.8374 76.2228C57.8481 76.2108 57.8601 76.1988 57.8708 76.1854C58.1508 75.8668 58.3761 75.4521 58.3561 75.0121C58.3361 74.5548 58.1734 74.1827 57.8708 73.8374C57.8601 73.8254 57.8481 73.8121 57.8374 73.8001C57.7214 73.7107 57.6054 73.6214 57.4894 73.5321C57.2934 73.4067 57.0814 73.3387 56.8534 73.3281C56.4614 73.2761 56.1148 73.3481 55.7614 73.5321C55.7428 73.5414 55.7241 73.5507 55.7068 73.5601C54.6108 74.1307 54.6108 75.8921 55.7068 76.4627" fill="#F7B9E7"/>
<path d="M22.6174 99.8666C22.6374 99.8266 22.6547 99.7946 22.6801 99.76C22.5881 99.88 22.4934 100 22.4014 100.121C22.5361 99.9587 22.6654 99.792 22.7881 99.62C22.7014 99.7333 22.6121 99.8466 22.5254 99.96C22.5468 99.9346 22.5681 99.912 22.5947 99.8893C22.4867 99.9733 22.3787 100.056 22.2721 100.14C22.3001 100.12 22.3241 100.105 22.3561 100.093C22.2361 100.143 22.1161 100.193 21.9947 100.244C22.0067 100.241 22.0174 100.237 22.0281 100.233C22.4761 100.092 22.8054 99.8093 22.9867 99.3773C23.1801 98.9213 23.1254 98.4973 22.9134 98.06C22.7227 97.668 22.3427 97.3853 21.9534 97.2213C21.5521 97.052 21.1641 97.0227 20.7241 97.12C20.5107 97.1667 20.3067 97.264 20.1147 97.364C19.0601 97.912 18.9441 99.436 19.7454 100.236C20.0774 100.568 20.5694 100.772 21.0387 100.772C21.6414 100.772 22.3467 100.435 22.6174 99.8666" fill="#F7B9E7"/>
<path d="M52.7944 124.065C53.2744 124.065 53.7797 123.857 54.1197 123.516C54.4451 123.192 54.6904 122.659 54.6691 122.191C54.6477 121.707 54.4877 121.204 54.1197 120.865C53.7531 120.529 53.3024 120.316 52.7944 120.316C52.3144 120.316 51.8091 120.525 51.4691 120.865C51.1437 121.191 50.8984 121.724 50.9197 122.191C50.9411 122.676 51.0997 123.179 51.4691 123.516C51.8344 123.853 52.2864 124.065 52.7944 124.065Z" fill="#F7B9E7"/>
<path d="M91.2118 94.2372C91.2105 94.2132 91.2078 94.1905 91.2065 94.1665C91.1665 93.6812 91.0318 93.2452 90.6785 92.8905C90.3651 92.5785 89.8518 92.3425 89.4025 92.3625C88.9358 92.3825 88.4518 92.5372 88.1265 92.8905C87.7878 93.2599 87.6385 93.6665 87.5971 94.1665C87.5958 94.1905 87.5958 94.2132 87.5932 94.2372C87.5572 94.6772 87.8198 95.2145 88.1225 95.5172C88.4358 95.8305 88.9518 96.0679 89.4025 96.0465C89.8718 96.0265 90.3558 95.8732 90.6825 95.5172C90.9918 95.1799 91.2505 94.7132 91.2118 94.2372" fill="#F7B9E7"/>
<path d="M22.0038 35.6252C22.4918 35.6252 23.0051 35.4133 23.3505 35.0679C23.6811 34.7373 23.9291 34.1946 23.9078 33.7213C23.8851 33.2279 23.7238 32.7173 23.3505 32.3746C22.9785 32.0319 22.5198 31.8159 22.0038 31.8159C21.5158 31.8159 21.0025 32.0279 20.6558 32.3746C20.3265 32.7039 20.0771 33.2466 20.0984 33.7213C20.1211 34.2133 20.2825 34.7239 20.6558 35.0679C21.0291 35.4093 21.4864 35.6252 22.0038 35.6252Z" fill="#F7B9E7"/>
<path d="M53.2601 14.7065C53.2601 14.5891 53.2601 14.4705 53.2601 14.3518C53.2601 13.8878 53.0561 13.3998 52.7281 13.0705C52.4134 12.7558 51.8974 12.5198 51.4468 12.5398C50.9788 12.5611 50.4908 12.7145 50.1641 13.0705C49.8388 13.4251 49.6348 13.8612 49.6348 14.3518C49.6348 14.4705 49.6348 14.5891 49.6348 14.7065C49.6348 15.1718 49.8361 15.6598 50.1641 15.9892C50.4801 16.3025 50.9948 16.5398 51.4468 16.5198C51.9161 16.4985 52.4014 16.3452 52.7281 15.9892C53.0534 15.6332 53.2601 15.1985 53.2601 14.7065Z" fill="#F7B9E7"/>
</svg>
