<svg width="135" height="135" viewBox="0 0 135 135" fill="none" xmlns="http://www.w3.org/2000/svg">
<path d="M134.088 67.9559C134.088 104.984 104.072 135 67.0439 135C30.0159 135 0 104.984 0 67.9559C0 30.9279 30.0159 0.911881 67.0439 0.911881C104.072 0.911881 134.088 30.9279 134.088 67.9559Z" fill="#35208A"/>
<path d="M82.5279 46.4096C82.5052 46.371 82.4785 46.339 82.4519 46.311C81.3252 44.8883 80.1986 43.4643 79.0719 42.0416C78.9719 41.9123 78.7559 41.8763 78.6079 41.9176C76.2332 42.603 73.8586 43.2856 71.4839 43.9696C70.9719 44.1163 71.0639 44.9123 71.6105 44.9083C73.6572 44.8923 74.5172 46.819 76.1292 47.667C77.1639 48.2123 78.3199 48.2883 79.4679 48.167C80.2065 48.087 83.3972 47.8896 82.5279 46.4096Z" fill="#FA8D61"/>
<path d="M77.755 27.5399C75.9137 27.0772 74.603 25.9826 73.787 24.2746C73.639 23.9652 73.3817 23.8666 73.1297 23.9026C73.1177 23.9026 73.107 23.9052 73.095 23.9052C73.0937 23.9066 73.091 23.9066 73.0897 23.9066C73.0444 23.9119 72.9977 23.9185 72.9497 23.9332C70.7603 24.5679 68.4964 23.4079 67.795 21.2266C67.6577 20.8026 67.1177 20.4985 66.7044 20.7825C64.3817 22.3892 60.3964 24.9066 58.0844 21.8439C57.7497 21.3999 57.1271 21.3359 56.8031 21.8439C56.2244 22.7532 55.639 23.7145 54.763 24.3665C53.7083 25.1519 51.6977 25.5772 51.1523 23.8452C50.999 23.3572 50.2883 23.0639 49.9137 23.5172C46.3497 27.8212 45.0377 33.4026 46.367 38.8372C46.4697 39.2559 46.8937 39.4226 47.2803 39.3559C56.739 37.7506 66.1964 36.1452 75.6537 34.5399C75.903 34.4986 76.1084 34.2519 76.1737 34.0212C76.691 32.1546 77.3537 30.3759 78.199 28.6292C78.4017 28.2132 78.2497 27.6639 77.755 27.5399" fill="#FA8D61"/>
<path d="M101.648 48.124C99.4481 45.7493 96.4294 43.5773 93.4014 42.42C92.6094 42.1173 92.1348 42.048 91.5668 41.368C91.1095 40.82 90.7228 40.2 90.2734 39.64C88.9294 37.968 87.4148 36.4306 85.7761 35.048C79.4001 29.6693 70.9041 27.5213 62.6827 28.8213C55.2307 29.9986 48.4694 34.196 44.0481 40.3C41.6961 43.548 39.7147 47.228 38.6627 51.112C38.1107 53.152 37.8854 55.2413 37.7068 57.34C37.5988 58.604 37.7375 60.468 36.8668 61.5066C35.7268 62.8706 33.5628 62.4146 32.3001 63.5906C31.3068 64.512 31.3401 66.0013 32.0561 67.0933C34.2694 70.4693 40.2908 69.3426 43.5508 68.0319C43.3801 70.1533 39.0988 71.0013 40.0654 73.6293C40.7934 75.6106 43.9774 74.0826 45.2734 73.7506C47.7294 73.1213 50.1441 72.4106 52.1907 70.8506C54.5441 69.056 56.1455 66.54 57.2001 63.8026C58.2788 61.008 58.3987 58.024 59.3441 55.2213C60.2121 52.6453 61.9895 50.4946 64.1415 48.8706C68.5148 45.572 74.2655 44.144 79.6721 44.0506C81.1841 44.024 82.7055 44.1026 84.2001 44.3293C85.4188 44.512 86.6041 44.8786 87.2041 46.028C87.6668 46.9133 87.4668 48.1773 87.5348 49.1546C87.7748 52.6 89.0961 55.768 91.2161 58.4733C91.3627 58.6613 91.6868 58.5853 91.7921 58.3986C92.2574 57.5733 92.7241 56.7493 93.1907 55.9253C93.7201 56.4586 94.4841 56.5253 95.2948 56.256C96.6774 55.7933 97.1614 54.6186 97.8734 53.472C98.6641 52.2013 99.4881 51.9506 100.855 51.6706C101.369 51.5653 101.865 51.472 102.217 51.0426C102.993 50.0946 102.261 48.9146 101.648 48.124" fill="#96CBEB"/>
<path d="M57.0014 53.88C55.4348 51.0106 52.1961 49.6306 49.1081 49.24C44.2481 48.6266 40.4601 51.0626 37.9788 54.704C37.8668 55.5786 37.7814 56.4586 37.7068 57.34C37.5988 58.604 37.7375 60.468 36.8668 61.5066C35.7268 62.8706 33.5628 62.4146 32.3001 63.5906C31.3068 64.512 31.3401 66.0013 32.0561 67.0933C34.2694 70.4693 40.2908 69.3426 43.5508 68.0319C43.3801 70.1533 39.0988 71.0013 40.0654 73.6293C40.7934 75.6106 43.9774 74.0826 45.2734 73.7506C47.7294 73.1213 50.1441 72.4106 52.1907 70.8506C54.5441 69.056 56.1454 66.54 57.2001 63.8026C57.8588 62.0986 58.1588 60.3253 58.5094 58.5626C58.4374 56.9 57.7708 55.2893 57.0014 53.88" fill="white"/>
<path d="M43.6491 62.9414C42.3478 62.9414 41.0998 61.7961 41.1598 60.4521C41.2211 59.1041 42.2531 57.9627 43.6491 57.9627C44.9518 57.9627 46.1985 59.1081 46.1385 60.4521C46.0785 61.8001 45.0451 62.9414 43.6491 62.9414Z" fill="#35208A"/>
<path d="M51.5361 65.4307C49.4414 65.4307 47.4334 63.588 47.5307 61.4253C47.6281 59.2547 49.2907 57.42 51.5361 57.42C53.6321 57.42 55.6388 59.2627 55.5414 61.4253C55.4441 63.5947 53.7814 65.4307 51.5361 65.4307Z" fill="#96CBEB"/>
<path d="M64.5305 49.6799C63.8865 48.7839 62.9732 46.6079 61.6238 46.6625C60.3118 46.7145 58.7412 48.6879 58.0745 49.6145C56.9159 51.2225 55.3732 55.2385 57.4639 56.7079C59.3399 58.0252 60.3719 54.8599 61.2079 53.7905C62.1639 52.5679 63.4198 53.3945 64.5678 52.6999C65.7238 51.9999 65.0892 50.5479 64.5305 49.6799" fill="#FA8D61"/>
<path d="M89.7484 47.5563C89.6844 49.3469 90.2817 51.131 90.9364 52.7736C91.2431 53.5416 91.5923 54.8256 92.155 55.4349C92.4203 55.7229 92.6697 55.963 93.0417 56.0576C91.8377 53.7483 91.2123 49.6083 90.2137 47.4296C90.1043 47.1923 89.755 47.3243 89.7484 47.5563" fill="#35208A"/>
<path d="M91.8399 46.9305C92.0919 48.0372 93.7066 48.9145 94.5186 49.6545C95.5693 50.6105 96.5306 51.7892 97.7013 52.5932C97.9826 52.7838 98.3613 52.4025 98.172 52.1225C97.3493 50.8945 96.0333 49.8998 94.928 48.9292C94.1413 48.2385 93.0199 46.8465 91.9119 46.8345C91.8613 46.8345 91.8293 46.8838 91.8399 46.9305Z" fill="#35208A"/>
<path d="M58.6029 53.7268C59.2976 53.1628 59.5829 52.0401 60.1003 51.3014C60.8096 50.2894 61.6803 49.4588 62.6723 48.7268C63.0709 48.4334 62.6936 47.7574 62.2762 48.0507C61.2602 48.7681 60.3895 49.6494 59.6775 50.6667C59.1349 51.4441 58.2416 52.6921 58.4696 53.6921C58.4843 53.7561 58.5603 53.7628 58.6029 53.7268" fill="#35208A"/>
<path d="M59.9055 53.8412C60.6281 53.4718 61.1868 52.7065 61.8401 52.2145C62.5774 51.6585 63.4428 51.3052 64.1734 50.7625C64.4721 50.5398 64.3108 50.0251 63.9081 50.1305C63.0201 50.3638 62.1841 51.0198 61.4721 51.5838C60.8041 52.1145 59.8988 52.7865 59.6148 53.6172C59.5561 53.7918 59.7615 53.9145 59.9055 53.8412Z" fill="#35208A"/>
<path d="M76.5881 45.6692C76.7334 46.1879 77.1507 46.6132 77.5521 46.9532C77.9574 47.2959 78.4054 47.6439 78.9521 47.6426C79.2241 47.6412 79.3481 47.3119 79.1695 47.1199C78.8588 46.7852 78.4294 46.6226 78.0774 46.3332C77.7214 46.0412 77.4694 45.6546 77.1214 45.3599C76.8894 45.1652 76.4974 45.3439 76.5881 45.6692Z" fill="#35208A"/>
<path d="M78.4762 45.2451C78.9149 45.7278 79.4922 46.0958 80.0135 46.4824C80.4615 46.8131 80.9749 47.3878 81.5589 47.3838C81.7309 47.3838 81.8749 47.2104 81.8202 47.0398C81.6522 46.5038 81.0349 46.2251 80.6015 45.9131C80.0415 45.5104 79.4855 45.0398 78.8562 44.7531C78.5389 44.6091 78.2269 44.9691 78.4762 45.2451" fill="#35208A"/>
<path d="M51.6372 25.9719C49.9825 27.6679 49.0532 31.3799 49.5345 33.6799C49.5945 33.9693 50.0625 33.9719 50.1212 33.6799C50.3812 32.3999 50.3386 31.0919 50.6412 29.8066C50.9426 28.5333 51.5692 27.3653 51.8559 26.0999C51.8825 25.9759 51.7319 25.8746 51.6372 25.9719" fill="#35208A"/>
<path d="M55.071 25.6441C53.8923 26.9388 53.123 29.5854 53.575 31.2974C53.6497 31.5894 54.1096 31.6041 54.179 31.2974C54.3816 30.3881 54.3403 29.4481 54.5723 28.5334C54.803 27.6201 55.2443 26.8015 55.5283 25.9108C55.611 25.6535 55.2536 25.4441 55.071 25.6441" fill="#35208A"/>
<path d="M60.4134 24.3692C60.3707 24.3639 60.328 24.3585 60.2854 24.3545C60.1694 24.3399 60.0481 24.4292 59.9921 24.5225C59.6041 25.1745 59.3587 25.9066 59.1827 26.6439C59.0294 27.2786 58.8081 28.0639 59.0401 28.6946C59.1161 28.9012 59.4307 28.9906 59.5481 28.7612C59.8467 28.1772 59.8094 27.4932 59.9561 26.8572C60.1187 26.1466 60.3841 25.4745 60.6121 24.7839C60.6494 24.6705 60.6081 24.5359 60.5254 24.4532C60.4894 24.4185 60.464 24.3745 60.4134 24.3692" fill="#35208A"/>
<path d="M65.2936 23.0214C64.0282 23.8907 63.1296 25.7187 63.0083 27.2254C62.9723 27.6561 63.6256 27.7187 63.7416 27.3254C63.9589 26.5814 64.1282 25.8694 64.4989 25.1761C64.8376 24.5467 65.3056 24.0187 65.7016 23.4294C65.8642 23.1854 65.5362 22.8534 65.2936 23.0214" fill="#35208A"/>
<path d="M68.5749 24.0174C68.1029 24.5988 67.7722 25.2601 67.5322 25.9668C67.3415 26.5334 66.9949 27.4148 67.3509 27.9588C67.4375 28.0934 67.6362 28.1361 67.7535 28.0108C68.1429 27.6001 68.0895 26.9414 68.2429 26.4108C68.4442 25.7081 68.7709 25.0721 69.1015 24.4254C69.2655 24.1068 68.8282 23.7054 68.5749 24.0174" fill="#35208A"/>
<path d="M72.0747 25.2454C71.2347 25.7014 70.3534 27.1293 70.684 28.1067C70.7574 28.328 71.0947 28.4134 71.2147 28.1747C71.432 27.7467 71.4507 27.2494 71.6454 26.808C71.8427 26.3627 72.1467 25.9854 72.4094 25.58C72.5467 25.3667 72.2801 25.1334 72.0747 25.2454" fill="#35208A"/>
<path d="M74.4545 26.3306C73.9385 26.7626 73.5478 27.4439 73.2798 28.0559C73.1158 28.4306 73.5998 28.7319 73.8372 28.3812C74.2118 27.8279 74.5825 27.1252 74.6732 26.4572C74.6905 26.3292 74.5612 26.2412 74.4545 26.3306Z" fill="#35208A"/>
<path d="M76.2453 27.7133C76.0026 27.9413 75.8479 28.2453 75.6799 28.5279C75.5119 28.8079 75.3053 29.0746 75.3373 29.4159C75.352 29.5732 75.512 29.6919 75.6626 29.6026C75.9773 29.4159 76.068 29.0879 76.204 28.7666C76.3346 28.4586 76.48 28.1626 76.5253 27.8293C76.544 27.6786 76.3373 27.6239 76.2453 27.7133" fill="#35208A"/>
<path d="M46.8706 42.5588C47.5746 41.4068 48.6013 40.4802 50.0546 40.5828C51.52 40.6868 52.336 41.7482 52.956 42.9428C53.1547 43.3242 53.672 43.0415 53.608 42.6668C52.972 38.9642 47.3827 38.9068 46.2413 42.2935C46.112 42.6722 46.672 42.8855 46.8706 42.5588" fill="#35208A"/>
<path d="M53.3053 43.6066C54.3586 43.3133 55.2133 42.4986 56.3786 43.0906C57.6493 43.7359 57.532 45.0546 57.2666 46.2133C57.1946 46.5306 57.5919 46.8013 57.8346 46.5439C58.9639 45.3479 58.1866 43.1666 56.8906 42.4306C55.8439 41.8346 53.2306 41.9439 53.2506 43.5639C53.2506 43.5933 53.2786 43.6133 53.3053 43.6066" fill="#35208A"/>
<path d="M51.9585 36.4985C53.1612 35.6145 54.2532 34.5612 55.8652 34.6185C56.7198 34.6505 57.5598 35.1239 58.0372 35.8332C58.4918 36.5092 58.4212 37.2079 58.4052 37.9719C58.3972 38.2985 58.8118 38.3612 58.9771 38.1266C60.0105 36.6666 58.4798 34.6639 57.0852 34.1185C55.1585 33.3652 52.6932 34.5599 51.8332 36.3732C51.7985 36.4466 51.8759 36.5572 51.9585 36.4985" fill="#35208A"/>
<path d="M58.3135 38.4589C59.2642 37.7789 60.9269 37.7322 61.7709 38.5802C62.2029 39.0149 62.4082 39.6335 62.3909 40.2402C62.3749 40.8549 62.0162 41.2749 61.8882 41.8389C61.8256 42.1175 62.1002 42.3069 62.3469 42.1909C63.0655 41.8522 63.2576 40.7522 63.2122 40.0362C63.1616 39.2562 62.8349 38.4855 62.2496 37.9575C61.6656 37.4335 60.8696 37.1989 60.0936 37.2509C59.7042 37.2775 59.2989 37.3735 58.9549 37.5655C58.5922 37.7709 58.4669 38.0509 58.2296 38.3749C58.1949 38.4242 58.2642 38.4949 58.3135 38.4589" fill="#35208A"/>
<path d="M62.2122 42.576C63.1455 42.424 64.2308 41.988 64.9202 42.9387C65.2148 43.344 65.2588 43.8933 65.1148 44.3653C64.9655 44.8573 64.5775 45.1013 64.2922 45.4973C64.1522 45.692 64.3361 46.0333 64.5828 46.0013C66.1108 45.8147 66.3241 43.4533 65.5441 42.4573C64.8628 41.588 62.4615 40.988 62.1482 42.5107C62.1402 42.5533 62.1735 42.5827 62.2122 42.576" fill="#35208A"/>
<path d="M62.6509 31.6401C63.1322 31.6975 63.6388 31.4335 64.1268 31.4001C64.7268 31.3615 65.3415 31.4628 65.8535 31.7961C66.7602 32.3895 67.1242 33.7668 66.3882 34.6335C66.0428 35.0401 66.6296 35.6308 66.9749 35.2228C67.9176 34.1108 67.7482 32.4268 66.6682 31.4508C66.0829 30.9215 65.2628 30.6775 64.4828 30.6881C63.8535 30.6988 62.8709 30.8428 62.5336 31.4361C62.4776 31.5335 62.5509 31.6281 62.6509 31.6401" fill="#35208A"/>
<path d="M66.5749 35.3242C67.5802 35.3269 68.6908 35.1429 69.4522 35.9842C69.7575 36.3229 69.9282 36.7935 69.9095 37.2495C69.8909 37.6735 69.6509 37.9695 69.5002 38.3469C69.3735 38.6575 69.7748 38.8775 70.0242 38.7495C71.1282 38.1762 70.7935 36.3775 70.1509 35.5949C69.3282 34.5922 67.5802 34.2349 66.4722 34.9522C66.3095 35.0575 66.3695 35.3242 66.5749 35.3242" fill="#35208A"/>
<path d="M70.191 39.0505C71.0043 38.9732 71.8844 39.1972 72.1937 40.0558C72.5057 40.9238 71.8883 41.7985 71.0577 42.0425C70.5523 42.1892 70.7617 42.9505 71.2751 42.8305C72.5324 42.5332 73.4003 41.1425 72.9857 39.8825C72.603 38.7172 71.179 37.9945 70.0443 38.5105C69.787 38.6278 69.911 39.0758 70.191 39.0505" fill="#35208A"/>
<path d="M73.1105 31.4056C74.1238 31.6576 75.3732 31.6136 76.0932 32.5202C76.6852 33.2656 76.5492 34.3122 75.7479 34.8256C75.4065 35.0429 75.6319 35.5322 76.0145 35.4589C77.2865 35.2202 77.5158 33.5616 77.0398 32.5549C76.3998 31.1922 74.4932 30.6722 73.1105 30.9442C72.8758 30.9909 72.8905 31.3509 73.1105 31.4056" fill="#35208A"/>
<path d="M75.9215 35.4891C76.0388 35.7118 76.1775 35.6985 76.4162 35.7718C76.9068 35.9198 77.3455 36.1918 77.6215 36.6345C77.8628 37.0198 77.9202 37.5078 77.8095 37.9465C77.6949 38.4078 77.3615 38.7038 77.1429 39.1051C77.0109 39.3478 77.2335 39.6998 77.5255 39.6011C78.8469 39.1491 78.9415 37.1465 78.2135 36.1665C77.8402 35.6665 77.2669 35.2905 76.6389 35.2051C76.5776 35.1971 75.7428 35.1518 75.9215 35.4891" fill="#35208A"/>
<path d="M77.267 39.7385C77.803 39.9505 78.2496 40.5065 78.0283 41.1078C77.791 41.7492 77.199 41.6505 76.675 41.7732C76.343 41.8505 76.3456 42.2745 76.5856 42.4438C77.4323 43.0452 78.6656 42.0212 78.8563 41.1932C79.0776 40.2265 78.3243 39.2065 77.3496 39.1265C76.9723 39.0972 76.967 39.6198 77.267 39.7385" fill="#35208A"/>
<path d="M81.872 35.256C82.628 35.6026 83.4386 35.7466 84.0866 36.3106C84.3933 36.5746 84.6613 36.9133 84.72 37.3226C84.8053 37.9386 84.3506 38.2906 83.7866 38.2426C83.416 38.2106 83.2453 38.808 83.5906 38.9613C84.8599 39.5266 85.8586 37.9933 85.4159 36.8666C84.9346 35.644 83.1893 34.6866 81.9053 35.0093C81.8 35.0373 81.7653 35.2066 81.872 35.256" fill="#35208A"/>
<path d="M83.5226 39.2562C84.4933 39.2882 84.6199 40.6816 83.8066 41.0682C83.4226 41.2509 82.9946 41.2282 82.6026 41.0909C82.2666 40.9722 81.8839 40.9522 81.8519 41.4029C81.8412 41.5469 81.9373 41.6936 82.0586 41.7629C83.0626 42.3429 84.6212 42.0376 85.0786 40.8869C85.4932 39.8389 84.7079 38.4482 83.5226 38.5096C83.0439 38.5349 83.0399 39.2402 83.5226 39.2562Z" fill="#35208A"/>
<path d="M51.56 89.5015C51.5827 89.5415 51.6081 89.5722 51.6361 89.6015C52.7614 91.0242 53.8894 92.4469 55.016 93.8709C55.116 94.0002 55.3307 94.0375 55.48 93.9949C57.8547 93.3095 60.2294 92.6255 62.6027 91.9429C63.1161 91.7949 63.024 91.0002 62.476 91.0029C60.4294 91.0189 59.5707 89.0935 57.9587 88.2455C56.9227 87.7002 55.7667 87.6229 54.6201 87.7455C53.8801 87.8255 50.6907 88.0215 51.56 89.5015Z" fill="#FA8D61"/>
<path d="M56.3318 108.372C58.1745 108.833 59.4838 109.929 60.3012 111.637C60.4478 111.945 60.7052 112.045 60.9585 112.008C60.9705 112.008 60.9799 112.006 60.9919 112.005C60.9932 112.004 60.9959 112.004 60.9972 112.004C61.0425 112 61.0892 111.993 61.1385 111.979C63.3265 111.343 65.5905 112.503 66.2932 114.684C66.4292 115.109 66.9705 115.413 67.3825 115.128C69.7051 113.522 73.6919 111.005 76.0025 114.067C76.3385 114.51 76.9612 114.575 77.2852 114.067C77.8638 113.158 78.4478 112.197 79.3238 111.545C80.3785 110.76 82.3892 110.333 82.9345 112.065C83.0878 112.555 83.7999 112.846 84.1745 112.393C87.7385 108.091 89.0492 102.508 87.7199 97.073C87.6185 96.6558 87.1945 96.4892 86.8065 96.5558C77.3492 98.161 67.8919 99.7667 58.4332 101.372C58.1852 101.413 57.9785 101.66 57.9158 101.889C57.3972 103.757 56.7345 105.536 55.8878 107.281C55.6865 107.698 55.8372 108.248 56.3318 108.372" fill="#FA8D61"/>
<path d="M32.4389 87.7865C34.6389 90.1625 37.6576 92.3332 40.6869 93.4918C41.4776 93.7932 41.9549 93.8638 42.5215 94.5438C42.9789 95.0918 43.3642 95.7118 43.8135 96.2718C45.1575 97.9437 46.6735 99.4812 48.3122 100.864C54.6882 106.241 63.1855 108.389 71.4069 107.091C78.8575 105.913 85.6189 101.717 90.0389 95.6105C92.3909 92.3638 94.3722 88.6825 95.4242 84.7985C95.9762 82.7598 96.2015 80.6692 96.3802 78.5705C96.4882 77.3078 96.3509 75.4438 97.2202 74.4038C98.3615 73.0425 100.526 73.4972 101.788 72.3212C102.78 71.3985 102.748 69.9092 102.031 68.8185C99.8189 65.4425 93.7989 66.5678 90.5362 67.8798C90.7069 65.7598 94.9882 64.9092 94.0229 62.2812C93.2949 60.3012 90.1095 61.8292 88.8149 62.1612C86.3589 62.7892 83.9442 63.4998 81.8976 65.0612C79.5429 66.8558 77.9429 69.3718 76.8869 72.1092C75.8082 74.9038 75.6895 77.8878 74.7442 80.6905C73.8748 83.2665 72.0975 85.4172 69.9455 87.0412C65.5735 90.3385 59.8215 91.7678 54.4162 91.8612C52.9042 91.8878 51.3816 91.8105 49.8869 91.5838C48.6682 91.3985 47.4828 91.0332 46.8828 89.8852C46.4202 88.9985 46.6215 87.7332 46.5522 86.7572C46.3122 83.3118 44.9909 80.1438 42.8709 77.4385C42.7242 77.2505 42.4015 77.3265 42.2962 77.5118C41.8295 78.3372 41.3629 79.1625 40.8989 79.9865C40.3669 79.4518 39.6029 79.3865 38.7935 79.6558C37.4109 80.1172 36.9255 81.2918 36.2135 82.4398C35.4228 83.7105 34.6002 83.9598 33.2336 84.2398C32.7189 84.3452 32.2216 84.4398 31.8696 84.8692C31.0936 85.8172 31.8256 86.9985 32.4389 87.7865" fill="#96CBEB"/>
<path d="M77.0854 82.032C78.6521 84.9 81.8921 86.28 84.9788 86.6706C89.8401 87.284 93.6281 84.848 96.1081 81.208C96.2201 80.3333 96.3054 79.452 96.3801 78.5706C96.4881 77.308 96.3508 75.444 97.2201 74.404C98.3615 73.0426 100.525 73.4973 101.788 72.3213C102.78 71.3986 102.748 69.9093 102.031 68.8186C99.8188 65.4426 93.7988 66.568 90.5361 67.88C90.7068 65.76 94.9881 64.9093 94.0228 62.2813C93.2948 60.3013 90.1094 61.8293 88.8148 62.1613C86.3588 62.7893 83.9441 63.5 81.8975 65.0613C79.5428 66.856 77.9428 69.372 76.8868 72.1093C76.2295 73.8133 75.9281 75.5866 75.5801 77.348C75.6494 79.0106 76.3161 80.6213 77.0854 82.032" fill="white"/>
<path d="M90.4375 72.9709C91.7401 72.9709 92.9868 74.1149 92.9268 75.4589C92.8654 76.8083 91.8335 77.9482 90.4375 77.9482C89.1361 77.9482 87.8881 76.8043 87.9494 75.4589C88.0094 74.1109 89.0415 72.9709 90.4375 72.9709Z" fill="#35208A"/>
<path d="M82.5522 70.4815C84.6455 70.4815 86.6536 72.3242 86.5562 74.4868C86.4602 76.6575 84.7975 78.4922 82.5522 78.4922C80.4575 78.4922 78.4495 76.6495 78.5469 74.4868C78.6429 72.3175 80.3055 70.4815 82.5522 70.4815Z" fill="#96CBEB"/>
<path d="M69.5573 86.2308C70.2 87.1281 71.1133 89.3041 72.4653 89.2495C73.7746 89.1975 75.3466 87.2228 76.0146 86.2975C77.1706 84.6881 78.7133 80.6721 76.624 79.2041C74.7493 77.8868 73.7146 81.0521 72.8799 82.1201C71.9226 83.3428 70.6666 82.5162 69.52 83.2122C68.364 83.9122 68.9973 85.3641 69.5573 86.2308Z" fill="#FA8D61"/>
<path d="M44.3416 88.3574C44.1149 86.1707 42.8522 82.2694 41.5775 79.7814C41.4242 79.4854 40.8389 79.8814 41.0402 80.4667C41.2415 81.0547 43.5376 87.7494 43.8749 88.4827C43.9829 88.7214 44.3362 88.5867 44.3416 88.3574" fill="#35208A"/>
<path d="M42.2492 88.9815C41.9945 87.8748 40.3799 86.9975 39.5692 86.2575C38.5186 85.3002 37.5559 84.1215 36.3852 83.3202C36.1039 83.1268 35.7265 83.5082 35.9158 83.7882C36.7385 85.0162 38.0532 86.0108 39.1586 86.9828C39.9452 87.6722 41.0679 89.0642 42.1759 89.0762C42.2265 89.0762 42.2585 89.0282 42.2492 88.9815" fill="#35208A"/>
<path d="M75.4838 82.184C74.7905 82.7494 74.5038 83.8721 73.9865 84.6107C73.2771 85.6214 72.4078 86.452 71.4158 87.184C71.0171 87.4787 71.3944 88.1547 71.8104 87.8614C72.8264 87.1441 73.6971 86.2627 74.4104 85.2441C74.9531 84.4667 75.8464 83.2201 75.6184 82.2214C75.6024 82.1561 75.5278 82.1494 75.4838 82.184" fill="#35208A"/>
<path d="M74.1825 82.0696C73.4598 82.4402 72.9012 83.2056 72.2479 83.6976C71.5105 84.2536 70.6439 84.6069 69.9145 85.1496C69.6159 85.3722 69.7758 85.8882 70.1798 85.7802C71.0678 85.5482 71.9039 84.8909 72.6145 84.3282C73.2839 83.7962 74.1892 83.1242 74.4719 82.2936C74.5306 82.1189 74.3252 81.9976 74.1825 82.0696Z" fill="#35208A"/>
<path d="M57.4988 90.2412C57.3548 89.7225 56.9361 89.2972 56.5348 88.9572C56.1308 88.6145 55.6828 88.2679 55.1361 88.2692C54.8628 88.2705 54.7414 88.5999 54.9187 88.7919C55.2294 89.1252 55.6587 89.2879 56.0107 89.5785C56.3654 89.8705 56.6188 90.2572 56.9668 90.5519C57.1975 90.7465 57.5894 90.5665 57.4988 90.2412Z" fill="#35208A"/>
<path d="M55.6109 90.6666C55.1736 90.1826 54.5963 89.8159 54.075 89.4292C53.627 89.0986 53.1123 88.5239 52.5283 88.5279C52.359 88.5279 52.2123 88.7012 52.267 88.8719C52.435 89.4066 53.0523 89.6852 53.487 89.9986C54.0457 90.3999 54.6016 90.8719 55.2323 91.1586C55.5483 91.3026 55.8616 90.9426 55.6109 90.6666" fill="#35208A"/>
<path d="M82.4506 109.94C84.1039 108.243 85.0332 104.532 84.5519 102.231C84.4919 101.943 84.0253 101.94 83.9666 102.231C83.7053 103.511 83.7492 104.82 83.4452 106.105C83.1452 107.38 82.5186 108.548 82.2319 109.812C82.2039 109.936 82.3559 110.037 82.4506 109.94Z" fill="#35208A"/>
<path d="M79.0172 110.268C80.1946 108.974 80.9652 106.327 80.5146 104.613C80.4372 104.323 79.9772 104.308 79.9092 104.613C79.7052 105.524 79.7479 106.463 79.5159 107.379C79.2852 108.291 78.8439 109.111 78.5586 110C78.4759 110.259 78.8346 110.468 79.0172 110.268" fill="#35208A"/>
<path d="M73.6748 111.543C73.7174 111.548 73.7588 111.553 73.8028 111.556C73.9174 111.571 74.0387 111.484 74.0947 111.389C74.4827 110.736 74.7308 110.004 74.9054 109.268C75.0574 108.632 75.2787 107.847 75.0481 107.217C74.9721 107.01 74.6574 106.922 74.5388 107.151C74.2414 107.734 74.2774 108.42 74.132 109.055C73.9694 109.765 73.7028 110.437 73.4748 111.128C73.4374 111.24 73.4787 111.377 73.5627 111.458C73.5974 111.493 73.6241 111.537 73.6748 111.543" fill="#35208A"/>
<path d="M68.7949 112.889C70.0589 112.02 70.9589 110.193 71.0816 108.686C71.1149 108.256 70.4629 108.193 70.3483 108.587C70.1296 109.332 69.9616 110.043 69.5882 110.735C69.2509 111.367 68.7843 111.892 68.3869 112.483C68.2229 112.725 68.5509 113.058 68.7949 112.889Z" fill="#35208A"/>
<path d="M65.5131 111.893C65.9838 111.313 66.3145 110.652 66.5545 109.944C66.7465 109.379 67.0918 108.497 66.7371 107.953C66.6491 107.819 66.4518 107.776 66.3332 107.9C65.9438 108.312 65.9985 108.97 65.8465 109.5C65.6425 110.204 65.3171 110.839 64.9851 111.488C64.8225 111.807 65.2585 112.206 65.5131 111.893" fill="#35208A"/>
<path d="M62.0131 110.667C62.8531 110.211 63.7345 108.781 63.4038 107.805C63.3291 107.584 62.9918 107.499 62.8718 107.736C62.6545 108.165 62.6372 108.663 62.4412 109.104C62.2452 109.549 61.9398 109.927 61.6785 110.332C61.5398 110.546 61.8064 110.777 62.0131 110.667" fill="#35208A"/>
<path d="M59.6333 109.581C60.1493 109.149 60.5387 108.468 60.8067 107.856C60.972 107.482 60.4866 107.179 60.2493 107.531C59.8746 108.084 59.504 108.786 59.4147 109.453C59.3973 109.583 59.5267 109.669 59.6333 109.581Z" fill="#35208A"/>
<path d="M57.8442 108.199C58.0842 107.97 58.2402 107.667 58.4096 107.384C58.5762 107.104 58.7829 106.836 58.7495 106.496C58.7362 106.337 58.5775 106.22 58.4242 106.31C58.1095 106.496 58.0202 106.824 57.8829 107.146C57.7522 107.452 57.6069 107.749 57.5629 108.082C57.5429 108.234 57.7495 108.287 57.8442 108.199Z" fill="#35208A"/>
<path d="M87.2162 93.3518C86.5135 94.5038 85.4855 95.4318 84.0322 95.3292C82.5682 95.2238 81.7509 94.1652 81.1322 92.9692C80.9322 92.5878 80.4162 92.8705 80.4789 93.2438C81.1149 96.9464 86.7042 97.0036 87.8482 93.6172C87.9749 93.2385 87.4162 93.0265 87.2162 93.3518" fill="#35208A"/>
<path d="M80.7826 92.3055C79.7292 92.5988 78.8746 93.4135 77.7079 92.8215C76.4373 92.1748 76.5546 90.8575 76.8199 89.6988C76.8933 89.3815 76.4946 89.1108 76.2519 89.3681C75.1239 90.5628 75.9012 92.7441 77.1959 93.4815C78.2439 94.0775 80.8586 93.9681 80.8359 92.3468C80.8359 92.3188 80.8079 92.2975 80.7826 92.3055" fill="#35208A"/>
<path d="M82.1292 99.4131C80.9252 100.296 79.8332 101.349 78.2212 101.292C77.3666 101.262 76.5279 100.786 76.0492 100.077C75.5945 99.4011 75.6652 98.7037 75.6825 97.9402C75.6905 97.6121 75.2746 97.5506 75.1092 97.7839C74.0772 99.2438 75.6079 101.248 77.0012 101.792C78.9279 102.546 81.3946 101.351 82.2532 99.5386C82.2892 99.4641 82.2106 99.3531 82.1292 99.4131" fill="#35208A"/>
<path d="M75.7735 97.4521C74.8229 98.1317 73.1602 98.1786 72.3162 97.3317C71.8842 96.8958 71.6802 96.2771 71.6962 95.6705C71.7135 95.0558 72.0722 94.6371 72.1988 94.0718C72.2615 93.7931 71.9869 93.6051 71.7416 93.7211C71.0229 94.0585 70.8295 95.1598 70.8762 95.8758C70.9255 96.6557 71.2522 97.4265 71.8389 97.953C72.4216 98.4786 73.2175 98.713 73.9935 98.6609C74.3828 98.6343 74.7895 98.5385 75.1335 98.3453C75.4962 98.1411 75.6229 97.8625 75.8589 97.5369C75.8949 97.4879 75.8229 97.4171 75.7735 97.4521Z" fill="#35208A"/>
<path d="M71.8746 93.3346C70.9413 93.4879 69.8572 93.9239 69.1666 92.9732C68.8719 92.5666 68.8279 92.0186 68.9719 91.5466C69.1239 91.0546 69.5119 90.8106 69.7959 90.4146C69.9345 90.2199 69.7506 89.8786 69.5053 89.9092C67.9759 90.0972 67.7626 92.4572 68.5426 93.4532C69.2239 94.3239 71.6266 94.9239 71.9386 93.3999C71.9479 93.3586 71.9159 93.3292 71.8746 93.3346Z" fill="#35208A"/>
<path d="M71.4358 104.272C70.9558 104.215 70.4491 104.479 69.9611 104.51C69.3611 104.55 68.7465 104.448 68.2358 104.114C67.3265 103.522 66.9638 102.146 67.6998 101.277C68.0438 100.872 67.4585 100.28 67.1118 100.689C66.1691 101.8 66.3398 103.485 67.4184 104.46C68.0051 104.991 68.8238 105.233 69.6038 105.222C70.2344 105.214 71.2158 105.069 71.5531 104.476C71.6091 104.379 71.5358 104.282 71.4358 104.272" fill="#35208A"/>
<path d="M67.5133 100.588C66.5093 100.586 65.3974 100.769 64.636 99.9283C64.3294 99.5892 64.1587 99.1173 64.1787 98.6627C64.196 98.2371 64.436 97.9428 64.588 97.5652C64.7133 97.2548 64.312 97.0345 64.064 97.1627C62.96 97.7345 63.2947 99.5345 63.936 100.317C64.7587 101.32 66.508 101.676 67.6147 100.958C67.7773 100.853 67.7173 100.588 67.5133 100.588" fill="#35208A"/>
<path d="M63.8973 96.8609C63.0826 96.9385 62.2026 96.7145 61.8946 95.8558C61.5826 94.9878 62.1986 94.1118 63.0293 93.8692C63.5359 93.7225 63.3253 92.9598 62.8119 93.0812C61.5546 93.3785 60.6879 94.7692 61.1013 96.0292C61.4853 97.1942 62.9092 97.9172 64.0439 97.4C64.3012 97.2822 64.1773 96.8344 63.8973 96.8609" fill="#35208A"/>
<path d="M60.9761 104.505C59.9641 104.255 58.7135 104.297 57.9935 103.391C57.4028 102.647 57.5375 101.6 58.3415 101.087C58.6815 100.869 58.4575 100.38 58.0735 100.452C56.8015 100.693 56.5721 102.349 57.0468 103.357C57.6881 104.72 59.5935 105.239 60.9761 104.967C61.2108 104.921 61.1975 104.561 60.9761 104.505Z" fill="#35208A"/>
<path d="M58.1667 100.423C58.048 100.2 57.912 100.213 57.6706 100.14C57.1813 99.9919 56.7427 99.72 56.4667 99.2774C56.2253 98.891 56.1666 98.4028 56.2773 97.9643C56.3933 97.5028 56.7253 97.2082 56.944 96.8071C57.0773 96.5628 56.8546 96.2122 56.5626 96.3107C55.2413 96.7628 55.1453 98.7654 55.8733 99.744C56.248 100.246 56.82 100.62 57.448 100.707C57.5107 100.715 58.3453 100.76 58.1667 100.423" fill="#35208A"/>
<path d="M56.8211 96.1719C56.2851 95.9599 55.8385 95.4039 56.0598 94.8039C56.2971 94.1625 56.8878 94.2612 57.4131 94.1385C57.7464 94.0599 57.7425 93.6372 57.5011 93.4665C56.6545 92.8665 55.4211 93.8892 55.2318 94.7185C55.0105 95.6839 55.7625 96.7052 56.7385 96.7839C57.1158 96.8145 57.1211 96.2905 56.8211 96.1719" fill="#35208A"/>
<path d="M52.2147 100.656C51.4614 100.309 50.6481 100.165 50.0001 99.6012C49.6948 99.336 49.4254 98.9986 49.3681 98.5892C49.2814 97.9736 49.7374 97.6199 50.3014 97.6693C50.6734 97.7012 50.8427 97.1037 50.4961 96.9491C49.2281 96.3856 48.2294 97.9189 48.6721 99.0455C49.1521 100.268 50.8987 101.225 52.1827 100.901C52.288 100.876 52.3214 100.705 52.2147 100.656" fill="#35208A"/>
<path d="M50.5656 96.656C49.5936 96.6227 49.4682 95.2295 50.2802 94.8428C50.6642 94.6615 51.0922 94.6828 51.4842 94.8215C51.8202 94.9415 52.2029 94.9588 52.2363 94.5082C52.2469 94.3655 52.1496 94.2188 52.0296 94.1495C51.0256 93.5695 49.4669 93.8748 49.0096 95.0255C48.5936 96.0722 49.3789 97.4628 50.5656 97.4014C51.0429 97.3774 51.0469 96.6706 50.5656 96.656" fill="#35208A"/>
<path d="M28.4428 66.7598C28.4455 66.6891 28.4188 66.6371 28.3788 66.6038C27.9815 65.8531 26.5441 65.7065 25.8241 65.5638C24.6468 65.3318 23.4561 65.1918 22.2668 65.0358C22.0721 65.0091 21.8774 64.9785 21.6828 64.9531C21.6028 64.9438 21.4668 64.8785 21.4801 64.9131C21.3161 64.7158 21.2108 64.2958 21.1228 64.0878C20.6295 62.9411 20.1548 61.7838 19.6535 60.6411C19.4001 60.0598 19.1401 59.4811 18.8654 58.9105C18.6948 58.5585 18.5001 57.8985 18.1108 57.7278C17.2454 57.3491 16.6388 59.4931 16.4068 60.0091C15.8548 61.2451 15.3375 62.4971 14.8028 63.7385C14.6895 63.9998 14.5001 64.7491 14.2654 64.9291C14.1521 65.0145 13.3415 64.9705 13.1348 64.9878C12.6055 65.0291 12.0774 65.0705 11.5494 65.1198C10.6494 65.2051 9.73481 65.2891 8.86415 65.5478C8.34148 65.7025 7.4041 65.9531 7.48543 66.6798C7.5521 67.2758 8.46809 67.8371 8.87743 68.1665C9.58276 68.7251 10.3295 69.2278 11.1095 69.6745C11.4641 69.8785 11.9161 70.0278 12.2401 70.2718C12.6588 70.5891 12.4574 70.9211 12.3441 71.3505C12.1041 72.2545 11.8615 73.1585 11.6415 74.0665C11.4628 74.8078 11.2895 75.5531 11.1748 76.3051C11.1042 76.7638 10.9295 77.4318 11.1375 77.8731C11.6828 79.0318 13.7735 77.0038 14.2788 76.6145C14.9121 76.1265 15.5322 75.6225 16.1388 75.1025C16.4362 74.8465 16.7308 74.5865 17.0201 74.3225C17.1828 74.1718 17.5961 73.6038 17.8068 73.5678C18.1481 73.5105 19.0642 74.6211 19.3415 74.8611C19.9682 75.3998 20.6135 75.9171 21.2668 76.4251C22.1575 77.1158 23.1361 78.0425 24.3134 78.1478C25.3414 78.2385 24.8508 76.6825 24.7148 76.0691C24.3895 74.6065 23.9135 73.1745 23.4788 71.7425C23.3855 71.4345 23.2654 71.1171 23.1988 70.8011C23.1281 70.4545 23.1388 70.4785 23.4321 70.3011C24.0001 69.9585 24.6908 69.7478 25.2854 69.4465C26.2401 68.9665 28.1521 68.0985 28.4201 66.9038C28.4441 66.8638 28.4535 66.8158 28.4428 66.7598" fill="#FFF896"/>
<path d="M112.941 103.419C111.325 103.277 109.677 103.296 108.039 103.315C108.503 102.857 108.965 102.399 109.424 101.939C110.143 101.216 110.959 100.524 111.427 99.6094C111.639 99.1974 111.217 98.7917 110.811 98.9933C109.889 99.4454 109.18 100.253 108.444 100.958C107.968 101.417 107.495 101.879 107.023 102.34C107.028 101.676 107.031 101.011 107.028 100.345C107.028 99.325 107.113 98.2574 106.797 97.2772C106.657 96.8438 106.072 96.8548 105.928 97.2772C105.596 98.2506 105.665 99.325 105.644 100.345C105.631 101.007 105.623 101.667 105.616 102.329C105.148 101.855 104.681 101.382 104.209 100.913C103.487 100.194 102.795 99.3798 101.88 98.9094C101.469 98.6985 101.064 99.1189 101.264 99.5266C101.716 100.448 102.525 101.157 103.231 101.892C103.688 102.369 104.149 102.843 104.612 103.315C103.947 103.311 103.283 103.307 102.617 103.308C101.595 103.311 100.528 103.224 99.5481 103.541C99.1147 103.68 99.1267 104.265 99.5481 104.409C100.523 104.741 101.596 104.672 102.617 104.693C103.263 104.707 103.911 104.715 104.556 104.721C103.363 105.848 102.16 106.982 101.095 108.209C100.523 108.868 101.383 109.716 102.045 109.161C103.277 108.127 104.419 106.961 105.553 105.801C105.508 107.428 105.461 109.063 105.573 110.669C105.635 111.539 106.843 111.531 106.917 110.669C107.059 109.069 107.041 107.437 107.024 105.815C108.14 106.997 109.264 108.187 110.48 109.243C111.139 109.816 111.987 108.953 111.431 108.292C110.399 107.06 109.232 105.919 108.072 104.782C109.697 104.831 111.335 104.877 112.941 104.764C113.809 104.704 113.803 103.494 112.941 103.419" fill="white"/>
<path d="M24.7387 31.2413C24.8667 31.0853 24.9987 30.9293 25.1107 30.7586C25.0293 30.8639 24.9494 30.9679 24.868 31.0719C25.0574 30.8306 25.256 30.6439 25.344 30.3253C25.516 29.6946 25.228 29.0306 24.6773 28.6946C24.0987 28.3426 23.348 28.3386 22.7707 28.6919C21.9427 29.1986 21.7174 30.3026 22.3147 31.0773C22.5867 31.4306 22.9334 31.6293 23.3747 31.6879C23.8427 31.7519 24.4201 31.6306 24.7387 31.2413" fill="white"/>
<path d="M29.8468 51.8266C30.1948 51.8066 30.5375 51.772 30.8402 51.5773C31.2402 51.32 31.4882 50.9666 31.6268 50.5146C31.5188 50.7 31.4108 50.8853 31.3042 51.0693C31.3268 51.0453 31.3495 51.0213 31.3735 50.9986C31.8122 50.5493 31.8135 49.8146 31.3735 49.364C31.3495 49.3386 31.3268 49.316 31.3042 49.292C31.4108 49.4773 31.5188 49.6626 31.6268 49.8466C31.4935 49.4106 31.2495 49.0133 30.8402 48.784C30.6375 48.6706 30.4362 48.604 30.2055 48.572C30.0815 48.556 29.9708 48.5426 29.8468 48.5346C29.4401 48.5106 28.9641 48.7346 28.6828 49.016C28.3975 49.3013 28.1829 49.7706 28.2002 50.18C28.2189 50.6066 28.3601 51.048 28.6828 51.344C28.9935 51.6306 29.4108 51.852 29.8468 51.8266" fill="white"/>
<path d="M48.0533 13.6106C48.2213 13.4933 48.3893 13.376 48.5573 13.2586C48.912 13.0106 49.1493 12.672 49.1493 12.224C49.1493 11.776 48.912 11.4386 48.5573 11.1906C48.3893 11.0733 48.2213 10.956 48.0533 10.8386C47.5933 10.5173 46.8987 10.5666 46.4333 10.8386C45.9453 11.124 45.6387 11.6586 45.6387 12.224C45.6387 12.7893 45.9453 13.324 46.4333 13.6106C46.8987 13.8826 47.5933 13.9306 48.0533 13.6106Z" fill="white"/>
<path d="M83.9015 11.0627C83.9735 11.068 84.0468 11.0733 84.1202 11.08C85.8428 11.2147 85.8455 8.26931 84.1202 8.40265C84.0468 8.40798 83.9735 8.41465 83.9015 8.41998C82.2028 8.55198 82.1988 10.9307 83.9015 11.0627" fill="white"/>
<path d="M88.3776 30.9639C90.5816 30.9639 90.5843 27.5385 88.3776 27.5385C86.1736 27.5385 86.1696 30.9639 88.3776 30.9639Z" fill="white"/>
<path d="M66.5323 17.0508C66.9163 17.0508 67.3203 16.8841 67.5923 16.6108C67.8523 16.3521 68.047 15.9254 68.031 15.5521C67.995 14.7401 67.3723 14.0548 66.5323 14.0548C66.1483 14.0548 65.7456 14.2215 65.4723 14.4935C65.2123 14.7521 65.0176 15.1788 65.0336 15.5521C65.071 16.3641 65.6936 17.0508 66.5323 17.0508Z" fill="white"/>
<path d="M106.004 39.3811C106.033 39.3731 106.065 39.3665 106.096 39.3625C105.961 39.3812 105.825 39.3985 105.692 39.4171C105.755 39.4105 105.816 39.4105 105.88 39.4198C105.749 39.4011 105.619 39.3851 105.488 39.3665C105.78 39.4185 106.013 39.4438 106.312 39.3758C106.343 39.3678 106.369 39.3558 106.401 39.3505C106.281 39.3665 106.163 39.3825 106.043 39.3985C106.064 39.3958 106.085 39.3945 106.108 39.3958C106.636 39.3985 107.224 39.0012 107.335 38.4612C107.445 37.9238 107.377 37.3358 106.957 36.9331C106.691 36.6758 106.361 36.4945 106.004 36.3985C105.032 36.1398 104.045 36.8838 104.045 37.8892C104.045 38.9105 105.029 39.6105 106.004 39.3811" fill="white"/>
<path d="M121.688 55.7174C121.972 55.9201 122.311 55.9774 122.653 55.9894C123.54 56.0201 124.369 55.1921 124.339 54.3041C124.325 53.9627 124.268 53.6241 124.065 53.3374C123.912 53.0774 123.703 52.8694 123.441 52.7147C123.171 52.5574 122.877 52.4787 122.564 52.4774C122.103 52.4987 121.668 52.6547 121.335 52.9867C121.02 53.3014 120.825 53.7707 120.825 54.2161C120.827 54.5294 120.907 54.8227 121.064 55.0934C121.217 55.3547 121.425 55.5614 121.688 55.7174" fill="white"/>
<path d="M108.323 65.9491C108.71 65.8398 109.072 65.6611 109.284 65.2971C109.503 64.9238 109.591 64.3211 109.468 63.9345C109.287 63.3785 108.879 62.9705 108.323 62.7905C107.698 62.5878 106.986 62.8798 106.602 63.3772C106.202 63.8932 106.139 64.6252 106.472 65.1958C106.838 65.8185 107.627 66.1451 108.323 65.9491" fill="white"/>
<path d="M117.607 81.5933C118.021 81.5933 118.456 81.4119 118.748 81.1199C119.028 80.8386 119.24 80.3813 119.221 79.9786C119.202 79.5599 119.067 79.1266 118.748 78.8359C118.432 78.5466 118.044 78.3626 117.607 78.3626C117.193 78.3626 116.757 78.5439 116.465 78.8359C116.185 79.1159 115.973 79.5759 115.992 79.9786C116.011 80.3946 116.148 80.8293 116.465 81.1199C116.781 81.4093 117.169 81.5933 117.607 81.5933Z" fill="white"/>
<path d="M90.2496 118.034C90.2403 118.016 90.231 118 90.2216 117.981C89.827 117.222 88.7336 117.14 88.1576 117.716C87.583 118.289 87.667 119.385 88.423 119.777C88.4417 119.786 88.4603 119.796 88.4776 119.807C88.9723 120.062 89.647 120.038 90.047 119.604C90.451 119.164 90.5256 118.564 90.2496 118.034" fill="white"/>
<path d="M61.9344 127.613C62.3878 127.613 62.8651 127.416 63.1865 127.094C63.4931 126.787 63.7251 126.282 63.7038 125.843C63.6851 125.386 63.5331 124.91 63.1865 124.591C62.8398 124.274 62.4144 124.072 61.9344 124.072C61.4798 124.072 61.0038 124.27 60.6824 124.591C60.3744 124.898 60.1438 125.401 60.1638 125.843C60.1851 126.3 60.3344 126.776 60.6824 127.094C61.0278 127.413 61.4544 127.613 61.9344 127.613" fill="white"/>
<path d="M50.7803 115.136C50.7829 115.125 50.7843 115.113 50.7856 115.104C50.7269 115.244 50.667 115.384 50.6083 115.524C50.6123 115.515 50.6176 115.505 50.623 115.498C50.5296 115.616 50.4389 115.734 50.3469 115.853C50.3549 115.846 50.3616 115.84 50.3683 115.834C50.2496 115.927 50.131 116.017 50.0123 116.11C50.0216 116.107 50.0296 116.103 50.0376 116.098C49.899 116.157 49.7576 116.216 49.6189 116.276C49.6283 116.274 49.6389 116.272 49.6469 116.27C49.4923 116.291 49.3363 116.312 49.1816 116.333C49.1923 116.332 49.2016 116.332 49.2109 116.331C49.6576 116.301 50.1363 116.161 50.4496 115.819C50.7149 115.528 50.879 115.204 50.931 114.812C50.9816 114.44 50.9336 114.022 50.7243 113.696C50.4803 113.319 50.1243 113 49.6776 112.891C48.7016 112.653 47.631 113.177 47.3816 114.198C47.271 114.652 47.3216 115.151 47.559 115.557C47.7723 115.922 48.1923 116.272 48.6123 116.368C49.0643 116.47 49.571 116.448 49.971 116.189C50.3296 115.958 50.7149 115.579 50.7803 115.136" fill="white"/>
<path d="M25.795 112.22C26.2617 112.22 26.7523 112.016 27.083 111.685C27.399 111.37 27.6377 110.851 27.6177 110.397C27.5963 109.927 27.4416 109.437 27.083 109.109C26.727 108.781 26.2884 108.575 25.795 108.575C25.327 108.575 24.8364 108.777 24.5057 109.109C24.191 109.425 23.9524 109.944 23.9724 110.397C23.9937 110.869 24.1484 111.357 24.5057 111.685C24.8617 112.013 25.3017 112.22 25.795 112.22Z" fill="white"/>
<path d="M29.4923 92.0361C31.7709 92.0361 31.7749 88.4948 29.4923 88.4948C27.2123 88.4948 27.2083 92.0361 29.4923 92.0361Z" fill="white"/>
<path d="M62.5441 78.1068C62.9108 77.9135 63.1628 77.6228 63.3215 77.2494C63.3842 77.1014 63.4335 76.9561 63.4815 76.8041C63.8015 75.8001 62.7575 74.7575 61.7535 75.0761C61.6015 75.1241 61.4575 75.1734 61.3082 75.2361C60.9349 75.3934 60.6415 75.6521 60.4522 76.0135C60.1442 76.5961 60.1788 77.3974 60.6908 77.8681C61.2082 78.3428 61.9201 78.4361 62.5441 78.1068" fill="white"/>
<path d="M37.8441 39.0442C37.8561 39.0375 37.8681 39.0348 37.8828 39.0335C37.7188 39.0562 37.5548 39.0762 37.3908 39.0988C37.4148 39.0975 37.4375 39.1002 37.4615 39.0975C37.6268 39.0748 37.7908 39.0535 37.9562 39.0308C38.1148 38.9748 38.2695 38.9095 38.4188 38.8335C38.2721 38.8948 38.1254 38.9575 37.9774 39.0188C37.9841 39.0162 37.9921 39.0135 37.9988 39.0109C38.2948 38.8922 38.5801 38.7695 38.8095 38.5389C39.0961 38.2509 39.2602 37.8828 39.3148 37.4842C39.4135 36.7495 39.0721 36.0469 38.4375 35.6549C37.6601 35.1722 36.6908 35.3602 36.0535 35.9682C35.7615 36.2468 35.6001 36.6322 35.5468 37.0242C35.4948 37.4162 35.5441 37.8548 35.7655 38.1975C35.9375 38.4628 36.1588 38.6855 36.4255 38.8575C36.7922 39.0935 37.4294 39.1882 37.8441 39.0442" fill="#FFF896"/>
<path d="M70.4069 61.7879C70.7309 62.5199 71.5922 62.9013 72.3536 62.8959C72.9296 62.8919 73.4509 62.6519 73.8042 62.1946C73.9602 61.9933 74.0976 61.7973 74.1416 61.5319C74.1976 61.2013 74.2029 60.9119 74.0696 60.5946C73.9429 60.2946 73.7522 60.0919 73.4802 59.9066C73.4735 59.9013 73.4669 59.8973 73.4602 59.8919C73.5589 59.9693 73.6589 60.0466 73.7575 60.1226C73.7389 60.1079 73.7242 60.0919 73.7082 60.0719C73.7922 60.1786 73.8735 60.2853 73.9575 60.3919C73.8415 60.2186 73.7082 60.0599 73.5749 59.8999C73.6669 60.0186 73.7575 60.1373 73.8495 60.2559C73.8255 60.2226 73.8069 60.1919 73.7909 60.1573C73.8509 60.3013 73.9122 60.4453 73.9722 60.5906C73.9589 60.5546 73.9482 60.5199 73.9402 60.4813C73.9629 60.6466 73.9842 60.8133 74.0069 60.9799C73.9802 60.7519 73.9375 60.5359 73.9015 60.3146C73.8215 59.8333 73.4162 59.4253 73.0229 59.1719C72.5136 58.8426 71.8602 58.8479 71.3202 59.0759C70.8429 59.2773 70.5122 59.6093 70.3095 60.0866C70.1909 60.3146 70.1362 60.5586 70.1456 60.8239C70.1456 61.1679 70.2335 61.4906 70.4069 61.7879" fill="#FFF896"/>
<path d="M102.92 89.6611C103.403 89.6611 103.91 89.4505 104.25 89.1105C104.576 88.7838 104.822 88.2505 104.802 87.7811C104.779 87.2958 104.619 86.7918 104.25 86.4531C103.882 86.1158 103.43 85.9025 102.92 85.9025C102.439 85.9025 101.934 86.1118 101.592 86.4531C101.267 86.7785 101.022 87.3145 101.042 87.7811C101.064 88.2678 101.224 88.7718 101.592 89.1105C101.96 89.4478 102.412 89.6611 102.92 89.6611Z" fill="#FFF896"/>
<path d="M15.6574 90.9136C17.8614 90.9136 17.8641 87.4896 15.6574 87.4896C13.4534 87.4896 13.4494 90.9136 15.6574 90.9136Z" fill="#FFF896"/>
<path d="M119.239 37.2441C119.743 37.2441 120.271 37.0255 120.627 36.6695C120.967 36.3295 121.223 35.7708 121.2 35.2815C121.179 34.7748 121.012 34.2481 120.627 33.8935C120.243 33.5428 119.771 33.3201 119.239 33.3201C118.736 33.3201 118.207 33.5388 117.852 33.8935C117.511 34.2348 117.255 34.7935 117.276 35.2815C117.3 35.7895 117.467 36.3161 117.852 36.6695C118.236 37.0215 118.707 37.2441 119.239 37.2441Z" fill="#FFF896"/>
</svg>
