<svg width="135" height="135" viewBox="0 0 135 135" fill="none" xmlns="http://www.w3.org/2000/svg">
<path d="M134.089 67.9559C134.089 104.984 104.073 135 67.0445 135C30.0172 135 0 104.984 0 67.9559C0 30.9279 30.0172 0.911881 67.0445 0.911881C104.073 0.911881 134.089 30.9279 134.089 67.9559Z" fill="#35208A"/>
<path d="M57.9457 23.1975C63.939 30.1348 69.659 37.3148 75.223 44.5988C82.1857 53.7161 89.015 62.9828 95.1884 72.6588C97.3857 76.1028 99.5964 79.6202 101.258 83.3628C101.826 84.6402 103.272 87.2201 101.714 88.2308C100.571 88.9735 99.1164 89.3335 97.8204 89.6948C95.7337 90.2775 93.6084 90.7228 91.4817 91.1282C85.5337 92.2628 79.5204 93.0575 73.5084 93.7575C59.267 95.4108 44.8297 96.667 30.479 96.5508C29.9061 96.5456 29.9321 97.4336 30.5041 97.4404C43.6457 97.5815 56.8471 96.4826 69.9031 95.0788C76.2831 94.3922 82.6564 93.5922 88.9817 92.5028C93.0071 91.8108 97.3324 91.1882 101.107 89.5442C103.082 88.6828 103.611 87.6442 103.031 85.5588C102.127 82.3148 100.218 79.2628 98.5057 76.3988C92.6244 66.5641 85.7924 57.2695 78.8991 48.1282C72.8417 40.0962 66.7537 31.8215 59.8004 24.5255C59.2804 23.9802 58.7457 23.4482 58.2017 22.9255C58.0244 22.7562 57.7897 23.0188 57.9457 23.1975Z" fill="white"/>
<path d="M63.1941 26.1856C62.4247 23.1549 59.4021 20.3176 56.3127 19.7242C53.9847 19.2776 51.8421 20.1336 50.4381 22.0709C49.2247 23.7469 49.1034 25.7669 50.1221 27.3416C51.0647 28.7976 52.7621 29.6163 54.3514 29.3776C55.7914 29.1603 57.0354 27.9922 57.4008 26.5496C58.4301 28.1496 57.9048 31.0656 56.7688 33.0322C55.4794 35.2629 52.4061 36.3722 49.6954 37.3496C49.3647 37.4696 49.0394 37.5869 48.7247 37.7042L48.6447 37.7322C45.0607 39.0616 40.5994 40.7162 38.9741 45.2162C38.1621 47.4682 38.2514 49.7336 38.3394 51.9256C38.4261 54.1069 38.5074 56.1669 37.6527 57.9429L37.5767 58.1282C36.9674 59.9576 35.4991 61.3429 33.9445 62.8096C32.7226 63.9602 31.4612 65.1522 30.5018 66.6536C29.1373 68.7882 27.6731 72.3789 30.7059 78.8589L31.0367 79.5616C31.7617 81.1082 32.5117 82.7069 33.1529 84.3002C33.6712 85.5896 34.1711 86.9576 34.093 88.2816C33.9663 90.3949 32.4575 93.2869 30.4117 94.2256C30.2529 94.2989 30.0731 94.3562 29.8789 94.3962C30.4378 93.4722 30.581 92.3016 30.2226 91.2936C29.7335 89.9109 28.5341 88.9482 27.0149 88.7202C25.3491 88.4682 23.6477 89.1349 22.693 90.4176C21.8154 91.5989 21.4873 93.0816 21.7685 94.5962C22.0732 96.2296 23.0747 97.7228 24.4471 98.591C25.9029 99.5108 27.6163 99.9858 29.3049 99.9858C30.343 99.9858 31.3726 99.8072 32.3273 99.4416C36.9114 97.6858 39.6981 92.0949 39.6501 87.9202C39.6114 84.5296 38.1701 81.6402 36.7767 78.8456C35.8909 77.0696 35.0539 75.3922 34.595 73.6482C33.8335 70.7562 35.4783 68.9389 38.2274 66.2149C40.0221 64.4322 41.8794 62.5909 42.7341 60.1109C44.0074 57.4069 43.8994 54.4829 43.8047 51.8896C43.7194 49.5616 43.6301 47.1562 45.0808 45.6722C46.3021 44.4229 48.2154 43.7509 50.0648 43.1016C50.5781 42.9202 51.1114 42.7336 51.6221 42.5362L52.0301 42.3803C54.2807 41.5149 56.6061 40.6202 58.6194 39.1242C62.3888 36.3269 64.3541 30.7642 63.1941 26.1856" fill="#FA8D61"/>
<path d="M26.5695 54.4132C35.9481 59.3852 45.8087 63.5119 55.4633 67.9079C70.8993 74.9372 86.3807 81.8706 101.842 88.8426C105.399 90.4452 108.957 92.0479 112.517 93.6426C114.127 94.3652 115.421 91.9372 113.805 91.2132C104.033 86.8332 94.246 82.4906 84.4647 78.1359C68.9367 71.2226 53.4287 64.2546 37.826 57.5079C34.2648 55.9679 30.7048 54.4292 27.0668 53.0772C26.2908 52.7892 25.8689 54.0426 26.5695 54.4132" fill="#96CBEB"/>
<path d="M35.9994 52.8505C35.3752 52.6212 34.5898 52.7812 33.9482 52.7958C32.6695 52.8265 31.3892 52.8465 30.1111 52.8638C28.646 52.8838 27.1215 52.7732 25.6616 52.9265C25.581 52.9345 25.52 52.9678 25.4674 53.0078C25.4496 53.0212 25.434 53.0385 25.4168 53.0545C25.4091 53.0625 25.4002 53.0692 25.3934 53.0785C25.3206 53.1638 25.2804 53.2772 25.3206 53.4158C25.5444 54.1932 26.6903 54.9865 27.2242 55.5358C28.8116 57.1718 30.3378 59.2838 32.1267 60.6758C34.3272 62.3878 34.9835 59.3798 35.6763 57.9185C36.3527 56.4892 38.5167 53.7772 35.9994 52.8505" fill="white"/>
<path d="M112.181 86.2067C109.89 86.6374 107.619 87.1294 105.366 87.7307C104.354 88.0014 104.073 89.216 104.539 90.0374C105.857 92.3587 107.33 94.572 108.873 96.7491C109.366 97.4466 110.579 96.9559 110.274 96.088C109.589 94.1467 108.857 92.228 108.037 90.3427C109.757 90.012 111.475 89.676 113.198 89.368C115.285 88.9934 114.267 85.8134 112.181 86.2067Z" fill="#FA8D61"/>
<path d="M101.446 87.3936C103.017 87.0669 104.597 86.7629 106.182 86.5269C108.281 86.2176 108.146 82.8803 106.042 83.2109C103.59 83.5949 101.17 84.1096 98.7874 84.8136C97.7861 85.1109 97.4834 86.2776 97.9607 87.1189C99.2794 89.4416 100.753 91.6562 102.294 93.8322C102.787 94.5296 104.002 94.0389 103.695 93.1696C103.007 91.2189 102.271 89.2896 101.446 87.3936Z" fill="#FA8D61"/>
<path d="M53.6111 26.5096C53.4404 26.0416 53.0324 25.7802 53.0497 25.2202C53.0724 24.4616 53.7497 23.8509 54.4124 23.6149C56.1391 23.0029 57.1097 24.4989 57.5951 25.8909C57.7004 26.1922 58.1564 26.1522 58.1617 25.8149C58.1964 23.6469 55.6191 22.1416 53.7537 23.1842C52.9484 23.6362 52.3217 24.5082 52.4204 25.4669C52.4764 25.9989 52.9124 26.9682 53.5764 26.5922C53.6031 26.5776 53.6204 26.5402 53.6111 26.5096Z" fill="#35208A"/>
<path d="M26.4393 91.8065C25.8925 91.3732 25.2023 91.5771 24.7335 92.0531C24.1731 92.6211 24.0601 93.4545 24.4231 94.1652C25.3482 95.9758 27.9991 95.7545 29.1919 94.3665C29.3977 94.1265 29.1373 93.7305 28.8387 93.9092C27.8726 94.4865 26.8169 95.2225 25.6783 94.5478C24.2674 93.7118 24.9393 92.0811 26.3987 91.9025C26.4403 91.8971 26.481 91.8398 26.4393 91.8065Z" fill="#35208A"/>
<path d="M55.5767 35.8987C55.5781 36.3054 55.5421 36.7041 55.3607 37.0721C55.2087 37.3827 54.8461 37.6161 54.7861 37.9494C54.7581 38.1067 54.8541 38.2694 55.0287 38.2681C55.5021 38.2627 55.8141 37.6734 55.9781 37.2881C56.1754 36.8241 56.2407 36.3201 56.1154 35.8267C56.0381 35.5281 55.5767 35.5907 55.5767 35.8987Z" fill="#35208A"/>
<path d="M57.4523 34.1949C57.4817 34.6362 57.6577 35.0375 57.6523 35.4815C57.6483 35.8548 57.3777 36.2842 57.571 36.6269C57.619 36.7095 57.7097 36.7349 57.7963 36.7202C58.3017 36.6255 58.339 35.8162 58.3083 35.4082C58.271 34.8935 58.1177 34.3362 57.6257 34.0962C57.5537 34.0602 57.447 34.1029 57.4523 34.1949" fill="#35208A"/>
<path d="M35.6508 85.4869C35.5404 86.1162 35.8888 86.7869 35.8445 87.4509C35.7836 88.3602 35.3503 89.0935 34.8784 89.8455C34.7263 90.0922 35.0544 90.2882 35.2513 90.1335C35.9816 89.5549 36.3269 88.6175 36.3989 87.7042C36.4523 87.0215 36.4123 85.8175 35.7253 85.4562C35.6992 85.4429 35.656 85.4522 35.6508 85.4869" fill="#35208A"/>
<path d="M37.0018 88.2106C36.8698 88.7519 36.8618 89.3092 36.6898 89.8452C36.5004 90.4412 36.1564 90.9372 35.8764 91.4866C35.7318 91.7679 36.0858 92.0666 36.3244 91.8319C37.1431 91.0199 37.6578 89.3212 37.2698 88.2106C37.2271 88.0879 37.0351 88.0679 37.0018 88.2106" fill="#35208A"/>
<path d="M108.728 33.3346C108.731 33.2653 108.706 33.2133 108.664 33.1786C108.267 32.4293 106.831 32.2813 106.111 32.1399C104.934 31.9066 103.74 31.7679 102.552 31.6106C102.358 31.5866 102.163 31.5546 101.967 31.5293C101.89 31.5199 101.752 31.4533 101.767 31.4893C101.602 31.2906 101.498 30.8719 101.407 30.6653C100.915 29.5159 100.44 28.3613 99.9391 27.2173C99.6844 26.6359 99.4271 26.0573 99.1511 25.4866C98.9818 25.1346 98.7858 24.4746 98.3978 24.3053C97.5298 23.9253 96.9231 26.0679 96.6911 26.5866C96.1404 27.8213 95.6231 29.0719 95.0871 30.3146C94.9751 30.5746 94.7858 31.3253 94.5511 31.5039C94.4378 31.5906 93.6258 31.5466 93.4204 31.5626C92.8924 31.6053 92.3631 31.6466 91.8351 31.6959C90.9351 31.7799 90.0204 31.8653 89.1498 32.1226C88.6271 32.2773 87.6897 32.5293 87.7711 33.2559C87.8391 33.8506 88.7524 34.4133 89.1644 34.7413C89.8671 35.3013 90.6164 35.8039 91.3964 36.2506C91.7498 36.4533 92.2031 36.6039 92.5244 36.8466C92.9444 37.1653 92.7418 37.4986 92.6284 37.9266C92.3911 38.8306 92.1484 39.7333 91.9271 40.6426C91.7471 41.3839 91.5751 42.1279 91.4591 42.8813C91.3898 43.3386 91.2151 44.0066 91.4231 44.4493C91.9684 45.6093 94.0591 43.5799 94.5644 43.1906C95.1964 42.7026 95.8177 42.1986 96.4244 41.6773C96.7217 41.4226 97.0151 41.1626 97.3057 40.8973C97.4671 40.7479 97.8831 40.1786 98.0924 40.1439C98.4338 40.0866 99.3484 41.1973 99.6258 41.4373C100.254 41.9759 100.899 42.4933 101.552 42.9999C102.444 43.6919 103.42 44.6173 104.599 44.7226C105.627 44.8146 105.136 43.2586 105 42.6453C104.675 41.1813 104.199 39.7506 103.766 38.3186C103.672 38.0093 103.551 37.6933 103.486 37.3773C103.412 37.0306 103.426 37.0546 103.718 36.8786C104.286 36.5346 104.976 36.3239 105.57 36.0226C106.524 35.5426 108.438 34.6733 108.707 33.4799C108.731 33.4399 108.739 33.3906 108.728 33.3346" fill="#FFF896"/>
<path d="M49.2058 110.748C47.5898 110.607 45.9432 110.625 44.3045 110.644C44.7685 110.186 45.2312 109.728 45.6885 109.268C46.4085 108.545 47.2245 107.852 47.6925 106.939C47.9032 106.527 47.4832 106.121 47.0765 106.323C46.1552 106.776 45.4458 107.582 44.7098 108.288C44.2325 108.745 43.7605 109.208 43.2872 109.669C43.2912 109.005 43.2952 108.34 43.2938 107.675C43.2912 106.653 43.3778 105.586 43.0632 104.607C42.9232 104.174 42.3378 104.184 42.1938 104.607C41.8605 105.58 41.9298 106.655 41.9085 107.675C41.8965 108.336 41.8885 108.997 41.8805 109.658C41.4138 109.184 40.9472 108.712 40.4752 108.243C39.7525 107.522 39.0605 106.709 38.1445 106.239C37.7338 106.028 37.3298 106.448 37.5285 106.856C37.9818 107.777 38.7885 108.487 39.4965 109.223C39.9525 109.699 40.4152 110.17 40.8778 110.644C40.2125 110.64 39.5472 110.636 38.8832 110.637C37.8605 110.64 36.7938 110.555 35.8125 110.869C35.3802 111.009 35.3906 111.594 35.8125 111.737C36.7858 112.07 37.8605 112.001 38.8832 112.022C39.5285 112.036 40.1752 112.044 40.8218 112.051C39.6272 113.177 38.4258 114.312 37.3592 115.539C36.7872 116.197 37.6485 117.045 38.3112 116.489C39.5418 115.456 40.6832 114.289 41.8192 113.131C41.7725 114.756 41.7272 116.392 41.8392 118C41.8992 118.868 43.1085 118.86 43.1832 118C43.3245 116.397 43.3072 114.767 43.2885 113.143C44.4058 114.327 45.5298 115.515 46.7458 116.572C47.4032 117.144 48.2525 116.282 47.6965 115.62C46.6645 114.389 45.4978 113.248 44.3378 112.112C45.9632 112.16 47.5992 112.206 49.2058 112.093C50.0752 112.032 50.0658 110.824 49.2058 110.748" fill="white"/>
<path d="M75.7272 14.2588C76.1565 14.2588 76.6098 14.0708 76.9138 13.7668C77.2045 13.4761 77.4245 12.9988 77.4045 12.5788C77.3645 11.6681 76.6685 10.8988 75.7272 10.8988C75.2952 10.8988 74.8432 11.0868 74.5392 11.3908C74.2472 11.6828 74.0272 12.1615 74.0472 12.5788C74.0872 13.4895 74.7858 14.2588 75.7272 14.2588Z" fill="white"/>
<path d="M83.0578 37.9759C83.0792 37.9692 83.1005 37.9612 83.1218 37.9545C83.4738 37.8372 83.7605 37.6519 83.9898 37.3572C84.2072 37.0759 84.3632 36.7119 84.3472 36.3452C84.3125 35.5825 83.8472 34.9772 83.1218 34.7372C83.1005 34.7292 83.0792 34.7225 83.0578 34.7158C82.0045 34.3665 80.9165 35.2919 80.9165 36.3452C80.9165 37.3985 82.0045 38.3265 83.0578 37.9759Z" fill="white"/>
<path d="M117.523 44.6454C117.714 44.7627 117.915 44.8507 118.126 44.9267C118.663 45.1174 119.327 44.8947 119.715 44.5054C120.103 44.1174 120.327 43.4547 120.134 42.9187C120.058 42.7027 119.971 42.5054 119.853 42.3147C119.281 41.3827 117.963 41.1854 117.178 41.9707C116.87 42.2787 116.679 42.7374 116.679 43.1747C116.679 43.7854 117.009 44.3294 117.523 44.6454" fill="white"/>
<path d="M110.49 64.6719C110.857 64.6239 111.23 64.6052 111.558 64.4132C112.042 64.1292 112.431 63.5279 112.405 62.9505C112.382 62.4172 112.151 61.9465 111.73 61.6199C111.565 61.4705 111.374 61.3705 111.153 61.3185C111.003 61.2972 110.853 61.2772 110.703 61.2572C110.631 61.2479 110.562 61.2386 110.49 61.2292C110.085 61.1772 109.547 61.4599 109.274 61.7332C108.974 62.0319 108.75 62.5225 108.769 62.9505C108.789 63.3959 108.935 63.8572 109.274 64.1665C109.585 64.4532 110.05 64.7279 110.49 64.6719" fill="white"/>
<path d="M125.897 89.6348C125.911 89.5655 125.927 89.4975 125.943 89.4282C126.561 86.7228 122.085 86.7068 122.706 89.4282C122.722 89.4975 122.737 89.5655 122.753 89.6348C123.109 91.1868 125.541 91.1881 125.897 89.6348" fill="white"/>
<path d="M101.778 101.249C101.986 101.472 102.246 101.577 102.527 101.669C103.383 101.95 104.263 101.204 104.263 100.346C104.263 99.4916 103.382 98.7437 102.527 99.024C102.25 99.1145 101.981 99.2265 101.778 99.4437C101.294 99.9582 101.291 100.733 101.778 101.249Z" fill="white"/>
<path d="M72.0473 118.279C72.0019 118.272 71.9566 118.263 71.9113 118.253C71.3659 118.148 70.7739 118.225 70.3753 118.66C70.0913 118.97 69.9126 119.348 69.9126 119.777C69.9126 120.182 70.0886 120.608 70.3753 120.894C70.7966 121.316 71.3459 121.41 71.9113 121.3C71.9566 121.291 72.0019 121.283 72.0473 121.275C72.1713 121.223 72.2939 121.17 72.4179 121.118C72.5993 121.02 72.7433 120.887 72.8526 120.719C73.0566 120.455 73.2019 120.116 73.1859 119.777C73.1753 119.5 73.1033 119.237 72.9739 118.994C72.8099 118.682 72.3979 118.348 72.0473 118.279Z" fill="white"/>
<path d="M26.0639 108.543C26.4753 108.543 26.9076 108.363 27.1977 108.072C27.4763 107.794 27.6863 107.337 27.668 106.939C27.6497 106.523 27.5128 106.092 27.1977 105.803C26.8836 105.515 26.4987 105.334 26.0639 105.334C25.6524 105.334 25.2201 105.512 24.9295 105.803C24.6508 106.081 24.4415 106.539 24.4596 106.939C24.4779 107.352 24.6144 107.783 24.9295 108.072C25.2435 108.36 25.6284 108.543 26.0639 108.543Z" fill="white"/>
<path d="M12.44 71.3216C12.4807 71.2722 12.5198 71.2229 12.5588 71.1736C12.6526 71.0536 12.7447 70.9336 12.8384 70.8136C12.875 70.7229 12.913 70.6349 12.9504 70.5469C13.0666 70.2722 13.1146 69.9869 13.0832 69.6909C13.039 69.2829 12.9427 68.8789 12.625 68.5856C12.5198 68.5042 12.414 68.4229 12.3088 68.3416C12.0651 68.2002 11.802 68.1282 11.5198 68.1282C11.2223 68.0962 10.9442 68.1429 10.664 68.2602C10.3332 68.4002 10.3931 68.3682 10.0364 68.6522C9.98698 68.6909 9.93897 68.7309 9.88897 68.7709C9.55204 69.0402 9.36084 69.6336 9.36084 70.0456C9.36084 70.4882 9.55724 71.0162 9.88897 71.3216C10.2332 71.6376 10.6848 71.8722 11.1655 71.8496C11.6119 71.8309 12.1484 71.6869 12.44 71.3216" fill="white"/>
<path d="M26.7736 67.1133C27.2048 67.1133 27.6564 66.9266 27.961 66.6213C28.2517 66.3306 28.4714 65.8519 28.4533 65.4346C28.4116 64.5239 27.7153 63.7546 26.7736 63.7546C26.3429 63.7546 25.8908 63.9426 25.5861 64.2466C25.2944 64.5386 25.0757 65.0159 25.0938 65.4346C25.134 66.3439 25.8324 67.1133 26.7736 67.1133Z" fill="white"/>
<path d="M39.6605 23.139C39.6459 23.1216 39.6339 23.1043 39.6259 23.083C39.6832 23.219 39.7392 23.3523 39.7965 23.4883C39.7939 23.4763 39.7899 23.4656 39.7872 23.455C39.8072 23.6043 39.8285 23.7536 39.8472 23.9016C39.8432 23.8816 39.8432 23.8603 39.8472 23.839C39.8285 23.987 39.8085 24.135 39.7885 24.2816C39.7912 24.2723 39.7939 24.263 39.7965 24.2523C39.7405 24.3856 39.6845 24.5163 39.6299 24.6483C39.6432 24.6203 39.6592 24.5963 39.6738 24.5696C39.9512 24.0536 39.9738 23.447 39.6738 22.9336C39.3952 22.4563 38.8379 22.1056 38.2739 22.1296C37.7805 22.1523 37.3432 22.323 36.9979 22.6736C36.6685 23.0096 36.4339 23.5243 36.4712 24.0016C36.5165 24.5963 36.7605 25.1856 37.3192 25.4803C37.7272 25.6963 38.1832 25.7776 38.6379 25.6536C39.0539 25.539 39.4432 25.2376 39.6605 24.867C39.8152 24.6003 39.8939 24.3123 39.8952 24.0016C39.8939 23.6936 39.8152 23.4056 39.6605 23.139" fill="white"/>
<path d="M67.3007 56.7373C67.4834 56.4133 67.6474 56.0626 67.6194 55.6786C67.5874 55.2573 67.4607 54.812 67.1354 54.5133C66.8007 54.2066 66.4274 54.064 65.9714 54.032C65.5927 54.0026 65.2341 54.168 64.9127 54.348C63.9287 54.9013 63.7767 56.308 64.5594 57.0906C65.3407 57.872 66.7474 57.7226 67.3007 56.7373" fill="white"/>
<path d="M53.4379 87.4879C53.4512 87.4786 53.4659 87.4693 53.4806 87.4626C53.3526 87.5159 53.2259 87.5693 53.0979 87.6239C53.2353 87.5666 53.4033 87.5133 53.5313 87.4373C54.4259 86.8959 54.6046 85.6293 53.8593 84.8853C53.5646 84.5906 53.1273 84.4093 52.7113 84.4093C52.1099 84.4093 51.6339 84.7293 51.3086 85.2146C51.1259 85.4839 51.0859 85.8093 51.0593 86.1226C51.0113 86.6653 51.3939 87.2253 51.8419 87.4879C52.3113 87.7639 52.9686 87.7919 53.4379 87.4879" fill="white"/>
<path d="M75.3712 86.7402C77.6819 86.7402 77.6859 83.1496 75.3712 83.1496C73.0606 83.1496 73.0566 86.7402 75.3712 86.7402Z" fill="#F7B9E7"/>
<path d="M21.7161 44.0078C22.2109 44.0078 22.7308 43.7931 23.0808 43.4438C23.4156 43.1105 23.6667 42.5598 23.6459 42.0798C23.6224 41.5812 23.4599 41.0638 23.0808 40.7171C22.7032 40.3705 22.2396 40.1518 21.7161 40.1518C21.2213 40.1518 20.7021 40.3665 20.3532 40.7171C20.0183 41.0518 19.7656 41.5998 19.788 42.0798C19.8099 42.5785 19.974 43.0971 20.3532 43.4438C20.7308 43.7905 21.1943 44.0078 21.7161 44.0078Z" fill="#F7B9E7"/>
<path d="M96.6792 115.955C96.7045 115.922 96.7298 115.889 96.7525 115.857C96.8178 115.705 96.8818 115.552 96.9472 115.398C97.0258 115.144 97.0378 114.889 96.9805 114.633C96.9272 114.231 96.7618 113.816 96.4525 113.532C96.2085 113.307 95.9231 113.141 95.6071 113.039C95.3511 112.958 95.0965 112.946 94.8418 113.004C94.5858 113.016 94.3471 113.092 94.1271 113.232C94.0951 113.256 94.0632 113.28 94.0298 113.305C93.7378 113.477 93.5072 113.709 93.3352 114C93.1605 114.301 93.0712 114.628 93.0698 114.977C93.0938 115.492 93.2671 115.977 93.6378 116.346C93.9898 116.698 94.5098 116.915 95.0085 116.915C95.3565 116.913 95.6832 116.827 95.9858 116.651C96.2765 116.479 96.5085 116.246 96.6792 115.955" fill="#F7B9E7"/>
<path d="M93.8177 17.3296C96.279 17.3296 96.283 13.5042 93.8177 13.5042C91.3564 13.5042 91.3524 17.3296 93.8177 17.3296Z" fill="#F7B9E7"/>
<path d="M127.713 72.2188C128.202 72.2188 128.718 72.0041 129.065 71.6588C129.395 71.3268 129.645 70.7814 129.623 70.3068C129.602 69.8121 129.439 69.2988 129.065 68.9534C128.69 68.6108 128.23 68.3934 127.713 68.3934C127.222 68.3934 126.707 68.6081 126.359 68.9534C126.029 69.2854 125.779 69.8308 125.799 70.3068C125.822 70.8001 125.985 71.3134 126.359 71.6588C126.734 72.0001 127.194 72.2188 127.713 72.2188Z" fill="#F7B9E7"/>
<path d="M71.8457 108.179C74.3177 108.179 74.323 104.337 71.8457 104.337C69.375 104.337 69.371 108.179 71.8457 108.179Z" fill="#F7B9E7"/>
</svg>
