<svg width="135" height="135" viewBox="0 0 135 135" fill="none" xmlns="http://www.w3.org/2000/svg">
<path d="M134.089 67.9547C134.089 104.983 104.072 135 67.0453 135C30.0173 135 0 104.983 0 67.9547C0 30.928 30.0173 0.91067 67.0453 0.91067C104.072 0.91067 134.089 30.928 134.089 67.9547Z" fill="#35208A"/>
<path d="M111.756 55.099C111.747 55.0377 111.72 54.9937 111.689 54.959C110.889 53.2924 108.431 52.8963 106.813 52.5803C104.449 52.1203 101.996 52.091 99.6332 52.5763C95.0518 53.5177 91.8345 56.3163 89.1412 59.9803C88.2758 61.1577 87.6825 62.7723 87.8865 64.2523C88.1038 65.815 89.5638 66.879 90.9132 67.4803C95.0212 69.3083 99.9119 68.267 103.727 66.227C105.961 65.0324 108.263 63.4083 109.845 61.4057C111.127 59.7843 112.052 57.1777 111.756 55.099" fill="#96CBEB"/>
<path d="M107.555 58.1388C107.402 57.6015 106.828 57.3162 106.302 57.1268C103.971 56.2908 101.382 56.1148 98.9975 56.7895C96.6149 57.4628 94.4602 59.0135 93.2015 61.1455C92.3575 61.7868 91.7415 63.8455 92.3015 64.7455C92.8602 65.6441 93.8775 66.1628 94.8989 66.4361C98.5255 67.4095 102.419 65.7508 105.234 63.2655C105.85 62.7215 106.44 62.1255 106.826 61.3988C107.215 60.6628 107.374 59.8295 107.528 59.0108C107.583 58.7228 107.638 58.4215 107.555 58.1388" fill="#647FA0"/>
<path d="M45.6545 61.1535C44.8719 59.4175 43.3185 57.6402 41.9225 56.3602C40.3839 54.9495 38.5505 53.8602 36.5825 53.1642C33.9999 52.2495 31.2012 52.0282 28.4946 52.3855C26.6252 52.6309 23.3545 53.0002 22.4145 54.9562C22.3825 54.9922 22.3559 55.0362 22.3465 55.0989C21.7265 59.4615 25.2439 62.9362 28.5279 65.1215C32.2959 67.6295 37.0212 69.1455 41.5305 68.0349C43.1785 67.6282 45.1559 66.7669 45.9505 65.1482C46.5505 63.9282 46.1852 62.3309 45.6545 61.1535" fill="#96CBEB"/>
<path d="M26.5466 58.1388C26.6999 57.6015 27.2746 57.3162 27.7999 57.1268C30.1319 56.2908 32.7199 56.1148 35.1053 56.7895C37.4879 57.4628 39.6413 59.0135 40.9013 61.1455C41.7439 61.7868 42.3599 63.8455 41.7999 64.7455C41.2413 65.6441 40.2239 66.1628 39.2026 66.4361C35.5759 67.4095 31.6826 65.7508 28.8693 63.2655C28.2519 62.7215 27.6626 62.1255 27.2773 61.3988C26.8879 60.6628 26.7279 59.8295 26.5733 59.0108C26.5186 58.7228 26.4653 58.4215 26.5466 58.1388" fill="#647FA0"/>
<path d="M93.9704 51.2349C93.1558 48.1042 91.5504 45.1228 88.4744 43.7508C86.1264 42.7015 83.4611 42.4495 80.9304 42.2082C78.5344 41.9802 76.1291 41.8109 73.7211 41.6989C73.8185 41.5575 73.9144 41.4149 74.0024 41.2682C74.7784 39.9776 75.7771 37.6962 74.9118 36.2588C74.8971 36.1868 74.8518 36.1202 74.7638 36.0775C73.4144 35.4202 72.0398 36.2055 71.0384 37.3109C71.5224 35.1375 71.4198 32.5949 68.8251 32.1935C66.0958 31.7722 64.5945 34.9295 63.9758 37.4082C63.6025 36.0109 62.9438 34.3215 61.7425 34.1189C60.1598 33.8495 59.1424 35.7735 58.9291 37.0442C58.6651 38.6042 59.1665 40.2509 59.8785 41.6909C56.8078 41.8322 53.7371 42.0815 50.7118 42.4829C48.0998 42.8282 45.2905 43.4015 43.3131 45.2668C40.8571 47.5815 39.9318 51.1175 39.6318 54.3642C38.8704 62.6228 41.2931 70.6655 44.4425 78.1988C46.0518 82.0455 48.0158 85.7615 49.5251 89.6482C50.8305 93.0055 51.3971 96.6469 53.1225 99.8402C54.2745 101.972 56.1838 104.752 58.6518 105.428C61.0718 106.094 63.7491 106.468 66.2545 106.578C69.0118 106.696 71.8051 106.182 74.4971 105.631C76.7918 105.162 78.2091 103.791 79.6291 101.923C82.2104 98.5242 83.0171 94.3722 84.2945 90.3962C85.7038 86.0108 87.9278 81.8909 89.7185 77.6549C93.1971 69.4295 95.9851 60.2095 93.9704 51.2349" fill="#96CBEB"/>
<path d="M84.8813 75.6562C86.4387 75.6562 87.9294 74.2882 87.8574 72.6802C87.784 71.0682 86.5493 69.7056 84.8813 69.7056C83.3253 69.7056 81.8333 71.0736 81.9053 72.6802C81.9773 74.2922 83.2133 75.6562 84.8813 75.6562Z" fill="#35208A"/>
<path d="M49.2199 75.6562C50.7773 75.6562 52.2693 74.2882 52.1973 72.6802C52.1239 71.0682 50.8879 69.7056 49.2199 69.7056C47.6639 69.7056 46.1719 71.0736 46.2453 72.6802C46.3173 74.2922 47.5519 75.6562 49.2199 75.6562Z" fill="#35208A"/>
<path d="M53.5786 98.4856C55.044 92.4749 62.4933 89.9936 68.0293 89.9816C73.228 89.9696 80.636 92.3936 80.448 98.7496C80.4347 99.2176 81.1626 99.2163 81.176 98.7496C81.364 92.2163 74.1 89.4283 68.6213 89.2749C62.8053 89.1136 54.248 91.7469 52.9733 98.3189C52.896 98.7123 53.4826 98.8829 53.5786 98.4856Z" fill="#35208A"/>
<path d="M59.2305 96.8069C59.9612 97.1495 60.7079 97.3789 61.3385 97.9069C61.5159 98.0549 61.9506 98.3669 61.9239 98.6135C61.8919 98.8962 61.3399 99.2242 61.1399 99.3829C60.3239 100.027 61.3946 101.422 62.2572 100.83C63.3919 100.051 64.3159 98.7135 63.3719 97.4042C62.5679 96.2909 61.0159 95.3655 59.6359 95.3149C58.8719 95.2855 58.5025 96.4655 59.2305 96.8069Z" fill="#35208A"/>
<path d="M74.4477 95.3148C73.0677 95.3654 71.517 96.2894 70.713 97.4041C69.7677 98.7148 70.6917 100.049 71.8277 100.829C72.6784 101.415 73.7703 100.033 72.9437 99.3828C72.7503 99.2294 72.2743 98.9494 72.205 98.6854C72.121 98.3694 72.5037 98.1068 72.745 97.9068C73.377 97.3788 74.121 97.1494 74.853 96.8068C75.5797 96.4654 75.213 95.2854 74.4477 95.3148Z" fill="#35208A"/>
<path d="M112.829 43.2696C111.053 37.7389 105.549 34.5869 103.149 29.4122C103.079 29.2615 102.82 29.2976 102.788 29.4589C102.523 30.8376 102.285 32.2309 102.419 33.6389C102.564 35.1749 103.201 36.5815 103.791 37.9895C104.173 38.9042 104.599 39.8082 104.94 40.7416C105.14 41.2896 105.367 41.8909 105.371 42.4802C105.38 43.9562 103.724 44.3896 102.48 44.4922C100.792 44.6322 98.8668 44.1016 97.1708 43.9416C95.0401 43.7402 92.9014 43.4749 90.7654 43.3496C88.6014 43.2216 85.4974 42.9536 83.6334 44.3376C80.0228 47.0163 81.7788 53.5056 84.9708 55.7802C86.7028 57.0162 89.1401 56.2322 91.0095 55.8216C94.5161 55.0496 98.0988 54.6122 101.612 53.8496C104.979 53.1176 108.113 52.3415 110.837 50.1149C113.077 48.2855 113.539 45.9882 112.829 43.2696" fill="white"/>
<path d="M45.8828 43.3122C42.1028 43.2256 38.2069 43.735 34.4602 44.2163C32.7375 44.4376 28.2868 45.0963 28.7628 42.1389C28.9562 40.9296 29.5562 39.7736 30.0295 38.6589C30.6428 37.2096 31.3668 35.7483 31.6135 34.183C31.8642 32.5936 31.6148 31.0216 31.3135 29.4589C31.2815 29.2989 31.0228 29.2602 30.9522 29.4122C28.5522 34.5869 23.0482 37.7389 21.2735 43.2696C20.6735 45.5629 20.8162 47.7683 22.5815 49.5149C24.6122 51.5256 27.2922 52.647 30.0255 53.291C33.6762 54.1523 37.3602 54.8603 41.0655 55.4483C43.2468 55.7949 45.8082 56.875 48.0242 56.287C49.7895 55.819 51.1602 53.6696 51.8095 52.0683C52.6842 49.9096 52.7135 47.4643 51.4468 45.4443C50.2388 43.5123 47.9628 43.3602 45.8828 43.3122Z" fill="white"/>
<path d="M104.691 46.1829C105.732 46.0136 106.459 44.0843 105.819 43.263C105.687 43.0936 105.396 43.1989 105.349 43.3869C105.241 43.8283 105.377 44.2696 105.216 44.7229C105.053 45.1749 104.699 45.4883 104.479 45.9056C104.396 46.0603 104.531 46.2083 104.691 46.1829" fill="#35208A"/>
<path d="M29.6228 45.9056C29.4028 45.4883 29.0495 45.1749 28.8868 44.7229C28.7255 44.2696 28.8615 43.8283 28.7521 43.3869C28.7068 43.1989 28.4161 43.0936 28.2828 43.263C27.6428 44.0843 28.3708 46.0136 29.4108 46.1829C29.5708 46.2083 29.7055 46.0603 29.6228 45.9056" fill="#35208A"/>
<path d="M60.5798 102.315C63.4118 106.284 71.0345 106.291 73.9251 102.395C74.0905 102.171 73.7691 101.872 73.5478 102.018C71.5105 103.359 69.7865 104.546 67.2225 104.558C64.6611 104.568 62.9305 103.323 60.9065 101.988C60.7145 101.862 60.4411 102.12 60.5798 102.315" fill="#35208A"/>
<path d="M54.9679 48.1336C55.4305 48.7576 55.9879 49.2842 56.3799 49.9642C56.8185 50.7216 56.9866 51.5056 57.2266 52.3322C57.3252 52.6669 57.8692 52.6162 57.8506 52.2482C57.7746 50.6816 56.6252 48.6082 55.1612 47.9416C55.0492 47.8909 54.8759 48.0082 54.9679 48.1336" fill="#35208A"/>
<path d="M58.4307 49.5644C58.3027 50.4244 58.9947 51.2764 59.1987 52.1204C59.4267 53.0631 59.1747 54.2604 59.6014 55.1084C59.6681 55.2417 59.8427 55.2097 59.9174 55.1084C60.4974 54.3084 60.1134 52.8284 59.8814 51.9324C59.6761 51.1444 59.3734 49.8137 58.5374 49.5044C58.4974 49.4897 58.4374 49.5204 58.4307 49.5644Z" fill="#35208A"/>
<path d="M79.9427 54.8775C78.6334 56.7988 78.3067 60.0602 79.5014 62.1095C79.6667 62.3935 80.0561 62.1935 80.0054 61.8975C79.8027 60.7295 79.4788 59.6442 79.5494 58.4442C79.6188 57.2468 80.0254 56.1962 80.4347 55.0842C80.5441 54.7842 80.1054 54.6415 79.9427 54.8775" fill="#35208A"/>
<path d="M81.265 59.9962C80.4997 60.9762 80.4837 63.5402 81.405 64.4322C81.5637 64.5856 81.8064 64.4683 81.821 64.2603C81.8664 63.5829 81.5277 62.9042 81.4944 62.2136C81.461 61.5136 81.6704 60.8242 81.605 60.1362C81.5904 59.9882 81.3837 59.8442 81.265 59.9962Z" fill="#35208A"/>
<path d="M86.0536 86.3562C83.8323 86.3562 81.7056 84.4029 81.8083 82.1109C81.9109 79.8109 83.6736 77.8655 86.0536 77.8655C88.2749 77.8655 90.4016 79.8175 90.2989 82.1109C90.1963 84.4109 88.4349 86.3562 86.0536 86.3562Z" fill="#E0435B"/>
<path d="M48.1255 86.3562C45.9041 86.3562 43.7761 84.4029 43.8801 82.1109C43.9828 79.8109 45.7455 77.8655 48.1255 77.8655C50.3455 77.8655 52.4735 79.8175 52.3708 82.1109C52.2681 84.4109 50.5055 86.3562 48.1255 86.3562Z" fill="#E0435B"/>
<path d="M113.978 100.759C113.981 100.688 113.956 100.636 113.914 100.601C113.517 99.8521 112.08 99.7055 111.36 99.5628C110.182 99.3295 108.992 99.1908 107.802 99.0348C107.608 99.0095 107.413 98.9775 107.218 98.9535C107.14 98.9428 107.001 98.8761 107.017 98.9121C106.852 98.7148 106.748 98.2948 106.658 98.0868C106.164 96.9402 105.69 95.7841 105.189 94.6401C104.936 94.0588 104.676 93.4801 104.401 92.9095C104.232 92.5575 104.037 91.8988 103.646 91.7281C102.78 91.3481 102.173 93.4908 101.941 94.0095C101.389 95.2441 100.873 96.4948 100.337 97.7375C100.224 97.9988 100.037 98.7481 99.8011 98.9281C99.6877 99.0135 98.8771 98.9695 98.6691 98.9855C98.1411 99.0282 97.6131 99.0695 97.0851 99.1188C96.1851 99.2028 95.2704 99.2881 94.3997 99.5455C93.8771 99.7015 92.9397 99.9521 93.0211 100.679C93.0877 101.273 94.0024 101.837 94.4144 102.164C95.1171 102.724 95.8664 103.227 96.6464 103.675C96.9997 103.876 97.4531 104.027 97.7744 104.271C98.1944 104.588 97.9931 104.92 97.8797 105.349C97.6397 106.253 97.3984 107.157 97.1771 108.067C96.9971 108.807 96.8251 109.551 96.7104 110.304C96.6397 110.763 96.4651 111.431 96.6731 111.872C97.2184 113.031 99.3091 111.003 99.8144 110.615C100.446 110.125 101.068 109.621 101.673 109.101C101.972 108.845 102.266 108.585 102.554 108.32C102.718 108.172 103.133 107.601 103.342 107.567C103.684 107.511 104.6 108.621 104.877 108.86C105.504 109.399 106.149 109.916 106.802 110.424C107.694 111.116 108.67 112.041 109.849 112.147C110.878 112.237 110.386 110.681 110.25 110.068C109.925 108.605 109.449 107.175 109.014 105.741C108.922 105.432 108.801 105.116 108.734 104.8C108.664 104.453 108.676 104.477 108.968 104.3C109.536 103.957 110.225 103.745 110.821 103.447C111.774 102.965 113.688 102.096 113.956 100.901C113.98 100.863 113.989 100.815 113.978 100.759" fill="#F7B9E7"/>
<path d="M53.9091 20.375C52.2931 20.2337 50.6451 20.2524 49.0078 20.271C49.4705 19.8137 49.9345 19.3563 50.3918 18.895C51.1118 18.1723 51.9265 17.4804 52.3958 16.5657C52.6078 16.1537 52.1865 15.7497 51.7785 15.9497C50.8571 16.4017 50.1491 17.2096 49.4131 17.915C48.9371 18.3736 48.4625 18.835 47.9918 19.2977C47.9958 18.6323 47.9985 17.967 47.9971 17.303C47.9958 16.2803 48.0811 15.2137 47.7651 14.2324C47.6251 13.8004 47.0411 13.811 46.8958 14.2324C46.5638 15.207 46.6331 16.2817 46.6118 17.303C46.5998 17.963 46.5918 18.6243 46.5838 19.2843C46.1171 18.811 45.6491 18.339 45.1785 17.8697C44.4558 17.1497 43.7638 16.3364 42.8478 15.8657C42.4371 15.655 42.0331 16.0763 42.2318 16.483C42.6851 17.4043 43.4931 18.1137 44.1985 18.8497C44.6571 19.3257 45.1171 19.799 45.5811 20.271C44.9158 20.267 44.2505 20.263 43.5851 20.2643C42.5638 20.267 41.4971 20.1804 40.5158 20.4964C40.0838 20.6364 40.0945 21.2217 40.5158 21.3657C41.4905 21.6977 42.5638 21.6283 43.5851 21.6497C44.2318 21.663 44.8785 21.671 45.5252 21.6777C44.3305 22.8057 43.1291 23.939 42.0625 25.1657C41.4905 25.8244 42.3518 26.6723 43.0145 26.1163C44.2451 25.0843 45.3865 23.9177 46.5225 22.7577C46.4758 24.383 46.4291 26.019 46.5425 27.6257C46.6038 28.495 47.8118 28.487 47.8865 27.6257C48.0278 26.0257 48.0092 24.3937 47.9932 22.7697C49.1092 23.9537 50.2331 25.1417 51.4478 26.199C52.1078 26.771 52.9545 25.9096 52.3998 25.2483C51.3678 24.0163 50.2011 22.875 49.0411 21.7404C50.6665 21.787 52.3025 21.8336 53.9091 21.7203C54.7785 21.659 54.7705 20.451 53.9091 20.375" fill="white"/>
<path d="M74.5841 17.9562C74.7014 17.9669 74.8201 17.9775 74.9387 17.9868C75.2867 18.0175 75.7694 17.8002 76.0014 17.5469C76.2587 17.2669 76.4774 16.8749 76.4427 16.4829C76.4334 16.3629 76.4227 16.2456 76.4121 16.1269C76.3854 15.7976 76.3187 15.4989 76.1641 15.2042C75.9801 14.8576 75.6401 14.6042 75.2881 14.4562C74.6401 14.1829 73.7854 14.2935 73.2894 14.8335C72.8534 15.3082 72.6454 15.9789 72.8201 16.6135C72.9267 16.9989 73.1641 17.3229 73.4747 17.5629C73.8147 17.8256 74.1534 17.9202 74.5841 17.9562" fill="white"/>
<path d="M83.0705 31.5081C83.2492 31.0415 83.3065 30.5535 83.1425 30.0655C83.0132 29.6855 82.7705 29.2975 82.4012 29.1028C82.0292 28.9068 81.5745 28.8055 81.1612 28.9415C80.8039 29.0588 80.4892 29.2135 80.2185 29.4775C80.0332 29.6561 79.8959 29.8921 79.7585 30.1108C79.4972 30.5268 79.4692 31.0415 79.5759 31.5081C79.6999 32.0521 80.1279 32.4721 80.6252 32.6828C81.0919 32.8801 81.5532 32.8801 82.0212 32.6828C82.2465 32.6095 82.4412 32.4841 82.6052 32.3081C82.8305 32.0815 82.9852 31.8148 83.0705 31.5081" fill="white"/>
<path d="M103.317 25.3804C103.778 25.3804 104.265 25.1804 104.593 24.8524C104.905 24.539 105.141 24.0257 105.12 23.5764C105.1 23.1097 104.946 22.6257 104.593 22.3017C104.238 21.9777 103.805 21.7724 103.317 21.7724C102.854 21.7724 102.368 21.9737 102.041 22.3017C101.728 22.6137 101.493 23.1271 101.512 23.5764C101.533 24.0431 101.686 24.527 102.041 24.8524C102.393 25.1764 102.828 25.3804 103.317 25.3804Z" fill="white"/>
<path d="M114.105 66.2389C114.121 66.2816 114.137 66.3243 114.155 66.3669C114.284 66.7109 114.443 66.9869 114.74 67.2176C115.016 67.4309 115.375 67.5856 115.732 67.5683C116.023 67.5563 116.301 67.4816 116.557 67.3456C116.945 67.1403 117.163 66.7576 117.311 66.3669C117.328 66.3243 117.343 66.2816 117.36 66.2389C117.561 65.7083 117.332 64.9696 116.927 64.5963C116.596 64.2936 116.189 64.1016 115.732 64.1016C115.3 64.1016 114.844 64.2896 114.539 64.5963C114.144 64.9909 113.896 65.6909 114.105 66.2389Z" fill="white"/>
<path d="M99.3625 85.3657C99.7798 85.3657 100.22 85.1831 100.516 84.8871C100.8 84.6044 101.012 84.1404 100.995 83.7337C100.976 83.3124 100.836 82.8737 100.516 82.5804C100.197 82.2871 99.8051 82.1017 99.3625 82.1017C98.9438 82.1017 98.5038 82.2844 98.2092 82.5804C97.9252 82.8631 97.7132 83.3271 97.7305 83.7337C97.7492 84.1551 97.8878 84.5937 98.2092 84.8871C98.5278 85.1804 98.9198 85.3657 99.3625 85.3657Z" fill="white"/>
<path d="M80.26 113.625C82.2987 113.625 82.3027 110.455 80.26 110.455C78.2187 110.455 78.216 113.625 80.26 113.625Z" fill="white"/>
<path d="M62.8773 129.37C65.092 129.37 65.096 125.928 62.8773 125.928C60.6627 125.928 60.66 129.37 62.8773 129.37Z" fill="white"/>
<path d="M50.4614 114.758C52.7627 114.758 52.7667 111.182 50.4614 111.182C48.1614 111.182 48.1574 114.758 50.4614 114.758Z" fill="white"/>
<path d="M25.2746 104.436C25.7252 104.436 26.1986 104.24 26.5159 103.923C26.8212 103.619 27.0505 103.119 27.0305 102.682C26.9879 101.732 26.2599 100.928 25.2746 100.928C24.8266 100.928 24.3532 101.123 24.0359 101.442C23.7305 101.746 23.5012 102.246 23.5212 102.682C23.5639 103.632 24.2919 104.436 25.2746 104.436Z" fill="white"/>
<path d="M37.6908 85.1975C37.9535 85.1775 38.2241 85.1656 38.4748 85.0816C39.1268 84.8642 39.6922 84.2562 39.6602 83.5269C39.6255 82.7882 39.1748 82.2055 38.4748 81.9709C38.2228 81.8869 37.9548 81.8749 37.6908 81.8549C37.2828 81.8242 36.7908 82.0642 36.5095 82.3442C36.2188 82.6349 36.0015 83.1096 36.0202 83.5269C36.0402 83.9589 36.1815 84.4069 36.5095 84.7082C36.8228 84.9949 37.2522 85.2309 37.6908 85.1975" fill="white"/>
<path d="M16.2347 72.395C16.2454 72.3217 16.2547 72.2483 16.2641 72.175C16.5281 70.0817 12.7387 70.0777 13.004 72.175C13.0134 72.2483 13.0227 72.3217 13.0321 72.395C13.2907 74.4497 15.9761 74.4537 16.2347 72.395Z" fill="white"/>
<path d="M16.7629 42.4963C17.0002 42.5136 17.2135 42.459 17.4282 42.3696C17.6362 42.2816 17.7869 42.1576 17.9642 42.019C18.2335 41.8083 18.4175 41.2869 18.4029 40.9589C18.3855 40.5909 18.2695 40.1363 17.9642 39.899C17.7815 39.7577 17.6362 39.6363 17.4282 39.5483C17.2202 39.4616 16.9895 39.4043 16.7629 39.4203C16.3509 39.4496 15.9735 39.5723 15.6749 39.871C15.4082 40.1377 15.2069 40.5749 15.2242 40.9589C15.2415 41.3563 15.3735 41.7683 15.6749 42.047C15.9882 42.3336 16.3375 42.467 16.7629 42.4963Z" fill="white"/>
<path d="M93.3853 122.832C95.5773 122.832 95.5813 119.424 93.3853 119.424C91.1906 119.424 91.1866 122.832 93.3853 122.832Z" fill="#FFF896"/>
<path d="M118.996 85.4722C119.404 85.4722 119.832 85.2948 120.12 85.0068C120.396 84.7308 120.605 84.2775 120.586 83.8815C120.548 83.0188 119.886 82.2895 118.996 82.2895C118.588 82.2895 118.16 82.4682 117.87 82.7562C117.596 83.0322 117.386 83.4842 117.405 83.8815C117.442 84.7428 118.104 85.4722 118.996 85.4722Z" fill="#FFF896"/>
<path d="M88.7731 17.1523C89.4944 17.1523 90.1851 16.5177 90.1531 15.7723C90.1184 15.0257 89.5464 14.3923 88.7731 14.3923C88.0518 14.3923 87.3584 15.027 87.3918 15.7723C87.4264 16.5203 87.9984 17.1523 88.7731 17.1523Z" fill="#FFF896"/>
<path d="M34.853 115.414C36.629 115.414 36.6317 112.654 34.853 112.654C33.077 112.654 33.0744 115.414 34.853 115.414Z" fill="#FFF896"/>
<path d="M17.5348 84.7483C17.6121 84.599 17.6948 84.4497 17.7388 84.2883C17.8574 83.8563 17.7668 83.4657 17.5681 83.079C17.2081 82.371 16.3574 82.0164 15.5961 82.2257C14.5281 82.5204 14.0121 83.795 14.5708 84.7483C14.8761 85.2697 15.4468 85.5977 16.0521 85.5977C16.6348 85.5977 17.2601 85.2763 17.5348 84.7483" fill="#FFF896"/>
</svg>
