<svg width="135" height="135" viewBox="0 0 135 135" fill="none" xmlns="http://www.w3.org/2000/svg">
<path d="M134.089 67.956C134.089 104.984 104.072 135 67.0453 135C30.0173 135 0 104.984 0 67.956C0 30.928 30.0173 0.91067 67.0453 0.91067C104.072 0.91067 134.089 30.928 134.089 67.956Z" fill="#35208A"/>
<path d="M101.153 96.6332C101.136 96.5865 101.112 96.5385 101.081 96.4919C101.055 96.4425 101.025 96.3999 100.993 96.3639C97.3066 90.8799 90.0493 91.9265 84.4346 90.1705C84.4706 85.8105 84.7133 81.4612 85.1639 77.1252C85.2119 76.6785 84.7079 76.3959 84.3293 76.4866C78.6773 77.8399 73.0266 79.1932 67.3773 80.5466C67.1039 80.6106 66.8826 80.9012 66.8906 81.1839C66.96 83.3359 66.8759 85.4812 66.5759 87.6146C66.2279 90.0892 65.9826 92.9052 63.2786 93.8305C59.4333 95.1492 55.3839 95.5732 51.4106 96.3226C48.3226 96.9039 44.82 97.9119 42.928 100.639C40.9426 103.496 42.3706 106.223 44.8493 108.136C47.6133 110.269 51.0439 111.309 54.4159 112.013C58.6266 112.893 62.9346 113.256 67.2266 113.411C75.3413 113.703 84.1653 114.019 92.028 111.652C95.464 110.617 98.8199 108.747 100.679 105.568C102.287 102.817 102.649 99.4879 101.153 96.6332" fill="#FFB07F"/>
<path d="M90.9489 51.8878C89.0542 42.8624 85.3809 32.5651 75.9876 29.0358C67.3063 25.7718 56.4089 28.3571 48.9969 33.4558C44.7929 36.3491 40.9969 40.4038 39.6556 45.4451C38.0129 51.6104 40.9903 56.6171 44.0516 61.7371C47.5516 67.5878 49.1196 74.9918 54.2476 79.7784C58.5036 83.7531 64.5249 84.9424 70.1116 85.6584C73.8169 86.1317 76.8236 85.7491 79.8929 83.5384C83.0409 81.2731 84.7703 78.4304 86.5223 75.0264C90.2183 67.8517 92.5076 59.9664 90.9489 51.8878" fill="#FFB07F"/>
<path d="M66.56 84.5373C68.3893 85.2653 70.4986 85.9226 72.4679 86.1066C74.1759 86.268 75.6573 85.6906 77.1413 84.9026C79.984 83.3946 82.6799 81.4626 84.3413 78.648C84.5719 78.2573 83.9759 77.912 83.7359 78.2946C82.1426 80.8253 79.7559 82.608 77.1706 84.0413C75.3959 85.024 73.7746 85.6093 71.7293 85.2493C70.0319 84.9493 68.3906 84.3706 66.716 83.98C66.344 83.892 66.22 84.4013 66.56 84.5373" fill="#FA8D61"/>
<path d="M56.2611 96.1946C58.5544 97.7133 61.6118 98.6293 64.2918 99.1506C65.7558 99.436 67.3171 99.4573 68.7184 100.003C70.8624 100.837 70.9024 102.448 71.6438 104.3C71.7158 104.479 72.0424 104.547 72.0798 104.3C72.4904 101.607 70.5891 99.6653 68.1331 99.0373C66.1984 98.5413 64.1944 98.452 62.2611 97.9093C60.2758 97.3506 58.3611 96.3973 56.3371 96.012C56.2264 95.992 56.1638 96.1306 56.2611 96.1946Z" fill="#FA8D61"/>
<path d="M93.4826 96.0905C91.5773 96.4919 89.712 97.3145 87.8386 97.8679C85.936 98.4292 84.0093 98.9119 82.0893 99.4145C81.0133 99.6959 79.484 99.8132 78.7213 100.717C77.952 101.631 77.7387 103.223 77.8267 104.361C77.848 104.641 78.2133 104.691 78.3106 104.427C78.5866 103.672 78.6013 102.836 78.8986 102.097C79.432 100.775 79.8786 100.791 81.0066 100.467C82.4906 100.039 83.9933 99.6772 85.4813 99.2638C88.1333 98.5252 91.268 97.8358 93.5253 96.1945C93.576 96.1572 93.548 96.0772 93.4826 96.0905" fill="#FA8D61"/>
<path d="M52.1026 59.4944C52.1906 62.1651 55.8226 66.5917 58.8239 65.5117C62.7466 64.0997 60.9746 58.6758 59.5399 56.1238C59.2932 55.6851 58.6172 56.0784 58.8652 56.5184C59.5132 57.6718 60.0479 58.9024 60.3012 60.2077C60.6826 62.1651 60.0266 65.3544 57.2852 64.8437C54.6052 64.3437 53.8519 61.1237 52.2266 59.4424C52.1839 59.3984 52.1012 59.4317 52.1026 59.4944Z" fill="#35208A"/>
<path d="M57.8878 67.4691C58.1811 66.8864 58.2544 66.1904 58.1691 65.5411C58.1104 65.0784 57.3904 65.0491 57.4224 65.5411C57.4584 66.1477 57.3838 66.7157 57.3131 67.3131C57.2758 67.6197 57.7571 67.7331 57.8878 67.4691Z" fill="#35208A"/>
<path d="M60.2746 67.3119C60.2973 66.8959 60.1893 66.4546 60.0919 66.0519C60.0053 65.6893 59.9479 65.2039 59.6413 64.9639C59.4786 64.8359 59.2013 64.8546 59.1466 65.0946C59.0613 65.4692 59.2559 65.8119 59.3519 66.1746C59.4599 66.5772 59.4986 67.0039 59.6253 67.3999C59.7386 67.7612 60.2546 67.6866 60.2746 67.3119" fill="#35208A"/>
<path d="M75.2919 50.6359C75.4052 53.0012 77.2559 55.7999 75.7132 58.1039C74.4399 60.0052 72.0372 59.0066 70.8372 57.6972C69.7612 56.5212 69.0866 54.9759 68.6159 53.4786C68.4666 52.9999 67.7119 53.2052 67.8626 53.6866C68.7319 56.4532 71.4626 61.5159 75.1892 59.6039C78.0346 58.1439 77.3079 52.4826 75.4172 50.5839C75.3746 50.5412 75.2879 50.5719 75.2919 50.6359" fill="#35208A"/>
<path d="M77.4891 59.6934C77.3957 59.6254 77.3304 59.5481 77.2251 59.4867C77.0904 59.4081 76.9584 59.3214 76.833 59.2254C76.5944 59.0427 76.3931 58.8254 76.1851 58.608C75.8424 58.252 75.3651 58.7694 75.6571 59.1374C75.8611 59.396 76.1184 59.6134 76.3824 59.812C76.5077 59.9067 76.637 59.9947 76.773 60.076C76.941 60.1774 77.0637 60.204 77.2504 60.2587C77.6077 60.3627 77.7557 59.8894 77.4891 59.6934" fill="#35208A"/>
<path d="M76.0266 61.4841C75.8026 61.1414 75.552 60.8174 75.3346 60.4694C75.1533 60.1788 75.0093 59.7001 74.6813 59.5574C74.5173 59.4854 74.2933 59.5294 74.2466 59.7348C74.1546 60.1414 74.476 60.5188 74.6893 60.8481C74.9306 61.2174 75.1866 61.5788 75.5066 61.8854C75.7693 62.1374 76.2373 61.8081 76.0266 61.4841" fill="#35208A"/>
<path d="M63.792 62.449C64.3467 63.9117 64.7067 65.3824 64.6867 66.961C64.6773 67.741 64.0707 69.1904 64.5733 69.8917C65.448 71.1117 68.464 70.2944 69.492 69.7264C69.808 69.5517 69.5933 69.0584 69.248 69.1504C68.4133 69.3704 67.1867 69.9037 66.3267 69.6424C64.816 69.185 65.46 67.7424 65.4427 66.6984C65.4173 65.1304 65.068 63.6104 64.44 62.177C64.28 61.813 63.6507 62.0744 63.792 62.449" fill="#35208A"/>
<path d="M63.5838 74.8921C65.7545 76.5121 70.2465 76.4655 72.6371 75.3415C74.6665 74.3868 76.6745 71.8535 77.1745 69.6801C77.2291 69.4401 76.9185 69.2148 76.7358 69.4242C75.2345 71.1428 74.6971 73.3801 72.5078 74.5308C69.5651 76.0775 66.6451 74.6628 63.6345 74.7041C63.5265 74.7055 63.5065 74.8348 63.5838 74.8921Z" fill="#35208A"/>
<path d="M82.9677 68.9131C85.9144 68.9131 88.7357 66.3224 88.601 63.2811C88.4637 60.2304 86.125 57.6491 82.9677 57.6491C80.0224 57.6491 77.201 60.2398 77.3357 63.2811C77.473 66.3318 79.8117 68.9131 82.9677 68.9131Z" fill="#E0435B"/>
<path d="M56.9289 78.793C59.5129 78.793 61.9889 76.521 61.8689 73.853C61.7489 71.177 59.6983 68.913 56.9289 68.913C54.3449 68.913 51.8703 71.185 51.989 73.853C52.109 76.529 54.1596 78.793 56.9289 78.793Z" fill="#E0435B"/>
<path d="M100.037 66.4761C99.1291 64.7801 99.6998 63.6735 100.268 61.9841C100.641 60.8695 100.944 59.7001 100.985 58.5188C101.062 56.1681 99.7918 54.1175 98.5638 52.2081C95.9424 48.1308 94.7264 43.4388 91.9971 39.3775C89.2211 35.2495 85.7545 31.8428 81.8251 28.8254C78.4705 26.2494 75.0011 23.7001 70.7918 22.7775C66.2211 21.7748 61.0264 22.2255 57.4291 25.4548C53.0024 24.4135 46.5545 27.6588 43.4251 29.8535C37.7718 33.8188 33.8305 39.8628 32.5225 46.6481C31.7998 50.4028 31.8451 54.3335 31.7118 58.1441C31.5718 62.0801 31.5531 66.0455 32.1851 69.9441C32.7518 73.4375 33.9171 76.8708 35.9865 79.7708C37.0745 81.2961 38.3745 82.5841 39.7945 83.7988C40.5718 84.4654 41.3691 85.1094 42.1225 85.8028C42.5705 86.2134 43.0291 86.6361 43.4265 87.1001C44.3705 88.2028 43.8944 89.2401 43.2678 90.3148C41.6784 93.0308 41.0291 96.6214 42.7851 99.4361C43.6345 100.792 44.9664 101.677 46.3998 102.323C48.1331 103.101 50.3824 103.42 51.8758 104.619C52.3078 104.968 53.0891 105.151 52.7265 106.08C52.5811 106.453 51.9425 106.8 51.6865 107.119C51.3651 107.519 51.0878 107.973 51.0811 108.503C51.0611 110.029 52.7318 110.609 53.9851 110.663C56.1931 110.757 58.4104 109.828 60.3291 108.835C62.2478 107.841 64.2825 106.705 65.6505 104.985C66.8771 103.441 67.4705 101.472 66.8571 99.5495C66.5665 98.6401 65.9971 97.8508 65.5825 97.0001C64.9011 95.6054 64.9584 94.3135 65.4718 92.8855C66.2584 90.6988 67.5104 88.7828 67.2424 86.3614C67.0144 84.2988 65.8971 82.5054 64.4225 81.0934C63.0411 79.9268 61.4891 79.0868 59.7731 78.5215C57.8771 77.8988 55.5558 77.8788 53.8238 76.8201C49.9118 74.4295 56.0865 69.7841 53.5851 66.4934C53.0505 65.7908 52.2518 65.5761 51.5505 65.1028C50.7185 64.5428 50.2304 63.7988 49.9984 62.8308C49.4478 60.5414 50.5105 58.2881 52.0211 56.6321C54.7678 53.6228 58.3118 51.7268 60.4931 48.1628C62.2931 45.2214 63.2758 41.7708 63.3331 38.3215C65.8624 41.4041 69.7158 44.1068 73.6464 43.5361C73.5984 47.6681 74.1624 52.2255 77.7758 54.7841C78.9144 55.5908 80.1664 56.1775 81.0731 57.2761C82.0904 58.5081 82.6691 60.1175 82.6744 61.7135C82.6851 64.5308 80.7905 66.8361 79.9585 69.4268C79.1211 72.0308 79.8211 74.5095 80.4038 77.0801C81.2318 80.7281 80.5478 83.6748 79.1064 87.0401C78.7784 87.8001 78.5465 88.6481 78.7825 89.4721C79.0518 90.4068 79.5624 90.5228 80.2624 91.0081C82.2624 92.3948 80.9384 93.6081 80.2304 95.2921C79.8278 96.2534 79.6678 97.2214 80.0198 98.2268C80.7891 100.432 83.1264 101.453 85.3291 101.159C87.9038 100.816 89.8185 99.0028 91.4851 97.1428C92.7131 98.4295 94.8291 97.5001 95.9984 96.1535C98.1984 93.6201 99.3865 90.3534 100.154 87.1348C101.714 80.5801 103.173 72.7668 100.037 66.4761" fill="#996666"/>
<path d="M65.7321 30.6024C65.8361 34.225 68.0987 37.597 71.2694 39.3077C73.4321 40.4757 76.1361 40.2864 78.1587 41.6784C80.6414 43.3864 78.8294 46.3184 79.2721 48.7517C80.0987 53.301 84.6654 56.217 86.3574 60.4184C87.4481 63.1304 87.5881 65.9797 86.5014 68.7157C85.6147 70.949 84.2254 72.985 83.8654 75.401C83.1107 80.453 87.4374 87.4343 82.6201 91.3917C82.2441 91.7023 82.7801 92.233 83.1547 91.9263C86.5547 89.1317 85.6441 84.4423 84.9387 80.6663C84.2921 77.2103 84.5867 74.5117 86.1081 71.3583C87.1107 69.2783 88.0521 67.221 88.0481 64.861C88.0387 59.6957 84.6027 56.309 81.8121 52.3957C81.0867 51.3797 80.4121 50.2637 80.1067 49.0424C79.7481 47.617 80.1214 46.3544 80.2747 44.941C80.4721 43.1184 79.7814 41.6957 78.1654 40.7837C75.7041 39.3917 72.7774 39.6504 70.4161 37.9064C67.9961 36.117 66.6281 33.4784 66.1641 30.5437C66.1241 30.297 65.7241 30.357 65.7321 30.6024" fill="#35208A"/>
<path d="M81.7065 37.6067C84.8731 38.1454 86.5972 42.5947 87.0252 45.3867C87.4358 48.0561 86.1851 50.7374 86.8331 53.3347C87.4238 55.696 89.2945 57.464 90.6478 59.3987C92.2931 61.748 93.5811 64.4161 94.0958 67.2534C94.6945 70.5667 93.9411 73.3627 92.2745 76.2214C90.9318 78.5227 90.2145 80.5094 90.5278 83.2054C90.8572 86.0321 91.1625 88.604 90.0825 91.3307C89.5305 92.7227 88.7131 94.0201 87.7011 95.1214C86.7545 96.1521 84.7772 98.1441 83.1852 97.7374C82.7345 97.6214 82.5532 98.2894 82.9945 98.4307C84.6985 98.9707 86.5278 97.3254 87.6865 96.2134C89.1785 94.7854 90.3145 92.9921 90.9932 91.0441C91.7225 88.9481 91.7745 86.848 91.4852 84.6667C91.2625 82.992 90.9558 81.3081 91.4318 79.6441C91.8518 78.1734 92.7905 76.9094 93.5172 75.5827C95.7158 71.5721 95.3318 67.056 93.5318 62.9627C92.5291 60.68 91.0905 58.7401 89.5905 56.7721C88.7518 55.6734 87.9038 54.4987 87.5585 53.1347C87.1745 51.6107 87.7065 50.1054 87.8518 48.5894C88.0958 46.0561 87.5598 43.4534 86.3705 41.2081C85.4251 39.4227 83.9611 37.3414 81.7385 37.368C81.6078 37.3707 81.5665 37.5827 81.7065 37.6067" fill="#35208A"/>
<path d="M92.6108 53.3519C94.8561 56.4879 96.6641 59.4932 96.7734 63.4839C96.8188 65.1865 96.5374 66.8799 96.8401 68.5732C97.1481 70.2932 97.8121 71.9279 98.1174 73.6546C99.4068 80.9532 97.1268 87.8852 92.7281 93.6772C92.4841 93.9999 93.0174 94.4052 93.2868 94.1079C97.9601 88.9785 99.9161 81.3479 99.0148 74.5519C98.7601 72.6279 98.1068 70.8452 97.6908 68.9612C97.2094 66.7679 97.6761 64.5625 97.4414 62.3492C97.0881 59.0319 95.5988 55.2479 92.9401 53.0985C92.7721 52.9625 92.4601 53.1425 92.6108 53.3519Z" fill="#35208A"/>
<path d="M59.4531 33.9375C61.3451 41.8908 54.3558 47.0615 49.3091 51.8615C45.8771 55.1268 40.4798 61.4628 44.2918 66.3361C44.9678 67.2015 45.8211 67.4855 46.6798 68.0988C47.1398 68.4268 47.8718 69.1242 48.0064 69.7108C48.0851 70.0508 47.8344 70.7535 47.7518 71.1442C47.5318 72.1575 47.2571 73.1588 47.0691 74.1788C46.6144 76.6442 46.5651 79.3148 47.9811 81.4948C49.3651 83.6281 51.5651 84.0762 53.9544 84.1895C55.6158 84.2695 57.3171 84.3122 58.7238 85.3135C60.2211 86.3775 61.2291 88.2175 61.3024 90.0575C61.3771 91.9322 60.2238 93.2628 59.7904 94.9908C59.4611 96.3042 59.8838 97.4361 60.4904 98.5935C61.3851 100.293 62.1771 101.816 61.6824 103.792C61.2091 105.685 59.9491 107.081 58.2278 107.943C57.9078 108.104 58.1318 108.655 58.4758 108.531C60.6264 107.759 62.1104 105.787 62.5024 103.549C62.6851 102.512 62.6158 101.452 62.2744 100.456C61.6318 98.5842 59.9558 97.0615 60.5904 94.9308C60.9971 93.5601 61.8691 92.4788 62.0251 91.0202C62.1478 89.8842 61.9518 88.7375 61.5131 87.6855C60.5784 85.4428 58.6331 83.9415 56.2398 83.5948C54.6144 83.3575 52.9158 83.5748 51.3224 83.1188C49.2824 82.5362 48.0811 80.7135 47.6758 78.7148C47.2598 76.6615 47.7238 74.5588 48.1878 72.5548C48.4504 71.4175 49.1051 69.9028 48.5264 68.7628C48.1024 67.9241 47.2184 67.5855 46.4531 67.1308C44.3224 65.8655 43.4971 63.7082 43.9438 61.2775C44.6318 57.5242 47.5878 54.4855 50.2704 51.9828C55.1704 47.4068 62.5904 41.4881 59.9637 33.7975C59.8544 33.4775 59.3744 33.6041 59.4531 33.9375" fill="#35208A"/>
<path d="M42.4998 55.3881C39.4278 58.9588 36.7638 64.2414 38.8358 68.9468C39.2811 69.9588 39.9225 70.6561 40.6545 71.4641C41.7385 72.6614 41.8478 73.3441 41.6918 74.8374C41.6545 75.2041 41.6145 75.5681 41.5985 75.9361C41.4985 78.1521 41.9371 80.4508 42.9971 82.4094C44.1225 84.4854 45.8545 85.7734 48.0011 86.6854C50.7931 87.8734 53.6211 89.2228 53.7731 92.6814C53.8358 94.1588 53.1598 95.5268 53.3145 97.0134C53.4052 97.8841 53.7011 98.7108 54.0291 99.5148C55.0358 101.981 57.5838 106.427 53.5025 107.584C53.1638 107.68 53.2132 108.264 53.5892 108.224C55.3838 108.035 56.4905 106.449 56.5331 104.699C56.5878 102.403 55.0452 100.412 54.3798 98.3054C53.5505 95.6761 55.1158 93.1654 54.0651 90.5348C53.1971 88.3654 51.3665 87.2748 49.2971 86.4014C46.2651 85.1214 43.9758 83.5654 42.9198 80.3028C42.4652 78.8988 42.2905 77.4094 42.3532 75.9361C42.4025 74.8108 42.9278 73.3828 42.4305 72.2881C42.0291 71.4081 41.0718 70.9414 40.4625 70.2188C39.3105 68.8521 38.8305 67.0054 38.8078 65.2481C38.7638 61.5628 40.8945 58.5508 42.6078 55.4708C42.6438 55.4054 42.5518 55.3268 42.4998 55.3881" fill="#35208A"/>
<path d="M46.4601 92.8852C45.1281 93.9358 45.2427 96.0731 45.7134 97.5411C46.3081 99.3985 47.6134 100.885 49.2627 101.892C49.6707 102.142 50.0387 101.506 49.6361 101.252C48.1614 100.313 46.9707 99.0372 46.4121 97.3478C45.8867 95.7598 46.3 94.5171 46.6014 92.9678C46.6174 92.8798 46.5267 92.8332 46.4601 92.8852" fill="#35208A"/>
<path d="M79.321 41.4655C79.4237 41.1761 79.2543 40.8548 79.0783 40.6295C78.937 40.4455 78.7396 40.2868 78.501 40.2548C78.2476 40.2188 77.997 40.3402 77.8223 40.5188C77.465 40.8855 77.433 41.4028 77.301 41.8721C77.2996 41.8721 77.2983 41.8721 77.297 41.8721C77.3543 41.4895 77.349 41.0962 77.3063 40.7122C77.285 40.5362 77.2597 40.3575 77.2157 40.1855C77.169 40.0055 77.0063 39.8828 76.8237 39.8802C76.6503 39.8788 76.4703 39.9108 76.3103 39.9775C76.1437 40.0482 76.0316 40.1548 75.9316 40.3015C75.7076 40.6308 75.929 41.0522 76.1597 41.3108C76.309 41.4762 76.4797 41.6068 76.653 41.7468C76.6717 41.7628 76.6917 41.7775 76.713 41.7935C76.5637 41.7148 76.4103 41.6455 76.257 41.5855C75.9557 41.4668 75.6103 41.4228 75.2983 41.5281C75.1663 41.5721 75.041 41.6468 74.9663 41.7681C74.8903 41.8908 74.8637 42.0548 74.8743 42.1988C74.8943 42.4881 75.1183 42.6815 75.3837 42.7628C75.7077 42.8615 76.0583 42.8095 76.369 42.6855C76.465 42.6455 76.5583 42.6002 76.649 42.5495C76.533 42.6562 76.4237 42.7682 76.321 42.8868C76.209 43.0148 76.1037 43.1508 76.0103 43.2921C75.9183 43.4335 75.857 43.5815 75.8676 43.7522C75.8876 44.1002 76.1423 44.3335 76.4517 44.4535C76.7463 44.5668 77.1023 44.5468 77.3397 44.3215C77.585 44.0908 77.5783 43.7322 77.5517 43.4215C77.533 43.2028 77.5037 42.9828 77.4557 42.7695C77.4837 42.8268 77.5103 42.8841 77.541 42.9415C77.737 43.3108 78.0423 43.7162 78.461 43.8428C79.1077 44.0375 79.5343 43.0321 79.117 42.5935C78.969 42.4388 78.761 42.3322 78.5636 42.2522C78.3023 42.1455 78.0223 42.0908 77.741 42.0842C77.9863 42.0428 78.229 41.9961 78.4717 41.9415C78.7877 41.8708 79.181 41.8001 79.321 41.4655" fill="white"/>
<path d="M69.0359 47.1691C69.1399 46.8798 68.9706 46.5584 68.7946 46.3331C68.6519 46.1491 68.4546 45.9918 68.2186 45.9584C67.9626 45.9224 67.7145 46.0438 67.5385 46.2238C67.1812 46.5891 67.1492 47.1064 67.0159 47.5758C67.0159 47.5758 67.0146 47.5758 67.0132 47.5758C67.0706 47.1931 67.0652 46.7984 67.0226 46.4158C67.0012 46.2398 66.9759 46.0625 66.9319 45.8891C66.8852 45.7091 66.7212 45.5878 66.5399 45.5851C66.3665 45.5824 66.1866 45.6144 66.0252 45.6824C65.8586 45.7518 65.7466 45.8584 65.6466 46.0051C65.4239 46.3331 65.6452 46.7558 65.8759 47.0144C66.0239 47.1811 66.1959 47.3104 66.3692 47.4504C66.3879 47.4664 66.4079 47.4824 66.4279 47.4971C66.2799 47.4184 66.1265 47.3491 65.9732 47.2891C65.6719 47.1705 65.3266 47.1264 65.0146 47.2318C64.8839 47.2758 64.7572 47.3518 64.6826 47.4718C64.6079 47.5944 64.5799 47.7598 64.5906 47.9024C64.6106 48.1918 64.8332 48.3851 65.0999 48.4651C65.4239 48.5651 65.7746 48.5131 66.0852 48.3891C66.1812 48.3491 66.2745 48.3038 66.3652 48.2531C66.2492 48.3584 66.1385 48.4705 66.0359 48.5905C65.9252 48.7185 65.8199 48.8531 65.7252 48.9958C65.6332 49.1371 65.5732 49.2851 65.5839 49.4558C65.6039 49.8038 65.8585 50.0385 66.1679 50.1571C66.4625 50.2705 66.8186 50.2504 67.0559 50.0251C67.3012 49.7944 67.2932 49.4358 67.2692 49.1251C67.2492 48.9078 67.2199 48.6864 67.1719 48.4718C67.1985 48.5304 67.2266 48.5878 67.2572 48.6451C67.4519 49.0144 67.7586 49.4198 68.1759 49.5464C68.8226 49.7411 69.2505 48.7358 68.8319 48.2971C68.6852 48.1424 68.4759 48.0358 68.2799 47.9571C68.0186 47.8491 67.7386 47.7944 67.4559 47.7878C67.7012 47.7464 67.9452 47.6998 68.1879 47.6451C68.5026 47.5744 68.8972 47.5051 69.0359 47.1691" fill="white"/>
<path d="M56.8664 49.7638C56.9704 49.4731 56.8011 49.1531 56.6251 48.9278C56.4825 48.7438 56.2851 48.5852 56.0491 48.5518C55.7931 48.5172 55.5451 48.6385 55.3691 48.8185C55.0118 49.1838 54.9798 49.7012 54.8478 50.1705C54.8465 50.1705 54.8451 50.1705 54.8438 50.1705C54.9011 49.7878 54.8958 49.3932 54.8531 49.0105C54.8318 48.8345 54.8064 48.6572 54.7624 48.4852C54.7171 48.3038 54.5531 48.1825 54.3704 48.1798C54.1971 48.1772 54.0171 48.2092 53.8558 48.2758C53.6891 48.3465 53.5771 48.4531 53.4771 48.5998C53.2545 48.9278 53.4758 49.3505 53.7065 49.6092C53.8558 49.7745 54.0264 49.9065 54.1998 50.0452C54.2184 50.0612 54.2385 50.0758 54.2598 50.0918C54.1105 50.0131 53.9571 49.9438 53.8038 49.8825C53.5024 49.7652 53.1571 49.7211 52.8451 49.8265C52.7145 49.8705 52.5878 49.9451 52.5131 50.0665C52.4385 50.1891 52.4105 50.3531 52.4211 50.4971C52.4411 50.7865 52.6651 50.9798 52.9304 51.0598C53.2544 51.1598 53.6065 51.1078 53.9158 50.9838C54.0118 50.9438 54.1064 50.8985 54.1958 50.8478C54.0798 50.9532 53.9691 51.0665 53.8664 51.1852C53.7558 51.3132 53.6505 51.4478 53.5558 51.5905C53.4651 51.7318 53.4038 51.8798 53.4145 52.0505C53.4345 52.3985 53.6891 52.6318 53.9984 52.7518C54.2931 52.8652 54.6491 52.8452 54.8865 52.6198C55.1318 52.3892 55.1238 52.0305 55.0998 51.7198C55.0798 51.5012 55.0518 51.2811 55.0024 51.0665C55.0291 51.1251 55.0571 51.1825 55.0878 51.2398C55.2825 51.6092 55.5891 52.0145 56.0065 52.1398C56.6531 52.3358 57.0811 51.3305 56.6638 50.8918C56.5158 50.7371 56.3065 50.6305 56.1105 50.5505C55.8491 50.4438 55.5691 50.3892 55.2865 50.3825C55.5331 50.3412 55.7758 50.2945 56.0185 50.2398C56.3331 50.1692 56.7278 50.0998 56.8664 49.7638" fill="white"/>
<path d="M45.7477 49.4894C45.8504 49.2001 45.681 48.8788 45.5063 48.6534C45.3637 48.4694 45.1663 48.3108 44.9303 48.2774C44.6743 48.2428 44.425 48.3641 44.249 48.5441C43.8917 48.9094 43.861 49.4267 43.7277 49.8961C43.7264 49.8961 43.725 49.8961 43.725 49.8961C43.7824 49.5134 43.777 49.1201 43.733 48.7361C43.7143 48.5601 43.6864 48.3814 43.6437 48.2108C43.597 48.0294 43.4344 47.9081 43.2517 47.9054C43.077 47.9027 42.897 47.9347 42.737 48.0014C42.5703 48.0721 42.4584 48.1787 42.3584 48.3254C42.1357 48.6547 42.3557 49.0761 42.5877 49.3347C42.7357 49.5001 42.9077 49.6307 43.0797 49.7707C43.0997 49.7867 43.1197 49.8014 43.1397 49.8174C42.9917 49.7388 42.8384 49.6694 42.6837 49.6094C42.3837 49.4908 42.0384 49.4468 41.725 49.5521C41.5957 49.5961 41.4677 49.6707 41.3944 49.7921C41.3184 49.9147 41.2903 50.0788 41.301 50.2228C41.3223 50.5121 41.5464 50.7054 41.8104 50.7868C42.1357 50.8854 42.4863 50.8334 42.797 50.7094C42.893 50.6694 42.9864 50.6241 43.077 50.5734C42.961 50.6801 42.8504 50.7921 42.7477 50.9094C42.6357 51.0388 42.5317 51.1748 42.4383 51.3161C42.345 51.4574 42.2837 51.6054 42.2944 51.7761C42.3157 52.1241 42.5704 52.3574 42.8797 52.4774C43.1744 52.5908 43.529 52.5708 43.7677 52.3454C44.0117 52.1148 44.005 51.7561 43.9797 51.4454C43.961 51.2268 43.933 51.0067 43.8837 50.7934C43.9104 50.8507 43.9397 50.9081 43.969 50.9654C44.1637 51.3347 44.469 51.7401 44.8877 51.8667C45.5344 52.0614 45.961 51.0561 45.545 50.6174C45.3957 50.4628 45.1877 50.3561 44.9917 50.2761C44.729 50.1694 44.449 50.1148 44.1677 50.1081C44.413 50.0668 44.657 50.0201 44.8997 49.9654C45.2157 49.8947 45.6077 49.8254 45.7477 49.4894" fill="white"/>
<path d="M36.4187 43.2505C36.5227 42.9612 36.3534 42.6399 36.1774 42.4145C36.0347 42.2305 35.8374 42.0719 35.6014 42.0385C35.3454 42.0039 35.0961 42.1252 34.9214 42.3039C34.5641 42.6705 34.532 43.1865 34.3987 43.6572C34.3987 43.6572 34.3974 43.6572 34.396 43.6572C34.4534 43.2732 34.448 42.8799 34.4054 42.4972C34.3854 42.3212 34.3587 42.1425 34.3147 41.9705C34.2694 41.7905 34.1054 41.6679 33.9227 41.6652C33.7494 41.6625 33.5694 41.6959 33.408 41.7625C33.2414 41.8319 33.1294 41.9385 33.0294 42.0865C32.8067 42.4145 33.0281 42.8372 33.2587 43.0959C33.4067 43.2612 33.5787 43.3919 33.7521 43.5319C33.7721 43.5479 33.7907 43.5625 33.8121 43.5772C33.6641 43.4999 33.5094 43.4305 33.3561 43.3692C33.0547 43.2519 32.7094 43.2079 32.3974 43.3132C32.2667 43.3572 32.14 43.4319 32.0654 43.5519C31.9907 43.6759 31.9627 43.8399 31.9734 43.9839C31.9947 44.2719 32.2174 44.4652 32.4827 44.5465C32.8067 44.6465 33.1587 44.5945 33.468 44.4705C33.564 44.4305 33.6574 44.3839 33.7481 44.3345C33.6321 44.4399 33.5214 44.5519 33.4187 44.6705C33.3081 44.7999 33.2027 44.9359 33.108 45.0772C33.0174 45.2172 32.956 45.3665 32.9667 45.5372C32.9867 45.8839 33.2414 46.1185 33.5521 46.2385C33.8454 46.3519 34.2014 46.3305 34.44 46.1065C34.684 45.8759 34.6761 45.5172 34.6521 45.2065C34.6321 44.9879 34.6041 44.7679 34.5547 44.5532C34.5814 44.6119 34.6094 44.6692 34.64 44.7265C34.8347 45.0958 35.1414 45.4998 35.5587 45.6278C36.2054 45.8225 36.6334 44.8172 36.2161 44.3785C36.0681 44.2239 35.8587 44.1172 35.664 44.0372C35.4014 43.9305 35.1214 43.8759 34.8387 43.8692C35.084 43.8279 35.3294 43.7812 35.5707 43.7265C35.8854 43.6558 36.2801 43.5852 36.4187 43.2505" fill="white"/>
<path d="M89.2995 34.1958C89.4035 33.9065 89.2342 33.5865 89.0582 33.3611C88.9169 33.1771 88.7196 33.0185 88.4822 32.9852C88.2276 32.9505 87.9782 33.0718 87.8022 33.2505C87.4449 33.6172 87.4129 34.1331 87.2809 34.6038C87.2796 34.6038 87.2782 34.6038 87.2769 34.6025C87.3342 34.2198 87.3302 33.8265 87.2862 33.4438C87.2662 33.2678 87.2395 33.0892 87.1955 32.9172C87.1502 32.7372 86.9876 32.6145 86.8036 32.6118C86.6302 32.6091 86.4502 32.6425 86.2902 32.7091C86.1236 32.7785 86.0116 32.8851 85.9116 33.0331C85.6876 33.3611 85.9089 33.7838 86.1396 34.0411C86.2889 34.2078 86.4595 34.3385 86.6329 34.4785C86.6529 34.4931 86.6716 34.5092 86.6929 34.5238C86.5449 34.4452 86.3902 34.3772 86.2369 34.3158C85.9369 34.1985 85.5902 34.1545 85.2782 34.2598C85.1476 34.3038 85.0209 34.3785 84.9462 34.4985C84.8716 34.6225 84.8436 34.7865 84.8542 34.9305C84.8756 35.2185 85.0995 35.4118 85.3635 35.4931C85.6875 35.5918 86.0396 35.5398 86.3489 35.4158C86.4449 35.3772 86.5395 35.3305 86.6289 35.2811C86.5129 35.3865 86.4035 35.4985 86.2995 35.6172C86.1889 35.7452 86.0836 35.8812 85.9916 36.0238C85.8982 36.1638 85.8369 36.3118 85.8476 36.4838C85.8676 36.8305 86.1222 37.0652 86.4329 37.1852C86.7262 37.2972 87.0822 37.2772 87.3209 37.0532C87.5649 36.8225 87.5569 36.4625 87.5329 36.1532C87.5129 35.9345 87.4849 35.7145 87.4369 35.4998C87.4636 35.5585 87.4916 35.6158 87.5209 35.6718C87.7169 36.0425 88.0222 36.4465 88.4409 36.5731C89.0876 36.7691 89.5142 35.7638 89.0982 35.3251C88.9489 35.1705 88.7396 35.0638 88.5449 34.9838C88.2822 34.8772 88.0022 34.8225 87.7209 34.8158C87.9662 34.7732 88.2102 34.7265 88.4516 34.6731C88.7676 34.6025 89.1622 34.5318 89.2995 34.1958" fill="white"/>
<path d="M85.3878 38.2146C85.5358 37.8026 85.2945 37.3465 85.0451 37.0252C84.8411 36.7639 84.5598 36.5372 84.2225 36.4906C83.8598 36.4399 83.5038 36.6119 83.2545 36.8679C82.7465 37.3892 82.7011 38.1265 82.5118 38.7959C82.5105 38.7959 82.5091 38.7959 82.5078 38.7945C82.5891 38.2492 82.5825 37.6879 82.5198 37.1426C82.4918 36.8919 82.4531 36.6385 82.3905 36.3932C82.3251 36.1359 82.0931 35.9625 81.8318 35.9585C81.5851 35.9559 81.3305 36.0012 81.1011 36.0972C80.8638 36.1972 80.7038 36.3479 80.5611 36.5585C80.2438 37.0252 80.5571 37.6279 80.8865 37.9945C81.0998 38.2319 81.3425 38.4172 81.5891 38.6159C81.6158 38.6386 81.6451 38.6599 81.6731 38.6826C81.4625 38.5706 81.2451 38.4719 81.0265 38.3852C80.5971 38.2172 80.1051 38.1546 79.6611 38.3039C79.4745 38.3679 79.2931 38.4746 79.1878 38.6466C79.0798 38.8226 79.0425 39.0559 79.0558 39.2599C79.0851 39.6719 79.4038 39.9465 79.7798 40.0625C80.2438 40.2039 80.7438 40.1292 81.1851 39.9532C81.3225 39.8959 81.4545 39.8305 81.5838 39.7599C81.4198 39.9105 81.2625 40.0706 81.1145 40.2399C80.9558 40.4226 80.8065 40.6146 80.6731 40.8172C80.5438 41.0186 80.4558 41.2292 80.4705 41.4719C80.4998 41.9666 80.8625 42.3012 81.3038 42.4706C81.7225 42.6319 82.2278 42.6026 82.5678 42.2826C82.9171 41.9546 82.9065 41.4426 82.8705 41.0012C82.8425 40.6906 82.8025 40.3772 82.7331 40.0719C82.7718 40.1546 82.8118 40.2372 82.8545 40.3172C83.1331 40.8439 83.5678 41.4199 84.1638 41.6012C85.0838 41.8786 85.6931 40.4466 85.0985 39.8226C84.8878 39.6026 84.5905 39.4506 84.3118 39.3359C83.9398 39.1839 83.5398 39.1052 83.1385 39.0972C83.4878 39.0372 83.8345 38.9705 84.1798 38.8932C84.6291 38.7932 85.1905 38.6932 85.3878 38.2146" fill="white"/>
<path d="M63.9956 48.1134C64.1423 47.7001 63.901 47.2441 63.653 46.9227C63.4477 46.6614 63.1676 46.4347 62.8303 46.3881C62.4676 46.3374 62.1116 46.5107 61.8623 46.7667C61.3543 47.2881 61.3076 48.0241 61.1183 48.6934C61.117 48.6934 61.1156 48.6934 61.1143 48.6921C61.197 48.1467 61.189 47.5867 61.1263 47.0414C61.0983 46.7894 61.061 46.5361 60.997 46.2921C60.933 46.0347 60.701 45.8601 60.441 45.8561C60.193 45.8534 59.937 45.9001 59.709 45.9947C59.4703 46.0947 59.3116 46.2454 59.1676 46.4561C58.8503 46.9241 59.165 47.5254 59.4956 47.8921C59.7063 48.1294 59.9503 48.3161 60.197 48.5147C60.2236 48.5374 60.253 48.5587 60.281 48.5801C60.0703 48.4681 59.8516 48.3694 59.633 48.2841C59.205 48.1161 58.713 48.0521 58.269 48.2027C58.081 48.2654 57.901 48.3721 57.7956 48.5441C57.6876 48.7201 57.649 48.9534 57.6636 49.1574C57.693 49.5694 58.0117 49.8454 58.3877 49.9601C58.8503 50.1014 59.3503 50.0267 59.793 49.8507C59.9303 49.7947 60.0623 49.7281 60.1917 49.6574C60.0263 49.8081 59.869 49.9667 59.7223 50.1361C59.5637 50.3201 59.4143 50.5134 59.281 50.7147C59.1503 50.9147 59.0636 51.1267 59.0783 51.3707C59.1076 51.8654 59.4703 52.1987 59.9116 52.3681C60.3303 52.5294 60.8356 52.5014 61.1756 52.1814C61.525 51.8521 61.5143 51.3401 61.4783 50.9001C61.4503 50.5881 61.4103 50.2747 61.3396 49.9694C61.3796 50.0521 61.4196 50.1334 61.4623 50.2147C61.7396 50.7414 62.1756 51.3187 62.7716 51.4987C63.6916 51.7761 64.301 50.3454 63.7063 49.7201C63.497 49.4987 63.1983 49.3481 62.9197 49.2347C62.5463 49.0814 62.1476 49.0041 61.7463 48.9947C62.0956 48.9361 62.4423 48.8681 62.7877 48.7921C63.237 48.6907 63.7983 48.5907 63.9956 48.1134" fill="white"/>
<path d="M52.261 49.1775C52.4077 48.7655 52.1663 48.3081 51.9183 47.9881C51.7143 47.7255 51.4343 47.4988 51.097 47.4521C50.733 47.4028 50.3783 47.5748 50.1277 47.8308C49.6197 48.3521 49.5743 49.0881 49.385 49.7575C49.385 49.7575 49.3823 49.7575 49.381 49.7575C49.4623 49.2121 49.4543 48.6508 49.393 48.1041C49.365 47.8534 49.3276 47.6015 49.265 47.3548C49.1983 47.0988 48.9663 46.9241 48.7063 46.9215C48.4583 46.9175 48.2023 46.9641 47.9743 47.0588C47.737 47.1588 47.577 47.3108 47.4343 47.5201C47.117 47.9881 47.4317 48.5895 47.761 48.9575C47.973 49.1935 48.217 49.3801 48.4623 49.5775C48.4903 49.6015 48.5183 49.6228 48.5476 49.6441C48.3356 49.5321 48.1183 49.4335 47.8983 49.3481C47.4703 49.1801 46.9783 49.1161 46.5343 49.2668C46.3476 49.3294 46.1663 49.4361 46.061 49.6081C45.953 49.7841 45.9156 50.0188 45.9303 50.2215C45.9583 50.6335 46.277 50.9095 46.6543 51.0241C47.1157 51.1655 47.617 51.0908 48.0583 50.9148C48.1957 50.8588 48.329 50.7935 48.457 50.7215C48.2917 50.8721 48.1357 51.0321 47.989 51.2014C47.8303 51.3841 47.6796 51.5761 47.5476 51.7788C47.4156 51.9801 47.3303 52.1908 47.3436 52.4348C47.373 52.9294 47.7356 53.2628 48.177 53.4334C48.597 53.5948 49.1023 53.5655 49.441 53.2455C49.7903 52.9161 49.7796 52.4054 49.7436 51.9641C49.717 51.6521 49.6756 51.3388 49.6076 51.0334C49.645 51.1161 49.685 51.1988 49.7277 51.2788C50.0063 51.8055 50.441 52.3828 51.0383 52.5628C51.957 52.8401 52.5663 51.4095 51.9716 50.7841C51.7623 50.5641 51.4637 50.4121 51.185 50.2988C50.8117 50.1468 50.413 50.0681 50.0116 50.0588C50.361 50.0001 50.709 49.9335 51.053 49.8548C51.5023 49.7548 52.0637 49.6561 52.261 49.1775" fill="white"/>
<path d="M41.9638 45.8733C42.1105 45.4613 41.8705 45.0039 41.6212 44.6839C41.4172 44.4213 41.1372 44.1946 40.7998 44.1479C40.4372 44.0986 40.0798 44.2706 39.8305 44.5266C39.3225 45.0466 39.2758 45.7839 39.0878 46.4533C39.0865 46.4533 39.0852 46.4533 39.0838 46.4533C39.1652 45.9079 39.1585 45.3466 39.0958 44.7999C39.0665 44.5492 39.0305 44.2973 38.9665 44.0506C38.9012 43.7946 38.6692 43.6199 38.4092 43.6173C38.1625 43.6133 37.9052 43.6586 37.6772 43.7546C37.4398 43.8546 37.2798 44.0066 37.1372 44.2159C36.8198 44.6839 37.1345 45.2853 37.4625 45.6533C37.6745 45.8893 37.9198 46.0759 38.1652 46.2746C38.1932 46.2973 38.2212 46.3186 38.2505 46.3399C38.0398 46.2279 37.8212 46.1293 37.6025 46.0439C37.1718 45.8759 36.6812 45.8119 36.2372 45.9626C36.0505 46.0252 35.8705 46.1319 35.7652 46.3039C35.6572 46.4799 35.6172 46.7133 35.6318 46.9173C35.6625 47.3293 35.9812 47.6053 36.3572 47.7199C36.8199 47.8613 37.3198 47.7866 37.7625 47.6106C37.8985 47.5546 38.0319 47.4893 38.1612 47.4173C37.9959 47.5679 37.8372 47.7279 37.6919 47.8972C37.5332 48.0799 37.3838 48.2719 37.2505 48.4759C37.1185 48.6759 37.0332 48.8866 37.0478 49.1306C37.0758 49.6252 37.4398 49.9586 37.8812 50.1292C38.2998 50.2906 38.8052 50.2613 39.1452 49.9413C39.4945 49.6119 39.4838 49.1012 39.4452 48.6586C39.4198 48.3479 39.3785 48.0346 39.3092 47.7292C39.3478 47.8119 39.3878 47.8946 39.4305 47.9746C39.7092 48.5013 40.1452 49.0786 40.7398 49.2586C41.6612 49.5359 42.2705 48.1053 41.6745 47.4799C41.4652 47.2599 41.1665 47.1079 40.8878 46.9946C40.5145 46.8426 40.1158 46.7639 39.7158 46.7546C40.0638 46.6959 40.4105 46.6293 40.7572 46.5519C41.2065 46.4506 41.7665 46.3519 41.9638 45.8733" fill="white"/>
<path d="M74.8491 43.8277C74.9971 43.4144 74.7557 42.9584 74.5064 42.6371C74.3024 42.3757 74.0224 42.1491 73.6851 42.1024C73.3224 42.0531 72.9651 42.2251 72.7171 42.4811C72.2077 43.0011 72.1624 43.7384 71.9731 44.4078C71.9717 44.4078 71.9704 44.4078 71.9691 44.4078C72.0517 43.8611 72.0437 43.3011 71.9811 42.7558C71.9517 42.5038 71.9157 42.2504 71.8517 42.0064C71.7864 41.7491 71.5544 41.5744 71.2944 41.5718C71.0478 41.5678 70.7904 41.6144 70.5624 41.7104C70.3251 41.8091 70.1651 41.9611 70.0224 42.1704C69.7051 42.6384 70.0197 43.2398 70.3491 43.6064C70.5597 43.8438 70.8051 44.0304 71.0517 44.2291C71.0784 44.2504 71.1077 44.2731 71.1357 44.2944C70.9251 44.1837 70.7064 44.0837 70.4878 43.9984C70.0571 43.8304 69.5664 43.7678 69.1224 43.9171C68.9358 43.9798 68.7557 44.0864 68.6504 44.2584C68.5424 44.4344 68.5024 44.6678 68.5171 44.8718C68.5477 45.2838 68.8664 45.5598 69.2424 45.6744C69.7051 45.8158 70.2051 45.7411 70.6477 45.5651C70.7837 45.5091 70.9171 45.4438 71.0464 45.3718C70.8811 45.5224 70.7224 45.6824 70.5771 45.8518C70.4184 46.0344 70.2691 46.2277 70.1357 46.4304C70.0037 46.6304 69.9184 46.8411 69.9331 47.0851C69.9611 47.5798 70.3251 47.9131 70.7664 48.0824C71.1851 48.2438 71.6904 48.2157 72.0304 47.8957C72.3797 47.5664 72.3691 47.0544 72.3317 46.6144C72.3051 46.3024 72.2651 45.9904 72.1944 45.6838C72.2331 45.7664 72.2744 45.8491 72.3157 45.9304C72.5944 46.4557 73.0304 47.0331 73.6251 47.2131C74.5464 47.4904 75.1558 46.0597 74.5598 45.4344C74.3504 45.2144 74.0517 45.0624 73.7744 44.9491C73.3997 44.7971 73.0011 44.7184 72.6011 44.7091C72.9491 44.6504 73.2957 44.5824 73.6424 44.5064C74.0917 44.4064 74.6517 44.3051 74.8491 43.8277" fill="white"/>
<path d="M119.661 38.0666C119.664 37.9959 119.638 37.9439 119.597 37.9092C119.2 37.1599 117.764 37.0132 117.044 36.8706C115.866 36.6386 114.673 36.4986 113.485 36.3426C113.289 36.3172 113.096 36.2852 112.9 36.2612C112.822 36.2506 112.685 36.1852 112.7 36.2199C112.534 36.0226 112.43 35.6039 112.34 35.3959C111.846 34.2479 111.373 33.0919 110.872 31.9479C110.617 31.3679 110.358 30.7892 110.084 30.2172C109.914 29.8666 109.718 29.2066 109.33 29.0359C108.462 28.6572 107.856 30.7986 107.624 31.3172C107.072 32.5519 106.556 33.8026 106.02 35.0452C105.906 35.3066 105.718 36.0559 105.484 36.2359C105.37 36.3212 104.558 36.2772 104.352 36.2946C103.825 36.3359 103.296 36.3772 102.768 36.4265C101.868 36.5119 100.952 36.5959 100.082 36.8532C99.5584 37.0092 98.6224 37.2599 98.7037 37.9866C98.7717 38.5812 99.685 39.1452 100.097 39.4719C100.8 40.0319 101.549 40.5346 102.329 40.9826C102.682 41.1852 103.136 41.3346 103.457 41.5786C103.877 41.8959 103.674 42.2292 103.561 42.6572C103.324 43.5612 103.081 44.4652 102.86 45.3746C102.68 46.1146 102.506 46.8586 102.392 47.6119C102.322 48.0706 102.148 48.7386 102.356 49.1812C102.901 50.3399 104.992 48.3119 105.497 47.9226C106.129 47.4346 106.75 46.9306 107.357 46.4092C107.654 46.1532 107.948 45.8932 108.237 45.6292C108.4 45.4799 108.816 44.9092 109.025 44.8759C109.366 44.8186 110.281 45.9292 110.558 46.1679C111.186 46.7066 111.832 47.2239 112.485 47.7319C113.377 48.4239 114.353 49.3492 115.532 49.4546C116.56 49.5466 116.069 47.9906 115.933 47.3759C115.608 45.9132 115.132 44.4826 114.697 43.0492C114.605 42.7412 114.484 42.4239 114.417 42.1079C114.345 41.7626 114.358 41.7852 114.65 41.6092C115.218 41.2666 115.908 41.0546 116.502 40.7546C117.457 40.2732 119.37 39.4052 119.638 38.2106C119.662 38.1706 119.672 38.1226 119.661 38.0666" fill="#F7B9E7"/>
<path d="M34.9809 99.0357C33.3649 98.893 31.7169 98.9117 30.0783 98.9304C30.5423 98.473 31.0036 98.0157 31.4636 97.5544C32.1822 96.8317 32.9969 96.1397 33.4662 95.2237C33.6769 94.8131 33.2569 94.4091 32.8503 94.6077C31.9289 95.0611 31.2196 95.8691 30.4849 96.5744C30.0063 97.0331 29.5343 97.4944 29.0609 97.9571C29.0663 97.2917 29.0702 96.6264 29.0689 95.9624C29.0662 94.9397 29.1529 93.873 28.8356 92.8917C28.6969 92.4597 28.1116 92.4704 27.9676 92.8917C27.6356 93.8664 27.7049 94.9397 27.6836 95.9624C27.6703 96.6224 27.6623 97.2837 27.6556 97.9437C27.1876 97.4717 26.7196 96.9984 26.2489 96.529C25.5263 95.8104 24.8329 94.9944 23.9196 94.5264C23.5076 94.3157 23.1036 94.7357 23.3036 95.1424C23.7569 96.0637 24.5636 96.7717 25.2702 97.5077C25.7276 97.9864 26.1889 98.4584 26.6516 98.9317C25.9876 98.9264 25.3223 98.9224 24.6569 98.925C23.6356 98.9264 22.5676 98.8397 21.5876 99.1571C21.1556 99.2957 21.1649 99.8797 21.5876 100.025C22.5609 100.357 23.6356 100.288 24.6569 100.309C25.3036 100.322 25.9489 100.329 26.5969 100.337C25.4022 101.464 24.2009 102.598 23.1342 103.825C22.5609 104.484 23.4236 105.33 24.0849 104.776C25.3169 103.744 26.4583 102.577 27.5943 101.417C27.5476 103.044 27.4996 104.678 27.6116 106.285C27.6729 107.156 28.8836 107.146 28.9583 106.285C29.0983 104.685 29.0809 103.052 29.0622 101.43C30.1796 102.612 31.3036 103.802 32.5196 104.858C33.1783 105.432 34.0262 104.569 33.4716 103.908C32.4383 102.676 31.2729 101.534 30.1116 100.4C31.7383 100.445 33.3743 100.492 34.9809 100.38C35.8489 100.32 35.8409 99.1104 34.9809 99.0357" fill="white"/>
<path d="M49.7131 13.7212C51.6384 13.7212 51.6411 10.7292 49.7131 10.7292C47.7864 10.7292 47.7824 13.7212 49.7131 13.7212Z" fill="white"/>
<path d="M68.1329 18.0065C68.2235 17.9612 68.3169 17.9158 68.4076 17.8705C69.1889 17.4825 69.1889 16.1905 68.4076 15.8025C68.3169 15.7572 68.2235 15.7118 68.1329 15.6665C67.6902 15.4465 67.2049 15.4091 66.7649 15.6665C66.3529 15.9078 66.0942 16.3585 66.0942 16.8372C66.0942 17.3145 66.3529 17.7665 66.7649 18.0065C67.2049 18.2652 67.6902 18.2265 68.1329 18.0065Z" fill="white"/>
<path d="M91.1958 17.4706C91.2504 17.5546 91.3038 17.6426 91.3611 17.7253C91.5291 17.9693 91.7318 18.1546 92.0011 18.276C92.2678 18.3946 92.5038 18.464 92.8011 18.4253C93.0651 18.3893 93.3371 18.2813 93.5225 18.0786C93.6691 17.9186 93.7784 17.732 93.8451 17.5253C93.9531 17.1906 93.8544 16.8613 93.7184 16.5573C93.5984 16.2867 93.4211 16.088 93.1678 15.9173C93.0851 15.8613 92.9984 15.808 92.9144 15.7533C92.4651 15.464 91.7545 15.5546 91.3918 15.9493C91.0265 16.3493 90.8851 16.9906 91.1958 17.4706" fill="white"/>
<path d="M111.565 64.7426C111.66 64.6999 111.752 64.6559 111.844 64.6132C112.316 64.3959 112.595 63.7999 112.595 63.3066C112.595 62.8132 112.316 62.2172 111.844 61.9999C111.752 61.9572 111.66 61.9132 111.565 61.8706C111.307 61.7199 111.027 61.6452 110.727 61.6439C110.427 61.6452 110.147 61.7199 109.887 61.8706C109.383 62.1666 109.062 62.7199 109.062 63.3066C109.062 63.8932 109.383 64.4466 109.887 64.7426C110.147 64.8932 110.427 64.9679 110.727 64.9692C111.027 64.9679 111.307 64.8932 111.565 64.7426Z" fill="white"/>
<path d="M119.949 90.7397C121.929 90.7397 121.932 87.6637 119.949 87.6637C117.97 87.6637 117.966 90.7397 119.949 90.7397Z" fill="white"/>
<path d="M105.548 111.365C105.955 111.365 106.383 111.188 106.671 110.9C106.945 110.624 107.155 110.172 107.136 109.776C107.097 108.916 106.439 108.188 105.548 108.188C105.14 108.188 104.713 108.365 104.424 108.653C104.149 108.929 103.941 109.38 103.959 109.776C103.997 110.637 104.657 111.365 105.548 111.365" fill="white"/>
<path d="M66.1825 127.312C66.3598 127.108 66.5478 126.909 66.6678 126.668C67.0024 126.001 66.9851 125.181 66.4318 124.628C65.8758 124.072 65.0638 124.059 64.3918 124.392C64.1518 124.511 63.9505 124.701 63.7491 124.879C63.4305 125.156 63.2451 125.684 63.2451 126.095C63.2451 126.516 63.4331 127.02 63.7491 127.312C64.0771 127.612 64.5064 127.836 64.9664 127.816C65.4038 127.796 65.8851 127.655 66.1825 127.312" fill="white"/>
<path d="M39.7799 112.867C40.2092 112.867 40.6599 112.68 40.9612 112.377C41.2519 112.088 41.4692 111.612 41.4506 111.196C41.4106 110.289 40.7172 109.524 39.7799 109.524C39.3519 109.524 38.9012 109.712 38.5986 110.013C38.3092 110.304 38.0906 110.779 38.1079 111.196C38.1492 112.101 38.8426 112.867 39.7799 112.867Z" fill="white"/>
<path d="M13.141 85.876C13.1383 85.876 13.137 85.876 13.1357 85.876C13.2863 85.896 13.4383 85.916 13.589 85.936C13.5863 85.936 13.5837 85.936 13.5823 85.936C13.7157 85.992 13.849 86.0466 13.9837 86.104C13.6543 85.9533 13.5063 85.8746 13.1357 85.876C12.8303 85.876 12.529 85.9586 12.2663 86.112C11.3077 86.6733 11.1223 88.0453 11.9143 88.8346C12.7063 89.6266 14.0757 89.444 14.6383 88.4853C14.9503 87.9493 14.9503 87.2693 14.6383 86.7346C14.321 86.192 13.7583 85.8973 13.141 85.876" fill="white"/>
<path d="M26.2997 67.7158C28.3224 67.7158 28.3264 64.5731 26.2997 64.5731C24.2771 64.5731 24.2744 67.7158 26.2997 67.7158Z" fill="white"/>
<path d="M12.0307 47.0318C12.0494 47.0291 12.0667 47.0252 12.0854 47.0225C12.3801 46.9398 12.6347 46.7918 12.8507 46.5758C13.0667 46.3598 13.2161 46.1038 13.2974 45.8105C13.3041 45.7931 13.3107 45.7758 13.3161 45.7585C13.5121 45.1931 13.2854 44.5051 12.8774 44.0958C12.4667 43.6865 11.7774 43.4598 11.2134 43.6558C11.1961 43.6612 11.1787 43.6678 11.1627 43.6731C10.8681 43.7558 10.6121 43.9052 10.3947 44.1212C10.1801 44.3372 10.0321 44.5932 9.94807 44.8865C9.9454 44.9052 9.94273 44.9225 9.94139 44.9411C9.85873 45.2411 9.85873 45.5438 9.94139 45.8451C10.0214 46.1318 10.1654 46.3825 10.3774 46.5945C10.5894 46.8051 10.8387 46.9505 11.1267 47.0318C11.4294 47.1118 11.7294 47.1118 12.0307 47.0318" fill="white"/>
<path d="M35.6772 32.0278C35.7465 32.0144 35.8172 31.9998 35.8852 31.9865C37.1865 31.7238 37.1865 29.6198 35.8852 29.3558C35.8172 29.3425 35.7465 29.3278 35.6772 29.3145C33.4092 28.8558 33.3945 32.4891 35.6772 32.0278Z" fill="white"/>
<path d="M13.885 66.9678C16.313 66.9678 16.317 63.1931 13.885 63.1931C11.4557 63.1931 11.4517 66.9678 13.885 66.9678Z" fill="#FFF896"/>
<path d="M106.114 83.5908C106.586 83.5908 107.081 83.3855 107.414 83.0521C107.732 82.7335 107.973 82.2108 107.952 81.7535C107.932 81.2775 107.774 80.7841 107.414 80.4535C107.054 80.1241 106.612 79.9148 106.114 79.9148C105.644 79.9148 105.149 80.1201 104.816 80.4535C104.497 80.7721 104.257 81.2948 104.277 81.7535C104.298 82.2281 104.454 82.7201 104.816 83.0521C105.174 83.3815 105.617 83.5908 106.114 83.5908Z" fill="#FFF896"/>
<path d="M124.775 48.1172C125.245 48.1172 125.74 47.9118 126.073 47.5785C126.391 47.2598 126.632 46.7372 126.611 46.2799C126.591 45.8039 126.435 45.3119 126.073 44.9799C125.715 44.6505 125.272 44.4425 124.775 44.4425C124.303 44.4425 123.808 44.6465 123.475 44.9799C123.156 45.2985 122.916 45.8225 122.937 46.2799C122.957 46.7545 123.113 47.2478 123.475 47.5785C123.833 47.9078 124.276 48.1172 124.775 48.1172Z" fill="#FFF896"/>
<path d="M76.3173 11.7346C78.4253 11.7346 78.4293 8.45994 76.3173 8.45994C74.2107 8.45994 74.2067 11.7346 76.3173 11.7346Z" fill="#FFF896"/>
<path d="M85.0519 125.861C85.5039 125.861 85.9786 125.664 86.2986 125.344C86.6039 125.04 86.8333 124.539 86.8146 124.1C86.7933 123.644 86.6439 123.171 86.2986 122.853C85.9533 122.537 85.5306 122.337 85.0519 122.337C84.6013 122.337 84.1266 122.535 83.8066 122.853C83.5013 123.159 83.2719 123.66 83.2906 124.1C83.3119 124.553 83.4613 125.027 83.8066 125.344C84.1519 125.66 84.5759 125.861 85.0519 125.861Z" fill="#FFF896"/>
<path d="M45.8105 124.334C48.1105 124.334 48.1145 120.76 45.8105 120.76C43.5092 120.76 43.5052 124.334 45.8105 124.334Z" fill="#FFF896"/>
</svg>
